<svg width="1.2em" height="1.2em" viewBox="0 0 17 16" fill="currentColor" xmlns="http://www.w3.org/2000/svg">
<path d="M0.046875 15.5V5.5L6.71354 0.5L11.7135 4.25C11.4358 4.25 11.158 4.28125 10.8802 4.34375C10.6024 4.40625 10.3455 4.49306 10.1094 4.60417L6.71354 2.0625L1.29688 6.125V14.25H5.46354V15.5H0.046875ZM6.71354 15.5V13.9167C6.71354 13.625 6.78646 13.3507 6.93229 13.0938C7.07813 12.8368 7.27604 12.6319 7.52604 12.4792C8.16493 12.1042 8.83507 11.8194 9.53646 11.625C10.2378 11.4306 10.9635 11.3333 11.7135 11.3333C12.4635 11.3333 13.1892 11.4306 13.8906 11.625C14.592 11.8194 15.2622 12.1042 15.901 12.4792C16.151 12.6319 16.349 12.8368 16.4948 13.0938C16.6406 13.3507 16.7135 13.625 16.7135 13.9167V15.5H6.71354ZM7.96354 14.25H15.4635V13.6458C14.8802 13.3125 14.2744 13.0521 13.6463 12.8646C13.0182 12.6771 12.374 12.5833 11.7135 12.5833C11.0531 12.5833 10.4089 12.6806 9.78083 12.875C9.15264 13.0694 8.54688 13.3333 7.96354 13.6667V14.25ZM11.7135 10.5C11.0191 10.5 10.4288 10.2569 9.94271 9.77083C9.4566 9.28472 9.21354 8.69444 9.21354 8C9.21354 7.30556 9.4566 6.71528 9.94271 6.22917C10.4288 5.74306 11.0191 5.5 11.7135 5.5C12.408 5.5 12.9983 5.74306 13.4844 6.22917C13.9705 6.71528 14.2135 7.30556 14.2135 8C14.2135 8.69444 13.9705 9.28472 13.4844 9.77083C12.9983 10.2569 12.408 10.5 11.7135 10.5ZM11.7135 9.25C12.0677 9.25 12.3646 9.13021 12.6042 8.89062C12.8438 8.65104 12.9635 8.35417 12.9635 8C12.9635 7.64583 12.8438 7.34896 12.6042 7.10938C12.3646 6.86979 12.0677 6.75 11.7135 6.75C11.3594 6.75 11.0625 6.86979 10.8229 7.10938C10.5833 7.34896 10.4635 7.64583 10.4635 8C10.4635 8.35417 10.5833 8.65104 10.8229 8.89062C11.0625 9.13021 11.3594 9.25 11.7135 9.25Z"></path>
</svg>