<svg width="20" height="20" viewBox="0 0 20 20" fill="currentColor" xmlns="http://www.w3.org/2000/svg">
<path d="M15.9712 7.2085C15.1988 7.2085 14.5245 6.96544 13.9481 6.47933C13.3717 5.99322 13.0071 5.38211 12.8543 4.646H7.12516C7.00016 5.271 6.71197 5.80919 6.26058 6.26058C5.80919 6.71197 5.271 7.00016 4.646 7.12516V12.8543C5.38211 13.0071 5.99322 13.371 6.47933 13.946C6.96544 14.5211 7.2085 15.1989 7.2085 15.9793C7.2085 16.8682 6.89641 17.6217 6.27225 18.2397C5.64794 18.8578 4.89752 19.1668 4.021 19.1668C3.13211 19.1668 2.37863 18.8578 1.76058 18.2397C1.14252 17.6217 0.833496 16.8655 0.833496 15.9712C0.833496 15.1988 1.07655 14.5245 1.56266 13.9481C2.04877 13.3717 2.65988 13.0071 3.396 12.8543V7.12516C2.65988 6.97238 2.04877 6.61127 1.56266 6.04183C1.07655 5.47238 0.833496 4.79183 0.833496 4.00016C0.833496 3.12933 1.14357 2.38384 1.7637 1.7637C2.38384 1.14357 3.12933 0.833496 4.00016 0.833496C4.79183 0.833496 5.47238 1.07655 6.04183 1.56266C6.61127 2.04877 6.97238 2.65988 7.12516 3.396H12.8543C13.0071 2.65988 13.371 2.04877 13.946 1.56266C14.5211 1.07655 15.1989 0.833496 15.9793 0.833496C16.8682 0.833496 17.6217 1.14252 18.2397 1.76058C18.8578 2.37863 19.1668 3.12863 19.1668 4.01058C19.1668 4.89252 18.8578 5.646 18.2397 6.271C17.6217 6.896 16.8655 7.2085 15.9712 7.2085ZM3.99412 17.9168C4.5344 17.9168 4.99683 17.7293 5.38141 17.3543C5.76613 16.9793 5.9585 16.53 5.9585 16.0062C5.9585 15.4659 5.76613 15.0035 5.38141 14.6189C4.99683 14.2342 4.5344 14.0418 3.99412 14.0418C3.47037 14.0418 3.021 14.2342 2.646 14.6189C2.271 15.0035 2.0835 15.4659 2.0835 16.0062C2.0835 16.53 2.271 16.9793 2.646 17.3543C3.021 17.7293 3.47037 17.9168 3.99412 17.9168ZM3.99412 5.9585C4.5344 5.9585 4.99683 5.76676 5.38141 5.38329C5.76613 4.99982 5.9585 4.53877 5.9585 4.00016C5.9585 3.47308 5.76613 3.0219 5.38141 2.64662C4.99683 2.2712 4.5344 2.0835 3.99412 2.0835C3.47037 2.0835 3.021 2.2712 2.646 2.64662C2.271 3.0219 2.0835 3.47308 2.0835 4.00016C2.0835 4.53877 2.271 4.99982 2.646 5.38329C3.021 5.76676 3.47037 5.9585 3.99412 5.9585ZM16.0002 19.1668C15.1178 19.1668 14.3625 18.8568 13.7343 18.2366C13.106 17.6165 12.7918 16.871 12.7918 16.0002C12.7918 15.1179 13.1052 14.3627 13.732 13.7343C14.3588 13.106 15.1123 12.7918 15.9925 12.7918C16.8726 12.7918 17.6217 13.1052 18.2397 13.732C18.8578 14.3588 19.1668 15.1123 19.1668 15.9925C19.1668 16.8726 18.8568 17.6217 18.2366 18.2397C17.6165 18.8578 16.871 19.1668 16.0002 19.1668ZM16.0002 17.9168C16.5272 17.9168 16.9784 17.7293 17.3537 17.3543C17.7291 16.9793 17.9168 16.53 17.9168 16.0062C17.9168 15.4659 17.7291 15.0035 17.3537 14.6189C16.9784 14.2342 16.5272 14.0418 16.0002 14.0418C15.4616 14.0418 15.0005 14.2342 14.617 14.6189C14.2336 15.0035 14.0418 15.4659 14.0418 16.0062C14.0418 16.53 14.2336 16.9793 14.617 17.3543C15.0005 17.7293 15.4616 17.9168 16.0002 17.9168ZM16.0002 5.9585C16.5272 5.9585 16.9784 5.76676 17.3537 5.38329C17.7291 4.99982 17.9168 4.53877 17.9168 4.00016C17.9168 3.47308 17.7291 3.0219 17.3537 2.64662C16.9784 2.2712 16.5272 2.0835 16.0002 2.0835C15.4616 2.0835 15.0005 2.2712 14.617 2.64662C14.2336 3.0219 14.0418 3.47308 14.0418 4.00016C14.0418 4.53877 14.2336 4.99982 14.617 5.38329C15.0005 5.76676 15.4616 5.9585 16.0002 5.9585Z"></path>
</svg>