<?xml version="1.0" encoding="UTF-8"?>
<svg id="Camada_1" xmlns="http://www.w3.org/2000/svg" viewBox="0 0 256 256">
  <defs>
    <style>
      .cls-1 {
        fill: #d9a421;
      }

      .cls-2 {
        fill: #073721;
      }
    </style>
  </defs>
  <rect class="cls-2" x="-18.4" y="-9.21" width="290.04" height="275.74"/>
  <g>
    <path class="cls-1" d="M221.12,202.47l-1.84-5.73c-1.37,3.75-6.56,4.73-10.16,4.94-1.35.09-25.5.09-41.76.08l1.49,4.15h53.55l-1.26-3.37-.03-.07Z"/>
    <path class="cls-1" d="M202.05,125.81c1.84.67,2.2,2.43,2.2,2.43h2.32v-9.74h-2.32s-.36,1.77-2.2,2.43c-.42.16-.87.22-1.31.22h-48.03V55.27h56.69c3.52.22,8.6,1.25,9.94,5.16l1.8-5.94,1.26-3.59h-87.59v2.28s2.76-.6,2.76,2.76l.03-.34v71.04l15.11,34.25v-35.3h48.03c.45,0,.9.06,1.31.22Z"/>
    <path class="cls-1" d="M137.6,171.5l-6.76-18.38-37.88-103.03h-5.85l-50.05,149.85c-1.21,3.14-3.46,3.66-3.46,3.66v2.31h10.16v-1.86s-1.76.06-1.76-2.49l44.19-134.15,46.71,133.95c.2.55.2,1.17-.06,1.7-.5,1.04-1.47,1-1.47,1v1.86h18.4l-12.17-33.95v-.47Z"/>
  </g>
</svg>