<?xml version="1.0" encoding="UTF-8"?>
<svg id="Camada_1" data-name="Camada 1" xmlns="http://www.w3.org/2000/svg" viewBox="0 0 256 256">
  <defs>
    <style>
      .cls-1 {
        fill: #444;
      }

      .cls-1, .cls-2 {
        stroke-width: 0px;
      }

      .cls-2 {
        fill: #fff;
      }
    </style>
  </defs>
  <rect class="cls-1" x="-18.4" y="-9.21" width="290.04" height="275.74"/>
  <g>
    <path class="cls-2" d="M215.81,166.6c.75.75,1.6,1.38,2.21,1.91-5.28,5.36-10.18,10.33-15.12,15.35-.33-.31-.82-.72-1.26-1.16-13.88-13.86-27.74-27.74-41.62-41.59-3.7-3.69-5.85-7.97-5.75-13.3.08-4.21,1.45-7.88,4.2-11.04.83-.96,1.75-1.84,2.65-2.75,13.19-13.19,26.4-26.38,39.57-39.59.74-.74,1.26-1.71,1.99-2.73,5.52,5.36,10.52,10.22,15.49,15.04-.47,1.35-1.49,1.99-2.29,2.79-11.23,11.25-22.49,22.49-33.74,33.73-.6.6-1.23,1.17-1.78,1.81-1.76,2.02-1.76,3.95-.02,5.94.56.64,1.18,1.21,1.78,1.82,11.23,11.26,22.46,22.52,33.7,33.77Z"/>
    <path class="cls-2" d="M184.25,203c-4.57,4.71-9.15,9.41-13.71,14.14-.76.79-1.37.83-2.08-.01-.48-.56-1.04-1.05-1.57-1.58-11.34-11.32-22.67-22.65-34.01-33.97-.53-.52-1.02-1.09-1.58-1.57-1.83-1.55-3.94-1.57-5.75-.04-.65.54-1.22,1.18-1.82,1.78-11.26,11.25-22.51,22.51-33.78,33.75-.81.81-1.49,1.79-2.36,2.2-5.05-5.04-9.99-9.96-15-14.97.34-.38.81-.93,1.32-1.45,13.88-13.88,27.79-27.74,41.65-41.64,5.12-5.14,11.15-6.67,18.08-4.79,2.62.71,4.86,2.14,6.76,4.04,14.42,14.39,28.82,28.8,43.23,43.21.22.22.37.51.64.9Z"/>
    <path class="cls-2" d="M97.85,139.65c-2.4,2.54-4.91,4.99-7.38,7.47-11.4,11.4-22.82,22.8-34.22,34.2-.53.52-1.09,1.02-1.58,1.57-.69.78-1.32.88-2.12.1-4.7-4.59-9.44-9.15-14.7-14.24,1.11-.81,2.16-1.4,2.98-2.21,11.2-11.16,22.36-22.35,33.54-33.54.75-.75,1.54-1.47,2.21-2.29,1.51-1.85,1.49-3.62-.02-5.47-.54-.66-1.17-1.23-1.77-1.83-11.33-11.33-22.65-22.67-33.99-33.98-.75-.75-1.67-1.32-2.55-2.01,5.46-5.41,10.35-10.26,15.36-15.23.57.04.97.74,1.47,1.24,13.73,13.73,27.44,27.48,41.19,41.19,3.34,3.32,5.73,7.03,6.05,11.89.33,5.02-.98,9.45-4.46,13.14Z"/>
    <path class="cls-2" d="M184.06,53.38c-.34.85-1.25,1.46-1.98,2.19-13.56,13.58-27.28,27.01-40.63,40.79-7.38,7.61-19.09,7.49-26.29.07-13.36-13.77-27.09-27.19-40.66-40.76-.67-.67-1.31-1.37-2.21-2.31,4.97-5.12,9.76-10.05,14.65-15.1,1.19.47,1.85,1.46,2.63,2.24,11.34,11.3,22.66,22.62,33.99,33.93.68.68,1.31,1.4,2.06,1.99,1.61,1.27,3.64,1.27,5.27,0,.66-.52,1.23-1.16,1.83-1.76,11.32-11.32,22.64-22.64,33.97-33.95.82-.81,1.52-1.77,2.4-2.23,5,4.98,9.95,9.91,14.96,14.9Z"/>
  </g>
</svg>