<?xml version="1.0" encoding="UTF-8"?>
<svg id="Camada_2" data-name="Camada 2" xmlns="http://www.w3.org/2000/svg" viewBox="0 0 4034.44 660.5">
  <defs>
    <style>
      .cls-1 {
        fill: #fff;
        stroke-width: 0px;
      }
    </style>
  </defs>
  <g id="Camada_1-2" data-name="Camada 1">
    <g>
      <path class="cls-1" d="M4034.43,524.24c-.18,2.12-1.35,4.55-4.38,4.57-5.87.04-11.75.38-17.59.05-37.85-2.1-75.7-1.9-113.56-.06-5.84.28-11.72.07-17.59-.01-2.84-.05-4.39-1.98-4.35-4.48.05-2.5,1.55-4.37,4.51-4.27.79.02,1.57.08,2.35-.02,16.8-2.29,19.94-8.09,10.88-22.39-22.34-35.23-45.06-70.24-67.79-105.23-6.13-9.42-11.46-19.42-19.71-29.29-6.97,9.85-13.66,19.12-20.18,28.52-14.44,20.81-28.93,41.58-43.11,62.57-6.36,9.41-10.94,19.78-13.9,30.81-5.19,19.42,2.16,31.21,21.75,34.65,1.54.27,3.11.36,4.66.38,3.35.02,6.64.22,6.17,4.82-.45,4.44-4.04,4.1-7.12,3.99-8.96-.31-17.91-1.17-26.87-1.08-30.08.29-60.17-1.38-90.23,1.07-3.5.29-7.03.09-10.55-.05-2.65-.11-4.37-1.47-4.45-4.32-.09-2.88,1.47-4.11,4.23-4.4,20.8-2.23,37.06-13.8,52.63-26.27,18.67-14.94,34.21-32.99,48.4-52.16,21.33-28.83,42.33-57.9,63.89-86.53,4.19-5.57,4.34-9.28.55-15.12-33.52-51.68-66.63-103.61-100.03-155.36-6.56-10.16-14-19.71-22.99-27.97-9.73-8.94-20.84-14.96-34.05-16.8-1.54-.21-3.16-.04-4.65-.41-2.69-.68-3.63-2.65-3.27-5.33.33-2.48,2.11-3.04,4.19-3.03,8.19.02,16.41-.15,24.6.22,13.2.6,26.36,2.61,39.63,1.7,23.37-1.6,46.77-2.05,70.17-1.87,3.77.02,9.96-2.58,10.65,3.56.74,6.63-5.43,4.66-9.4,5.15-12.73,1.58-16.56,7.89-10.2,19.07,8.09,14.21,17.29,27.8,26.21,41.54,18.27,28.12,36.68,56.16,55.06,84.21,1.27,1.92,2.04,4.3,5.95,5.88,20.5-30.3,43.27-59.09,62.11-90.57,5.22-8.73,9.03-18.16,11.06-28.19,3.61-17.92-3.8-28.7-21.81-31.82-2.69-.46-5.39-.9-8.09-1.24-2.55-.32-3-1.97-2.93-4.11.07-2.35,1.21-3.52,3.59-3.54,7.82-.07,15.73-.93,23.44-.07,11.65,1.31,23.34.66,35.02,1.91,15.91,1.7,31.88-1.37,47.86-1.58,7.8-.09,15.61-.21,23.41-.28,2.88-.02,5.53.21,5.41,4.25-.08,2.99-1.88,4.18-4.38,4.47-25.96,3.1-44.74,18.81-62.98,35.55-27.55,25.3-47.69,56.56-69.86,86.19-9.57,12.79-18.64,25.95-28.39,38.59-3.94,5.12-4.19,8.93-.55,14.49,34.14,52.22,67.98,104.63,101.91,156.99,6.6,10.18,13.97,19.65,22.73,28.13,12.25,11.85,26.63,18.76,43.59,20.29,1.56.14,3.13.07,4.67.28,2.28.31,3.81,2.27,3.67,3.96Z"/>
      <path class="cls-1" d="M3477.04,519.45c-1.53-.28-3.09-.49-4.65-.59-14.4-.86-27.29-6.11-39.51-13.41-13.84-8.27-26.16-18.49-37.45-29.88-49.51-49.96-87.76-108.53-127.8-166.37,3.24-4.38,7.15-5.57,10.3-7.79,24.03-16.94,42.02-38.41,50.2-67.08,13.79-48.34-8.71-87.81-57.22-100.75-3.02-.8-6.08-1.42-9.13-2.03-20.9-4.14-42.01-3.92-63.07-2.37-27.7,2.04-55.37,3.47-83.14,2.03-9.75-.5-19.52-.88-29.28-1.29-2.34-.09-4.68-.15-7.03-.11-3.03.06-6.97-.75-7.36,3.63-.4,4.52,3.45,4.31,6.57,4.46,4.3.21,8.61.22,12.89.67,5.04.53,10.08,1.15,15.03,2.22,11.01,2.38,17.7,9.1,20.01,20.29,1.53,7.36,1.54,14.74,1.55,22.15.04,96.82.04,193.63,0,290.46,0,5.84-.03,11.75-.75,17.53-1.87,14.87-8.57,22.26-23.2,25.62-4.92,1.13-10.05,1.35-15.08,1.85-4.67.46-9.35.7-14.03,1.1-2.17.18-3.67,1.15-3.59,3.6.08,2.28,1.31,3.65,3.57,3.71,5.07.14,10.16.35,15.23.12,38.29-1.8,76.56-1.87,114.84,0,4.68.23,9.38.01,14.07.07,2.99.02,5.72-.5,5.66-4.19-.06-3.1-2.59-3.36-5.04-3.47-5.07-.26-10.14-.55-15.21-.86-26.33-1.61-34.55-9.1-34.86-35.07-.61-50.36-.33-100.72-.3-151.09.01-7.77.3-7.91,7.89-7.32,16.06,1.26,32.12,1.37,47.79-2.45,6.04-1.48,8.4.74,11.15,5.08,7.52,11.87,15.22,23.61,23.05,35.28,28.06,41.83,56.27,83.55,88.87,122.09,9.85,11.63,19.98,22.98,31.7,32.84,7.49,6.29,15.56,9.57,25.66,9.33,21.48-.52,42.98-.16,64.48-.16,2.35,0,4.69,0,7.03-.09,2.36-.11,3.45-1.64,3.57-3.77.12-2.27-1.26-3.58-3.42-3.99ZM3243.98,305.69c-15.43,4.52-31.33,5.18-47.25,4.32-6.61-.35-13.23-.42-19.85-.92-6.48-.47-7.56-3.12-7.5-8.71.21-22.23.08-44.46.08-70.66.55-17.85-.79-39.68.63-61.51.29-4.35,1.16-8.53,2.41-12.55,2.02-6.53,5.84-11.95,12.76-14.17,20.45-6.56,62.77-4.81,82.38,18.74,8.22,9.87,13.54,21.07,16.28,33.24,5.02,22.24,5.23,44.75.76,67.19-4.59,23.07-17.98,38.36-40.7,45.01Z"/>
      <path class="cls-1" d="M656.33,486.29c-15.19,14.65-30.18,29.52-44.87,44.66-4.37,4.51-6.76,4.25-11.13-.14-51.83-52.06-104.12-103.67-155.75-155.93-26.24-26.55-25.76-64.54.73-91.23,51.2-51.59,102.79-102.8,154.24-154.13,1.87-1.85,3.3-4.47,6.94-4.8,1.19,1.02,2.69,2.21,4.05,3.53,15.46,14.94,30.71,30.08,46.42,44.74,4.8,4.48,3.86,6.98-.28,11.07-32.5,32.16-64.81,64.51-97.17,96.8-11.62,11.6-23.31,23.12-34.82,34.81-10.53,10.69-10.56,17.08.01,27.69,42.48,42.63,85.03,85.19,127.55,127.77,1.38,1.38,2.62,2.97,4.18,4.11,5.25,3.81,4.23,6.88-.11,11.06Z"/>
      <path class="cls-1" d="M533.14,608.84c-17.02,17.14-33.8,34.49-50.56,51.65-4.52-2.3-7.11-5.82-10.13-8.83-41.76-41.61-83.47-83.27-125.21-124.91-2.21-2.21-4.3-4.57-6.73-6.51-6.85-5.52-13.34-5.53-20.15,0-2.71,2.21-5.07,4.85-7.56,7.34-42.28,42.21-84.53,84.42-126.82,126.63-6.6,6.58-5.49,7.97-13.34.11-14.33-14.37-28.73-28.68-43.05-43.07-5.93-5.96-5.97-6.15-.41-11.71,51.92-51.88,103.68-103.92,155.92-155.49,26.04-25.72,64.41-25.76,90.4-.09,52.22,51.57,103.95,103.65,155.89,155.51,2.75,2.75,6.2,4.92,1.75,9.39Z"/>
      <path class="cls-1" d="M215.02,375.18c-52.28,52.67-104.97,104.95-157.51,157.38-.54.54-1.23.94-3.13,2.36-17.41-16.82-34.47-33.38-51.67-49.82-3.13-3-3.97-5.48-.26-8.57,2.09-1.75,3.88-3.85,5.81-5.77,41.71-41.71,83.44-83.41,125.14-125.13,2.48-2.49,5.14-4.87,7.19-7.68,3.96-5.42,3.91-12.01-.08-17.42-2.07-2.81-4.71-5.21-7.18-7.69-41.44-41.43-82.9-82.84-124.35-124.24-1.66-1.65-3.16-3.53-5.01-4.93-5.24-3.93-3.96-6.98.27-11.09,15.14-14.68,30.12-29.55,44.73-44.76,4.51-4.69,7.01-3.88,11.16.28,51.52,51.77,103.46,103.15,154.77,155.12,27.06,27.42,26.98,64.89.12,91.96Z"/>
      <path class="cls-1" d="M2433.31,249.23c-23.25-53.39-65.22-86.41-118.85-105.97-31.97-11.67-65.17-15.23-99.09-14.46-31.24.72-62.39,4.27-93.69,2.97-16.01-.65-32.02-1.3-48.03-1.94-2.72-.11-5.47-.15-8.2-.07-2.75.08-4.42,1.57-4.23,4.37.15,2.12,1.56,3.5,3.8,3.64,4.68.29,9.37.54,14.05.76,28.47,1.3,37.09,9.68,37.15,37.94.19,101.11.07,202.22.12,303.32,0,6.29-.77,12.45-2.24,18.54-2.19,9.15-7.82,14.98-16.89,17.63-7.22,2.1-14.6,2.41-22.03,2.66-3.9.14-7.8.48-11.64,1.11-2.11.35-3.26,2.15-2.88,4.35.27,1.62,1.44,2.9,3.13,2.98,4.28.2,8.59.42,12.88.22,45.34-2.1,90.57-1.17,135.88,2.11,44.4,3.23,87.1-4.53,127.12-25.06,108.37-55.59,126.93-178.72,93.65-255.13ZM2390.1,402.08c-18.13,62.96-60.56,101.02-125.22,113.69-21.16,4.14-42.51,5.18-63.94,2.39-4.99-.65-9.91-2.09-14.78-3.47-17.72-5.05-25.73-17.72-27.1-35.27-.54-6.98-.76-14.01-.77-21.02-.07-43.32-.04-86.65-.04-129.97,0-46.07-.01-92.12.02-138.18,0-4.3.06-8.59.42-12.86,1.82-21.82,10.31-32.76,31.45-35.84,55.75-8.13,107.46.77,150.07,40.77,23.19,21.78,38.33,49.06,47.6,79.27,14.27,46.51,15.7,93.87,2.28,140.49Z"/>
      <path class="cls-1" d="M532.6,58.47c-1.78,1.5-3.33,3.29-4.99,4.94-49.73,49.71-99.56,99.29-149.1,149.17-13.61,13.7-29.31,21.71-48.95,22.01-18.29-.5-33.7-7.59-46.72-20.74-31.62-31.9-63.48-63.55-95.27-95.29-19.34-19.32-38.74-38.59-58.06-57.94-5.84-5.84-5.84-6.01-.31-11.75,14.11-14.61,28.27-29.17,42.48-43.68,6.71-6.85,6.87-6.88,13.47-.29,26.02,25.9,51.98,51.86,77.98,77.79,17.42,17.38,34.81,34.79,52.27,52.11,11.63,11.53,17.69,11.47,29.49-.29,42.03-41.94,84.01-83.91,126.02-125.86,1.94-1.92,4-3.74,5.77-5.81,2.91-3.36,5.4-3.51,8.67-.19,15.63,15.84,31.37,31.58,47.24,47.22,3.24,3.19,3.51,5.66,0,8.61Z"/>
      <path class="cls-1" d="M1963.23,133.87c-.04,2.21-1.39,3.65-3.53,3.93-3.1.41-6.23.45-9.33.83-18.06,2.24-30.33,11.68-35.56,29.32-3.93,13.23-4.44,26.9-4.44,40.6,0,104.63,0,209.28-.01,313.92,0,3.51.18,7.05-.23,10.52-.52,4.47-3.81,4.86-6.78,2.92-2.52-1.64-4.37-4.41-6.35-6.82-93.58-113.17-187.14-226.35-280.73-339.52-2.96-3.57-5.45-7.61-9.52-10.23-3.32,1.78-1.8,4.88-1.8,7.28-.07,90.97-.04,181.94-.06,272.91,0,10.61,1.13,20.99,4.25,31.17,5.19,16.87,16.84,25.63,33.98,27.79,2.71.34,5.46.43,8.17.82,2.32.34,4.85.85,4.8,3.96-.05,2.91-2.15,3.92-4.72,4.01-3.12.11-6.26.21-9.38.02-29.68-1.83-59.36-1.69-89.06,0-3.5.2-7.03.04-10.55-.06-2.32-.06-3.45-1.49-3.57-3.72-.13-2.29,1.06-3.73,3.27-4.05,3.1-.43,6.22-.61,9.32-1,18.85-2.36,29.59-11.61,34.85-29.76,3.08-10.65,3.57-21.58,3.58-32.49.13-95.67.01-191.32.22-286.99.01-6.61-2.12-10.94-7.34-14.72-11.55-8.37-23.58-15.29-38.21-16.31-1.53-.12-3.17-.32-4.51-1-1.36-.69-2.32-2.07-2.05-3.85.25-1.68,1.31-3.13,2.79-3.35,2.68-.38,5.46-.31,8.18-.15,22.25,1.23,44.49,2.35,66.74-.15,7.12-.81,12.7,1.41,17.16,7.57,44.22,61.1,94.21,117.63,141.31,176.45,37.83,47.25,76.38,93.93,114.63,140.85,1.46,1.78,2.57,3.94,5.72,5.14,2.14-3.56,1.23-6.71,1.23-9.67.06-83.17,0-166.33.09-249.5.01-9.42-.73-18.73-2.61-27.92-4.35-21.3-16.17-31.94-37.29-34.24-3.47-.38-9.27,1.43-9.15-4.37.13-6.77,6.34-4.34,9.93-4.07,32.04,2.49,64.05,1.87,96.07-.13,2.34-.14,4.71-.13,7.02.12,2.18.22,3.5,1.69,3.47,3.92Z"/>
      <path class="cls-1" d="M1447.55,519.65c-1.13-.28-2.29-.56-3.45-.63-16.68-.86-28.2-10.16-37.73-22.82-10.88-14.44-18.99-30.47-26.7-46.68-50.12-105.34-100.1-210.73-150.31-316.02-1.98-4.17-2.14-11.24-8.91-10.75-5.7.42-5.82,6.74-7.56,10.77-26.64,62.43-53.09,124.94-79.68,187.38-20.18,47.36-40.44,94.69-60.82,141.97-5.27,12.23-11.9,23.73-20.27,34.15-10.23,12.75-22.95,21-39.8,21.69-2.32.09-4.66.49-6.96.93-2.02.38-3.7,1.36-3.59,3.79.09,2.31,1.58,3.58,3.71,3.65,3.9.13,7.83.21,11.7-.12,19.89-1.65,39.82-1.92,59.76-1.56,10.16,0,20.34-.22,30.49.07s20.28,1.22,30.43,1.68c3.88.16,7.8,0,11.67-.39,1.54-.15,2.51-1.68,2.58-3.42.06-1.81-.83-3.02-2.55-3.3-1.91-.32-3.88-.28-5.82-.47-10.11-.99-20.28-1.49-30.05-4.59-20.13-6.36-28.83-20.42-25.76-41.13,1.33-8.95,4.06-17.46,7.53-25.75,17.38-41.35,34.92-82.65,52.1-124.08,2.3-5.54,5.34-7.34,11.26-7.29,34.4.27,68.8.31,103.21-.02,6.42-.06,9.57,1.9,12.27,7.79,16.49,35.79,33.5,71.34,50.2,107.02,7.95,16.96,16.35,33.74,23.24,51.13,9.38,23.67,2.82,33.37-22.56,35.63-5.45.48-10.92.73-16.35,1.26-2.56.25-4.59,1.56-4.07,4.52.38,2.17,2.24,3.04,4.34,3.15,1.55.08,3.13.12,4.68,0,41.79-3.3,83.58-2.43,125.37.08,2.71.16,5.47-.01,8.18-.22,1.76-.13,2.78-1.48,3.04-3.06.35-2.15-.54-3.79-2.83-4.35ZM1157.7,302.47c16.55-39.38,32.7-77.8,49.51-117.8,18.86,39.74,37.01,77.96,55.93,117.8h-105.43Z"/>
      <path class="cls-1" d="M2978.15,519.55c-.75-.19-1.53-.39-2.3-.43-19.14-.95-31.31-12.42-41.33-27.21-9.66-14.27-17.48-29.54-24.85-45.06-49.74-104.62-99.46-209.25-149.19-313.88-1.16-2.48-2.16-5.07-3.65-7.32-2.83-4.3-6.44-4.38-9.13-.13-1.65,2.62-2.66,5.63-3.88,8.5-14.48,34.11-28.95,68.21-43.43,102.32-30.32,71.43-60.61,142.88-90.99,214.29-6.27,14.74-13.3,29.11-22.7,42.18-11.03,15.34-24.99,25.61-44.74,26.09-2.3.06-4.65.58-6.87,1.24-1.5.46-2.65,1.71-2.41,3.53.23,1.69,1.48,3.11,2.92,3.2,4.27.29,8.6.43,12.85.07,19.49-1.69,39.04-1.76,58.58-1.97,22.3-.45,44.52,1.23,66.77,2.23,3.56.15,9.27,1.71,9.54-3.7.28-5.75-5.7-4.01-9.13-4.27-10.13-.76-20.25-1.26-30.01-4.52-19.8-6.62-28.7-21.13-25.08-41.61,1.49-8.47,4.01-16.7,7.35-24.62,17.43-41.32,35.08-82.56,52.22-124,2.57-6.21,5.82-7.82,12.16-7.76,33.61.31,67.24.45,100.84-.07,7.96-.13,11.55,2.44,14.82,9.54,22.07,47.82,44.66,95.37,67.05,143.04,3.49,7.42,6.65,14.96,8.61,22.97,3.17,12.92-.94,20.14-13.59,23.95-7.58,2.29-15.43,2.15-23.2,2.85-3.47.32-9.32-1.26-8.98,4.57.34,5.79,5.99,3.72,9.44,3.47,40.62-2.95,81.22-2.55,121.83.12,3.5.22,7.04.11,10.54-.15,2.09-.14,3.58-1.47,3.63-3.78.06-2.44-1.7-3.23-3.7-3.7ZM2688.8,302.49c16.56-39.21,32.82-77.7,49.73-117.74,18.95,39.99,37.03,78.13,55.8,117.74h-105.52Z"/>
    </g>
  </g>
</svg>