<?xml version="1.0" encoding="UTF-8"?>
<svg id="Camada_2" data-name="Camada 2" xmlns="http://www.w3.org/2000/svg" viewBox="0 0 1844.39 693.68">
  <defs>
    <style>
      .cls-1 {
        fill: #fff;
        stroke-width: 0px;
      }
    </style>
  </defs>
  <g id="Layer_1" data-name="Layer 1">
    <g>
      <path class="cls-1" d="M31.89,587.44L0,670.72h17.85l6.54-18.56h30.46l6.54,18.56h18.32l-31.65-83.28h-16.18ZM30.1,636.34l5.35-15.11c1.67-4.88,3.33-9.88,4.16-12.97.83,3.09,2.5,8.09,4.16,12.97l5.35,15.11h-19.04Z"/>
      <path class="cls-1" d="M108.86,612.42v-4.16h-16.42v62.46h16.42v-33.79c0-10.83,4.16-13.56,10.59-13.56,3.69,0,6.9,1.67,9.52,4.04l4.28-16.06c-2.14-2.26-6.19-4.4-11.54-4.4-5.83,0-9.99,2.5-12.85,5.47Z"/>
      <path class="cls-1" d="M210.59,606.95c-10.35,0-15.59,3.57-19.87,7.97-4.64-5.71-9.28-7.97-17.25-7.97-6.54,0-10.83,2.5-13.68,5.47v-4.16h-16.42v62.46h16.42v-34.15c0-10.83,3.33-14.16,10.11-14.16s9.99,3.33,9.99,14.52v33.79h16.42v-34.15c0-10.83,3.33-14.16,10.11-14.16s9.99,3.33,9.99,14.52v33.79h16.42v-35.22c0-17.61-6.31-28.56-22.25-28.56Z"/>
      <path class="cls-1" d="M272.81,606.95c-15.82,0-27.84,13.44-27.84,32.6s11.42,32.48,29.39,32.48c8.33,0,17.37-3.69,22.37-10.11l-11.66-9.76c-2.38,2.74-6.19,4.4-10.71,4.4-5.95,0-12.25-3.21-12.85-11.78h37.36c.12-1.19.24-2.86.24-5.24,0-17.85-9.64-32.6-26.29-32.6ZM261.74,632.41c.59-6.31,4.28-11.18,10.23-11.18,7.38,0,10.71,5.59,11.18,11.18h-21.42Z"/>
      <path class="cls-1" d="M343.24,606.95c-6.54,0-11.78,2.5-14.63,5.47v-4.16h-16.42v62.46h16.42v-34.15c0-10.83,3.93-14.16,10.71-14.16s10.59,3.33,10.59,14.52v33.79h16.42v-35.22c0-17.61-7.14-28.56-23.08-28.56Z"/>
      <path class="cls-1" d="M402.97,648.83v-25.1h14.99v-15.47h-14.99v-24.27l-16.42,8.21v16.06h-10.47v15.47h10.47v29.51c0,10.95,6.54,18.8,16.66,18.8,5.12,0,9.99-1.67,12.73-3.81l2.38-16.66c-4.05,3.45-6.31,4.76-9.28,4.76-3.93,0-6.07-1.55-6.07-7.5Z"/>
      <path class="cls-1" d="M457.34,606.95c-10.11,0-16.18,2.14-23.44,6.31l6.31,11.42c5.71-3.09,9.64-4.16,17.13-4.16,5.95,0,8.92,3.57,8.92,7.97v3.09c-2.62-1.31-6.31-2.5-12.02-2.5-14.16,0-25.34,6.9-25.34,20.7,0,15.11,11.66,22.25,23.32,22.25,5.83,0,11.07-2.38,14.04-5.47v4.16h16.42v-41.88c0-14.04-10.23-21.89-25.34-21.89ZM466.26,652.4c-1.78,2.97-6.07,5.71-11.42,5.71-7.02,0-9.52-3.93-9.52-8.33,0-5,3.33-7.85,9.52-7.85,5.83,0,8.57.83,11.42,2.62v7.85Z"/>
      <path class="cls-1" d="M529.08,606.95c-6.54,0-11.78,2.5-14.63,5.47v-4.16h-16.42v62.46h16.42v-34.15c0-10.83,3.93-14.16,10.71-14.16s10.59,3.33,10.59,14.52v33.79h16.42v-35.22c0-17.61-7.14-28.56-23.08-28.56Z"/>
      <path class="cls-1" d="M592.5,606.95c-16.3,0-28.2,13.44-28.2,32.6s11.9,32.48,28.2,32.48,28.32-13.33,28.32-32.48-12.02-32.6-28.32-32.6ZM592.5,656.21c-7.85,0-11.54-7.02-11.54-16.66s3.69-16.78,11.54-16.78,11.66,7.26,11.66,16.78c0,8.69-3.81,16.66-11.66,16.66Z"/>
      <polygon class="cls-1" points="628.19 685.71 639.37 685.71 649.36 650.62 629.97 650.62 628.19 685.71"/>
      <path class="cls-1" d="M767.27,613.85c0-17.73-12.97-26.41-28.67-26.41h-38.79v83.28h16.66v-29.98h16.78l14.87,29.98h19.16l-15.94-32.36c10.59-4.16,15.94-12.02,15.94-24.51ZM738.24,625.03h-21.77v-21.42h21.77c7.38,0,11.9,3.09,11.9,10.59s-4.16,10.83-11.9,10.83Z"/>
      <path class="cls-1" d="M818.19,642.41c0,10.83-3.93,14.16-10.71,14.16s-10.59-3.33-10.59-14.52v-33.79h-16.42v35.22c0,17.61,7.14,28.55,23.08,28.55,6.54,0,11.78-2.5,14.63-5.47v4.16h16.42v-62.46h-16.42v34.15Z"/>
      <path class="cls-1" d="M884.81,611.83c-2.97-2.74-7.73-4.88-13.21-4.88-15.47,0-24.27,13.09-24.27,31.77,0,23.32,10.95,33.31,24.27,33.31,5.95,0,10.11-2.5,13.21-5.24v3.93h16.42v-86.73l-16.42,8.21v19.63ZM884.81,651.33c-2.38,3.09-5,5.23-10.11,5.23-6.42,0-10.71-5.35-10.71-18.2,0-10.47,3.45-15.94,9.76-15.94,4.76,0,8.57,1.9,11.07,5.35v23.56Z"/>
      <path class="cls-1" d="M951.68,611.83c-2.97-2.74-7.73-4.88-13.21-4.88-15.47,0-24.27,13.09-24.27,31.77,0,23.32,10.95,33.31,24.27,33.31,5.95,0,10.11-2.5,13.21-5.24,0,9.64-3.45,12.73-16.3,14.52l5.83,12.37c21.89-2.38,26.89-12.97,26.89-33.55v-51.87h-16.42v3.57ZM951.68,651.33c-2.38,3.09-5,5.23-10.11,5.23-6.42,0-10.71-5.35-10.71-18.2,0-10.47,3.45-15.94,9.76-15.94,4.76,0,8.57,1.9,11.07,5.35v23.56Z"/>
      <path class="cls-1" d="M1008.9,606.95c-15.82,0-27.84,13.44-27.84,32.6s11.42,32.48,29.39,32.48c8.33,0,17.37-3.69,22.37-10.11l-11.66-9.76c-2.38,2.74-6.19,4.4-10.71,4.4-5.95,0-12.25-3.21-12.85-11.78h37.36c.12-1.19.24-2.86.24-5.24,0-17.85-9.64-32.6-26.29-32.6ZM997.84,632.41c.6-6.31,4.28-11.18,10.23-11.18,7.38,0,10.71,5.59,11.18,11.18h-21.42Z"/>
      <path class="cls-1" d="M1150.36,632.05l-13.44-4.28c-2.02,5.47-3.93,9.99-5.83,13.8l-22.96-26.18c-2.62-3.09-4.4-5.47-4.4-9.04s2.97-5.47,7.85-5.47c5.95,0,11.9,1.78,17.37,5.95l7.97-12.02c-7.97-5.59-14.63-8.69-24.87-8.69-14.04,0-24.75,7.02-24.75,20.58,0,6.66,2.86,12.02,7.26,16.89l2.14,2.38c-10.59,5.24-17.01,12.25-17.01,23.92,0,14.99,10.35,22.13,27.37,22.13,9.76,0,17.73-2.74,24.27-8.09l6.31,6.78h19.04l-15.71-17.85c3.69-5.71,6.78-12.73,9.4-20.82ZM1108.96,657.28c-8.33,0-12.61-3.45-12.61-8.8,0-5,2.62-9.28,9.16-12.73l16.3,17.85c-3.45,2.5-7.73,3.69-12.85,3.69Z"/>
      <path class="cls-1" d="M1220.8,655.73c2.14-2.14,6.9-7.61,9.52-10.83l35.46-42.71v-14.75h-62.7v15.23h26.06c4.88,0,13.56-.12,16.9-.24-2.14,2.14-6.9,7.61-9.52,10.83l-35.81,42.71v14.75h65.68v-15.23h-28.67c-4.88,0-13.56.12-16.89.24Z"/>
      <path class="cls-1" d="M1304.79,606.95c-10.11,0-16.18,2.14-23.44,6.31l6.31,11.42c5.71-3.09,9.64-4.16,17.13-4.16,5.95,0,8.92,3.57,8.92,7.97v3.09c-2.62-1.31-6.31-2.5-12.02-2.5-14.16,0-25.34,6.9-25.34,20.7,0,15.11,11.66,22.25,23.32,22.25,5.83,0,11.06-2.38,14.04-5.47v4.16h16.42v-41.88c0-14.04-10.23-21.89-25.34-21.89ZM1313.72,652.4c-1.79,2.97-6.07,5.71-11.42,5.71-7.02,0-9.52-3.93-9.52-8.33,0-5,3.33-7.85,9.52-7.85,5.83,0,8.57.83,11.42,2.62v7.85Z"/>
      <path class="cls-1" d="M1412.7,606.95c-10.35,0-15.59,3.57-19.87,7.97-4.64-5.71-9.28-7.97-17.25-7.97-6.54,0-10.83,2.5-13.68,5.47v-4.16h-16.42v62.46h16.42v-34.15c0-10.83,3.33-14.16,10.11-14.16s9.99,3.33,9.99,14.52v33.79h16.42v-34.15c0-10.83,3.33-14.16,10.11-14.16s9.99,3.33,9.99,14.52v33.79h16.42v-35.22c0-17.61-6.31-28.56-22.25-28.56Z"/>
      <polygon class="cls-1" points="1450.89 670.72 1467.31 670.72 1467.31 583.99 1450.89 592.2 1450.89 670.72"/>
      <path class="cls-1" d="M1520.97,642.41c0,10.83-3.93,14.16-10.71,14.16s-10.59-3.33-10.59-14.52v-33.79h-16.42v35.22c0,17.61,7.14,28.55,23.08,28.55,6.54,0,11.78-2.5,14.63-5.47v4.16h16.42v-62.46h-16.42v34.15Z"/>
      <path class="cls-1" d="M1575.22,648.83v-25.1h14.99v-15.47h-14.99v-24.27l-16.42,8.21v16.06h-10.47v15.47h10.47v29.51c0,10.95,6.54,18.8,16.66,18.8,5.12,0,9.99-1.67,12.73-3.81l2.38-16.66c-4.04,3.45-6.31,4.76-9.28,4.76-3.93,0-6.07-1.55-6.07-7.5Z"/>
      <path class="cls-1" d="M1626.02,648.83v-25.1h14.99v-15.47h-14.99v-24.27l-16.42,8.21v16.06h-10.47v15.47h10.47v29.51c0,10.95,6.54,18.8,16.66,18.8,5.12,0,9.99-1.67,12.73-3.81l2.38-16.66c-4.04,3.45-6.31,4.76-9.28,4.76-3.93,0-6.07-1.55-6.07-7.5Z"/>
      <path class="cls-1" d="M1665.52,584.34c-5.12,0-9.4,4.28-9.4,9.4s4.28,9.4,9.4,9.4,9.4-4.28,9.4-9.4-4.28-9.4-9.4-9.4Z"/>
      <rect class="cls-1" x="1657.31" y="608.26" width="16.42" height="62.46"/>
      <polygon class="cls-1" points="362.37 0 264.52 0 358.51 314.31 169.87 314.31 263.85 0 166 0 11.96 515.15 109.81 515.15 141.83 408.06 386.54 408.06 418.56 515.15 516.41 515.15 362.37 0"/>
      <rect class="cls-1" x="1169.22" width="508.28" height="93.75"/>
      <rect class="cls-1" x="1169.22" y="421.4" width="508.28" height="93.75"/>
      <polygon class="cls-1" points="1677.5 94.35 1169.22 318.79 1169.22 421.28 1677.5 196.84 1677.5 94.35"/>
      <ellipse class="cls-1" cx="1797.38" cy="468.42" rx="47.02" ry="46.88"/>
      <path class="cls-1" d="M957.41,323.09c78.4-10.92,138.95-78.39,138.95-159.75,0-88.94-72.36-161.31-161.31-161.31h-345.78v511.08h93.75v-188.47h159.38l137.81,188.47h116.14l-138.95-190.02ZM683.03,95.79h252.03c37.25,0,67.55,30.31,67.55,67.55s-30.3,67.55-67.55,67.55h-252.03V95.79Z"/>
    </g>
  </g>
</svg>