<?xml version="1.0" encoding="UTF-8"?>
<svg id="Camada_2" data-name="Camada 2" xmlns="http://www.w3.org/2000/svg" viewBox="0 0 1059.28 371.16">
  <defs>
    <style>
      .cls-1 {
        fill: #fff;
      }
    </style>
  </defs>
  <g id="Camada_1-2" data-name="Camada 1">
    <g>
      <g>
        <polygon class="cls-1" points="304.58 206.4 257.36 206.4 257.36 178.56 257.36 0 243.42 0 243.42 178.56 243.42 206.4 2.43 206.4 2.43 220.34 178.45 220.34 178.45 371.16 192.39 371.16 192.39 220.34 243.42 220.34 243.42 371.16 257.36 371.16 257.36 220.34 304.58 220.34 304.58 206.4"/>
        <path class="cls-1" d="M16.96,14.25c14.15,2.06,46.21,8.32,77.82,25.48,55.51,30.13,83.66,86.04,83.66,150.68h13.94c0-87.58-49.69-140.65-91.37-163.16C75.14,13.27,50.35,6.39,33.71,3.05,23.41.98,12.94,0,2.43,0h0v190.4h14.53V14.25Z"/>
        <path class="cls-1" d="M9.99,239.64c-5.52,0-9.99,4.47-9.99,9.99s4.47,9.99,9.99,9.99,9.99-4.47,9.99-9.99-4.47-9.99-9.99-9.99Z"/>
      </g>
      <g>
        <path class="cls-1" d="M449.25,67.9l-35.55,118.88h10.74l11.34-38.94h39.29l12.32,38.94h11.08l-37.74-119.27-11.48.39ZM472.18,138.53h-33.74l16.2-57.44,17.54,57.44Z"/>
        <path class="cls-1" d="M554,188.43c24.73,0,38.34-15.6,38.34-43.93v-76.79h-9.97v76.79c0,22.75-9.32,34.28-27.71,34.28-20.12,0-28.7-10.89-28.7-36.42v-74.65h-10.47v75.15c0,31.51,11.88,45.57,38.5,45.57Z"/>
        <path class="cls-1" d="M698.9,181.44l.74-.31v-49h-10.46v42.58c-7.1,2.46-14.56,3.76-21.64,3.76-26.45,0-41.02-18.3-41.02-51.54s13.73-50.88,39.7-50.88c10.05,0,20.05,2.07,28.92,5.98l1.55.68.87-10.27-.79-.35c-8.86-3.94-19.26-6.02-30.07-6.02-32.41,0-50.99,22.24-50.99,61.02s18.23,61.34,50.01,61.34c11.31,0,21.85-2.22,33.16-6.99Z"/>
        <path class="cls-1" d="M804.15,144.5v-76.79h-9.97v76.79c0,22.75-9.32,34.28-27.71,34.28-20.12,0-28.7-10.89-28.7-36.42v-74.65h-10.47v75.15c0,31.51,11.88,45.57,38.51,45.57,24.72,0,38.34-15.6,38.34-43.93Z"/>
        <path class="cls-1" d="M886.31,155.18c0-14.42-6.16-23.6-21.97-32.77l-8.38-4.76c-14.13-8.08-16.81-14.18-16.81-22.61,0-12,8.39-19.16,22.45-19.16,5.93,0,12.07,1.13,19.33,3.55l1.45.48.87-10.01-.88-.31c-6.66-2.37-13.24-3.52-20.12-3.52-20.6,0-33.9,11.63-33.9,29.64,0,13.73,5.68,22.11,20.97,30.94l8.39,4.94c12.73,7.3,17.47,13.92,17.47,24.42s-6.18,22.45-23.6,22.45c-7.07,0-13.57-.94-24.16-5.65l-1.77-.79.43,10.73.67.31c7.7,3.62,15.71,5.37,24.5,5.37,24.22,0,35.06-16.7,35.06-33.25Z"/>
        <polygon class="cls-1" points="976.27 67.71 900.32 67.71 900.32 77.19 932.85 77.19 932.85 186.79 943.32 186.79 943.32 77.19 975.61 77.19 976.27 67.71"/>
        <path class="cls-1" d="M1021.53,67.52l-11.48.39-35.55,118.88h10.75l11.34-38.94h39.28l12.32,38.94h11.08l-37.74-119.27ZM1032.99,138.53h-33.74l16.2-57.44,17.54,57.44Z"/>
        <polygon class="cls-1" points="486.08 286.73 432.14 286.73 432.14 232.51 421.67 232.51 421.67 351.59 432.14 351.59 432.14 296.21 486.08 296.21 486.08 351.59 496.55 351.59 496.55 232.51 486.08 232.51 486.08 286.73"/>
        <path class="cls-1" d="M569.12,230.87c-29.93,0-48.53,22.88-48.53,59.7,0,39.24,17.59,62.66,47.05,62.66s49.19-23.88,49.19-62.33-17.84-60.03-47.71-60.03ZM568.13,343.42c-23.01,0-36.75-20.31-36.75-54.33,0-30.32,13.68-48.41,36.59-48.41,24.08,0,37.9,18.84,37.9,51.7s-14.11,51.05-37.74,51.05Z"/>
        <polygon class="cls-1" points="731.44 232.51 693.04 337.43 656.24 232.51 643.37 232.51 639.51 351.59 649.66 351.59 652.62 252.44 687.23 351.59 698.13 351.59 734.25 252.15 737.69 351.59 748.16 351.59 744.29 232.51 731.44 232.51"/>
        <polygon class="cls-1" points="785.41 295.56 826.17 295.56 826.17 286.24 785.41 286.24 785.41 241.99 829.45 241.99 829.45 232.51 774.95 232.51 774.95 351.59 831.48 351.59 832.36 342.1 785.41 342.1 785.41 295.56"/>
        <path class="cls-1" d="M891.45,287.22l-8.38-4.76c-14.13-8.08-16.81-14.18-16.81-22.61,0-12,8.39-19.16,22.45-19.16,5.93,0,12.07,1.13,19.33,3.55l1.45.48.87-10.01-.88-.31c-6.66-2.37-13.24-3.52-20.12-3.52-20.6,0-33.9,11.63-33.9,29.64,0,13.73,5.68,22.11,20.97,30.94l8.39,4.94c12.73,7.3,17.47,13.92,17.47,24.42s-6.18,22.45-23.6,22.45c-7.07,0-13.57-.94-24.16-5.65l-1.77-.79.43,10.73.67.31c7.7,3.62,15.71,5.37,24.5,5.37,24.22,0,35.06-16.7,35.06-33.25,0-14.42-6.16-23.6-21.97-32.77Z"/>
      </g>
    </g>
  </g>
</svg>