<?xml version="1.0" encoding="UTF-8"?>
<svg id="Camada_1" data-name="Camada 1" xmlns="http://www.w3.org/2000/svg" viewBox="0 0 256 256">
  <defs>
    <style>
      .cls-1 {
        fill: #fff;
      }
    </style>
  </defs>
  <polygon class="cls-1" points="190.85 136.59 171.36 136.59 171.36 125.1 171.36 51.42 165.61 51.42 165.61 125.1 165.61 136.59 66.16 136.59 66.16 142.35 138.79 142.35 138.79 204.58 144.55 204.58 144.55 142.35 165.61 142.35 165.61 204.58 171.36 204.58 171.36 142.35 190.85 142.35 190.85 136.59"/>
  <path class="cls-1" d="M72.15,57.29c5.84.85,19.07,3.43,32.11,10.51,22.91,12.43,34.53,35.51,34.53,62.18h5.75c0-36.14-20.51-58.04-37.71-67.33-10.68-5.76-20.91-8.6-27.78-9.98-4.25-.85-8.57-1.26-12.91-1.26h0v78.58h6V57.29Z"/>
  <path class="cls-1" d="M69.28,150.31c-2.28,0-4.12,1.85-4.12,4.12s1.85,4.12,4.12,4.12,4.12-1.85,4.12-4.12-1.85-4.12-4.12-4.12Z"/>
</svg>