<?xml version="1.0" encoding="UTF-8"?>
<svg id="Camada_2" xmlns="http://www.w3.org/2000/svg" viewBox="0 0 1218.66 316.26">
  <defs>
    <style>
      .cls-1 {
        fill: #fff;
      }
    </style>
  </defs>
  <g id="Camada_1-2" data-name="Camada_1">
    <g>
      <path class="cls-1" d="M139.08.44L0,310.49h57.14l28.78-64.1h162.19l29.22,64.1h57.13L195.38.44h-56.3ZM228.09,197.11h-121.72l60.86-136.93,60.86,136.93Z"/>
      <path class="cls-1" d="M528.77,181.63c0,27.87-8.4,50.56-24.3,65.63-14.56,13.8-34.55,20.46-57.82,19.2-47.16-1.82-75.32-33.53-75.32-84.83V.87h-53.19v180.75c0,41.32,13.22,75.79,38.24,99.69,22.57,21.56,54.58,33.93,90.09,34.84,2.03.07,4.04.11,6.04.11,36.54,0,68.93-11.94,91.71-33.93,24.69-23.83,37.74-58.65,37.74-100.7V.87h-53.19v180.75Z"/>
      <path class="cls-1" d="M1079.58.44h-56.3l-133.31,297.18-88.08-98.2c50.54-9.03,80.54-44.9,80.54-96.73S847.98.44,772.33.44c-23.76,0-47.81-.11-71.07-.22-23.26-.11-47.32-.22-71.09-.22h-2.39v310.49h53.63v-105.53h61.07l92.89,105.53h105.99l28.78-64.1h162.19l29.22,64.1h57.13L1079.58.44ZM1112.29,197.11h-121.72l60.86-136.93,60.86,136.93ZM681.4,49.7h90.93c38.41,0,55.61,27.05,55.61,53.86,0,25.2-14.72,52.12-56.04,52.12h-90.49V49.7Z"/>
    </g>
  </g>
</svg>