<?xml version="1.0" encoding="UTF-8"?>
<svg id="Camada_2" data-name="Camada 2" xmlns="http://www.w3.org/2000/svg" viewBox="0 0 778.69 358.82">
  <defs>
    <style>
      .cls-1 {
        fill: #b8b8b8;
      }
    </style>
  </defs>
  <g id="Camada_1-2" data-name="Camada 1">
    <g>
      <path class="cls-1" d="M760.12,201.95c-12.43-14.67-25.32-25.09-38.67-31.27-13.35-6.17-38.19-15.37-74.51-27.59-21.11-8.39-34.94-17.42-41.62-27.11-6.72-10.02-10.19-21.86-9.93-33.93-.27-18.92,7.44-37.09,21.25-50.04,14.15-13.83,33.32-20.75,57.47-20.75,26.15-.63,51.35,9.93,69.21,29.06,8.87,9.27,13.35,14,13.35,14.19l2.87-.48-16.8-44.15c-.67-.02-1.33-.19-1.91-.53-1.62-.79-9.3-2.53-23.04-5.25-12.63-2.62-25.49-3.98-38.38-4.1-30.68.02-55.4,9.3-74.19,27.83-18.79,18.53-28.17,41.47-28.17,68.82.1,15.25,3.88,30.26,11.03,43.73,7.4,14.34,16.56,25.06,27.5,32.17,7.97,5.16,20.19,10.99,36.6,17.38,2.77,1.04,5.69,2.19,8.7,3.3,3.71,1.37,7.59,2.75,11.69,4.19,27.23,9.35,45.73,17.25,55.47,23.66,9.11,5.85,16.89,13.54,22.82,22.58,5.44,8.55,8.15,18.91,8.15,31.08.12,9.69-1.93,19.21-5.9,27.9-2.21,4.6-4.87,8.99-7.91,13.09-.03.03-.07.07-.09.1-.5.67-1.03,1.32-1.57,1.97-.05.09-.1.17-.19.22-13.69,17.25-33.76,28.22-55.66,30.46,2.77.29,5.57.43,8.36.43,24.92.05,48.5-11.28,64.02-30.77,9.68-12.1,15.68-26.7,17.32-42.1.07-.26.1-.53.1-.8.8-5.52,1.21-11.09,1.2-16.67,0-23.01-6.19-41.88-18.56-56.62Z"/>
      <path class="cls-1" d="M523.68,355.2v3.57h52.86v-3.57c-7.66,0-14.96-3.23-20.14-8.87l-4.07-4.29-109.4-152.7-8.55,12.33,89.27,125.3c0,.14,1.9,2.94,5.62,8.07,4.31,5.13,6.5,9.68,6.5,13.68,0,4.79-4.02,6.97-12.09,6.5Z"/>
      <polygon class="cls-1" points="251.36 347.92 243.81 347.31 243.81 347.94 250.88 347.94 251.36 347.92"/>
      <path class="cls-1" d="M437.62,181.93l105.78-152.43c0-2.19,3.04-6.38,9.11-12.44,6.07-6.07,12.89-8.79,20.38-8.17v-3.57h-89.01v3.57c9.59,0,14.41,2.63,14.41,7.93,0,3.81-2.96,10.02-8.87,18.46l-52.75,76.24-24.34,34.94-8.41,12.17-24.34,35.13-79.15,114.34-4.24,6.14-.92,1.4c-11.4,17.09-19.93,27.92-26.19,32.79-6.26,4.87-12.22,7.06-18,6.58h-.19v.2h0v3.61h88.02s0,0,0,0v-3.57h0s-.08,0-.08,0v-.18c-.56.03-1.09.05-1.61.05-4,0-6.75-1.04-8.26-3.09l-.32-.51c-.62-1.13-.94-2.51-.94-4.15,0,0,0,0,0,0,0,0,0,0,0,0-.03,0-.05-.01-.08-.02v-.13c0-4.6,2.48-10.5,7.44-17.71l94.02-135.37.1.15,8.55-12.33h-.09Z"/>
      <path class="cls-1" d="M306.97,23.54c.19,0,.43.24.72.72.17.44.43.85.77,1.2l1.95,2.62c.55.53.97,1.18,1.2,1.91l2.39,2.44,84.77,119.1,8.39-12.14-78.19-109.3c-.19-.15-1.64-2.43-3.86-6.77s-3.42-7.06-3.42-8.21c0-2.68.82-4.41,2.53-5.13,3.21-.92,6.55-1.3,9.88-1.09v-3.59h-53.52v3.59c9.93-1.09,18.7,3.78,26.39,14.65Z"/>
      <path class="cls-1" d="M214.71,223.51l39.52,98.08c.15,0,.39.82.72,2.41.34,1.16.92,2.22,1.71,3.11,3.21,7.69,5.03,13.56,5.44,17.59.14-.09.28-.2.42-.29.71-.48,1.43-.99,2.13-1.55,3.81-2.96,11.33-11.01,25.5-32.48l2.1-3.04L168.13.02h0s-6.34,0-6.34,0L33.57,323.26c-5.52,13.82-10.59,22.56-15.22,26.31-.2.16-.4.33-.6.47-5.21,3.56-11.44,5.35-17.74,5.13H0s0,0,0,0v3.59h0s52.57,0,52.57,0v-3.61c-7.85,0-11.78-2.63-11.76-7.91,0-2.27,1.85-8.21,5.52-17.76l53.57-133.42,51.28-130.3,52.48,130.29,5.28,13.09h-7.85v.02h0s-83.43,0-83.43,0l-2.41,7.16-2.41,7.16h101.86Z"/>
    </g>
  </g>
</svg>