<?xml version="1.0" encoding="UTF-8"?>
<svg id="Layer_1" xmlns="http://www.w3.org/2000/svg" version="1.1" viewBox="0 0 1226.7 768">
  <!-- Generator: Adobe Illustrator 29.3.1, SVG Export Plug-In . SVG Version: 2.1.0 Build 151)  -->
  <g>
    <path d="M0,395.03h78.1c20.97,0,37.48,6.03,47.96,16.25,7.6,7.86,11.79,17.56,11.79,29.35v.52c0,23.85-14.68,36.17-29.09,42.46,21.75,6.55,39.31,19.13,39.31,44.29v.52c0,31.45-26.47,50.06-66.57,50.06H0v-183.45ZM74.69,476.8c24.9,0,42.19-11.27,42.19-32.76v-.52c0-18.08-14.41-29.88-40.62-29.88H20.44v63.16h54.25ZM82.03,559.87c27.78,0,45.08-12.32,45.08-32.76v-.52c0-19.92-16.77-31.45-48.75-31.45H20.44v64.73h61.59Z"/>
    <path d="M189.2,395.03h132.61v18.87h-111.91v62.64h100.11v18.87h-100.11v64.21h113.22v18.87h-133.92v-183.45Z"/>
    <path d="M443.4,395.03h20.7v81.5h105.88v-81.5h20.7v183.45h-20.7v-82.55h-105.88v82.55h-20.7v-183.45Z"/>
    <path d="M634.44,487.28v-.52c0-50.58,38-94.87,93.82-94.87s93.3,43.77,93.3,94.35v.52c0,50.58-38,94.87-93.82,94.87s-93.3-43.77-93.3-94.35ZM800.07,487.28v-.52c0-41.67-30.4-75.74-72.33-75.74s-71.81,33.55-71.81,75.21v.52c0,41.67,30.4,75.74,72.33,75.74s71.81-33.55,71.81-75.21Z"/>
    <path d="M865.31,395.03h20.97l66.83,100.11,66.83-100.11h20.97v183.45h-20.7v-148.59l-66.83,98.28h-1.05l-66.83-98.01v148.33h-20.18v-183.45Z"/>
    <path d="M1092.78,395.03h132.61v18.87h-111.91v62.64h100.11v18.87h-100.11v64.21h113.22v18.87h-133.92v-183.45Z"/>
  </g>
  <path d="M756.74,113.99L613.26.11v.02s-31.94,25.34-31.94,25.34V0h-92.84v99.18l-18.66,14.81h0v172.97h20.32V123.8l18.66-14.81h0V20.32h52.2v31.09h20.32s0,0,0,0l31.94-25.35,123.16,97.75v142.83h-80.97v-116.65h-20.32v57.65h-35.92v-57.65h-76.64v20.32h0v37.33h0v20.32h0v38.68h0v20.32h76.64v-59h35.92v59h121.61V114h0,0ZM542.88,170.3h36v37.33h-36v-37.33ZM578.88,266.63h-36v-38.68h36v38.68Z"/>
  <g>
    <path d="M423.98,686.56h23.85c7.57,0,11.4.82,14.66,2.44,6.75,3.37,11.29,10.24,11.29,19.55,0,11.63-6.75,20.36-16.29,22.45v.23s.82.93,1.86,2.91l18.27,33.86h-5.94l-19.31-36.07h-23.39v36.07h-5v-81.44ZM451.09,727.28c10.7,0,17.45-7.68,17.45-18.73,0-7.21-3.6-13.03-9.54-15.71-2.33-1.05-4.89-1.63-11.4-1.63h-18.62v36.07h22.11Z"/>
    <path d="M496.24,686.56h44.56v4.66h-39.56v33.39h32.47v4.65h-32.47v34.09h41.77v4.65h-46.77v-81.44Z"/>
    <path d="M602.58,739.84h-34.55l-10.47,28.16h-5.35l30.49-81.44h5.35l30.49,81.44h-5.35l-10.59-28.16ZM585.25,692.38s-1.74,6.28-3.03,9.77l-12.45,33.04h31.06l-12.33-33.04c-1.28-3.49-3.02-9.77-3.02-9.77h-.23Z"/>
    <path d="M633.19,686.56h5v76.79h38.86v4.65h-43.86v-81.44Z"/>
    <path d="M702.89,691.21h-30.37v-4.66h65.74v4.66h-30.37v76.79h-5.01v-76.79Z"/>
    <path d="M770.14,732.63l-27.69-46.07h5.7l19.31,32.11c2.33,3.96,5.01,9.19,5.01,9.19h.23s2.56-5.24,5.01-9.19l19.31-32.11h5.7l-27.57,46.07v35.37h-5.01v-35.37Z"/>
  </g>
  <g>
    <rect x="175.37" y="724.95" width="191.72" height="4.66"/>
    <rect x="859.61" y="724.95" width="191.72" height="4.66"/>
  </g>
</svg>