<?xml version="1.0" encoding="UTF-8"?>
<svg id="Camada_1" xmlns="http://www.w3.org/2000/svg" xmlns:xlink="http://www.w3.org/1999/xlink" viewBox="0 0 256 256">
  <defs>
    <style>
      .cls-1 {
        fill: url(#Gradiente_sem_nome_6);
      }

      .cls-2 {
        fill: #10252e;
      }

      .cls-3 {
        fill: url(#Gradiente_sem_nome_6-3);
      }

      .cls-4 {
        fill: url(#Gradiente_sem_nome_6-2);
      }

      .cls-5 {
        fill: #d1d1d1;
      }
    </style>
    <linearGradient id="Gradiente_sem_nome_6" data-name="Gradiente sem nome 6" x1="63.32" y1="-2217.08" x2="105.84" y2="-2217.08" gradientTransform="translate(0 -2095.02) scale(1 -1)" gradientUnits="userSpaceOnUse">
      <stop offset="0" stop-color="#d3c790"/>
      <stop offset="1" stop-color="#afa36d"/>
    </linearGradient>
    <linearGradient id="Gradiente_sem_nome_6-2" data-name="Gradiente sem nome 6" x1="174.37" y1="-2239.05" x2="228.08" y2="-2239.05" xlink:href="#Gradiente_sem_nome_6"/>
    <linearGradient id="Gradiente_sem_nome_6-3" data-name="Gradiente sem nome 6" x1="73.69" y1="-2207.43" x2="81.09" y2="-2207.43" xlink:href="#Gradiente_sem_nome_6"/>
  </defs>
  <rect class="cls-2" x="-18.4" y="-9.21" width="290.04" height="275.74"/>
  <g>
    <path class="cls-5" d="M224.53,125.58H92.95c-1.95,0-3.54-1.58-3.54-3.54s1.58-3.54,3.54-3.54h131.58c1.95,0,3.54,1.58,3.54,3.54s-1.58,3.54-3.54,3.54Z"/>
    <path class="cls-5" d="M49.18,143.26c-5.47,0-10.67-2.07-14.64-5.84-4.27-4.06-6.62-9.53-6.62-15.42,0-11.73,9.54-21.26,21.26-21.26,1.95,0,3.54,1.58,3.54,3.54s-1.58,3.54-3.54,3.54c-7.82,0-14.17,6.36-14.17,14.17,0,3.92,1.57,7.58,4.42,10.29,2.64,2.51,6.11,3.9,9.76,3.9s7.35-1.47,10.03-4.15,4.15-6.24,4.15-10.03c0-1.95,1.58-3.54,3.54-3.54s3.47,1.62,3.47,3.58c0,5.68-2.15,10.98-6.16,15-4.02,4.02-9.35,6.23-15.03,6.23h0Z"/>
    <path class="cls-1" d="M96.3,122.04c.13-.08.24-.17.37-.25.31-.22.61-.45.92-.68.24-.19.49-.38.72-.57.32-.27.62-.56.93-.84.2-.19.4-.39.6-.59.13-.14.29-.27.42-.41.16-.18.29-.37.45-.55.18-.2.35-.4.51-.61.29-.36.56-.73.82-1.1.12-.17.24-.35.35-.52.29-.43.55-.87.8-1.31.07-.13.13-.26.2-.39.26-.5.51-1,.73-1.52.04-.1.08-.2.13-.31.22-.55.43-1.09.61-1.65.03-.12.07-.23.1-.35.16-.55.31-1.1.43-1.67.04-.18.06-.37.09-.55.09-.51.18-1.01.24-1.52.03-.29.03-.57.06-.86.03-.43.06-.85.07-1.29v-.16c0-.32-.03-.64-.05-.95-.02-.31,0-.62-.03-.94,0-.05-.02-.1-.03-.16-.03-.27-.08-.54-.11-.8-.06-.41-.11-.82-.19-1.23-.08-.41-.19-.82-.29-1.22-.06-.21-.1-.43-.17-.64-2.58-8.84-10.74-15.32-20.4-15.32-.09,0-.19.02-.29.02s-.2-.02-.3-.02c-11.4,0-20.67,9.28-20.67,20.67v36.03c0,11.73,9.54,21.26,21.26,21.26s21.26-9.54,21.26-21.26c0-7.39-3.8-13.91-9.54-17.72v-.02ZM70.4,123.96v-19.64c0-7.72,6.21-14.01,13.9-14.17,6.52.13,12.13,4.39,13.88,10.2.04.13.07.26.1.4.08.28.14.55.2.82.06.29.09.59.13.88.02.16.05.32.07.48.03.24.03.47.03.72,0,.26.03.52.03.77,0,.26-.03.51-.04.77-.02.23-.02.45-.04.67-.03.31-.08.61-.14.92-.03.15-.05.31-.08.46-.08.35-.17.7-.27,1.04-.03.1-.05.2-.08.3-.12.36-.24.72-.39,1.06-.03.08-.06.16-.09.24-.14.34-.31.67-.48.99-.05.09-.09.18-.14.27-.17.3-.35.59-.53.88-.08.12-.15.23-.23.35-.18.25-.36.51-.56.75-.11.13-.22.27-.33.4-.19.22-.39.44-.59.65-.13.13-.26.26-.4.39-.2.19-.41.39-.62.56-.16.13-.32.25-.48.38-.2.16-.4.31-.61.45-.21.14-.43.28-.64.41-.18.11-.35.22-.52.32-.29.16-.58.3-.88.45-.13.06-.24.12-.36.18-.38.16-.77.3-1.15.44-.06.02-.12.04-.18.07-.45.14-.92.27-1.38.37h-.02c-.47.1-.95.18-1.43.23h-.02c-.49.05-.98.08-1.47.08-5.45,0-10.41,2.08-14.17,5.46h0ZM84.58,153.93c-7.82,0-14.17-6.36-14.17-14.17s6.36-14.17,14.17-14.17,14.17,6.36,14.17,14.17-6.36,14.17-14.17,14.17Z"/>
    <path class="cls-4" d="M224.53,159.2c-.91,0-1.81-.35-2.5-1.04l-20.81-20.81-20.81,20.81c-1.38,1.38-3.63,1.38-5.01,0s-1.38-3.63,0-5.01l23.32-23.32c1.33-1.33,3.68-1.33,5.01,0l23.32,23.32c1.38,1.38,1.38,3.63,0,5.01-.69.69-1.6,1.04-2.5,1.04h-.02Z"/>
    <circle class="cls-3" cx="77.39" cy="112.41" r="3.7"/>
  </g>
</svg>