<?xml version="1.0" encoding="UTF-8"?>
<svg id="Camada_2" data-name="Camada 2" xmlns="http://www.w3.org/2000/svg" xmlns:xlink="http://www.w3.org/1999/xlink" viewBox="0 0 874 333.24">
  <defs>
    <style>
      .cls-1 {
        fill: url(#Gradiente_sem_nome_8-4);
      }

      .cls-1, .cls-2, .cls-3, .cls-4, .cls-5, .cls-6 {
        stroke-width: 0px;
      }

      .cls-7 {
        clip-path: url(#clippath-2);
      }

      .cls-2 {
        fill: none;
      }

      .cls-8 {
        clip-path: url(#clippath-1);
      }

      .cls-3 {
        fill: #d1d1d1;
      }

      .cls-9 {
        clip-path: url(#clippath);
      }

      .cls-4 {
        fill: url(#Gradiente_sem_nome_8-2);
      }

      .cls-5 {
        fill: url(#Gradiente_sem_nome_8);
      }

      .cls-6 {
        fill: url(#Gradiente_sem_nome_8-3);
      }
    </style>
    <clipPath id="clippath">
      <path class="cls-2" d="m584.43,248.28c-1.29-2.86-3.15-6.43-6.29-12.01-3.15-5.29-8.29-13.58-11.3-18.3-7.29-11.01-10.01-14.15-16.59-14.15h-8.29v21.02c0,19.73,1.29,21.31,8.44,21.59l3,.14v1.71h-34.6v-1.71l3-.14c7.15-.29,8.44-1.86,8.44-21.59v-49.48c0-19.73-1.29-21.31-8.44-21.59l-3-.14v-1.72h34.6v1.72l-3,.14c-7.15.29-8.44,1.86-8.44,21.59v26.74h4.72c6,0,10.15-1.86,21.45-14.16l8.44-9.15c12.58-13.73,12.3-24.59,3-25.02l-3-.14v-1.72h34.89v1.72l-2.29.14c-6.15.29-11.73,5.43-32.75,28.17l-7.58,8.15-7.58,7.72c6.01,2.15,9.29,6.29,17.45,18.73,3.86,5.72,8.58,13.01,10.44,15.87,6,9.72,10.58,13.73,15.3,14.01l2.57.14v1.71h-22.59Z"/>
    </clipPath>
    <linearGradient id="Gradiente_sem_nome_8" data-name="Gradiente sem nome 8" x1="511.12" y1="197.36" x2="882.1" y2="197.36" gradientUnits="userSpaceOnUse">
      <stop offset="0" stop-color="#d3c790"/>
      <stop offset="1" stop-color="#afa36d"/>
    </linearGradient>
    <clipPath id="clippath-1">
      <path class="cls-2" d="m660.08,248.28v-1.71l3-.14c7.15-.29,8.44-1.86,8.44-21.59v-49.48c0-19.73-1.29-21.31-8.44-21.59l-3-.14v-1.72h69.21v25.31h-1.29l-1.57-4.86c-5.43-17.02-15.87-18.59-29.17-18.59h-7.29c-6.29,0-6.72,2.29-6.72,21.59v22.59h8.44c6.43,0,13.73-.29,16.87-12.01l.86-3.15h1.29v32.03h-1.29l-.86-3.15c-3.15-11.73-10.44-12.01-16.87-12.01h-8.44v25.17c0,19.31.43,21.59,6.72,21.59h10.15c14.59,0,22.59-2.72,29.17-22.88l1.57-4.86h1.29v29.6h-72.07Z"/>
    </clipPath>
    <clipPath id="clippath-2">
      <path class="cls-2" d="m811.08,248.28v-1.71l3-.14c7.15-.29,8.44-1.86,8.44-21.59v-23.16l-16.02-24.74c-11.58-18.16-14.58-23.02-20.59-23.16l-2.57-.14v-1.72h34.03v1.72l-3,.14c-8.44.43-5.29,6,4.72,22.45l14.16,23.02,10.58-15.73c5.01-7.44,9.29-15.44,9.29-21.88,0-3.86-1.86-7.58-7.44-7.87l-3-.14v-1.72h31.32v1.72l-3,.14c-5.43.14-8.44,4.86-24.74,29.74l-12.01,18.02v23.31c0,19.73,1.29,21.31,8.44,21.59l3,.14v1.71h-34.6Z"/>
    </clipPath>
    <linearGradient id="Gradiente_sem_nome_8-2" data-name="Gradiente sem nome 8" x1="360.17" y1="46.31" x2="410.68" y2="46.31" xlink:href="#Gradiente_sem_nome_8"/>
    <linearGradient id="Gradiente_sem_nome_8-3" data-name="Gradiente sem nome 8" x1="492.08" y1="72.43" x2="555.89" y2="72.43" xlink:href="#Gradiente_sem_nome_8"/>
    <linearGradient id="Gradiente_sem_nome_8-4" data-name="Gradiente sem nome 8" x1="372.48" y1="34.87" x2="381.28" y2="34.87" xlink:href="#Gradiente_sem_nome_8"/>
  </defs>
  <g id="LOGOTIPOS">
    <g>
      <g>
        <path class="cls-3" d="m235.85,333.21c-6.33,0-11.06-4.82-11.06-11s4.73-11,11.09-11c2.96,0,5.23.92,6.53,1.63v1.69c-1.69-.86-3.9-1.71-6.53-1.71-5.53,0-9.34,4.14-9.34,9.4s3.84,9.4,9.31,9.4c1.86,0,3.75-.41,5.15-1v-6.92h1.66v7.89c-1.6.86-3.96,1.63-6.8,1.63Z"/>
        <path class="cls-3" d="m264.13,311.57c4.38,0,7.04,2.34,7.04,6.18,0,3.22-1.95,5.35-4.94,5.94l5.15,9.17h-1.89l-4.97-8.96h-5.26v8.96h-1.71v-21.29h6.59Zm-4.88,1.45v9.46h4.88c3.34,0,5.29-1.81,5.29-4.73s-1.98-4.73-5.35-4.73h-4.82Z"/>
        <path class="cls-3" d="m285.88,332.86v-21.29h1.71v21.29h-1.71Z"/>
        <path class="cls-3" d="m305.64,313.02v8.4h8.66v1.45h-8.66v9.99h-1.71v-21.29h12v1.45h-10.29Z"/>
        <path class="cls-3" d="m330.29,332.86v-21.29h12.63v1.45h-10.91v8.34h9.29v1.45h-9.29v8.6h11.35v1.45h-13.07Z"/>
        <path class="cls-3" d="m372.86,332.86v-21.29h3.73v21.29h-3.73Z"/>
        <path class="cls-3" d="m396.15,320.59l-.83-.83v13.1h-3.58v-21.61h.06l9.91,11,9.91-11h.06v21.61h-3.55v-13.1l-.86.83c-1.83,2.16-3.7,4.29-5.56,6.42l-5.56-6.42Z"/>
        <path class="cls-3" d="m436.41,311.18c6.24,0,11.03,4.82,11.03,11.03s-4.7,11.03-11.03,11.03-11.03-4.82-11.03-11.03,4.73-11.03,11.03-11.03Zm0,18.63c4.23,0,7.27-3.28,7.27-7.6s-3.05-7.6-7.27-7.6-7.3,3.31-7.3,7.6,3.08,7.6,7.3,7.6Z"/>
        <path class="cls-3" d="m476.14,326.74c0,3.85-3.07,6.12-7.6,6.12h-7.42v-21.29h6.74c4.35,0,7.45,2.1,7.45,5.91,0,1.92-1.12,3.49-2.69,4.2,1.98.68,3.52,2.69,3.52,5.06Zm-8.22-6.12c.62,0,1.24-.03,1.8-.09,1.09-.35,1.8-1.33,1.8-2.78,0-1.98-1.33-3.2-3.43-3.2h-3.4v6.06h3.22Zm-3.22,9.26h3.99c2.13,0,3.64-1.27,3.64-3.31s-1.36-3.28-3.22-3.28h-4.41v6.59Z"/>
        <path class="cls-3" d="m490.02,332.86v-21.29h3.73v21.29h-3.73Z"/>
        <path class="cls-3" d="m508.9,332.86v-21.29h3.73v18.15h8.66v3.13h-12.39Z"/>
        <path class="cls-3" d="m534.46,332.86v-21.29h3.73v21.29h-3.73Z"/>
        <path class="cls-3" d="m560.79,311.24h.12l10.08,21.61h-3.9l-1.89-4.23h-8.69l-1.89,4.23h-3.9l10.08-21.61Zm3.19,14.61c-1.21-2.72-2.22-5.12-3.1-7.54-.92,2.22-2.01,4.94-3.16,7.54h6.27Zm-2.04-22.06h4.52l-4.47,5.94h-2.99l2.93-5.94Z"/>
        <path class="cls-3" d="m590.73,311.57c4.82,0,7.87,2.42,7.87,6.77,0,3.13-1.89,5.21-4.2,6l4.64,8.52h-3.99l-4.08-7.89h-3.76v7.89h-3.67v-21.29h7.19Zm-3.52,3.13v7.24h3.73c2.4,0,3.93-1.27,3.93-3.61s-1.6-3.64-4.11-3.64h-3.55Z"/>
        <path class="cls-3" d="m612.68,332.86v-21.29h3.73v21.29h-3.73Z"/>
        <path class="cls-3" d="m639.01,311.24h.12l10.08,21.61h-3.9l-1.89-4.23h-8.69l-1.89,4.23h-3.9l10.08-21.61Zm3.19,14.61c-1.21-2.72-2.22-5.12-3.1-7.54-.92,2.22-2.01,4.94-3.16,7.54h6.27Z"/>
      </g>
      <g>
        <path class="cls-3" d="m0,248.28v-1.71l3-.14c7.15-.29,8.44-1.86,8.44-21.59v-49.48c0-19.73-1.29-21.31-8.44-21.59l-3-.14v-1.72h41.9c18.45,0,33.17,7.15,33.17,23.02s-16.3,21.31-27.17,23.74c11.87,1.43,32.46,7.15,32.46,25.45,0,17.16-16.44,24.17-38.89,24.17H0Zm42.33-94.52h-12.44c-6.29,0-6.72,2.29-6.72,21.59v22.59h18.02c12.87,0,20.59-7.58,20.59-23.02s-9.29-21.16-19.45-21.16Zm-1.14,45.9h-18.02v25.17c0,19.31.43,21.59,6.72,21.59h10.87c16.73,0,26.31-6.72,26.31-23.16,0-14.87-9.15-23.6-25.88-23.6Z"/>
        <path class="cls-3" d="m139.14,248.28v-1.71l3-.14c7.15-.29,8.44-1.86,8.44-21.59v-49.48c0-19.73-1.29-21.31-8.44-21.59l-3-.14v-1.72h69.21v25.31h-1.29l-1.57-4.86c-5.43-17.02-15.87-18.59-29.17-18.59h-7.29c-6.29,0-6.72,2.29-6.72,21.59v22.59h8.44c6.43,0,13.73-.29,16.87-12.01l.86-3.15h1.29v32.03h-1.29l-.86-3.15c-3.15-11.73-10.44-12.01-16.87-12.01h-8.44v25.17c0,19.31.43,21.59,6.72,21.59h10.15c14.59,0,22.59-2.72,29.17-22.88l1.57-4.86h1.29v29.6h-72.07Z"/>
        <path class="cls-3" d="m302.72,250.14c-6.72,0-12.73-1.43-19.59-5.72-2.15-1.43-3.15-1.86-4.72-1.86-3.15,0-6.01,3-9.29,7.58h-1.14v-31.6h1.29l1.72,5.29c3.43,10.44,13.58,24.45,31.6,24.45,12.15,0,21.74-5.72,21.74-18.73,0-28.6-52.34-22.88-52.34-54.48,0-14.87,12.3-25.02,27.31-25.02,5.86,0,11.15,1.72,15.87,4.43,2,1.14,3.15,2,4.86,2,2.29,0,4.43-1.57,8.15-6.43h1.14v27.31h-1.29l-1.57-4.86c-4.15-13.01-15.59-20.59-26.6-20.59s-18.16,6-18.16,15.44c0,29.31,53.05,23.45,53.05,56.77,0,15.44-13.73,26.03-32.03,26.03Z"/>
        <path class="cls-3" d="m409.55,248.28v-1.71l3-.14c7.15-.29,8.44-1.86,8.44-21.59v-49.76c0-19.3-.43-21.31-6.86-21.31h-3.15c-7.01,0-14.87,1.29-21.31,21.45l-1.57,4.86h-1.29v-28.17h80.08v28.17h-1.29l-1.57-4.86c-6.58-20.16-14.3-21.45-21.31-21.45h-3.29c-6.29,0-6.72,2-6.72,21.31v49.76c0,19.73,1.29,21.31,8.44,21.59l3,.14v1.71h-34.6Z"/>
        <g class="cls-9">
          <rect class="cls-5" x="511.12" y="144.24" width="370.98" height="106.24"/>
        </g>
        <g class="cls-8">
          <rect class="cls-5" x="511.12" y="144.24" width="370.98" height="106.24"/>
        </g>
        <g class="cls-7">
          <rect class="cls-5" x="511.12" y="144.24" width="370.98" height="106.24"/>
        </g>
      </g>
      <g>
        <path class="cls-3" d="m551.68,50.51h-156.32c-2.32,0-4.21-1.88-4.21-4.21s1.88-4.21,4.21-4.21h156.32c2.32,0,4.21,1.88,4.21,4.21s-1.88,4.21-4.21,4.21Z"/>
        <path class="cls-3" d="m343.37,71.52c-6.5,0-12.68-2.46-17.39-6.94-5.07-4.82-7.87-11.32-7.87-18.32,0-13.93,11.33-25.26,25.26-25.26,2.32,0,4.21,1.88,4.21,4.21s-1.88,4.21-4.21,4.21c-9.29,0-16.84,7.56-16.84,16.84,0,4.66,1.86,9,5.25,12.22,3.14,2.98,7.26,4.63,11.6,4.63s8.73-1.75,11.91-4.93c3.18-3.18,4.93-7.41,4.93-11.91,0-2.32,1.88-4.21,4.21-4.21s4.12,1.92,4.12,4.25c0,6.75-2.55,13.05-7.32,17.82-4.77,4.77-11.11,7.4-17.86,7.4Z"/>
        <path class="cls-4" d="m399.35,46.31c.15-.1.29-.2.44-.3.37-.26.73-.54,1.09-.81.29-.22.58-.45.86-.68.38-.32.74-.66,1.1-1,.24-.23.48-.46.71-.7.16-.17.34-.32.5-.49.19-.21.35-.44.54-.65.21-.24.41-.48.6-.73.34-.43.67-.87.98-1.31.14-.2.28-.41.41-.62.34-.51.65-1.03.95-1.56.08-.15.16-.31.24-.46.31-.59.61-1.19.87-1.8.05-.12.1-.24.15-.37.26-.65.51-1.3.72-1.96.04-.14.08-.27.12-.41.19-.65.37-1.31.51-1.98.05-.21.07-.44.11-.65.11-.6.21-1.2.28-1.81.04-.34.04-.68.07-1.02.03-.51.07-1.01.08-1.53,0-.06,0-.13,0-.19,0-.38-.04-.76-.06-1.13-.02-.37,0-.74-.04-1.12,0-.06-.02-.12-.03-.19-.03-.32-.09-.64-.13-.95-.07-.49-.13-.98-.22-1.46-.1-.49-.23-.97-.35-1.45-.07-.25-.12-.51-.2-.76-3.06-10.5-12.76-18.2-24.23-18.2-.11,0-.22.02-.34.02-.12,0-.24-.02-.36-.02-13.54,0-24.56,11.02-24.56,24.56v42.8c0,13.93,11.33,25.26,25.26,25.26s25.26-11.33,25.26-25.26c0-8.78-4.51-16.52-11.33-21.05Zm-30.77,2.28v-23.33c0-9.17,7.38-16.65,16.51-16.83,7.74.16,14.41,5.22,16.49,12.12.05.15.08.31.12.47.09.33.17.65.24.98.07.35.11.7.16,1.05.02.19.06.38.08.57.03.28.03.56.04.85.01.31.04.62.03.92,0,.31-.03.61-.05.91-.02.27-.02.53-.05.8-.04.37-.1.73-.17,1.09-.03.18-.06.37-.09.55-.09.42-.2.83-.32,1.24-.03.12-.06.24-.1.36-.14.43-.29.85-.46,1.26-.04.09-.07.19-.11.28-.17.4-.37.8-.57,1.18-.06.11-.11.21-.17.32-.2.36-.41.7-.63,1.04-.09.14-.18.27-.27.41-.21.3-.43.6-.66.89-.13.16-.26.32-.39.47-.23.26-.46.52-.7.77-.15.16-.31.31-.47.46-.24.23-.49.46-.74.67-.19.16-.38.3-.57.45-.24.19-.48.37-.73.54-.25.17-.51.33-.76.49-.21.13-.41.26-.62.38-.34.19-.69.36-1.05.53-.15.07-.29.14-.43.21-.45.19-.91.36-1.37.52-.07.02-.14.05-.21.08-.54.17-1.09.32-1.64.44,0,0-.01,0-.02,0-.56.12-1.13.21-1.7.27,0,0-.01,0-.02,0-.58.06-1.17.09-1.75.09-6.47,0-12.37,2.47-16.84,6.49Zm16.84,35.61c-9.29,0-16.84-7.56-16.84-16.84s7.56-16.84,16.84-16.84,16.84,7.56,16.84,16.84-7.56,16.84-16.84,16.84Z"/>
        <path class="cls-6" d="m551.68,90.46c-1.08,0-2.15-.41-2.97-1.23l-24.72-24.72-24.72,24.72c-1.64,1.64-4.31,1.64-5.95,0-1.64-1.64-1.64-4.31,0-5.95l27.7-27.7c1.58-1.58,4.37-1.58,5.95,0l27.7,27.7c1.64,1.64,1.64,4.31,0,5.95-.82.82-1.9,1.23-2.97,1.23Z"/>
        <circle class="cls-1" cx="376.88" cy="34.87" r="4.4"/>
      </g>
    </g>
  </g>
</svg>