<?xml version="1.0" encoding="UTF-8"?>
<svg id="Camada_1" data-name="Camada 1" xmlns="http://www.w3.org/2000/svg" viewBox="0 0 256 256">
  <defs>
    <style>
      .cls-1 {
        fill: #164f8e;
      }

      .cls-1, .cls-2 {
        stroke-width: 0px;
      }

      .cls-2 {
        fill: #fff;
      }
    </style>
  </defs>
  <rect class="cls-1" x="-18.4" y="-9.21" width="290.04" height="275.74"/>
  <g>
    <path class="cls-2" d="M128,28.73c-54.82,0-99.27,44.44-99.27,99.27,0,4.85.35,9.62,1.02,14.29.89,6.2,2.36,12.21,4.34,17.98,0,.02.01.03.02.05l25.42,4.59,51.92-51.92,46.83,46.32,20.87-8.65v-49.38h-20.87v28.51l-46.32-46.32-60.39,59.62c-.02-.08-.03-.16-.04-.24-.93-4.8-1.41-9.76-1.41-14.84,0-2.13.09-4.24.26-6.32,3.22-40.06,36.74-71.56,77.63-71.56,43.02,0,77.89,34.87,77.89,77.89s-34.87,77.89-77.89,77.89c-21.79,0-41.48-8.95-55.62-23.36l-15.21,15.02c18.01,18.34,43.09,29.72,70.83,29.72,54.82,0,99.27-44.44,99.27-99.27S182.82,28.73,128,28.73Z"/>
    <rect class="cls-2" x="96.8" y="147.09" width="13.15" height="13.15"/>
    <rect class="cls-2" x="112.96" y="147.09" width="13.15" height="13.15"/>
    <rect class="cls-2" x="96.8" y="162.34" width="13.15" height="13.15"/>
    <rect class="cls-2" x="112.96" y="162.34" width="13.15" height="13.15"/>
  </g>
</svg>