<?xml version="1.0" encoding="UTF-8"?>
<svg id="Camada_1" data-name="Camada 1" xmlns="http://www.w3.org/2000/svg" viewBox="0 0 256 256">
  <defs>
    <style>
      .cls-1 {
        fill: #211f20;
      }

      .cls-1, .cls-2 {
        stroke-width: 0px;
      }

      .cls-2 {
        fill: #fcc143;
      }
    </style>
  </defs>
  <rect class="cls-2" x="-18.4" y="-9.21" width="290.04" height="275.74"/>
  <g>
    <circle class="cls-2" cx="121.9" cy="122" r="77.46"/>
    <path class="cls-1" d="M210.28,83.62c-.69.02-1.35-.35-1.63-.98-.17-.37-.32-.75-.5-1.16-1.5-3.31-3.3-6.47-5.34-9.48-21.22-31.49-59.22-32.32-91.92-20.29-16.1,5.6-29.83,14.88-39.15,27.4-.19.26-.46.46-.76.57-7.11,2.64-13.89,6.03-20.33,10.24-12.13,7.79-23.89,21.31-20.32,36.9,1.12,5.15,3.31,9.91,6.82,13.89,3.63,4.01,8.74,7.25,14.15,8.69,1.25.33,1.69,1.86.84,2.83-2.98,3.4-5.51,7.19-7.28,11.44-2.74,6.53-2.61,14.98,2.12,20.67,4.66,5.55,11.9,7.09,18.61,7.33,2.53.08,5.06-.06,7.56-.37l1.51.57c13.81,15.56,36.81,20.56,59.42,19.43,1.89-.04,3.89-.2,5.73-.49,12.96-1.93,25.5-6.84,36.07-14.63,8.98-6.55,15.43-15.03,21.09-23.98,8.46-13.81,14.15-29.28,16.81-45.24,1.16-6.1,1.04-12.23,2.03-18.35.06-.39.26-.74.55-1.01,2.57-2.38,5.03-4.89,7.06-7.74.03-.05.07-.1.1-.15,8.01-12.85-2.79-16.4-13.25-16.11ZM113.21,57.84c24.95-10.1,56.15-13.28,77.5,6.06,5.12,4.52,9.49,9.97,12.84,15.94.57,1,1.09,2.01,1.59,3.04.17.36.36.73.52,1.11-21.45,2.36-41.85,9.76-62.17,16.51-13.88,4.95-27.95,9.83-41.21,16.29-10.73,5.23-21.35,11.1-30.77,18.55-1,.79-2.49.25-2.77-1s-.51-2.38-.6-3.59c-5.11-34.79,12.88-60.6,45.08-72.91ZM43.44,135.06c-5.04-5.62-7.34-13.88-4.8-21.18,2.57-7.76,8.97-14.09,15.46-19.17,2.54-1.96,5.2-3.81,7.94-5.55,1.47-.93,3.23.6,2.52,2.19-3.46,7.72-5.48,16.33-5.75,25.77-.19,4.97.07,9.93.73,14.83,0,0,0,0,0,0,.5,2.54.68,5.31,1.38,7.83-.99,1.04-1.24,1.3-2.23,2.34h0c-5.6-1.18-11.47-2.66-15.26-7.06ZM65.83,187.83c-8.21-.64-17.04-4.5-16.76-13.87.29-8.12,6.21-14.72,12.79-19.9,0,.61,0,1.23,0,1.85.06,3.83.42,7.67,1.14,11.46,1.32,6.91,3.66,12.86,6.8,17.95.74,1.2-.14,2.73-1.55,2.67-.82-.03-1.63-.09-2.43-.17ZM210.27,126.35c-1.19,6.15-2.8,12.22-4.94,18.1-4.29,11.66-10.28,23.03-18.19,32.59-8.27,11.07-20.09,19.1-33.18,23.39-13.08,4.61-27.36,4.35-40.78,2.03-20.81-3.55-37.37-15.28-41.43-36.8-.66-3.25-1.01-6.58-1.1-9.92,0-.39-.01-.77,0-1.16,0-1.19,1.15-2.04,2.27-1.66,18.02,5.99,41.8,1.58,59.11-2.65,28.7-7.28,56.7-19.29,79.56-38.4.11-.1.22-.19.33-.29.1,4.95-.9,9.89-1.65,14.77ZM209.37,109.2c-22.59,18.31-50.49,29.02-78.76,34.88-15.27,3.01-38.17,6.64-54.05,1.04-1.23-.44-1.54-2.04-.58-2.93,3.32-3.08,6.93-5.94,10.69-8.62,11.72-8.32,24.74-15.12,38.01-20.7,13.46-5.68,27.11-10.98,40.98-15.59,13.74-4.47,27.87-8.93,42.27-10.15,25.66-1.73,13.22,12.57,1.44,22.07Z"/>
  </g>
</svg>