<svg width="513" height="512" viewBox="0 0 513 512" fill="none" xmlns="http://www.w3.org/2000/svg">
<rect width="512" height="512" transform="translate(0.5)" fill="white"/>
<path d="M445.115 80.918H67.8596V86.7808H445.115V80.918Z" fill="#D1D3D4"/>
<path d="M475.175 86.791H37.825V90.3139H475.175V86.791Z" fill="#231F20"/>
<path d="M415.029 88.6133H96.6855V162.748H415.029V88.6133Z" fill="url(#paint0_linear_1436_91129)"/>
<path d="M445.115 164.41H67.8596V170.247H445.115V164.41Z" fill="#D1D3D4"/>
<path d="M99.0771 88.541H95.5542V162.675H99.0771V88.541Z" fill="#231F20"/>
<path d="M337.835 88.541H334.312V162.675H337.835V88.541Z" fill="#231F20"/>
<path d="M258.249 88.541H254.726V162.675H258.249V88.541Z" fill="#231F20"/>
<path d="M178.689 88.541H175.166V162.675H178.689V88.541Z" fill="#231F20"/>
<path d="M417.421 88.541H413.898V162.675H417.421V88.541Z" fill="#231F20"/>
<path d="M475.175 160.898H37.825V164.421H475.175V160.898Z" fill="#231F20"/>
<path d="M221.04 324.81C217.337 329.053 211.86 332.062 202.834 332.062H198.591C184.089 332.062 174.754 322.882 174.754 309.613V265.513C174.754 252.219 184.063 243.064 198.591 243.064H202.834C211.886 243.064 217.337 246.073 221.194 250.316C222.557 251.833 224.203 254.276 224.203 254.842C224.203 255.407 223.791 255.793 223.251 256.076L218.057 258.673C217.646 258.956 217.234 259.084 216.823 259.084C216.411 259.084 216.129 258.956 215.871 258.544C212.451 253.89 207.386 251.01 202.86 251.01H198.617C190.414 251.01 184.114 257.31 184.114 265.513V309.613C184.114 317.559 190.414 324.27 198.617 324.27H202.86C207.514 324.27 212.58 321.262 215.871 316.453C216.154 316.042 216.411 315.913 216.823 315.913C217.234 315.913 217.646 316.042 218.057 316.325L223.251 318.922C223.791 319.205 224.203 319.616 224.203 320.156C224.203 320.696 222.686 323.036 221.04 324.81V324.81Z" fill="#231F20"/>
<path d="M289.363 330.706H282.369C281.674 330.706 281.134 330.423 281.006 329.754L275.657 310.854C275.529 310.16 274.963 310.031 274.295 310.031H248.554C247.86 310.031 247.32 310.16 247.192 310.854L241.843 329.754C241.714 330.448 241.149 330.706 240.48 330.706H233.511C232.56 330.706 232.02 330.294 232.02 329.6C232.02 328.906 232.56 327.414 232.971 326.18L257.477 245.54C257.606 244.845 258.172 244.562 258.84 244.562H264.034C264.729 244.562 265.269 244.845 265.397 245.54L289.646 325.357C290.34 327.414 290.88 329.06 290.88 329.6C290.88 330.268 290.34 330.706 289.363 330.706V330.706ZM263.34 265.263C263.212 264.568 262.106 261.02 261.849 259.914H261.309C261.026 261.02 260.074 264.44 259.817 265.263L249.969 301.005C249.969 301.7 250.509 302.24 251.46 302.24H271.183C272.134 302.24 272.7 301.7 272.7 301.005L263.392 265.263H263.34Z" fill="#231F20"/>
<path d="M326.88 332.062H320.992C311.812 332.062 306.206 329.053 302.503 324.682C301.269 323.165 299.777 320.85 299.777 320.156C299.777 319.745 300.06 319.333 300.6 319.05L305.794 316.325C306.206 316.196 306.617 315.913 307.029 315.913C307.44 315.913 307.852 316.196 308.109 316.607C311.4 321.545 316.312 324.27 320.966 324.27H326.855C335.083 324.27 341.64 317.842 341.64 309.613C341.64 299.893 332.872 295.65 323.152 291.253C312.609 286.47 300.832 281.25 300.832 265.513C300.832 252.219 310.14 243.064 324.643 243.064H326.829C336.009 243.064 341.486 246.073 345.163 250.316C346.68 252.09 348.172 254.276 348.172 254.842C348.172 255.407 347.76 255.793 347.22 256.076L342.566 258.39C342.026 258.673 341.203 259.084 340.792 259.084C340.38 259.084 340.123 258.956 339.84 258.544C336.549 253.607 331.483 251.01 326.829 251.01H324.643C316.569 251.01 310.14 257.31 310.14 265.513C310.14 274.153 319.32 278.242 329.58 282.896C339.712 287.55 350.795 293.567 350.795 309.587C350.795 322.882 341.486 332.036 326.829 332.036L326.88 332.062Z" fill="#231F20"/>
<path d="M415.467 330.706H408.498C407.83 330.706 407.264 330.423 407.135 329.754L401.787 310.854C401.658 310.16 401.092 310.031 400.424 310.031H374.684C374.015 310.031 373.449 310.16 373.321 310.854L367.998 329.754C367.869 330.448 367.304 330.706 366.635 330.706H359.666C358.715 330.706 358.149 330.294 358.149 329.6C358.149 328.906 358.689 327.414 359.101 326.18L383.607 245.54C383.735 244.845 384.301 244.562 384.969 244.562H390.164C390.832 244.562 391.398 244.845 391.527 245.54L415.75 325.357C416.444 327.414 416.984 329.06 416.984 329.6C416.984 330.268 416.444 330.706 415.467 330.706V330.706ZM389.444 265.263C389.315 264.568 388.209 261.02 387.927 259.914H387.387C387.104 261.02 386.152 264.44 385.895 265.263L376.047 301.005C376.047 301.7 376.587 302.24 377.564 302.24H397.287C398.238 302.24 398.778 301.7 398.778 301.005L389.469 265.263H389.444Z" fill="#231F20"/>
<path d="M451.209 332.062H445.321C436.141 332.062 430.535 329.053 426.832 324.682C425.598 323.165 424.081 320.85 424.081 320.156C424.081 319.745 424.363 319.333 424.903 319.05L430.098 316.325C430.509 316.196 430.921 315.913 431.332 315.913C431.743 315.913 432.155 316.196 432.412 316.607C435.703 321.545 440.641 324.27 445.295 324.27H451.183C459.386 324.27 465.969 317.842 465.969 309.613C465.969 299.893 457.201 295.65 447.481 291.253C436.938 286.47 425.161 281.25 425.161 265.513C425.161 252.219 434.469 243.064 448.998 243.064H451.183C460.338 243.064 465.841 246.073 469.518 250.316C471.035 252.09 472.526 254.276 472.526 254.842C472.526 255.407 472.115 255.793 471.549 256.076L466.895 258.39C466.355 258.673 465.532 259.084 465.121 259.084C464.709 259.084 464.452 258.956 464.169 258.544C460.878 253.607 455.812 251.01 451.158 251.01H448.972C440.872 251.01 434.469 257.31 434.469 265.513C434.469 274.153 443.649 278.242 453.909 282.896C464.041 287.55 475.124 293.567 475.124 309.587C475.124 322.882 465.815 332.036 451.158 332.036L451.209 332.062Z" fill="#231F20"/>
<path d="M66.5737 429.697H39.1879C38.2365 429.697 37.825 429.286 37.825 428.334V344.814C37.825 343.863 38.2365 343.451 39.1879 343.451H66.5737C81.6423 343.451 91.2338 353.043 91.2338 368.086V369.448C91.2338 374.926 86.9909 381.92 82.6194 384.928C82.0794 385.211 81.9508 385.623 81.9508 386.034C81.9508 386.446 82.208 386.728 82.6194 387.114C86.9909 390.406 91.2338 397.786 91.2338 403.288V405.346C91.2338 420.414 81.6423 429.723 66.5737 429.723V429.697ZM78.8908 366.697C78.8908 359.985 73.2851 354.38 66.5737 354.38H51.505C50.5536 354.38 50.1422 354.791 50.1422 355.743V379.014C50.1422 379.966 50.5536 380.377 51.505 380.377H66.5737C73.2851 380.377 78.8908 374.771 78.8908 368.06V366.697V366.697ZM78.8908 403.674C78.8908 396.963 73.2851 391.357 66.5737 391.357H51.505C50.5536 391.357 50.1422 391.768 50.1422 392.72V417.354C50.1422 418.306 50.5536 418.717 51.505 418.717H66.5737C73.2851 418.717 78.8908 413.111 78.8908 406.4V403.648V403.674Z" fill="#501D55"/>
<path d="M157.345 429.713H147.085C146.391 429.713 145.851 429.43 145.722 428.762L140.657 410.684C140.528 410.016 139.962 409.862 139.294 409.862H117.102C116.408 409.862 115.868 409.99 115.739 410.684L110.674 428.762C110.519 429.456 109.979 429.713 109.285 429.713H99.0251C98.0479 429.713 97.5079 429.302 97.5079 428.607C97.5079 428.067 98.1765 426.01 98.8708 423.953L123.094 344.393C123.222 343.699 123.788 343.441 124.457 343.441H131.862C132.557 343.441 133.097 343.724 133.225 344.393L157.602 424.364C158.142 426.01 158.837 428.067 158.837 428.607C158.837 429.276 158.297 429.713 157.345 429.713ZM135.977 394.51L130.088 371.367C129.805 370.261 128.725 366.43 128.442 365.35H127.902C127.619 366.456 126.539 370.57 126.257 371.521L120.368 393.996C119.957 395.641 119.417 397.004 119.417 397.699C119.417 398.393 119.957 398.933 120.908 398.933H135.282C136.234 398.933 136.799 398.393 136.799 397.699C136.799 397.159 136.388 396.053 135.977 394.536V394.51Z" fill="#501D55"/>
<path d="M215.152 422.305C211.32 427.242 205.432 431.073 195.3 431.073H191.186C176.117 431.073 166.551 421.482 166.551 407.802V365.348C166.551 351.668 176.143 342.076 191.186 342.076H195.3C205.02 342.076 210.909 345.625 214.74 350.279C216.643 352.748 218.032 355.216 218.032 355.756C218.032 356.296 217.749 356.708 217.209 356.99L210.086 360.539C209.263 360.95 208.312 361.49 207.772 361.49C207.36 361.49 206.949 361.208 206.666 360.668C204.197 355.73 199.826 353.005 195.3 353.005H191.186C184.474 353.005 178.869 358.61 178.869 365.322V407.776C178.869 414.488 184.5 420.093 191.186 420.093H195.3C199.954 420.093 204.197 417.368 206.794 412.148C207.077 411.608 207.489 411.325 207.9 411.325C208.44 411.325 209.134 411.865 210.086 412.276L217.337 415.979C217.877 416.262 218.16 416.519 218.16 416.931C218.16 417.625 216.926 419.939 215.152 422.279V422.305Z" fill="#501D55"/>
<path d="M281.957 429.713H271.671C271.003 429.713 270.437 429.43 270.309 428.762L265.243 410.684C265.114 410.016 264.549 409.862 263.88 409.862H241.689C241.02 409.862 240.454 409.99 240.326 410.684L235.26 428.762C235.106 429.456 234.566 429.713 233.897 429.713H223.611C222.66 429.713 222.12 429.302 222.12 428.607C222.12 428.067 222.789 426.01 223.483 423.953L247.706 344.393C247.86 343.699 248.4 343.441 249.069 343.441H256.449C257.117 343.441 257.683 343.724 257.811 344.393L282.189 424.364C282.729 426.01 283.423 428.067 283.423 428.607C283.423 429.276 282.883 429.713 281.932 429.713H281.957ZM260.589 394.51L254.7 371.367C254.417 370.261 253.337 366.43 253.054 365.35H252.514C252.257 366.456 251.151 370.57 250.869 371.521L244.98 393.996C244.569 395.641 244.029 397.004 244.029 397.699C244.029 398.393 244.569 398.933 245.546 398.933H259.92C260.872 398.933 261.437 398.393 261.437 397.699C261.437 397.159 261.026 396.053 260.614 394.536L260.589 394.51Z" fill="#501D55"/>
<path d="M345.215 429.729H336.472C335.906 429.729 335.52 429.446 335.238 429.035L306.077 376.037C305.537 375.086 304.02 372.206 303.609 371.1L303.069 371.229C303.326 374.52 303.48 392.186 303.48 402.986V428.315C303.48 429.266 303.069 429.678 302.092 429.678H292.5C291.549 429.678 291.137 429.266 291.137 428.315V344.794C291.137 343.843 291.549 343.432 292.5 343.432H301.269C301.809 343.432 302.22 343.715 302.503 344.126L331.663 397.252C332.075 397.946 333.72 401.083 334.132 402.163L334.672 402.035C334.389 398.743 334.261 381.077 334.261 370.252V344.794C334.261 343.843 334.672 343.432 335.623 343.432H345.215C346.166 343.432 346.578 343.843 346.578 344.794V428.315C346.578 429.266 346.166 429.678 345.215 429.678V429.729Z" fill="#501D55"/>
<path d="M416.16 429.713H405.9C405.206 429.713 404.666 429.43 404.537 428.762L399.472 410.684C399.317 410.016 398.777 409.862 398.083 409.862H375.891C375.223 409.862 374.657 409.99 374.529 410.684L369.463 428.762C369.334 429.456 368.769 429.713 368.1 429.713H357.814C356.863 429.713 356.323 429.302 356.323 428.607C356.323 428.067 357.017 426.01 357.686 423.953L381.934 344.393C382.063 343.699 382.629 343.441 383.297 343.441H390.703C391.397 343.441 391.937 343.724 392.066 344.393L416.443 424.364C417.009 426.01 417.677 428.067 417.677 428.607C417.677 429.276 417.137 429.713 416.186 429.713H416.16ZM394.791 394.51L388.903 371.367C388.62 370.261 387.54 366.43 387.257 365.35H386.717C386.434 366.456 385.354 370.57 385.097 371.521L379.209 393.996C378.797 395.641 378.231 397.004 378.231 397.699C378.231 398.393 378.797 398.933 379.749 398.933H394.123C395.074 398.933 395.64 398.393 395.64 397.699C395.64 397.159 395.229 396.053 394.817 394.536L394.791 394.51Z" fill="#501D55"/>
<path d="M450.515 431.058H444.755C433.8 431.058 427.629 426.686 424.08 421.055C422.846 419.126 422.177 417.763 422.177 417.069C422.177 416.529 422.306 416.246 422.846 415.989L429.84 412.44C430.535 412.029 431.769 411.335 432.309 411.335C432.72 411.335 433.132 411.618 433.415 412.286C435.755 417.352 440.255 420.103 444.78 420.103H450.54C457.252 420.103 462.858 414.498 462.858 407.786C462.858 399.146 454.912 395.597 446.297 391.637C435.626 386.855 423.695 381.377 423.695 365.357C423.695 351.677 433.286 342.086 448.329 342.086H450.515C461.469 342.086 467.64 346.612 471.318 352.089C472.14 353.323 473.22 355.097 473.22 355.766C473.22 356.332 472.963 356.717 472.398 357L464.992 360.703C464.169 361.115 463.5 361.526 462.935 361.526C462.523 361.526 462.112 361.243 461.855 360.703C459.386 355.766 455.015 353.04 450.489 353.04H448.303C441.592 353.04 435.986 358.646 435.986 365.357C435.986 373.303 444.6 376.312 453.78 380.555C464.04 385.209 475.149 391.509 475.149 407.812C475.149 421.492 465.558 431.083 450.515 431.083V431.058Z" fill="#501D55"/>
<defs>
<linearGradient id="paint0_linear_1436_91129" x1="413.615" y1="162.748" x2="106.328" y2="162.748" gradientUnits="userSpaceOnUse">
<stop stop-color="#F3DC0B"/>
<stop offset="1" stop-color="#F3DC0B" stop-opacity="0"/>
</linearGradient>
</defs>
</svg>
