<?xml version="1.0" encoding="UTF-8"?>
<svg id="Camada_2" xmlns="http://www.w3.org/2000/svg" viewBox="0 0 1694.51 231.73">
  <defs>
    <style>
      .cls-1 {
        fill: #fff;
      }
    </style>
  </defs>
  <g id="Camada_1-2" data-name="Camada_1">
    <g>
      <path class="cls-1" d="M1069.15,171.28c-3.9-34.43-7.62-68.88-11.52-103.31-.4-3.53-.3-7.42-2.97-10.42-3.75,1.79-4.64,5.04-6.09,7.73-15.29,28.23-30.47,56.53-45.7,84.8-4.22,7.84-8.48,15.66-12.76,23.46-1.64,2.99-3.59,3.49-5.66.39-.71-1.05-1.27-2.2-1.86-3.33-14.11-26.7-28.29-53.36-42.3-80.11-5.01-9.57-9.64-19.34-14.45-29.02-.97-1.95-1.74-4.67-4.52-4.02-2.61.61-2.33,3.41-2.66,5.55-.05.31-.05.63-.08.95-4.87,45.53-11.31,90.84-18.94,135.99-.42,2.5-.68,5.04-.89,7.57-.13,1.64.27,3.18,1.87,4.04,5.59,3.01,12.44-.49,12.79-6.68,1.43-25.41,4.48-50.67,7.11-75.96.93-8.88,1.35-17.99,4.46-27.98,5.9,7.85,8.57,15.71,12.55,22.81,4.04,7.2,7.43,14.77,11.19,22.13,3.76,7.36,7.67,14.64,11.42,22.01,3.75,7.37,7.13,14.93,11.13,22.15,3.85,6.94,5.61,15.16,12.44,22.07,17.52-38.59,36.74-74.86,57.3-110.88,2.78,2.89,2.77,5.5,3.01,7.96,2.87,30.06,5.78,60.13,8.47,90.21,1.15,12.87.92,12.89,13.91,12.53,7.61-.21,7.89-.35,6.95-8.48-1.24-10.74-2.98-21.41-4.2-32.15Z"/>
      <path class="cls-1" d="M699.82,11.32c.23-4.39-1.33-6.37-6.01-6.14-6.02.3-12.07.03-18.11.07q-9.31.05-9.39,9.38c0,.32,0,.64,0,.95,0,65.13,0,130.27,0,195.4,0,1.91.06,3.81.05,5.72-.02,2.77,1.46,4.11,4.1,4.13,8.26.05,16.52,0,24.78.05,3.19.02,4.6-1.5,4.56-4.64-.04-2.86.09-5.72.09-8.58,0-31.46,0-62.91,0-94.36,0-30.5,0-61,0-91.51,0-3.49-.27-7-.09-10.48Z"/>
      <path class="cls-1" d="M515.26,9.55c.04-3.17-1.54-4.62-4.64-4.62-7.94,0-15.89.04-23.83-.02-3.49-.03-5.38,1.34-5.24,5.04.07,1.9-.03,3.81-.03,5.72,0,64.82,0,129.65,0,194.47,0,1.91.07,3.81.04,5.72-.03,3.17,1.57,4.61,4.67,4.61,7.94,0,15.89-.03,23.83.04,3.5.03,5.37-1.35,5.22-5.05-.09-2.22.02-4.45.02-6.67,0-32.09,0-64.19,0-96.28s0-64.19,0-96.28c0-2.22-.07-4.45-.04-6.67Z"/>
      <path class="cls-1" d="M99.05,218.4c-19.85-2.76-32.81-15.4-41.6-31.79-26.09-48.66-26.23-98-.31-146.79,8.92-16.78,22.06-29.55,42.23-32.43,1.24-.18,2.46-.69,2.39-2.72-1.76-2.23-4.44-1.24-6.73-1.12-19.35,1.04-36.52,8.11-51.72,19.82C-.07,56.77-12.78,118.87,13.95,167.72c16.75,30.61,42.1,49.52,77.11,54.46,3.61.51,7.42,1.49,11.52-.91-1.13-2.1-2.21-2.68-3.53-2.87Z"/>
      <path class="cls-1" d="M1214.85,63.26c-11.67-4.75-23.74-6.96-36.3-6.53-3.17,0-6.36-.07-9.53.02-2.22.07-4.45.21-6.66.54-30.59,4.75-53.75,19.52-63.9,49.93-6.5,19.48-6.41,39.61.44,59.08,8.81,25.09,26.81,40.3,52.79,45.99,17.01,3.73,34.04,3.7,51.07.07,25.63-5.47,43.78-20.17,52.7-44.8,7.69-21.3,7.43-43.15-.63-64.46-7.24-19.17-21.04-32.15-39.98-39.84ZM1238.91,133.95c-.07,12.89-.75,23.76-4.49,34.01-10.32,28.22-30.5,40.14-59.66,39.4-37.86-.95-54.17-27.31-57.66-53.86-2.38-18.08-2.21-36.13,5.12-53.47,7.62-18.06,20.64-29.54,39.86-33.52,24.65-5.12,52.3,1.31,66.07,24.6,4.42,7.45,7.69,15.35,8.97,23.97,1.03,6.92,1.98,13.86,1.79,18.87Z"/>
      <path class="cls-1" d="M1408.35,60.26c-9.24-.21-9.37-.26-12.45,8.51-12.13,34.51-25.12,68.69-38.86,102.58-2.23,5.51-4.15,11.21-7.76,15.94-2.72-.65-3.29-2.6-3.98-4.31-10.02-25.1-20.15-50.16-29.93-75.36-5.52-14.22-10.46-28.67-15.6-43.05-1.04-2.9-2.31-5.58-5.92-4.87-5.67,1.11-11.35.2-17.7.01.01,4.44,1.79,7.18,2.97,10.08,12.93,31.82,25.95,63.6,38.88,95.41,5.51,13.55,10.9,27.15,16.32,40.74.93,2.34,1.47,4.86,4.36,5.82,7.11,2.38,13.19-.14,16.02-7.13,4.53-11.2,8.67-22.56,13.25-33.74,14.34-35.02,29.2-69.82,44.55-104.41.82-1.84,2.65-3.84.45-6.21-1.48,0-3.04.03-4.6,0Z"/>
      <path class="cls-1" d="M246.1,137.82c-10.34-4.99-20.48-10.21-28.58-18.64-1.45-1.54-2.96-3.75-5.57-2.56-2.54,1.17-2.07,3.71-1.93,5.89.86,13.42,3.96,26.3,9.09,38.77,3.77,9.16,9.72,17.03,14.19,25.77,12.95,14.87,28.15,26.91,45.66,36.02.63.03,1.28-.02,1.87.14,8.2,2.24,8.09,2.23,10.39-5.31,3.28-10.77,3.75-21.85,4.01-32.99.16-6.76-2.21-12.04-6.62-17.17-11.74-13.56-26.74-22.29-42.52-29.92Z"/>
      <path class="cls-1" d="M1512.54,200.62c-15.17,2.24-30.47,1.99-45.74,1.95-6.89-.02-7.17-.21-7.25-6.88-.22-17.18-.27-34.37-.15-51.55.05-6.89.55-7.3,8.03-7.16,13.36.25,26.71.79,40.06,1.25,2.19.08,4.52.87,5.7-1.92,2.51-5.95-.5-10.47-6.98-10.32-3.82.09-7.63.4-11.44.53-9.86.35-19.71.66-29.57.98-3.27.11-5.63-.83-5.67-4.69-.19-15.91-.55-31.82.57-47.71.25-3.59,2.1-5.06,5.52-5.01,2.55.04,5.1-.05,7.64.08,12.71.62,25.42,1.37,38.13,1.91,6.59.28,7.21-.46,7.11-6.79-.09-5.72-.34-6.23-6.96-5.91-21,1.04-41.97,1.2-62.97.04-8.99-.5-9.1-.25-8.81,8.73.73,22.58,1.8,45.15,1.4,67.76.39,22.29-.64,44.54-1.38,66.8-.31,9.4-.22,9.39,9.39,9.38,19.41-.02,38.82-.03,58.23-.05,2.55,0,5.09,0,7.64.02,2.65.02,4.23-1.25,4.4-3.92.39-6.3.31-8.6-6.86-7.54Z"/>
      <path class="cls-1" d="M1675.67,134.04c-5.47-3.3-11.36-5.66-17.27-8.05-8.84-3.57-17.62-7.27-25.11-13.47-9.41-7.8-10.29-17.94-7.68-28.66,2.62-10.76,10.72-16.37,21.02-18.44,10.77-2.17,20.07.9,27.31,9.62,2.38,2.86,2.49,8.99,6.37,8.59,4.66-.48,2.92-6.88,5.06-10.2,3.63-5.64,1.82-8.1-4.35-10.98-19.94-9.3-39.49-8.53-58.06,3.57-19.48,12.69-22.51,46.84-2.96,62.34,7.34,5.82,15.57,9.82,24.14,13.25,6.51,2.61,12.99,5.26,18.9,9.07,11.87,7.66,16.04,18.27,12.73,32.06-3.18,13.24-13.61,22.28-26.8,23.49-15.01,1.38-26.6-4.44-35.49-16.31-1.45-1.94-1.87-4.91-5.24-5.34-2.96,3.67-1.61,8.57-3.3,12.6-2.24,5.34.42,8.04,4.82,10.63,14.38,8.46,29.8,8.54,45.36,5.56,20.47-3.92,33.06-16.54,38.04-36.8,4.37-17.78-1.87-33.1-17.48-42.53Z"/>
      <path class="cls-1" d="M1572.88,72.45c.57-12.11.62-12.1-11.06-12.17-.95,0-1.9-.08-2.85-.12-7.36-.31-7.52-.31-7.2,6.89,1.02,22.85,1.28,45.7,1.69,68.58-.53,22.22-1.02,44.44-1.61,66.65-.26,9.71-.35,9.74,9.81,9.73,11.53,0,11.94,1.95,11.27-11.98-2.06-42.53-2.02-85.06-.03-127.58Z"/>
      <path class="cls-1" d="M866.07,97.93c.36-12.32.06-24.66.06-37.63-3.68,0-7.15.05-10.63,0q-9.68-.17-9.35,9.3c.07,1.9.16,3.81.24,5.71,1.68,40.96,1.67,81.92-.06,122.88-.68,16.02-1.63,13.64,13.18,13.76,7.52.06,7.59-.16,7.57-7.33,0-2.54-.19-5.08-.29-7.62-1.29-33.02-1.69-66.04-.73-99.07Z"/>
      <path class="cls-1" d="M438.84,116.27c-12.12,12.74-27.89,19.6-43.19,27.4-13.07,6.68-24.77,15.45-34.11,27.05-1.82,2.26-3.8,4.57-3.92,7.48-.33,8.18-1.54,16.45,1.24,24.48-.51,6.45,1.87,12.35,3.31,18.47.86,3.63,3.22,4.2,6.29,3.99,2.35-2.22,5.55-2.79,8.3-4.22,11.97-6.27,23.49-13.1,32.01-23.97,7.1-4.71,11.23-11.91,15.91-18.71,5.06-7.38,7.78-15.96,12.26-23.64,1.33-9.09,4.78-17.77,5.19-27.03.16-3.98,1.73-8.13-1.21-11.76-.91.19-1.73.09-2.08.46Z"/>
      <path class="cls-1" d="M401.34,62.49c3.47,3.36,5.43,3.03,8.08-1.42,2.56-4.31,4.56-8.95,6.8-13.44,1.09-5.55-1.12-9.6-5.13-13.39-9.02-8.48-18.76-15.94-29.26-22.44-2.12.09-4.71-.68-5.47,2.33-1.4,5.48-2.73,10.99-3.89,16.54-.51,2.38,1.05,4.15,2.66,5.76,8.74,8.69,17.38,17.47,26.21,26.05Z"/>
      <path class="cls-1" d="M1175.12,46.97c9.81-6.38,19.68-12.67,29.46-19.09,1.83-1.2,3.55-2.68,5-4.32,2.82-3.2,3.41-6.86.61-10.34-2.55-3.16-5.91-3.18-9.46-1.63-2.98,1.3-5.28,3.43-7.5,5.7-6.86,7.01-13.79,13.95-20.57,21.03-2.77,2.89-6.36,5.17-8.17,10.06,4.44,1.65,7.57.57,10.63-1.42Z"/>
      <path class="cls-1" d="M278.32,27.76c1.77,5.61,3.43,6.06,7.78,1.87,8.46-8.15,16.7-16.54,25-24.86,1.12-1.12,2.07-2.44.74-4.19-6.08-2.05-11.7,1.94-17.7,1.59-3.35,2.42-7.46,2.51-11.21,3.75-2.96,2.91-8.64,3.82-7.41,9.81.81,4.03,1.58,8.09,2.8,12.02Z"/>
      <path class="cls-1" d="M416.88,77.97c5.68,5.55,11.23,11.23,16.89,16.78,1.54,1.51,3.14,3.57,5.69,2.12,1.98-1.12,1.56-3.28,1.56-5.13.02-1.28-.05-2.54-.09-3.82-2.03-4.1-3.38-8.41-3.85-12.98-5.29-6.34-5.73-15.93-13.39-21.09-2.89,5.38-5.27,10.2-8.04,14.8-2.17,3.61-1.72,6.46,1.23,9.32Z"/>
      <path class="cls-1" d="M353.56,16.09c2.86,2.65,6.13,7.64,9.76,5.82,4.38-2.19,3.33-8.25,3.52-12.89.07-2.02-1.26-3.49-2.24-5.08-4.68-.39-9.13-1.52-13.26-3.78-3.52.51-7.32-1.12-11.97,1.56,5.1,5.22,9.44,10,14.19,14.38Z"/>
      <path class="cls-1" d="M568.05,218.3c5.18,3.27,10.83,2.29,16.32,2.46,5.38.16,10.79.35,16.15-.05,5.25-.39,10.99,1.88,15.68-2.84-16.03-2.18-32.02-1.8-48.16.44Z"/>
      <path class="cls-1" d="M177.66,188.6c-7.45,7.85-15.55,14.86-25.1,20.1-1.46.8-2.54,2.32-1.76,3.94.94,1.93,2.64.99,4.04.3,10.37-5.16,18.87-12.69,26.61-21.15.61-.66.92-1.58,1.33-2.31-.35-.67-.48-1.4-.91-1.69-1.6-1.06-3.07-.38-4.21.81Z"/>
      <path class="cls-1" d="M152.67,17.54c9.08,5.75,17.85,11.87,25.05,19.99,1.06,1.2,2.75,1.91,4.18.58,1.66-1.55.12-2.86-.85-3.93-7.52-8.17-15.85-15.35-25.64-20.72-.82-.45-1.71-.78-2.57-1.16-1.25-.42-1.84.44-2.09,1.3-.5,1.78.55,3.06,1.92,3.93Z"/>
      <path class="cls-1" d="M315,103.89c2.47-.44,3.14-1.56,3.71-2.68,6.1-11.95,13.65-22.9,22.23-33.2,4.26-5.13,8.58-10.28,12.09-15.91,8.83-14.16,8.48-15.93-3.28-27.49-5.55-5.45-11.02-11.07-18.12-15.1-3.24,5.99-3.52,12.14-5.43,17.8-4.26,12.67-8.57,25.28-13.82,37.6-5.76,13.49-3.01,26.39,2.61,38.98Z"/>
      <path class="cls-1" d="M403.78,86.68c-4.29,5.5-8.48,11.12-13.09,16.36-11.9,13.58-20.43,29.07-26.88,45.8-.56,1.49-1.16,2.98.33,4.89,15.44-12.33,32.69-21.71,50.39-30.36,5.75-2.82,10.51-7.08,14.93-11.74,2.73-2.86,2.75-5.38-.12-8.16-5.96-5.73-11.83-11.56-17.66-17.42-2.96-2.98-5.43-2.52-7.9.63Z"/>
      <path class="cls-1" d="M242.08,85.77c-6.13,5.99-12.23,12.04-18.38,18.01-2.93,2.82-2.59,5.34.09,8.16,5.55,5.85,12.02,10.34,19.31,13.7,16.19,7.46,31.31,16.7,46.32,28.38-.33-5.47-2.05-9.23-3.52-13.02-8.29-21.11-23.81-37.34-37.27-54.96-1.87-2.45-4.29-2.49-6.55-.28Z"/>
      <path class="cls-1" d="M243.31,60.66c3.49,4.92,4.96,5.06,9.64.7,2.1-1.94,4.1-4.01,6.1-6.04,16.17-16.45,13.54-10.37,8.44-30.96-1.7-6.92-1.79-6.9-9.57-5.06v-.04l-.02.04c-2.42,3.82-5.9,6.55-9.43,9.25-13.86,10.55-15.01,16.92-5.68,31.31.18.26.32.56.51.81Z"/>
      <path class="cls-1" d="M290.46,57.91c2.45,4.84,3.8,10.53,9.57,14.91,6.43-20.53,16.5-38.86,18.9-59.99-3.49.03-4.61,2.26-6.13,3.71-6.17,5.96-12.14,12.11-18.33,18.03-10.56,10.09-10.74,10.11-4.01,23.34Z"/>
      <path class="cls-1" d="M211.97,94.36c.63,4.01,2.7,5.03,5.64,2.24,6.68-6.31,13.09-12.9,19.57-19.39,1.7-1.72,2.65-4.1,1.31-6.06-3.64-5.45-5.43-12.02-10.02-16.99-4.06,2.08-5.03,5.99-7.04,9.13-3.07,4.8-3.29,10.95-7.41,15.21h.05c.46,5.45-3,10.35-2.1,15.87Z"/>
      <path class="cls-1" d="M322.8,166.21l-.04-.12c.46-9.39-1.1-18.38-5.64-26.72.02,0,.02-.02.04-.02-2.91-13.4-7.83-26.07-14.24-38.14-4.15-7.87-8.55-15.59-12.98-23.3-3.8-6.61-7.36-13.32-10.2-20.41-1.31-3.29-3.28-4.56-6.39-1.61-5.33,4.99-10.7,9.93-16.19,14.73-3.64,3.19-3.43,6.52-.88,10.07,2.59,3.59,5.03,7.36,8.04,10.6,19.25,20.74,31.8,44.94,37.7,72.6.18.86.95,1.59,1.44,2.4.09,13.26.19,26.54.28,39.81-1.86,7.66-4.43,15.14-5.34,23,2.26,1.14,5.2-.37,7.2,1.84,14.17.37,12.77,3.07,16.47-12.61.51-2.12.56-4.36.84-6.55,1.61-1.42,1.49-3.36,1.59-5.26.6-11.69.44-23.39-.02-35.08-.07-1.91-.12-3.82-1.68-5.24Z"/>
      <path class="cls-1" d="M355.42,143.39c2.51-2.73,3.8-5.94,3.71-9.67.68-2.87,1.86-5.5,3.59-7.88,2.87-1.28,3.78-4.22,5.1-6.62,4.92-8.97,11.39-16.77,17.84-24.63,4.01-4.91,7.48-10.25,11.49-15.15,2.52-3.12,2.28-5.54-.51-8.22-7.76-7.53-15.3-15.26-23.14-22.69-4.38-4.15-5.4-3.89-8.27,1.73-3.19,6.27-6.8,12.16-11.58,17.36-8.62,9.36-15.87,19.76-23.02,30.27-9.29,13.65-10.74,27.38-2.35,41.86,1.42,8.99,2.84,17.96,4.24,26.95,1.75,11.21.82,22.55,1.52,33.81-1.47,8.67-2.79,17.38-4.47,26.02-.75,3.85.56,5.36,4.24,5.19,5.34-.26,10.72-.25,15.79-2.35,1.68-.19,3.35-.37,5.05-.53.02,0,.04.02.05.03l.05-.05s-.05-.05-.09-.07c-6.11-21.06-7.64-42.49-5.05-64.23,2.84-6.78,4.36-13.95,5.8-21.13Z"/>
    </g>
  </g>
</svg>