<?xml version="1.0" encoding="UTF-8"?>
<svg id="Camada_1" data-name="Camada 1" xmlns="http://www.w3.org/2000/svg" viewBox="0 0 256 256">
  <defs>
    <style>
      .cls-1 {
        fill: #fff;
      }
    </style>
  </defs>
  <path class="cls-1" d="M199.09,180.37c-8.87,0-16.05-7.19-16.05-16.05s7.19-16.05,16.05-16.05,16.05,7.19,16.05,16.05-7.19,16.05-16.05,16.05M195.07,191.88c-17.64,17.64-40.76,26.46-63.87,26.46s-46.24-8.82-63.87-26.46c-17.64-17.64-26.46-40.76-26.46-63.88s8.82-46.24,26.46-63.88c17.64-17.64,40.76-26.46,63.87-26.46s46.24,8.82,63.87,26.46l-19.99,19.99c-12.12-12.12-28-18.18-43.88-18.18s-31.77,6.06-43.88,18.18c-12.12,12.12-18.18,28-18.18,43.88s6.06,31.77,18.18,43.88c12.12,12.12,28,18.18,43.88,18.18s31.77-6.06,43.88-18.18l19.99,19.99ZM148.34,110.85c-4.39-4.39-10.45-7.1-17.15-7.1s-12.76,2.71-17.15,7.1-7.1,10.45-7.1,17.15,2.71,12.76,7.1,17.15c4.39,4.39,10.45,7.1,17.15,7.1s12.76-2.71,17.15-7.1c4.39-4.39,7.1-10.45,7.1-17.15s-2.71-12.76-7.1-17.15ZM131.19,75.47c14.5,0,27.64,5.88,37.14,15.39,9.51,9.51,15.39,22.64,15.39,37.14s-5.88,27.64-15.39,37.14c-9.51,9.51-22.64,15.39-37.14,15.39s-27.64-5.88-37.14-15.39c-9.51-9.51-15.39-22.64-15.39-37.14s5.88-27.64,15.39-37.14c9.51-9.51,22.64-15.39,37.14-15.39Z"/>
</svg>