<?xml version="1.0" encoding="UTF-8"?>
<svg id="Camada_2" data-name="Camada 2" xmlns="http://www.w3.org/2000/svg" viewBox="0 0 470.26 188.66">
  <defs>
    <style>
      .cls-1 {
        fill: #212121;
        stroke-width: 0px;
      }
    </style>
  </defs>
  <g id="marca">
    <g>
      <path class="cls-1" d="M266.43,17.15c0,.94.77,1.71,1.71,1.71s1.71-.77,1.71-1.71-.77-1.71-1.71-1.71-1.71.77-1.71,1.71ZM267.54,31.56h-132.84V2.75h132.84c.59,0,.97-.38.97-.97v-.84c0-.57-.38-.94-.97-.94h-134.66c-.57,0-.94.38-.94.97v32.37c0,.59.38.97.97.97h134.63c.59,0,.97-.38.97-.97v-.84c0-.57-.38-.94-.97-.94ZM335.93,10.16v-.84c0-.57-.38-.94-.97-.94h-134.66c-.57,0-.94.38-.94.97v15.62c0,.59.38.97.97.97h134.63c.59,0,.97-.38.97-.97v-.84c0-.57-.38-.94-.97-.94h-132.84v-12.06h132.84c.59,0,.97-.38.97-.97Z"/>
      <g>
        <g>
          <path class="cls-1" d="M140.12,188.32v-13.92h2.05v13.92h-2.05Z"/>
          <path class="cls-1" d="M175.69,188.32v-10.05h-.13l-3.88,9.65h-1.56l-3.88-9.65h-.13v10.05h-1.91v-13.92h2.4l4.2,10.57h.16l4.21-10.57h2.4v13.92h-1.91Z"/>
          <path class="cls-1" d="M211.45,181.36c0,4.48-2.33,7.3-6.16,7.3s-6.17-2.82-6.17-7.3,2.38-7.29,6.17-7.29,6.16,2.81,6.16,7.29ZM201.22,181.36c0,3.21,1.54,5.29,4.08,5.29s4.06-2.07,4.06-5.29-1.55-5.28-4.06-5.28-4.08,2.05-4.08,5.28Z"/>
          <path class="cls-1" d="M236.24,188.32l-4.73-13.92h2.24l3.56,11.22h.16l3.55-11.22h2.18l-4.7,13.92h-2.25Z"/>
          <path class="cls-1" d="M273.57,188.32h-8.39v-13.92h8.39v1.97h-6.34v3.94h6v1.87h-6v4.18h6.34v1.97Z"/>
          <path class="cls-1" d="M296.22,188.32v-13.92h2.05v13.92h-2.05Z"/>
          <path class="cls-1" d="M322.68,184.58c.17,1.32,1.4,2.16,3.17,2.16,1.65,0,2.86-.9,2.86-2.13,0-1.06-.77-1.7-2.52-2.13l-1.7-.43c-2.39-.59-3.48-1.8-3.48-3.85,0-2.48,1.92-4.13,4.81-4.13,2.68,0,4.64,1.65,4.76,3.99h-2c-.19-1.28-1.26-2.08-2.79-2.08-1.62,0-2.7.82-2.7,2.07,0,.99.7,1.56,2.42,1.99l1.46.38c2.71.67,3.83,1.82,3.83,3.92,0,2.66-1.96,4.33-5.09,4.33-2.93,0-4.9-1.59-5.05-4.08h2.03Z"/>
        </g>
        <circle class="cls-1" cx="205.22" cy="170.64" r="1.2"/>
      </g>
      <g>
        <path class="cls-1" d="M235.14,98.48c-.94,0-1.71.77-1.71,1.71s.77,1.71,1.71,1.71,1.71-.77,1.71-1.71-.77-1.71-1.71-1.71Z"/>
        <g>
          <path class="cls-1" d="M279.7,107.64c1.99,1.92,4.38,2.9,7.14,2.94,2.17.04,4.17-.62,5.22-1.49,1.05-.87,1.85-1.81,2.1-2.43l.22-.47c-.11.33-.15.72-.91,2.21-.36.72-.8,1.38-1.3,1.99-1.01,1.2-3.08,2.61-5.4,3.04-4.38.87-8.48-.36-11.12-2.79-2.61-2.43-4.24-5.91-4.35-9.42-.11-4.06,1.05-7.28,3.48-9.64,2.43-2.36,5.44-3.7,8.99-3.95,1.85-.14,3.77,0,5.76.47,1.56.4,2.94,1.01,3.48,1.34l.36.25-.04,6.52c-1.45-2.94-3.41-5.18-5.83-6.7-2.57-1.63-5.11-1.78-7.61-.43-1.49.8-2.54,2.21-3.19,4.28-.65,2.03-.83,4.24-.54,6.67.4,3.15,1.56,5.69,3.55,7.61Z"/>
          <path class="cls-1" d="M339.12,106.26l.36-.62-1.59,7.65h-22.17c.43,0,1.01-.11,1.99-.54,1.01-.43,1.78-1.59,1.78-3.19v-18.08c0-1.3-.58-2.32-1.2-2.75-.29-.25-.65-.43-1.09-.54-.83-.29-1.09-.25-1.49-.25h21.09l1.23,7.07c-.33-.54-.91-1.27-1.81-2.17-.91-.91-1.85-1.74-2.9-2.46-1.16-.8-2.28-1.34-3.33-1.59-1.05-.29-2.46-.43-4.24-.43h-1.27v11.59h1.09c3.88-.07,5.25-2.9,5.72-4.02l.11-.47v9.67c-.04-.25-.07-.58-.65-1.63-.72-1.45-2.25-2.97-5.18-3.08h-1.09v8.91c0,2.43,1.01,3.66,3.08,3.66h1.05c1.96,0,4.02-.83,6.23-2.5,2.14-1.59,3.8-3.44,4.28-4.2Z"/>
          <path class="cls-1" d="M379.51,95.43c-.58-1.34-1.7-2.79-3.41-4.35-2.36-2.25-6.01-4.02-8.88-2.39-1.41.83-1.96,2.5-1.52,4.24.54,2.28,2.39,3.62,6.2,4.46,7.54,1.74,10.15,4.75,9.28,10.07-.36,2.28-1.41,3.95-3.19,5-1.74,1.01-3.8,1.48-6.16,1.45-4.06-.04-7.43-.91-10.07-2.65v-8.01c.91,2.07,2.21,3.99,3.99,5.76,1.77,1.78,3.66,2.94,5.69,3.51,3.3.83,6.99.54,7.25-2.68.14-1.45-.36-2.75-1.56-3.88-1.16-1.12-3.41-2.14-6.7-2.97-6.27-1.59-8.37-4.42-7.97-8.81.18-2.21,1.12-3.88,2.9-5,1.77-1.16,3.99-1.74,6.67-1.7,1.34.04,2.65.18,3.88.47,1.27.25,2.17.54,2.72.8l.83.4.07,6.27Z"/>
          <path class="cls-1" d="M406.93,103.29l-2.17,5.47c-1.01,2.21.04,4.35,2.65,4.53h-7.97c1.7-.11,3.55-1.7,4.6-4.28l9.42-22.83.11.33,9.93,23.59c.36.91.87,1.59,1.52,2.14,1.34,1.02,2.07,1.05,2.75,1.05h-12.79s3.77-.47,2.54-3.88l-2.35-6.09-.15-.47-2.35-6.23c-.65-1.56-1.09-2.43-1.27-2.54-.07-.04-.14-.04-.18-.04-.47,0-.91.91-1.92,3.33l-2.14,5.47M427.76,113.29h.11-.11Z"/>
          <path class="cls-1" d="M465.73,109.09c1.12,2.07,2.86,3.59,3.84,3.91l.69.29h-7.25c-.83-1.09-1.67-2.43-2.5-3.99l-2.97-5.36c-1.74-3.19-3.62-2.86-4.38-2.86l-.04,9.96c0,.65.22,1.16.62,1.56.87.72,1.45.69,2.07.69h-11.16c.47,0,.94-.04,1.85-.43.98-.4,1.63-1.45,1.63-2.94v-18.62c0-3.3-3.37-3.37-3.48-3.37.94,0,2.61-.04,5.04-.11,2.43-.11,4.24-.14,5.47-.11,4.82.11,7.36.62,8.95,2.46.98,1.05,1.41,2.5,1.38,4.28,0,1.99-.72,3.59-2.14,4.82-1.05.98-2.14,1.52-3.19,1.67.83.18,1.92,1.45,3.23,3.84l2.35,4.31ZM460.76,94.27c0-4.78-2.57-6.49-7.64-6.2l.04,12.61c1.16,0,2.21-.11,3.15-.36,2.97-.76,4.46-2.75,4.46-6.05Z"/>
        </g>
        <g>
          <path class="cls-1" d="M8.41,107.64c1.99,1.92,4.38,2.9,7.14,2.94,2.17.04,4.17-.62,5.22-1.49,1.05-.87,1.85-1.81,2.1-2.43l.22-.47c-.11.33-.15.72-.91,2.21-.36.72-.8,1.38-1.3,1.99-1.01,1.2-3.08,2.61-5.4,3.04-4.38.87-8.48-.36-11.12-2.79C1.75,108.22.12,104.74,0,101.23c-.11-4.06,1.05-7.28,3.48-9.64,2.43-2.36,5.44-3.7,8.99-3.95,1.85-.14,3.77,0,5.76.47,1.56.4,2.94,1.01,3.48,1.34l.36.25-.04,6.52c-1.45-2.94-3.41-5.18-5.83-6.7-2.57-1.63-5.11-1.78-7.61-.43-1.49.8-2.54,2.21-3.19,4.28-.65,2.03-.83,4.24-.54,6.67.4,3.15,1.56,5.69,3.55,7.61Z"/>
          <path class="cls-1" d="M109.41,95.43c-.58-1.34-1.7-2.79-3.41-4.35-2.36-2.25-6.01-4.02-8.88-2.39-1.41.83-1.96,2.5-1.52,4.24.54,2.28,2.39,3.62,6.2,4.46,7.54,1.74,10.15,4.75,9.28,10.07-.36,2.28-1.41,3.95-3.19,5-1.74,1.01-3.8,1.48-6.16,1.45-4.06-.04-7.43-.91-10.07-2.65v-8.01c.91,2.07,2.21,3.99,3.99,5.76,1.77,1.78,3.66,2.94,5.69,3.51,3.3.83,6.99.54,7.25-2.68.14-1.45-.36-2.75-1.56-3.88-1.16-1.12-3.41-2.14-6.7-2.97-6.27-1.59-8.37-4.42-7.97-8.81.18-2.21,1.12-3.88,2.9-5,1.77-1.16,3.99-1.74,6.67-1.7,1.34.04,2.65.18,3.88.47,1.27.25,2.17.54,2.72.8l.83.4.07,6.27Z"/>
          <path class="cls-1" d="M154.04,87.93l1.09,6.88c-1.05-1.78-2.1-3.12-3.15-4.02-1.85-1.59-3.7-2.39-5.58-2.39h-.58v20.69c0,1.56.62,2.72,1.3,3.26,1.2.87,2.43.98,2.79.94h-13.15c.54,0,1.01-.07,2.14-.51,1.12-.47,1.92-1.81,1.92-3.7v-20.69h-.72c-1.81,0-3.7.83-5.65,2.54-1.01.87-2.28,2.43-2.9,3.3l-.47.69,1.3-6.99h21.67Z"/>
          <path class="cls-1" d="M178.24,103.29l-2.17,5.47c-1.01,2.21.04,4.35,2.64,4.53h-7.97c1.7-.11,3.55-1.7,4.6-4.28l9.42-22.83.11.33,9.93,23.59c.36.91.87,1.59,1.52,2.14,1.34,1.02,2.07,1.05,2.75,1.05h-12.79s3.77-.47,2.54-3.88l-2.36-6.09-.15-.47-2.35-6.23c-.65-1.56-1.09-2.43-1.27-2.54-.07-.04-.14-.04-.18-.04-.47,0-.91.91-1.92,3.33l-2.14,5.47M199.07,113.29h.11-.11Z"/>
          <path class="cls-1" d="M69.79,98.67c-.59-3.83-2.34-6.75-5.16-8.75-2.19-1.53-4.66-2.29-7.42-2.3-2.76.01-5.23.77-7.42,2.3-2.82,2-4.56,4.91-5.16,8.75-.12.64-.17,1.29-.19,1.94.02.65.08,1.3.19,1.94.59,3.83,2.34,6.75,5.16,8.75,2.19,1.53,4.66,2.29,7.42,2.3,2.76-.01,5.23-.77,7.42-2.3,2.82-2,4.56-4.91,5.16-8.75.12-.64.17-1.29.19-1.94-.02-.65-.08-1.3-.19-1.94ZM64.07,101.79c-.17,3.6-.91,6.4-2.21,8.48-1.27,1.97-2.82,2.91-4.65,2.87-1.83.04-3.38-.89-4.65-2.87-1.3-2.08-2.04-4.88-2.21-8.48-.02-.39-.03-.78-.03-1.17,0-.39,0-.78.03-1.17.17-3.6.91-6.4,2.21-8.48,1.27-1.97,2.82-2.91,4.65-2.87,1.83-.04,3.38.89,4.65,2.87,1.3,2.08,2.04,4.88,2.21,8.48.02.39.03.78.03,1.17,0,.39,0,.78-.03,1.17Z"/>
        </g>
      </g>
    </g>
  </g>
</svg>