<?xml version="1.0" encoding="UTF-8"?>
<svg data-bbox="0 0 256 256" xmlns="http://www.w3.org/2000/svg" viewBox="0 0 256 256" height="256" width="256" data-type="color">
    <g>
        <g clip-path="url(#f6c94129-c981-453a-acbe-e9cc349c5fbd)">
            <path fill="#284920" d="M256 0v256H0V0h256z" data-color="1"/>
            <path fill="#ffffff" d="M101.147 175.889H88.593c-2.127 0-2.528.933-2.574 1.865h17.077c.059-.372.143-.74.252-1.1a2.576 2.576 0 0 0-2.201-.756" data-color="2"/>
            <path fill="#ffffff" d="M102.981 189.537v-2.202H89.346v2.202h13.635Z" data-color="2"/>
            <path fill="#ffffff" d="M109.542 170.192a4.025 4.025 0 0 0-2.91-.932H82.923a4.001 4.001 0 0 0-2.9.932c-.933.933-1.241 2.649-1.502 3.89-.159.764-.364 2.331-.532 3.665h2.332v-.606c0-1.465 0-3.675 1.474-5.158a5.665 5.665 0 0 1 4.16-1.427h17.87a6.04 6.04 0 0 1 3.674 1.045c.712-.45 1.457-.842 2.229-1.176l-.186-.233Z" data-color="2"/>
            <path fill="#ffffff" d="M95.949 183.366h-6.603v2.192h13.635v-2.192h-7.032Z" data-color="2"/>
            <path fill="#ffffff" d="M95.967 191.314h-.998c2.537.802 5.419 2.21 7.209 4.663l.812 1.119v-5.782h-7.023Z" data-color="2"/>
            <path fill="#ffffff" d="M95.949 179.528h-6.603v2.052h13.635v-2.052h-7.032Z" data-color="2"/>
            <path fill="#ffffff" d="M230.544 159.627v-9.644l-22.207-6.137V59.728l-2.696 11.192-34.686-15.492-.14-.065-43.351 11.192-.336.084v5.438L72.1 85.394l.084.41c0 .15.671 3.48 2.91 4.04 1.492.372 5.064 3.898 6.463 5.38l.224 7.994-7.163 1.315v8.459l-2.528.448.084.448c0 .14.672 3.469 2.91 4.029 1.493.373 5.065 3.898 6.464 5.381l.233 9.588-7.172 1.017v7.116l-2.528.355.084.457c0 .14.671 3.479 2.91 4.029 1.306.326 4.141 2.565 5.801 3.973l-34.509 2.593 1.054 3.563 19.101-1.091v5.596L20 165.708l.056.933c4.824.033 9.62.736 14.251 2.089h.15l8.151-.41 2.173 1.679-4.43.224-1.65.084 1.464.755a21.452 21.452 0 0 1 7.797 6.529l.14.196h28.11c.187-1.306.411-2.854.542-3.656.224-1.446.494-3.675 1.968-5.158a5.651 5.651 0 0 1 4.169-1.427H106.6a5.66 5.66 0 0 1 4.169 1.427c.246.255.459.54.634.849a28.915 28.915 0 0 1 4.785-1.157 32.114 32.114 0 0 1 4.047-.401c7.331-.308 14.056 1.586 17.554 4.953a8.116 8.116 0 0 1 2.686 6.015v21.405h.932v-18.821h3.395v10.474h5.167v-2.518h9.271v2.201h-6.631v1.781h6.631v2.201h-3.73v1.782h3.73v2.863h.933v-23.494c0-6.398 6.948-9.327 13.403-9.327 6.454 0 13.393 2.919 13.393 9.327v6.939h.933v-2.192h6.081v2.407h4.934v-2.407h5.754v2.192h-3.637v1.781h3.637v2.612h.933v-11.332c0-2.938 2.192-5.158 5.848-5.941 3.292-.718 6.958-.047 9.112 1.688a5.258 5.258 0 0 1 2.071 4.253v13.468l8.459 8.459V165.83l4.906-4.906-5.456-1.297Zm-23.075-54.039v2.341l-8.981-3.488v-.159l.195-.811.308-1.288 8.478 3.405Zm-8.608 59.011v-1.772h8.58c.495.242.933.457 1.259.634a2.011 2.011 0 0 1 .504.345l.215.186.121.14.168.196.112.177c.018.034.04.065.065.094h-11.024Zm11.705 1.781a.845.845 0 0 0 0 .159c.011.084.026.168.046.251v.252c.005.087.005.174 0 .261a2.648 2.648 0 0 0 0 .252c.005.087.005.174 0 .261v.42h-11.957v-1.865l11.911.009Zm-11.705-5.335v-2.182l4.784 2.173-4.784.009Zm-70.828-89.211v-1.213l42.717-10.464 33.865 15.09-6.239 25.855-.206.848-8.795-3.19V70.677a.448.448 0 0 0-.261-.4l-8.31-3.806-2.556-1.157-7.265-3.33a.45.45 0 0 0-.635.402v18.439l-2.798.625V62.265l-39.517 9.569Zm60.447 6.603v19.997l-7.676-2.798v-5.195l7.676-12.004Zm-8.562-11.397v28.288l-1.241-.447V66.47l1.241.569Zm-2.136 7.517v20.006l-6.529-2.369v-7.377l6.529-10.26Zm-49.749.933 8.627 3.255.14 9.616-8.767 1.959V75.49Zm0 20.202v-4.458l36.533-8.18 2.994-.671 2.798-.625v10.409l-.308.055-41.971 8.395-.046-4.925Zm0 6.585 42.726-8.217 26.917 9.942v.14l-.14.56-.401 1.679-5.344 22.151-2.388-.746v-24.418a.584.584 0 0 0 0-.177.462.462 0 0 0-.27-.243l-8.562-2.947a.44.44 0 0 0-.588.42v24.399l-1.24-.392V99.852a.527.527 0 0 0 0-.159.467.467 0 0 0-.271-.261l-7.461-2.556a.41.41 0 0 0-.401.056.433.433 0 0 0-.187.364v24.8l-2.798.429V96.503l-39.527 7.005-.065-1.231Zm60.447 25.182-7.676-2.387v-3.125l7.676-16.574v22.086Zm-10.698-25.966v22.646l-6.529-2.043v-9.047l6.529-11.556Zm-49.749 5.951 6.818 2.304v8.272l-6.818 1.297v-11.873Zm0 19.763v-6.957l6.818-1.306 31.813-6.1v9.765l-38.631 5.923v-1.325Zm-22.609-35.74 3.507 6.762-16.974 3.106-.047-7.555 13.514-2.313Zm-29.846 21.321v-7.555l15.856-2.9.578-.075 17.395-3.18 17.786-3.255v7.843l-51.614 9.122Zm38.52 15.492-22.141 3.134-.047-8.254 18.411-3.144 3.777 8.264Zm-38.52 12.563v-6.211l15.856-2.248.56-.056 22.85-3.237 12.331-1.744v18.971l-2.313.168-.131-12.591-49.152 6.948Zm19.718 15.473v-5.754l42.642-3.199v6.221l-42.642 2.732Zm49.534 23.7h-3.395v-.84a9.254 9.254 0 0 0-.112-1.361h3.507v2.201Zm0-3.983h-3.964a8.858 8.858 0 0 0-1.231-2.229h5.195v2.229Zm0-3.982h-6.883a15.623 15.623 0 0 0-3.162-2.052h10.045v2.052Zm0-3.834h-14.979c-.205-.056-.419-.093-.634-.139.084-.859.55-1.717 2.565-1.717h13.058l-.01 1.856Zm0-3.637h-13.057c-3.283 0-4.113 1.865-4.309 3.152a32.456 32.456 0 0 0-2.192-.279c0-1.222 0-2.798.933-3.731a4.029 4.029 0 0 1 2.91-.933h15.697l.018 1.791Zm0-3.554h-15.706a5.714 5.714 0 0 0-4.169 1.427c-1.381 1.39-1.465 3.414-1.465 4.869-.932 0-1.865-.056-2.798 0-.102-1.24-.27-5.102 1.353-6.93a2.801 2.801 0 0 1 2.21-.932h20.575v1.566Zm-16.788-27.607v-1.865l42.726-6.408 20.267 6.408-.522 2.191-1.128 4.664v-4.775a.469.469 0 0 0-.308-.429l-8.572-2.733-9.569-3.05a.445.445 0 0 0-.532.221.43.43 0 0 0-.046.199V143.1l-2.798.205v-15.454l-.504.065-39.014 5.503Zm60.447 2.145v6.137l-3.731.289 3.731-6.426Zm-8.562-4.365v11.146l-1.24.093v-11.621l1.24.382Zm-2.136.709v10.605l-6.165.457 6.165-11.062Zm-18.514 56.064h-9.27v-2.201h9.27v2.201Zm0-3.983h-9.27v-2.192h9.27v2.192Zm0-3.973h-9.27v-2.201h9.27v2.201Zm.066-3.983h-9.327v-2.201h9.886a8.328 8.328 0 0 0-.559 2.201Zm1.548-3.982h-10.884v-1.996h9.42a8.026 8.026 0 0 1 2.471.214s.075.252.131.523c-.421.4-.802.84-1.138 1.315m2.658-2.5c-.531-1.324-2.154-1.334-4.122-1.334h-9.42v-1.865h13.402c2.173 0 2.537.998 2.575 1.912-.853.343-1.668.771-2.435 1.278m6.361-2.36c-.743.122-1.478.287-2.201.494-.205-1.277-1.054-3.105-4.3-3.105h-13.402v-1.773h16.051a4.197 4.197 0 0 1 3.041.933c.82.821.82 2.192.811 3.404v.047Zm24.026 12.824h-6.081v-2.201h6.081v2.201Zm0-3.982h-6.156a8.236 8.236 0 0 0-.55-2.201h6.706v2.201Zm0-3.983h-7.657v.056a9.53 9.53 0 0 0-1.353-1.52c.041-.128.091-.252.15-.373a8.057 8.057 0 0 1 2.471-.215h6.389v2.052Zm0-3.833h-6.389c-2.164 0-3.731-.401-4.048 1.278a15.05 15.05 0 0 0-3.544-1.651c0-.653.243-1.483 2.574-1.483h11.407v1.856Zm0-3.637h-11.407c-3.115 0-4.103 1.408-4.309 2.798a21.513 21.513 0 0 0-2.201-.373c0-1.185 0-2.509.821-3.311a4.173 4.173 0 0 1 3.031-.933h14.065v1.819Zm0-3.554h-14.065a5.803 5.803 0 0 0-4.299 1.418c-1.269 1.278-1.334 3.078-1.334 4.458h-.672c-.622 0-1.243.028-1.865.084 0-1.39 0-3.227-1.334-4.524a5.787 5.787 0 0 0-4.3-1.417h-16.051v-1.67h43.929l-.009 1.651Zm.187-7.76-42.652-.084v-5.745l42.652-.392v6.221Zm-2.192-21.629.158-.681.429-1.762 14.923 4.85v2.555l-15.51-4.962Zm12.74 48.351h-5.82v-2.202h5.82v2.202Zm.084-3.983h-5.904v-2.201h6.716a6.01 6.01 0 0 0-.812 2.201Zm6.109-5.68a9.753 9.753 0 0 0-3.73 1.697h-8.329v-2.014h12.013v.345l.046-.028Zm13.99-11.854-16.909-5.354v-5.717l16.909 4.887v6.184Z" data-color="2"/>
            <path fill="#ffffff" d="M103.821 172.341h-17.87a3.997 3.997 0 0 0-2.901.933c-.933.932-.933 2.658-.933 3.889v.616h2.155c0-1.241.625-3.638 4.355-3.638h12.517a4.882 4.882 0 0 1 2.975.812 9.463 9.463 0 0 1 1.866-2.174 5.068 5.068 0 0 0-2.146-.41" data-color="2"/>
        </g>
        <defs fill="none">
            <clipPath id="f6c94129-c981-453a-acbe-e9cc349c5fbd">
                <path fill="#ffffff" d="M256 0v256H0V0h256z"/>
            </clipPath>
        </defs>
    </g>
</svg>
