<?xml version="1.0" encoding="UTF-8"?>
<svg id="Camada_2" xmlns="http://www.w3.org/2000/svg" viewBox="0 0 829.19 208.35">
  <defs>
    <style>
      .cls-1 {
        fill: #fff;
      }
    </style>
  </defs>
  <g id="Layer_1">
    <g>
      <path class="cls-1" d="M133.85,169.59l2.06-3.43-9.82,40.89H0c2.51,0,5.71-.69,10.96-2.74,5.25-2.06,9.14-8,9.14-16.22v-122.66c0-8.22-3.88-13.94-9.36-15.76-5.25-2.06-8-2.51-10.74-2.51h118.09l7.99,36.55c-1.37-2.51-4.34-6.17-8.68-10.96-4.34-4.8-8.91-9.14-14.16-12.56-6.4-4.34-12.56-7.08-18.5-8.45-5.94-1.6-15.53-2.29-29.01-2.29h-14.16v73.32h12.79c21.93-.46,29.01-14.16,31.06-19.87l.68-2.29v47.28c-.23-1.14-.46-2.51-3.42-7.77-3.43-6.62-11.65-14.85-28.32-14.85h-12.79v60.07c0,18.27,10.51,19.64,16.9,19.64h14.39c13.48,0,26.5-4.57,39.06-13.93,10.96-8,19.41-17.13,21.93-21.47ZM87.94,14.26l-27.87,19.19,19.41-27.18c3.88-6.4,9.14-8,12.56-4.34,2.97,1.83,2.29,7.77-4.11,12.34Z"/>
      <path class="cls-1" d="M221.34,174.61c13.25,12.79,29.01,19.19,47.28,19.41,14.62,0,27.87-4.8,34.95-10.51,7.31-6.17,12.79-12.34,14.62-16.67l1.37-3.2c-.69,2.06-.91,4.57-6.4,13.71-2.51,4.57-5.71,8.68-9.14,12.56-7.08,7.31-20.33,15.53-35.17,17.59-26.73,3.65-50.94-4.8-66.24-20.1-15.3-15.3-24.21-36.32-24.9-57.56-.69-25.81,8.45-47.74,23.07-61.22,14.62-13.71,33.35-21.47,54.36-23.07,10.05-.69,20.1-.23,29.92,1.83,11.19,2.06,21.7,6.62,25.58,9.36l2.97,1.83-.23,32.66c-8.68-17.13-20.78-29.47-36.32-36.77-18.05-8.22-34.72-7.77-50.48,1.37-9.59,5.71-16.9,14.62-21.7,26.95-4.8,12.33-6.63,26.27-5.48,41.57,1.6,20.79,8.91,37.46,21.93,50.25Z"/>
      <path class="cls-1" d="M424.65,204.99c13.93,0,26.72-4.11,38.37-12.11,11.88-8,19.64-17.13,23.07-26.95l-8.68,41.12h-122.43c2.74,0,5.48-.46,10.96-2.51,5.48-2.51,9.37-8.68,9.37-17.82v-120.15c0-8.91-3.65-14.85-8.91-16.9-5.25-2.06-7.77-2.51-10.51-2.51h60.3c-2.74,0-5.25.46-10.74,2.51-5.25,2.06-8.91,8-8.91,16.9v118.09c0,15.3,6.4,20.33,18.27,20.33h9.82Z"/>
      <path class="cls-1" d="M648.5,187.17c2.06,5.25,5.03,9.59,8.45,13.02,7.08,6.4,10.51,6.62,14.39,6.85h-61.22c1.14,0,2.29-.23,6.85-1.83,2.51-.91,4.11-2.06,5.25-3.43,2.06-2.97,5.25-8.22,1.6-15.53l-16.22-44.54h-52.76l-14.85,39.06c-6.17,13.93-.91,25.12,15.53,26.27h-45.23c10.74-.69,20.33-10.28,26.72-26.95l54.36-139.79.69,2.06,56.42,144.82ZM572.21,96.26l-16.22,43.17,50.71-.23-16.9-47.51c-3.2-8.45-5.94-12.79-7.99-12.79s-5.25,5.71-9.59,17.36ZM671.34,207.05h.91-.91Z"/>
      <path class="cls-1" d="M823.25,47.15l5.94,38.37c-3.88-8.91-9.14-16.22-15.53-22.39-9.36-8.91-21.7-13.48-37-13.48h-8.23v137.05c0,9.14,4.11,15.3,9.82,17.82,5.71,2.06,8.68,2.51,11.65,2.51h-63.96c2.97,0,5.71-.46,11.42-2.51,5.71-2.51,9.82-8.68,9.82-17.82V49.66h-9.59c-14.85,0-27.18,4.57-37,13.94-6.17,5.48-12.11,14.16-14.62,18.73l-1.83,3.65,6.62-38.83h132.48Z"/>
    </g>
  </g>
</svg>