<?xml version="1.0" encoding="UTF-8"?>
<svg id="Camada_1" data-name="Camada 1" xmlns="http://www.w3.org/2000/svg" viewBox="0 0 256 256">
  <defs>
    <style>
      .cls-1 {
        fill: #d93438;
      }

      .cls-1, .cls-2 {
        stroke-width: 0px;
      }

      .cls-2 {
        fill: #fefefe;
        fill-rule: evenodd;
      }
    </style>
  </defs>
  <rect class="cls-1" x="-18.4" y="-9.21" width="290.04" height="275.74"/>
  <g>
    <path class="cls-2" d="M58.64,91.01c13.48,0,27.77.49,41.15.03,14.8-.5,15.85-17.76-1.92-17.82-12.22-.04-24.45.03-36.67.02-14.13,0-22.06-.97-22.06,14.53,0,19.54-1.27,26.44,7.31,44.19-5.91,9.54-7.31,10.09-7.31,26.33s-2.49,29.14,13.6,29.12h44.19c7.14,0,14.2-1.23,13.71-9.18-.48-7.74-6.73-8.46-14.65-8.43h-37.83c-.01-19.84-2.67-32.15,10.95-42.14,6.21-4.56,19-7.82,26.09-2.66-2.09,7.74-13.1,5.93-19.94,5.31-7.88-.72-12,4.58-13.99,11.07,6.44,4.98,23.79,5.27,32.78,2.77,8.93-2.48,18.03-10.37,15.17-22.42-2.08-8.77-12.71-14.31-23.55-14.08-14.72.31-17.84,4.96-27.39,9.2,0,0,.37-25.83.37-25.83Z"/>
    <path class="cls-2" d="M174.3,87.54c6.41-1.14,11.35-1.15,17.31.41,7.89,2.05,10.86,4.95,13.58,5.51,10.71,2.23,18.17-11.14,3.49-18.71-18.87-9.74-42.21-7.85-58.99,2.8-25.36,16.09-35.95,51.45-20.3,79.33,15.41,27.45,50.48,38.48,77.59,24.97,18.11-9.03,7.44-19.72.9-19.84-3.68-.07-9.82,3.93-13.69,5.14-5.29,1.65-10.13,2.49-15.82,1.9-5.67-.59-10.69-2.26-15.21-4.55-7.82-3.96-14.86-11.15-18.71-18.94-2.03-4.11-3.52-9.99-3.82-15.46-1.09-19.75,12.33-38.76,33.67-42.56h0Z"/>
  </g>
</svg>