<?xml version="1.0" encoding="UTF-8"?>
<svg id="Camada_2" xmlns="http://www.w3.org/2000/svg" viewBox="0 0 2204.96 553.62">
  <defs>
    <style>
      .cls-1 {
        fill: #fff;
      }
    </style>
  </defs>
  <g id="Camada_1-2" data-name="Camada_1">
    <g>
      <g id="SvgjsG9527">
        <path class="cls-1" d="M289.6,301.56H0V0h281.05v54.25H75.6v67.91h198.62v53.82H75.6v71.76h213.99v53.82h0ZM785.59,301.56h-70.05l-.43-131.13c0-9.82-.43-19.65-5.98-28.62-5.13-8.12-12.39-11.96-21.36-14.1-3.42-.85-11.11-2.56-19.65-2.56-16.23,0-28.19,4.27-33.74,6.83-24.77,11.96-25.63,32.46-25.63,56.38v113.19h-71.33v-123.87c0-1.28,0-13.67-1.71-21.36-3.42-13.24-13.67-29.47-44.42-29.47-23.07,0-49.12,5.98-57.66,30.33-2.56,6.83-3.42,13.24-3.42,26.91v117.46h-70.05V85.43h66.63v33.32c2.56-2.99,6.83-10.68,14.95-17.51,11.96-10.25,36.73-23.49,76.03-23.49,22.64,0,49.55,5.13,67.91,20.5,9.82,8.12,13.67,16.23,16.66,20.5.43-.43,4.27-5.55,7.69-8.97,23.49-23.49,55.53-31.61,87.56-31.61,25.2,0,54.25,5.55,72.19,24.77,2.56,2.99,7.26,8.54,11.11,17.94,4.7,12.39,4.7,24.35,4.7,38.02v142.66h0ZM1145.75,194.77c0,13.24-1.28,49.97-29.05,78.59-12.81,13.67-40.58,34.17-87.56,34.17-4.7,0-12.39,0-23.92-1.71-33.32-5.13-51.68-20.5-61.51-29.9v107.64h-70.9V85.43h70.9v24.77c1.71-1.71,8.54-8.12,15.8-12.39,10.68-6.83,34.17-17.51,67.06-17.51,22.21,0,39.3,5.13,46.98,7.69,47.84,17.09,72.19,56.38,72.19,106.78h0ZM1073.99,193.49c0-9.82-1.71-16.66-2.56-20.5-2.14-7.26-10.25-28.19-31.18-37.59-5.98-2.56-17.09-6.41-33.32-5.98-13.67,0-24.77,2.56-36.31,10.25-18.37,12.39-26.91,33.32-26.91,54.67,0,8.12,1.28,16.66,3.84,23.92,9.4,27.76,35.45,40.58,62.79,40.58,15.38,0,24.35-3.42,29.9-5.98,13.67-6.41,33.74-23.07,33.74-59.37h0ZM1490.96,236.63c-2.99,5.13-6.41,10.25-9.82,14.95-11.11,14.52-29.9,30.33-46.56,38.87-14.95,7.69-45.7,19.65-88.84,19.65-113.19,0-143.94-68.77-143.94-118.74,0-17.94,3.42-56.38,40.58-84.57,38.44-29.47,90.55-29.9,104.22-29.9,53.39,0,111.48,20.08,133.27,73.89,5.13,13.24,8.12,25.63,8.54,54.67h-214.42c1.71,8.54,3.84,13.67,5.13,16.66,7.69,16.66,28.19,37.16,70.48,37.16,19.22,0,41.43-4.7,56.81-17.09,6.41-5.55,9.82-10.25,11.53-12.81l73.04,7.26ZM1410.66,166.58c-.43-1.71-2.14-10.68-5.98-16.66-11.96-17.94-40.15-23.49-59.37-23.49-20.5,0-44.85,5.55-58.52,21.36-5.13,5.98-7.69,11.96-10.68,18.79h134.55ZM1722.98,141.81c-6.41-.43-12.39-.85-18.79-.85-17.94,0-41.86,2.99-56.81,15.8-5.55,4.7-9.4,11.11-10.25,13.24-4.27,8.54-5.13,17.51-5.13,27.34v104.22h-70.9V85.43h70.9v36.73c2.56-3.84,6.41-9.4,8.97-12.39,26.48-31.61,71.76-31.18,82.01-31.61v63.64h0ZM1850.78,58.09h-70.05V10.25h70.05v47.84ZM1850.78,301.56h-70.05V85.43h70.05v216.13ZM2204.96,301.56h-76.88c-3.84-12.39-3.84-16.23-4.27-23.07-18.79,11.11-45.28,29.47-96.53,29.05-46.56,0-70.9-11.11-85.85-27.34-11.96-12.81-17.51-27.34-17.51-44.85,0-35.45,19.22-50.4,32.04-56.81,26.91-12.81,72.61-12.81,101.23-12.81h67.06c0-7.26.85-15.38-3.42-22.64-9.4-15.8-42.29-16.66-57.66-16.66-22.64,0-35.88,2.14-45.28,7.26-3.42,1.71-7.69,4.7-9.82,8.12-.85,1.71-1.28,2.99-1.71,4.7l-71.33-.85c1.28-7.26,3.84-23.07,17.94-38.02,19.65-20.5,53.39-29.9,112.34-29.9,42.71,0,66.63,4.7,85,11.96,4.7,2.14,23.07,9.4,33.32,24.77,11.53,17.09,11.53,40.58,11.53,59.37v101.23c0,16.23,4.27,19.22,9.82,26.48h0ZM2123.8,201.61h-49.12c-11.11,0-21.78.85-32.46,2.14-23.07,2.14-34.6,5.98-40.58,16.23-3.42,5.13-3.84,11.11-3.84,13.24s.43,7.26,3.84,12.39c6.41,9.4,20.08,14.95,43.57,14.95,6.41,0,16.23-.85,22.21-2.14,6.83-1.28,40.15-9.82,52.96-35.45,2.99-5.55,3.84-9.4,3.42-21.36h0Z"/>
      </g>
      <g>
        <path class="cls-1" d="M687.17,462.09h20.83v89.99h-20.83v-89.99Z"/>
        <path class="cls-1" d="M856.22,552.08l-.13-53.99-26.48,44.48h-9.38l-26.35-43.32v52.84h-19.54v-89.99h17.23l33.68,55.92,33.17-55.92h17.1l.26,89.99h-19.54Z"/>
        <path class="cls-1" d="M936.44,507.09c0-26.74,20.83-46.54,49.24-46.54s49.24,19.67,49.24,46.54-20.95,46.54-49.24,46.54-49.24-19.8-49.24-46.54ZM1013.84,507.09c0-17.1-12.08-28.8-28.15-28.8s-28.15,11.7-28.15,28.8,12.08,28.8,28.15,28.8,28.15-11.7,28.15-28.8ZM991.34,436.25h21.6l-23.27,18.51h-15.68l17.36-18.51Z"/>
        <path class="cls-1" d="M1179.16,462.09l-38.95,89.99h-20.57l-38.82-89.99h22.5l27.38,64.28,27.77-64.28h20.7Z"/>
        <path class="cls-1" d="M1301.3,535.37v16.71h-69.68v-89.99h68.01v16.71h-47.31v19.54h41.78v16.2h-41.78v20.83h48.98Z"/>
        <path class="cls-1" d="M1362.88,462.09h20.83v89.99h-20.83v-89.99Z"/>
        <path class="cls-1" d="M1442.97,543.21l7.07-15.68c7.59,5.53,18.9,9.38,29.7,9.38,12.34,0,17.36-4.11,17.36-9.64,0-16.84-52.32-5.27-52.32-38.7,0-15.3,12.34-28.03,37.92-28.03,11.31,0,22.88,2.7,31.24,7.97l-6.43,15.81c-8.36-4.76-16.97-7.07-24.94-7.07-12.34,0-17.1,4.63-17.1,10.28,0,16.58,52.32,5.14,52.32,38.18,0,15.04-12.47,27.9-38.18,27.9-14.27,0-28.67-4.24-36.64-10.41Z"/>
      </g>
    </g>
  </g>
</svg>