<?xml version="1.0" encoding="UTF-8"?>
<svg id="Camada_1" xmlns="http://www.w3.org/2000/svg" viewBox="0 0 256 256">
  <defs>
    <style>
      .cls-1 {
        fill: #fff;
        fill-rule: evenodd;
      }
    </style>
  </defs>
  <rect x="-18.4" y="-9.21" width="290.04" height="275.74"/>
  <g id="SvgjsG9526">
    <path class="cls-1" d="M209.2,155.83c-4.66,3.46-9.52,6.65-14.53,9.57-1.24.71-2.48,1.43-3.75,2.12l-.46.25h-.41l-.23.11c-.32.18-.74.39-1.2.6-.99.45-2,.85-3.04,1.2-1.1.39-2.3.71-3.4,1.03-2.38.62-4.79,1.12-7.22,1.49-2.48.41-5.04.71-7.66.94-5.22.46-10.69.64-16.46.74-5.77.09-11.84.14-18.21.32-3.17,0-6.44.25-9.77.48l-5.04.41c-1.7.16-3.4.37-5.17.62-7,1.01-13.92,2.55-20.7,4.6-6.73,1.97-13.35,4.27-19.85,6.9-3.2,1.31-6.35,2.67-9.47,4.07,6.47,6.56,13.9,12.11,22.03,16.46,4.6-2.3,9.2-4.6,13.8-6.51,5.32-2.25,10.81-4.09,16.42-5.5,1.31-.32,2.69-.64,4.07-.92s2.76-.53,4.14-.76c2.76-.48,5.52-.87,8.26-1.22,5.47-.71,10.88-1.22,16.1-1.82,5.22-.6,10.42-1.2,15.48-2.07,2.51-.46,5.01-.97,7.5-1.59,2.55-.62,5.06-1.39,7.52-2.3,1.29-.46,2.58-.99,3.91-1.59l2.05-1.01c.69-.34,1.43-.76,2.3-1.22.86-.49,1.69-1.03,2.48-1.61.23-.14.46-.34.71-.51l.69-.25.21-.16.16-.14.23-.21.44-.41,3.56-3.4c4.81-4.6,9.58-9.26,14.3-13.98,2.3-2.46,4.81-4.92,7.2-7.43.37-1.2.69-2.3.99-3.61-2.62,2.21-5.27,4.3-7.96,6.28Z"/>
    <path class="cls-1" d="M197.52,126.03l-3.86-.14h-3.31c-2.3,0-4.6-.3-7.22-.6-5.08-.6-10.44-1.52-15.96-2.58-5.52-1.06-11.2-2.3-17.09-3.54s-11.93-2.55-18.17-3.77c-3.13-.6-6.28-1.2-9.5-1.75l-4.88-.8-2.44-.39-2.53-.48c-6.76-.92-13.61-1.45-20.58-1.7-6.97-.25-14-.21-21.13,0-7.13.21-14.37.76-21.68,1.4-4.02.34-8.07.76-12.12,1.17-.7,4.64-1.06,9.33-1.06,14.03,0,3.84.24,7.68.71,11.5,5.17-.87,10.21-1.72,15.2-2.48,6.9-1.1,13.8-2.07,20.53-2.85,6.74-.78,13.27-1.36,19.68-1.66,6.42-.3,12.69-.44,18.74-.18h4.6l4.6.28,9.01.71c5.96.53,11.8,1.13,17.52,1.68s11.34,1.1,16.86,1.49c5.52.39,10.9.64,16.37.57,2.76,0,5.5-.14,8.55-.48.78,0,1.56-.18,2.44-.34h.62l.48-.14.99-.25,3.91-1.06c5.2-1.38,10.26-2.78,15.2-4.14l7.98-2.3v-2.21c-2.44.25-4.94.44-7.45.55-4.94.55-9.91.6-15.04.46Z"/>
    <path class="cls-1" d="M194.85,185.4c-1.15,1.06-2.3,2.09-3.5,3.1l-.44.39-.18.16h0l-.16.14-.21.18-1.06.85-1.33.92-1.45.92c-1.01.6-2.07,1.17-3.15,1.72-2.16,1.08-4.46,2.05-6.9,2.94-2.44.9-4.78,1.68-7.29,2.3-4.99,1.47-10.26,2.71-15.77,3.93-5.52,1.22-11.31,2.3-17.27,3.63-2.97.64-6,1.29-9.04,2-1.54.34-3.08.69-4.6,1.08l-2.3.55-2.3.62c-4.85,1.29-9.68,2.81-14.44,4.6,40.84,11.29,84.12-6.74,104.86-43.69-4.51,4.95-9,9.5-13.48,13.64Z"/>
    <path class="cls-1" d="M197.63,74.22l1.77,1.52,1.79,1.4,3.59,2.85c1.45,1.15,2.87,2.3,4.3,3.56-12.62-23.55-34.83-40.46-60.89-46.36,14.62,9.62,28.73,20,42.27,31.09l7.17,5.93Z"/>
    <path class="cls-1" d="M203.06,90.2l-3.61-2.62c-.6-.41-1.2-.87-1.82-1.29l-1.84-1.17c-2.46-1.56-4.94-3.13-7.45-4.6-20.56-12.65-41.86-24.08-63.77-34.22-6.38-2.94-12.82-5.77-19.34-8.49-10.82,2.78-21.03,7.51-30.15,13.96,15.42,3.96,30.37,8.29,44.84,12.99,22.65,7.34,44.91,15.84,66.69,25.48,2.58,1.15,5.13,2.3,7.66,3.47l1.91.87,1.89.74c1.29.48,2.53.99,3.79,1.52,5.01,2.02,9.91,4.2,14.69,6.53l.44.23c-.37-1.45-.78-2.85-1.22-4.25-4.2-2.99-8.44-6.04-12.72-9.15Z"/>
    <path class="cls-1" d="M214.81,112.26c-4.78-1.52-9.68-3.2-14.67-4.99l-3.77-1.36-1.89-.69-1.86-.55-7.75-2.3c-10.49-3.15-21.45-6.46-32.84-9.82-5.7-1.66-11.5-3.36-17.43-5.04l-8.92-2.53-4.6-1.24-2.3-.62-2.3-.6c-3.15-.74-6.25-1.45-9.41-2.14l-9.5-2.05c-6.36-1.33-12.84-2.63-19.43-3.89-7.38-1.4-14.88-2.78-22.49-4.07-5.58,7.13-10.06,15.05-13.31,23.5,10.99,1.01,21.72,2.07,32.19,3.17,6.9.71,13.48,1.45,20.05,2.3l9.75,1.15c3.2.37,6.39.76,9.47,1.17l2.3.3,2.3.34,4.6.74,9.2,1.49,17.48,2.83c11.66,1.91,22.83,3.73,33.57,5.33l8,1.15,2.02.28c.64,0,1.31,0,1.95.11l3.89.23c5.15.32,10.18.72,15.08,1.2l5.13.53-.34-2.64c-1.33-.41-2.78-.85-4.19-1.31Z"/>
    <path class="cls-1" d="M210.62,140.1c-4.88,1.89-9.87,3.52-14.92,4.88l-3.86.99-.97.23h-.53l-1.33.34c-1.01.21-2.12.39-3.29.55-1.17.16-2.3.28-3.59.37-2.48.21-5.04.28-7.63.3-2.6.02-5.31,0-8-.18-5.47-.25-11.15-.71-17.04-1.24s-12.03-1.15-18.4-1.66c-3.2-.28-6.42-.51-9.7-.71-1.63,0-3.29-.21-4.97-.28h-5.1c-7.07-.13-14.14.18-21.18.92-7.11.74-14.21,1.89-21.34,3.31-7.13,1.43-14.37,3.15-21.27,5.04l-7.08,1.95c2.64,8.24,6.41,16.06,11.22,23.25l4.05-1.49c6.32-2.3,12.6-4.37,18.83-6.21,6.23-1.84,12.46-3.38,18.58-4.6,5.93-1.18,11.93-2.01,17.96-2.48l2.18-.14h2.3c1.49,0,2.99-.14,4.48-.21,2.97,0,5.91-.18,8.83-.23,5.84,0,11.5,0,17.13-.18,5.63-.18,11.01-.18,16.37-.51,2.69-.16,5.33-.37,7.96-.67,2.62-.3,5.29-.69,7.98-1.2,1.36-.28,2.71-.57,4.12-.92,1.4-.34,2.83-.8,4.42-1.36.78-.28,1.61-.6,2.51-.99l.34-.16.37-.16.34-.16.25-.14.97-.55,3.82-2.3c5.08-2.99,10.07-6,14.95-9.08,3.07-1.9,6.06-3.82,8.99-5.77l.28-2.3c-3.06,1.31-6,2.58-9.01,3.75Z"/>
  </g>
</svg>