<?xml version="1.0" encoding="UTF-8"?>
<svg id="Camada_2" data-name="Camada 2" xmlns="http://www.w3.org/2000/svg" viewBox="0 0 1726.73 1148.25">
  <defs>
    <style>
      .cls-1 {
        fill: #fff;
      }
    </style>
  </defs>
  <g id="Camada_1-2" data-name="Camada 1">
    <g>
      <g>
        <polygon class="cls-1" points="0 732.06 174.21 732.06 174.21 777.27 50.48 777.27 50.48 824.12 159.37 824.12 159.37 869.32 50.48 869.32 50.48 917.82 175.87 917.82 175.87 963.03 0 963.03 0 732.06"/>
        <g>
          <path class="cls-1" d="M205.22,929.38l30.03-35.97c20.79,17.16,42.56,28.04,68.96,28.04,20.79,0,33.33-8.25,33.33-21.78v-.66c0-12.87-7.92-19.46-46.52-29.36-46.53-11.88-76.55-24.74-76.55-70.61v-.66c0-41.91,33.66-69.61,80.84-69.61,33.65,0,62.36,10.56,85.79,29.36l-26.4,38.27c-20.45-14.18-40.58-22.76-60.05-22.76s-29.7,8.91-29.7,20.13v.66c0,15.18,9.9,20.12,49.82,30.35,46.86,12.21,73.25,29.03,73.25,69.29v.66c0,45.86-34.97,71.6-84.8,71.6-34.98,0-70.28-12.21-98-36.95"/>
          <path class="cls-1" d="M421.98,848.21v-.66c0-65.66,49.49-119.44,120.43-119.44,43.56,0,69.62,14.51,91.07,35.63l-32.34,37.28c-17.82-16.17-35.96-26.07-59.06-26.07-38.93,0-66.98,32.34-66.98,71.93v.66c0,39.6,27.39,72.59,66.98,72.59,26.4,0,42.57-10.56,60.72-27.05l32.33,32.67c-23.76,25.4-50.15,41.24-94.7,41.24-67.97,0-118.45-52.46-118.45-118.78"/>
          <path class="cls-1" d="M851.22,848.21v-.66c0-39.59-29.04-72.59-69.95-72.59s-69.29,32.34-69.29,71.93v.66c0,39.6,29.04,72.59,69.95,72.59s69.29-32.33,69.29-71.93M658.86,848.21v-.66c0-65.66,51.8-119.44,123.07-119.44s122.41,53.12,122.41,118.77v.66c0,65.66-51.8,119.44-123.07,119.44s-122.41-53.12-122.41-118.78"/>
          <path class="cls-1" d="M1051.81,844.25c24.74,0,38.93-13.2,38.93-32.67v-.66c0-21.77-15.18-32.99-39.92-32.99h-50.48v66.32h51.47ZM949.52,732.06h105.58c29.37,0,52.14,8.25,67.31,23.43,12.87,12.87,19.8,31.01,19.8,52.79v.66c0,37.28-20.13,60.71-49.5,71.6l56.42,82.49h-59.39l-49.49-73.91h-39.92v73.91h-50.81v-230.96Z"/>
          <path class="cls-1" d="M1172.22,929.38l30.02-35.97c20.79,17.16,42.57,28.04,68.96,28.04,20.79,0,33.32-8.25,33.32-21.78v-.66c0-12.87-7.92-19.46-46.52-29.36-46.52-11.88-76.55-24.74-76.55-70.61v-.66c0-41.91,33.65-69.61,80.84-69.61,33.66,0,62.36,10.56,85.79,29.36l-26.4,38.27c-20.45-14.18-40.59-22.76-60.05-22.76s-29.7,8.91-29.7,20.13v.66c0,15.18,9.9,20.12,49.82,30.35,46.85,12.21,73.25,29.03,73.25,69.29v.66c0,45.86-34.97,71.6-84.8,71.6-34.97,0-70.28-12.21-97.99-36.95"/>
        </g>
        <rect class="cls-1" x="1401.52" y="732.06" width="50.81" height="230.96"/>
        <polygon class="cls-1" points="1510.07 732.06 1556.92 732.06 1665.15 874.27 1665.15 732.06 1715.3 732.06 1715.3 963.03 1672.07 963.03 1560.22 816.2 1560.22 963.03 1510.07 963.03 1510.07 732.06"/>
      </g>
      <g>
        <g>
          <path class="cls-1" d="M.06,1089.81v-3c0-38.46,14.49-57.44,31.14-57.44,5.17,0,7.83,1,11.32,2.83v7.83c-4.33-2.49-7.49-3.66-11.32-3.66-12.99,0-23.81,17.48-23.81,50.45v3c0,32.97,10.82,50.45,23.81,50.45,4.16,0,7.66-1.17,11.82-3.83v7.5c-3.33,2-7.16,3.33-12.15,3.33-17.15,0-30.81-18.98-30.81-57.44"/>
          <path class="cls-1" d="M121.95,1089.64v-2.66c0-33.97-8.82-51.62-20.31-51.62s-20.31,17.65-20.31,51.62v2.66c0,33.97,8.82,51.62,20.31,51.62s20.31-17.65,20.31-51.62M74,1089.64v-2.66c0-38.46,11.82-58.27,27.64-58.27s27.63,19.81,27.63,58.27v2.66c0,38.46-11.82,58.28-27.63,58.28s-27.64-19.82-27.64-58.28"/>
        </g>
        <polygon class="cls-1" points="168.07 1030.04 176.06 1030.04 212.36 1127.94 212.36 1030.04 219.35 1030.04 219.35 1146.58 212.19 1146.58 175.06 1046.36 175.06 1146.58 168.07 1146.58 168.07 1030.04"/>
        <g>
          <path class="cls-1" d="M257.65,1142.09v-8.32c7.99,5.16,14.65,7.5,20.31,7.5,9.82,0,16.15-6.49,16.15-16.82v-.33c0-9.66-3.5-16.15-16.32-33.47-15.48-20.81-19.31-27.47-19.31-38.13v-.33c0-13.82,10.16-23.81,22.81-23.81,6.66,0,11.99,1.83,17.65,5.16v8.33c-6.32-4.33-12.15-6.49-17.81-6.49-9,0-15.32,6.66-15.32,16.32v.33c0,8.66,3.5,15.32,16.48,31.81,14.16,17.81,19.15,27.31,19.15,39.79v.33c0,14.82-10.16,24.31-23.64,24.31-6.82,0-13.16-2.17-20.15-6.16"/>
          <path class="cls-1" d="M339.74,1116.62v-86.57h7.32v86.74c0,15.81,6.83,24.64,17.82,24.64s17.98-8.83,17.98-24.64v-86.74h7.32v86.57c0,19.31-9.82,31.47-25.3,31.47s-25.15-12.16-25.15-31.47"/>
        </g>
        <polygon class="cls-1" points="431.48 1030.04 438.81 1030.04 438.81 1139.93 468.12 1139.93 468.12 1146.58 431.48 1146.58 431.48 1030.04"/>
        <polygon class="cls-1" points="507.91 1036.7 488.93 1036.7 488.93 1030.04 534.22 1030.04 534.22 1036.7 515.24 1036.7 515.24 1146.58 507.91 1146.58 507.91 1036.7"/>
        <g>
          <path class="cls-1" d="M610.31,1089.64v-2.66c0-33.97-8.82-51.62-20.31-51.62s-20.31,17.65-20.31,51.62v2.66c0,33.97,8.83,51.62,20.31,51.62s20.31-17.65,20.31-51.62M562.36,1089.64v-2.66c0-38.46,11.82-58.27,27.64-58.27s27.64,19.81,27.64,58.27v2.66c0,38.46-11.82,58.28-27.64,58.28s-27.64-19.82-27.64-58.28"/>
          <path class="cls-1" d="M670.92,1093.14c15.98,0,26.14-10.16,26.14-28.31v-.33c0-18.82-10.66-27.81-26.47-27.81h-6.83v56.45h7.16ZM656.43,1030.04h14.49c20.31,0,33.46,12.49,33.46,34.3v.33c0,16.15-7.49,27.81-20.15,32.64l22.31,49.28h-8.66l-21.14-47.45c-2,.33-4.16.5-6.49.5h-6.49v46.95h-7.33v-116.54Z"/>
        </g>
        <rect class="cls-1" x="744.68" y="1030.04" width="7.33" height="116.54"/>
        <path class="cls-1" d="M833.59,1107.29l-13.82-66.27-13.82,66.27h27.64ZM815.95,1029.54h7.99l25.48,117.05h-7.66l-6.82-32.63h-30.31l-6.82,32.63h-7.32l25.48-117.05Z"/>
        <rect class="cls-1" x="938.66" y="1030.04" width="7.33" height="116.54"/>
        <polygon class="cls-1" points="989.11 1030.04 998.1 1030.04 1019.58 1095.14 1041.22 1030.04 1050.05 1030.04 1050.05 1146.58 1043.06 1146.58 1043.06 1046.19 1019.91 1113.96 1019.25 1113.96 996.1 1046.19 996.1 1146.58 989.11 1146.58 989.11 1030.04"/>
        <g>
          <path class="cls-1" d="M1136.8,1089.64v-2.66c0-33.97-8.83-51.62-20.31-51.62s-20.31,17.65-20.31,51.62v2.66c0,33.97,8.82,51.62,20.31,51.62s20.31-17.65,20.31-51.62M1088.85,1089.64v-2.66c0-38.46,11.82-58.27,27.64-58.27s27.64,19.81,27.64,58.27v2.66c0,38.46-11.82,58.28-27.64,58.28s-27.64-19.82-27.64-58.28"/>
          <path class="cls-1" d="M1194.91,1139.93c17.48,0,28.3-8.16,28.3-23.64v-.34c0-15.98-9.82-24.81-27.14-24.81h-5.83v48.79h4.66ZM1195.41,1084.48c17.15,0,26.31-9.32,26.31-24.64v-.34c0-14.15-9.66-22.81-24.14-22.81h-7.32v47.78h5.16ZM1182.92,1030.04h14.99c18.48,0,31.13,11.65,31.13,29.13v.33c0,17.15-9.82,24.97-21.31,28.14,13.82,3.17,22.81,12.49,22.81,28.47v.33c0,18.98-14.15,30.14-35.8,30.14h-11.82v-116.54Z"/>
        </g>
        <rect class="cls-1" x="1269.5" y="1030.04" width="7.33" height="116.54"/>
        <polygon class="cls-1" points="1319.95 1030.04 1327.28 1030.04 1327.28 1139.93 1356.58 1139.93 1356.58 1146.58 1319.95 1146.58 1319.95 1030.04"/>
        <rect class="cls-1" x="1391.72" y="1030.04" width="7.33" height="116.54"/>
        <path class="cls-1" d="M1473.8,1000.73l8.32,4.33-14.99,18.15h-4.83l11.49-22.48ZM1480.63,1107.29l-13.81-66.27-13.82,66.27h27.64ZM1462.98,1029.54h7.99l25.48,117.05h-7.66l-6.83-32.63h-30.3l-6.82,32.63h-7.33l25.47-117.05Z"/>
        <path class="cls-1" d="M1548.23,1093.14c15.98,0,26.14-10.16,26.14-28.31v-.33c0-18.82-10.66-27.81-26.48-27.81h-6.83v56.45h7.16ZM1533.74,1030.04h14.49c20.31,0,33.46,12.49,33.46,34.3v.33c0,16.15-7.49,27.81-20.15,32.64l22.32,49.28h-8.66l-21.14-47.45c-2,.33-4.16.5-6.49.5h-6.49v46.95h-7.33v-116.54Z"/>
        <rect class="cls-1" x="1621.99" y="1030.04" width="7.33" height="116.54"/>
        <path class="cls-1" d="M1710.9,1107.29l-13.81-66.27-13.82,66.27h27.64ZM1693.26,1029.54h7.99l25.48,117.05h-7.67l-6.82-32.63h-30.3l-6.82,32.63h-7.33l25.48-117.05Z"/>
      </g>
      <g>
        <path class="cls-1" d="M891.07,14.76c-1.15.74-10.82,42.22-23.13,91.01,23.52,3.87,42.88,16.21,55.97,36.45,16.39,25.35,18.76,53.65,7.48,82.54l112.24-14.53S893.25,15.96,891.07,14.76Z"/>
        <path class="cls-1" d="M955.23,29.62l95.54,167.67c3.16,5.55,3.49,12.29.84,18.1-2.65,5.8-7.94,10-14.18,11.25l-119.95,24.25c-4.2,6.26-9.01,12.52-14.48,18.73-7.51,8.58-16.92,17.48-27.33,25.99-24.84,20.23-55.43,37.87-79.76,41.71-3.21.51-6.31.79-9.26.79-5.68,0-10.87-.97-15.35-3.1-5.62-2.67-9.9-6.85-12.6-11.94-3.03-5.73-4.1-12.62-2.82-20.03,0-.05.03-.13.05-.2.92-4.33,6.82-6.92,13.69-8.12,1.96-5.06,3.89-10.13,5.8-15.14l-103.66,20.95c-9.14,23.06-14.76,47.64-15.3,73.04-.79,36.55.25,87.58,14.74,99.41,6.29,5.17,15.09,7.71,25.99,8.07,18.4-46.93,38.02-97.25,57.03-146.37,2.47,2.85,5.55,5.24,9.24,6.97,4.48,2.14,9.65,3.11,15.32,3.11,4.68,0,9.72-.69,14.99-1.91-16.87,43.7-34.31,88.41-51,131.04,103.66-29.47,283.21-143.34,411.76-230.81V0h-240.35c24.31,1.15,38.86,25.68,41.05,29.62Z"/>
        <polygon class="cls-1" points="1154.53 276.48 1154.53 278.38 1154.53 278.38 1154.53 276.48 1154.53 276.48"/>
        <path class="cls-1" d="M737.8,486.59c-10.61,1.91-20.72,2.93-30.26,2.93-4.61,0-9.09-.23-13.41-.71-2.85-.31-5.62-.79-8.37-1.32-7.61-1.5-14.76-3.82-21.4-7.13-1.93-.94-3.82-1.98-5.65-3.08-29.01-17.64-43.16-52.81-42.04-104.58.46-21.4,4.02-42.58,10.08-63.07,3.82-12.88,8.58-25.45,14.2-37.67,19.42-42.3,48.76-80.09,81.87-109.06,29.27-25.6,61.44-44.31,92.23-53.04,8.86-2.52,17.43-4.15,25.7-4.91,4.68-13.51,8.58-25.02,11.4-33.8,9.37-29.09,25.4-68.11,56.7-71.03.66-.05,1.3-.1,1.93-.13h-387.99v294.44l112.95-21.51c-5.93,12.29-11.07,24.97-15.19,37.95l-97.76,19.75v282.91h122.19s42.82,0,42.82,0c0,0,0,0,0,0h-42.82c13.11-33.13,29.09-73.65,46.37-117.65,2.72.18,5.5.31,8.32.31,11.22,0,23.24-1.43,35.94-4.02-17.51,44.64-33.98,86.38-47.8,121.37h466.71v-337.07c-63.91,38.61-135.5,80.83-196.27,114.12-83.83,45.89-160.31,85.23-220.45,96Z"/>
        <path class="cls-1" d="M895.44,255.34l-73.78,14.91c-3.05,8.02-6.18,16.14-9.31,24.36,19.14-3.36,49.12-11.15,75.59-31.84,3.08-2.42,6.13-4.99,9.09-7.76,8.5-7.94,16.39-17.48,23.19-28.84.89-1.5,1.81-3.03,2.67-4.61,2.88-5.24,5.19-10.26,7.02-15.09,6.46-17.28,6.03-32.22-3.13-46.4-2.11-3.26-5.14-5.9-8.83-8.12-14.28-8.55-38.68-10-59.66-8.65-13.36.87-25.35,2.85-32.4,4.84-.18.05-.36.13-.53.18-23.92,6.9-51.18,22.78-76.76,45.17-21.56,18.86-41.87,42.35-57.9,69l99.31-18.91c11.99-31.53,23.49-62.53,33.47-90.09,8.42-1.81,20.39-3.39,33.14-3.84-9.06,34.08-18.53,66.96-26.54,88.21l85.74-11.1c-.25.48-.51.97-.76,1.45-5.73,10.46-12.39,19.42-19.6,27.13Z"/>
      </g>
    </g>
  </g>
</svg>