<?xml version="1.0" encoding="UTF-8"?>
<svg id="Camada_1" data-name="Camada 1" xmlns="http://www.w3.org/2000/svg" viewBox="0 0 256 256">
  <defs>
    <style>
      .cls-1 {
        fill: #fff;
      }
    </style>
  </defs>
  <path class="cls-1" d="M139.6,63.37c-.25.16-2.39,9.34-5.12,20.14,5.2.86,9.49,3.59,12.39,8.07,3.63,5.61,4.15,11.87,1.66,18.27l24.84-3.22s-33.28-43-33.76-43.26Z"/>
  <path class="cls-1" d="M153.8,66.66l21.15,37.11c.7,1.23.77,2.72.19,4-.59,1.28-1.76,2.21-3.14,2.49l-26.55,5.37c-.93,1.39-1.99,2.77-3.21,4.15-1.66,1.9-3.75,3.87-6.05,5.75-5.5,4.48-12.27,8.38-17.65,9.23-.71.11-1.4.17-2.05.17-1.26,0-2.41-.21-3.4-.69-1.24-.59-2.19-1.52-2.79-2.64-.67-1.27-.91-2.79-.63-4.43,0-.01,0-.03.01-.05.2-.96,1.51-1.53,3.03-1.8.43-1.12.86-2.24,1.28-3.35l-22.94,4.64c-2.02,5.1-3.27,10.54-3.39,16.17-.17,8.09.06,19.38,3.26,22,1.39,1.14,3.34,1.71,5.75,1.79,4.07-10.39,8.42-21.52,12.62-32.39.55.63,1.23,1.16,2.04,1.54.99.47,2.13.69,3.39.69,1.04,0,2.15-.15,3.32-.42-3.73,9.67-7.59,19.57-11.29,29,22.94-6.52,62.68-31.72,91.13-51.08v-53.8h-53.2c5.38.25,8.6,5.68,9.09,6.56Z"/>
  <polygon class="cls-1" points="197.91 121.3 197.91 121.72 197.91 121.72 197.91 121.3 197.91 121.3"/>
  <path class="cls-1" d="M105.68,167.8c-2.35.42-4.59.65-6.7.65-1.02,0-2.01-.05-2.97-.16-.63-.07-1.24-.17-1.85-.29-1.68-.33-3.27-.84-4.74-1.58-.43-.21-.84-.44-1.25-.68-6.42-3.9-9.55-11.69-9.31-23.15.1-4.74.89-9.42,2.23-13.96.84-2.85,1.9-5.63,3.14-8.34,4.3-9.36,10.79-17.73,18.12-24.14,6.48-5.67,13.6-9.81,20.41-11.74,1.96-.56,3.86-.92,5.69-1.09,1.04-2.99,1.9-5.54,2.52-7.48,2.07-6.44,5.62-15.07,12.55-15.72.15-.01.29-.02.43-.03H58.09v65.17l25-4.76c-1.31,2.72-2.45,5.53-3.36,8.4l-21.64,4.37v62.61h27.04s9.48,0,9.48,0c0,0,0,0,0,0h-9.48c2.9-7.33,6.44-16.3,10.26-26.04.6.04,1.22.07,1.84.07,2.48,0,5.14-.32,7.95-.89-3.88,9.88-7.52,19.12-10.58,26.86h103.29v-74.6c-14.14,8.54-29.99,17.89-43.44,25.26-18.55,10.16-35.48,18.86-48.79,21.25Z"/>
  <path class="cls-1" d="M140.57,116.62l-16.33,3.3c-.68,1.77-1.37,3.57-2.06,5.39,4.24-.74,10.87-2.47,16.73-7.05.68-.54,1.36-1.1,2.01-1.72,1.88-1.76,3.63-3.87,5.13-6.38.2-.33.4-.67.59-1.02.64-1.16,1.15-2.27,1.55-3.34,1.43-3.82,1.33-7.13-.69-10.27-.47-.72-1.14-1.31-1.95-1.8-3.16-1.89-8.56-2.21-13.2-1.92-2.96.19-5.61.63-7.17,1.07-.04.01-.08.03-.12.04-5.29,1.53-11.33,5.04-16.99,10-4.77,4.17-9.27,9.37-12.81,15.27l21.98-4.19c2.65-6.98,5.2-13.84,7.41-19.94,1.86-.4,4.51-.75,7.33-.85-2.01,7.54-4.1,14.82-5.88,19.52l18.98-2.46c-.06.11-.11.21-.17.32-1.27,2.32-2.74,4.3-4.34,6Z"/>
</svg>