<?xml version="1.0" encoding="UTF-8"?>
<svg id="Camada_1" data-name="Camada 1" xmlns="http://www.w3.org/2000/svg" viewBox="0 0 256 256">
  <defs>
    <style>
      .cls-1 {
        fill: #ffba04;
      }

      .cls-2 {
        fill: #55274f;
      }
    </style>
  </defs>
  <rect class="cls-2" x="-18.4" y="-9.21" width="290.04" height="275.74"/>
  <path class="cls-1" d="M214.75,159.02l-1.02.51c-1.9.95-3.41,1.43-4.48,1.43-.96,0-2.13-.33-2.65-2.91-.5-2.46-.75-7.82-.75-15.91v-11.2c0-6.15-1.81-10.89-5.37-14.1-3.53-3.18-8.11-4.79-13.63-4.79-.19,0-.36.02-.54.03-.02-.01-.05-.02-.12-.02-2.9,0-6.23-.02-9.13.02-.78,0-1.58.14-2.33.37-4.61,1.43-7.15,6.09-5.9,10.79,1.32,4.98,6.61,7.77,11.46,6.01,3.45-1.26,5.45-3.79,5.81-7.46.16-1.58.07-3.18.08-4.77,0-.07,0-.14,0-.21,3.67.05,6.12,1.22,7.44,3.61,1.45,2.63,2.19,6.55,2.19,11.65v2.86c-21.5.29-32.39,6.71-32.39,19.1,0,4.6,1.49,8.3,4.42,10.99.17.15.38.26.55.41h-.1c-4.91,0-9.45-2.9-13.48-8.6-1.78-2.59-3.59-5.2-5.44-7.83-1.91-2.71-4.3-5.16-7.12-7.3-1.84-1.39-3.82-2.44-5.92-3.14,2.12-1.09,4.18-2.67,6.18-4.71,1.11-1.18,2.89-3.11,5.33-5.78,2.41-2.63,4.76-5.08,6.96-7.28,1.99-1.99,2.98-2.99,7.45-2.99h.95l.64-3.5h-24.08l.63,3.5h.95c1.69,0,2.37.34,2.63.54.37.29.56.88.56,1.76,0,3.02-1.84,6.55-5.47,10.49-3.26,3.54-6.73,5.62-10.33,6.21v-51.55h-1.14c-6.16,0-12.11.41-17.69,1.23l-1.15.17.57,3.43h.96c2.97,0,5.21.4,6.66,1.19.12.07.76.53,1.2,3.13.36,2.12.54,6.07.54,11.73v42.48c0,9.95-.72,13.44-1.32,14.62-.74,1.44-3.19,2.21-7.08,2.21h-6.72c-3.83,0-6.22-.71-6.92-2.05-.57-1.1-1.26-4.38-1.26-13.78v-36.41h-1.14c-2.24,0-7.32.18-15.53.56-7.36.34-13.32.52-17.72.55v-6.29c0-12.59,4.05-18.72,12.39-18.72.64,0,3.51-.01,5.54.02,0,.08,0,.15,0,.23,0,1.74-.09,3.49.08,5.21.4,4,2.57,6.77,6.34,8.14,5.29,1.92,11.06-1.11,12.5-6.55,1.36-5.13-1.42-10.21-6.44-11.77-.81-.25-1.69-.39-2.54-.4-2.64-.03-5.61-.02-8.36-.02h0c-1-.12-5.15-.02-6.12-.02-7.57,0-13.45,2.47-17.46,7.35-3.83,4.64-5.83,12.32-5.97,22.82h-6.52l-1.42,4.72h7.93v23.82c0,7.81-.18,13.06-.54,15.59-.35,2.33-.71,3.43-.95,3.94-.32.68-.86,1.3-1.6,1.85-.73.55-1.52.88-2.41,1-1.01.14-2.4.21-4.11.21l-1.56,3.61h98.71l-.61-3.61h-.96c-3.76,0-6.13-.73-6.87-2.11-.6-1.13-1.31-4.42-1.31-13.72v-8.18c2.89,1.07,6.18,4.33,9.78,9.7l5.33,8c4.49,6.59,9.06,9.93,13.59,9.93h23.19l-.11-.03c4.56-.17,8.23-1.71,10.9-4.6,1.69-1.84,3.19-4.03,4.49-6.57.15,4.23.5,7.45,1.05,9.77l.34,1.39.05-.02c.33.88,1.05,1.65,2.1,2.19,3.07,1.58,7.87.77,11.13-1.89.53-.43,1-.92,1.37-1.41,1.38-1.82,2.91-3.93,4.27-5.76.05-.06.02-.06.01-.08h.04s-1.49-2.99-1.49-2.99ZM85.33,149.35c0,9.48-.71,12.82-1.31,13.94-.73,1.38-3.18,2.11-7.09,2.11h-6.21c-3.41,0-5.89-.62-7.37-1.85-.3-.25-1.07-1.22-1.66-4.75-.47-2.8-.71-8.18-.71-16.01v-23.82h14.61c3.48,0,6,.62,7.53,1.88.29.22,1.02,1.07,1.56,4.32.43,2.62.65,8.13.65,16.4v7.76ZM195.43,152.71c-1.64,5.47-7.14,8.53-12.71,7.1-5.91-1.51-9.27-7.74-7.23-13.5,1.45-4.1,4.44-6.49,8.78-6.96,1.86-.2,3.76-.12,5.65-.14,1.77-.02,4.07-.03,5.84-.07v.51c.02,3.43.1,6.87.08,10.3,0,.92-.14,1.88-.41,2.76"/>
</svg>