<svg width="513" height="512" viewBox="0 0 513 512" fill="none" xmlns="http://www.w3.org/2000/svg">
<rect width="512" height="512" transform="translate(0.5)" fill="#C89843"/>
<path d="M46.5 337.924V173.147H164.528V206.01H85.1486V242.343H154.577V272.43H85.1486V337.924H46.5Z" fill="white"/>
<path d="M452.108 173.149H435.612H407.415V205.006H435.612V282.661C435.612 292.099 433.213 299.392 428.416 304.54C423.619 309.687 416.813 312.263 408 312.263C399.263 312.263 392.497 309.669 387.7 304.481C382.903 299.295 380.505 292.021 380.505 282.661H348.329C348.329 301.305 353.458 315.791 363.715 326.126C373.972 336.463 388.537 341.629 407.415 341.629C425.977 341.629 440.467 336.48 450.88 326.186C461.293 315.888 466.5 301.382 466.5 282.661V173.149H452.108Z" fill="white"/>
<path d="M221.358 315.708C202.382 315.708 191.754 306.451 194.906 292.565C197.741 280.068 206.65 272.431 219.04 267.801L251.956 305.293C242.102 312.005 231.773 315.708 221.358 315.708ZM322.784 219.243C309.742 251.006 285.663 279.142 277.628 287.01L240.008 243.733C231.873 234.708 229.167 225.219 231.163 216.425C233.79 204.854 244.138 196.986 255.94 196.986C268.901 196.986 275.773 206.473 273.094 218.276H304.337C310.587 190.736 292.455 169.677 261.445 169.677C231.591 169.677 205.476 188.885 199.362 214.806C196.189 227.764 199.349 239.337 204.601 248.825C182.649 257.85 166.465 271.042 161.317 293.723C154.856 322.187 175.049 342.322 209.533 342.322C228.51 342.322 250.914 335.379 268.941 324.27L281.116 337.925H322.078L293.792 305.525C310.676 290.619 329.059 262.373 338.426 244.554H359.175L369.063 219.243H322.784Z" fill="white"/>
</svg>
