<?xml version="1.0" encoding="UTF-8"?>
<svg id="Camada_1" data-name="Camada 1" xmlns="http://www.w3.org/2000/svg" viewBox="0 0 1080 1080">
  <defs>
    <style>
      .cls-1 {
        fill: #fff;
      }

      .cls-2 {
        fill: #92a485;
      }
    </style>
  </defs>
  <rect class="cls-2" x="-49.64" y="-46.57" width="1170.38" height="1152"/>
  <g>
    <g>
      <path class="cls-1" d="M340.12,692.35h-6.46v43.43h6.46c16.29,0,23.65-9.94,23.65-21.75s-7.36-21.68-23.65-21.68ZM340.46,731.5h-2.54v-34.9h2.54c12.68,0,19.04,7.33,19.04,17.43s-6.36,17.47-19.04,17.47Z"/>
      <path class="cls-1" d="M405.06,696.57v-4.12h-22.78v43.33h22.78v-4.12h-18.54v-16.36h17.06v-3.91h-17.06v-14.82h18.54Z"/>
      <path class="cls-1" d="M451.2,692.45v43.33h4.28v-43.33h-4.28Z"/>
      <path class="cls-1" d="M518.12,692.45l-18.74,38.58-18.91-38.58h-5.05v43.33h4.28v-35.8l17.57,35.8h4.22l17.43-35.7v35.7h4.25v-43.33h-5.05Z"/>
      <path class="cls-1" d="M564.16,691.55c-13.08,0-22.52,10.47-22.52,22.48s9.43,22.52,22.52,22.52,22.48-10.47,22.48-22.52-9.4-22.48-22.48-22.48ZM564.16,732.3c-10.31,0-18.27-8.1-18.27-18.27s7.96-18.2,18.27-18.2,18.23,8.1,18.23,18.2-7.96,18.27-18.23,18.27ZM565.13,680.78l-2.68,8.93h1.71l2.01.1,2.74-9.03h-3.78Z"/>
      <path class="cls-1" d="M633.05,692.45l-13.99,37.57-14.59-37.57h-4.58l16.73,43.33h4.82l16.16-43.33h-4.55Z"/>
      <path class="cls-1" d="M677.18,696.57v-4.12h-22.79v43.33h22.79v-4.12h-18.5v-16.36h17.03v-3.91h-17.03v-14.82h18.5Z"/>
      <path class="cls-1" d="M695.41,692.45v43.33h4.28v-43.33h-4.28Z"/>
      <path class="cls-1" d="M732.65,710.89c-5.05-1.44-8.57-3.08-8.57-8.16,0-4.28,3.05-7.26,7.93-7.26,5.65,0,8.43,3.61,8.5,9.1l4.15.03c-.07-7.9-4.75-13.15-12.65-13.15-7.16,0-12.11,4.85-12.11,11.21,0,7.36,5.05,10.17,11.38,12.01,5.89,1.64,10.81,3.21,10.81,9.17,0,5.05-4.12,8.67-10,8.67-6.59,0-10.34-4.58-10.37-10.64h-4.21c.07,8.5,5.69,14.65,14.59,14.65,8.3,0,14.25-5.22,14.25-12.65,0-8.93-6.99-11.01-13.68-12.98Z"/>
    </g>
    <g>
      <path class="cls-1" d="M164.52,555.58v13.48h50.86c-5.62,28.17-30.55,49.28-60.56,49.28-36.2,0-63.3-28.21-63.3-63.3s27.27-63.1,63.3-63.1c23.86,0,44.23,13.18,54.3,32.52h17c-11.31-27.3-37.91-47.28-71.3-47.28-45.3,0-77.86,36.2-77.86,77.69s32.55,77.82,77.86,77.82,77.29-35.83,77.46-77.12h-67.75Z"/>
      <path class="cls-1" d="M512.4,615.8v-135.51h-14.75v149.69h69.86v-14.19h-55.11Z"/>
      <path class="cls-1" d="M419.83,615.8v-135.51h-14.75v149.69h69.86v-14.19h-55.11Z"/>
      <path class="cls-1" d="M673.44,494.48v-14.19h-78.76v149.69h78.76v-14.19h-64.04v-56.58h58.95v-13.45h-58.95v-51.29h64.04Z"/>
      <path class="cls-1" d="M794.51,535.03c0-28.57-16.39-54.94-61.5-54.94h-29.11v150.06h14.76v-40.38h15.66c6.69,0,12.72-.7,18.34-1.81l23.65,42.02h17.46l-27.64-46.57c20.01-9.44,28.37-28.37,28.37-48.38ZM734.65,575.42h-15.99v-80.94h15.99c29.11,0,45.47,14.92,45.47,40.55s-15.83,40.38-45.47,40.38Z"/>
      <path class="cls-1" d="M827.34,480.29v149.69h14.72v-149.69h-14.72Z"/>
      <path class="cls-1" d="M944.49,480.29h-16.19l-60.76,149.69h15.62l36.17-90.3,16.96-42.29,36.57,94.39h-60.12l-5.19,13.12h70.4l9.8,25.09h15.29l-58.55-149.69Z"/>
      <path class="cls-1" d="M319.32,480.29h-16.19l-60.73,149.69h15.62l36.17-90.3,16.96-42.29,36.54,94.39h-60.12l-5.15,13.12h70.36l9.84,25.09h15.29l-58.59-149.69Z"/>
    </g>
    <path class="cls-1" d="M542.31,282.4l-2.33-2.49-2.33,2.49-88.19,93.12,88.19,52.28,2.33,1.4,2.33-1.4,88.23-52.28-88.23-93.12ZM537.65,422.38l-78.84-46.74,73.58-29.37v-5.38l-71.42,29.21,76.67-80.96v133.24ZM542.31,289.14l76.67,80.96-71.42-29.21v5.38l73.58,29.37-78.84,46.74v-133.24Z"/>
  </g>
</svg>