<?xml version="1.0" encoding="UTF-8"?>
<svg id="Camada_2" data-name="Camada 2" xmlns="http://www.w3.org/2000/svg" viewBox="0 0 1202.02 322.32">
  <defs>
    <style>
      .cls-1 {
        fill: #fff;
      }
    </style>
  </defs>
  <g id="Layer_1" data-name="Layer 1">
    <g>
      <g>
        <path class="cls-1" d="M162.87,113.28c-5.2,0-25.39-.59-29.08-.59v3.96c15.32,2.46,18.69,8.57,18.69,16.23v46.86c-5.52,3.37-19.6,11.3-38.29,11.3-53.24,0-86.34-39.47-86.34-93.67C27.85,48.68,60.04,12.27,106.58,12.27c14.68,0,25.71,3.37,36.42,9.8,7.66,4.61,14.35,11.36,18.64,19.92h4.02l-1.87-31.87c-.91,0-5.2-.32-13.76-2.14-7.93-1.82-26.03-7.98-44.67-7.98C44.72,0,0,39.2,0,101.06c0,65.5,48.36,102.24,110.87,102.24,19.28,0,35.19-2.79,43.76-5.2,15.32-4.61,23.24-5.25,23.24-5.25v-59.08c0-7.93,2.14-15.26,8.57-17.14v-3.96c-3.96,0-18.96.59-23.57.59Z"/>
        <path class="cls-1" d="M371.38,161.96c-7.34,16.23-15,24.48-34.6,24.48h-57.52V23.62c0-10.12,6.43-13.82,16.23-16.55v-3.96c-2.46,0-23.57.59-28.17.59-5.2,0-27.26-.59-29.4-.59v3.96c10.12,2.14,15.91,6.75,15.91,16.55v155.21c0,7.93-5.2,15.59-14.68,17.41v4.02c3.96,0,22.66-.64,27.85-.64h58.17c19.6,0,29.99,0,45.63,1.55l4.55-38.3-3.96-.91Z"/>
        <path class="cls-1" d="M513.79,0c-59.4,0-97.05,47.45-97.05,102.3s37.65,101.01,97.05,101.01,96.73-46.22,96.73-101.01S572.86,0,513.79,0ZM513.79,191.04c-48.42,0-68.93-42.85-68.93-88.75s20.51-90.03,68.93-90.03,68.88,44.08,68.88,90.03-20.51,88.75-68.88,88.75Z"/>
        <path class="cls-1" d="M753.2,95.87v-.64c19.6-5.19,35.19-20.51,35.19-44.08,0-38.24-30.31-49.27-64.91-49.27-10.07,0-25.71,1.82-34.6,1.82-5.2,0-24.15-.59-27.85-.59v3.96c9.21,2.14,14.73,8.89,14.73,16.55v155.21c0,7.93-5.2,15.59-14.73,17.41v4.02c4.02,0,22.66-.64,27.85-.64,8.89,0,31.55,1.87,41.67,1.87,34.6,0,68.29-13.5,68.29-54.84,0-23.83-18.69-44.35-45.63-50.77ZM701.14,14.41c6.43-1.82,8.89-2.46,15.64-2.46,25.39,0,43.76,15.96,43.76,40.44,0,29.67-17.14,38.24-42.53,38.24h-16.87V14.41ZM724.43,189.81c-6.75,0-16.87-.59-23.3-2.41v-85.11h24.21c24.15,0,45.58,15.91,45.58,43.76s-18.37,43.76-46.49,43.76Z"/>
        <path class="cls-1" d="M1004.87,175.73l-56.93-152.11c-2.46-6.75-6.48-22.39-6.48-22.39h-15.91s-4.28,15.64-7.02,22.39l-61.54,152.11c-4.28,10.71-7.66,16.55-18.96,20.51v4.02c4.87,0,20.19-.64,24.15-.64s16.82.64,20.51.64v-4.02c-8.57-2.73-12.27-7.34-11.03-13.76.32-1.5,3.37-12.21,4.61-15l10.39-25.39h78.09l11.62,29.67c.91,2.14,3.37,9.21,3.7,11.62.91,5.52-.91,10.12-9.21,12.85v4.02c4.61,0,22.07-.64,26.62-.64s22.71.64,27.26.64v-4.02c-11.3-3.05-15.59-9.16-19.87-20.51ZM891.91,128.91l35.19-87.25,33.05,87.25h-68.23Z"/>
        <path class="cls-1" d="M1198.05,161.96c-7.34,16.23-15,24.48-34.6,24.48h-57.58V23.62c0-10.12,6.43-13.82,16.23-16.55v-3.96c-2.41,0-23.57.59-28.17.59-5.2,0-27.21-.59-29.35-.59v3.96c10.07,2.14,15.91,6.75,15.91,16.55v155.21c0,7.93-5.2,15.59-14.68,17.41v4.02c3.96,0,22.66-.64,27.85-.64h58.17c19.6,0,29.99,0,45.58,1.55l4.61-38.3-3.96-.91Z"/>
      </g>
      <g>
        <path class="cls-1" d="M447.62,309.28c0,8.04-5.94,12.63-17.76,12.63h-21.76v-47.29h20.4c10.54,0,16.62,4.46,16.62,12.16,0,5.4-2.91,8.99-7.24,10.74,6.08,1.35,9.73,5.34,9.73,11.75ZM413.1,278.74v17.16h15.06c7.57,0,11.96-2.91,11.96-8.58s-4.4-8.58-11.96-8.58h-15.06ZM442.62,308.87c0-6.15-4.53-8.85-12.84-8.85h-16.69v17.76h16.69c8.31,0,12.84-2.7,12.84-8.91Z"/>
        <path class="cls-1" d="M500.76,321.91l-10.81-15.2c-1.21.13-2.43.2-3.78.2h-12.7v15h-5v-47.29h17.7c12.02,0,19.32,6.08,19.32,16.21,0,7.43-3.92,12.64-10.81,14.86l11.55,16.21h-5.48ZM500.49,290.83c0-7.57-5-11.89-14.45-11.89h-12.57v23.71h12.57c9.45,0,14.45-4.39,14.45-11.82Z"/>
        <path class="cls-1" d="M522.57,298.26c0-13.78,10.53-24.05,24.86-24.05s24.79,10.2,24.79,24.05-10.6,24.05-24.79,24.05-24.86-10.27-24.86-24.05ZM567.21,298.26c0-11.28-8.44-19.59-19.78-19.59s-19.93,8.31-19.93,19.59,8.5,19.59,19.93,19.59,19.78-8.31,19.78-19.59Z"/>
        <path class="cls-1" d="M607.52,299.69l-9.66,9.79v12.43h-5v-47.29h5v28.57l27.76-28.57h5.74l-20.47,21.42,21.88,25.87h-5.94l-19.32-22.22Z"/>
        <path class="cls-1" d="M683.77,317.59v4.32h-33.43v-47.29h32.42v4.32h-27.42v16.82h24.45v4.26h-24.45v17.56h28.43Z"/>
        <path class="cls-1" d="M737.25,321.91l-10.81-15.2c-1.21.13-2.43.2-3.78.2h-12.7v15h-5v-47.29h17.7c12.02,0,19.32,6.08,19.32,16.21,0,7.43-3.92,12.64-10.81,14.86l11.55,16.21h-5.48ZM736.98,290.83c0-7.57-5-11.89-14.45-11.89h-12.57v23.71h12.57c9.45,0,14.45-4.39,14.45-11.82Z"/>
        <path class="cls-1" d="M758.72,316.16l1.96-3.85c3.38,3.31,9.39,5.74,15.6,5.74,8.85,0,12.7-3.72,12.7-8.38,0-12.97-29.12-5-29.12-22.49,0-6.96,5.4-12.97,17.43-12.97,5.34,0,10.88,1.55,14.66,4.19l-1.69,3.98c-4.05-2.64-8.78-3.92-12.97-3.92-8.65,0-12.5,3.85-12.5,8.58,0,12.97,29.12,5.13,29.12,22.36,0,6.96-5.54,12.9-17.63,12.9-7.09,0-14.05-2.5-17.56-6.15Z"/>
      </g>
    </g>
  </g>
</svg>