<svg width="512" height="512" viewBox="0 0 512 512" fill="none" xmlns="http://www.w3.org/2000/svg">
<rect width="512" height="512" fill="#0E414C"/>
<path d="M359.242 161.662C381.524 186.68 395.142 219.736 395.142 255.977C395.142 292.07 381.647 325.01 359.528 349.99C358.121 351.574 356.652 353.089 355.184 354.612L366.569 366.128C368.037 364.605 369.513 363.09 370.92 361.514C395.961 333.559 411.303 296.576 411.303 255.977C411.303 215.238 395.845 178.132 370.634 150.146L448.811 71.1109H428.909L360.756 140.021L349.31 151.591L256.301 245.635L244.036 258.032L152.21 350.879C129.611 325.791 115.768 292.511 115.768 255.977C115.768 220.494 128.807 188.056 150.262 163.231C152.357 160.812 154.544 158.485 156.793 156.221L145.424 144.728C143.19 147 141.011 149.334 138.901 151.738C114.532 179.531 99.6459 216.003 99.6459 255.977C99.6459 297.009 115.297 334.355 140.81 362.41L63.1891 440.889H83.0522L150.726 372.465L162.164 360.903L253.975 268.08L266.241 255.683L359.242 161.662Z" fill="#B4A664"/>
</svg>
