<?xml version="1.0" encoding="UTF-8"?>
<svg id="Camada_1" data-name="Camada 1" xmlns="http://www.w3.org/2000/svg" viewBox="0 0 256 256">
  <defs>
    <style>
      .cls-1 {
        fill: #b77d2a;
      }
    </style>
  </defs>
  <rect x="0" y="0" width="256.01" height="256.01"/>
  <g>
    <path d="M223.79,117.86c-.54-1.92-1.29-4.43-2.48-5.96,2.74,7.41,3.64,15.26,1.96,23.02-5.1,23.58-30.99,36.33-53.11,26.65-9.62-4.21-18-14.8-25.39-22.22-3.85-3.87-7.99-7.49-11.69-11.53,1.67-2.05,3.47-4.01,5.24-5.97,6.22-6.91,12.58-14.54,19.01-21.22,10.92-11.34,25.02-14.55,40.1-10.32.57.16,2.34,1.3,2.14.14-15.67-6.25-32.32-3.18-45.06,7.64l-26.41,24.81c-3.73-4.13-7.7-8.04-11.55-12.05-.3-.31-.3-.82-.47-.99-6.46-6.73-15.31-16.48-23.51-20.61-30.51-15.39-66.06,9.07-61.66,43.15.55,4.23,1.98,8.28,3.45,12.24.43,0,.6.16.49-.36-.35-1.69-1.5-3.9-1.97-5.81-7.34-29.69,21.29-55.19,50.01-45.18,12.81,4.46,20.2,15.88,29.63,24.81l10.32,9.8-.24.79c-6.06,6.12-11.51,12.8-17.3,19.17-4.54,5-9.16,10.58-15.08,14.16-10.18,6.16-22.73,7.03-33.88,3-.13.7.13.47.53.66,13.39,6.18,31.47,2.68,42.77-6.3,9.34-7.42,17.68-17.64,26.82-25.19,1.51-1.25,1.61-.89,2.83.39,9.54,9.99,22.95,26.96,35.13,32.72,32.69,15.47,69.26-14.31,59.34-49.42ZM34.91,144.89c-.09.71.1,1.34.8,1.61.09-.71-.1-1.34-.8-1.61Z"/>
    <path class="cls-1" d="M116.09,109.84c.17.18.17.68.47.99,3.85,4.01,7.82,7.92,11.55,12.05l26.41-24.81c12.74-10.82,29.39-13.89,45.06-7.64.2,1.16-1.57.02-2.14-.14-15.09-4.22-29.18-1.01-40.1,10.32-6.43,6.67-12.79,14.31-19.01,21.22-1.77,1.96-3.57,3.92-5.24,5.97,3.69,4.04,7.84,7.66,11.69,11.53,7.38,7.42,15.77,18.01,25.39,22.22,22.11,9.68,48-3.08,53.11-26.65,1.68-7.76.78-15.6-1.96-23.02,1.2,1.54,1.94,4.05,2.48,5.96,9.92,35.11-26.65,64.88-59.34,49.42-12.18-5.76-25.59-22.74-35.13-32.72-1.22-1.28-1.31-1.64-2.83-.39-9.14,7.55-17.48,17.78-26.82,25.2-11.3,8.97-29.38,12.48-42.77,6.3-.4-.19-.66.04-.53-.66,11.15,4.03,23.7,3.17,33.88-3,5.91-3.58,10.54-9.16,15.08-14.16,5.79-6.37,11.24-13.05,17.3-19.17l.24-.79-10.33-9.8c-9.43-8.92-16.83-20.35-29.63-24.81-28.72-10.01-57.34,15.49-50.01,45.18.47,1.91,1.62,4.13,1.97,5.81.11.52-.07.35-.49.36-1.47-3.96-2.91-8-3.46-12.24-4.4-34.08,31.14-58.54,61.66-43.15,8.2,4.14,17.04,13.89,23.51,20.61Z"/>
    <path class="cls-1" d="M35.71,146.5c-.7-.27-.89-.9-.8-1.61.7.27.89.9.8,1.61Z"/>
  </g>
</svg>