<?xml version="1.0" encoding="UTF-8"?>
<svg id="Camada_2" data-name="Camada 2" xmlns="http://www.w3.org/2000/svg" viewBox="0 0 1829.04 538.96">
  <defs>
    <style>
      .cls-1 {
        fill: #fff;
      }
    </style>
  </defs>
  <g id="Camada_1-2" data-name="Camada 1">
    <g>
      <path class="cls-1" d="M462.43,1.57c-210.37,23.68-202.73,369.11,40.41,349.09C728.81,332.05,712.65-26.56,462.43,1.57ZM563.1,308.03c-110.48,75.5-226.64-38.15-215.81-154.08,5.87-62.6,58.04-128.06,122.91-134.31,145.25-14,214.31,205.38,92.9,288.39ZM254.55,308.37c-6.54-87.98,5.1-183.94.1-272.77.7-6.05,3.63-15.57,7.57-20,4.48-5.04,12.15-1.75,10.45-9.58h-72.05c-2.06,7.34,7.52,6.15,12.07,11.07.9.95,5.95,10.17,5.95,10.79v124.76H56.59V27.88c0-.75,6.36-11.51,7.8-12.79,4.86-4.32,12.23-1.57,10.22-9.06H0l14.03,12.97,6.54,19.15c-4.89,87.18,6.51,181.31.1,267.65-.59,8.19-1.52,15.96-4.71,23.58L0,345.56h74.59c2.03-7.72-5.07-4.48-9.58-8.44-.8-.7-8.44-12.64-8.44-13.44v-150.48h162.06v150.48c0,2.11-7.93,10.79-10.22,13.05-4.04,3.99-9.63,2.01-7.8,8.83h72.05l-13.38-16.22c-3.76-7.18-4.17-13.15-4.74-20.98ZM1044.29,333.34c-3.53-4.63-4.68-11.48-5.23-17.22-8.19-89.83,6.46-192.02.08-283.17.51-4.89,2.57-11.17,5.56-15.01,5.33-6.82,13.54-4.09,12.51-11.92h-57.86l-120.88,275.24L760.11,6.03h-52.74c-1.21,8.08,7.65,4.89,12.56,11.87,2.83,4.04,4.89,12.64,5.46,17.68,9.68,87.18-7.34,191.51.13,280.52l-3.04,12.41-15.11,17.07h56.6c1.83-6.82-3.76-4.84-7.8-8.83-2.29-2.27-10.22-10.94-10.22-13.05V67.75l126.02,282.94L1003.2,47.16v268.83c0,1.47-5.04,14.67-6.46,16.68-5.12,7.16-15.06,4.79-14.13,12.9h74.59c1.42-7.77-8.65-6.59-12.92-12.23ZM1311.88,283.84c2.88,15.06-17.66,43.71-32.15,43.71h-117.04v-154.34h96.45c.75,0,11.33,8.88,11.74,9.52,4.02,6.49-1.42,13.49,10.12,11.07v-64.32c-11.48-2.21-5.51,3.94-10.12,11.71-1.34,2.24-12.61,11.45-14.31,11.45h-93.87V24.02h109.32c2.32,0,14.26,6.54,16.86,8.88,6.46,5.84,6.62,11.84,9.91,18.33,1,2.01.98,8.19,5.35,3.66,6.05-6.23-2.45-38.74,2.6-48.85h-200.64l14.03,12.97,6.56,19.15c-4.97,88.01,6.54,183.06.1,270.22-.62,8.31-1.21,15.29-5.66,22.65l-15.03,14.54h210.94v-52.74c0-2.29,6.54-8.57-5.15-8.98ZM1828.9,6.03h-56.58c.31,8.31,9.83,8.75,13.95,15.6,2.5,4.17,3.58,9.16,4.04,13.98-8.29,72.25,12.48,175.26-3.22,243.71-15.78,68.73-119.51,71.22-146.44,13.98-26.64-56.63-.18-191.74-9.88-257.76.54-5.51,3.17-12.28,6.62-16.53,5.66-7,14.65-5.2,14.03-12.97h-74.59c.23,7.93,9.65,8.03,13.93,15.65,2.52,4.5,3.5,8.83,4.07,13.93,8.11,70.91-17.45,218.38,15.96,274.72,35.7,60.18,163.84,57.32,191.09-13.67,24.27-63.29.85-191.2,8.96-263.68.49-4.48,2.52-11.27,5.15-14.75,4.27-5.64,14.34-4.45,12.92-12.2ZM1530.52,286.36c4.76,10.53-13.69,28.34-21.85,28.34h-124.76c11.79-94.52,156.04-116.78,146.28-219.64-6.36-66.87-87.7-86.02-140.85-61.75-5.87,2.68-40.21,22.32-43.99,25.48-4.66,3.91-3.29,32.51-.05,38.07,1.6,2.78,4.25,2.52,6.46,1.8,1.24-.41,9.94-17.09,14.08-21.98,50.63-59.51,135.83-31.58,128.78,46.49-3.84,42.42-63.29,80.62-91.48,109.14-31.53,31.89-56.47,66.44-57.81,113.26h192.92v-59.18l-7.72-.03ZM845.39,379.46c-3.19-.05-22.73,17.27-19.67,20.1,3.91-.57,27.31-6.62,28.29-7.72,2.55-2.99-2.57-12.3-8.62-12.38ZM821.84,399.57v2.57c1.67-.85,1.67-1.7,0-2.57ZM595.53,528.14c-2.52-5.51-2.7-92.87-1.42-104.2.85-7.39,5.64-11.92,5.23-19.2h-28.29c-1.13,5.95,5.79,7.31,7.21,12.07,2.42,8.21,1.39,103.17-1.44,110.71-1.16,3.09-5.07,5.12-5.77,8.37,10.94,1.06,19.92,2.57,30.86,0-.46-3.4-5.07-4.84-6.38-7.75ZM745.75,527.11c-1.67-14-1.78-99.43,1.36-109.65,1.08-3.5,6.51-8.34,6.51-8.88.1-5.02-22.7-6.18-25.82-.15l-37.92,90.71-8.21,5.89-39.92-95.14c-4.81-7.54-14.13-4.97-21.83-5.15-.44,7.28,4.38,11.81,5.22,19.2,2.42,21.21,2.27,73.95.08,95.42-.82,7.98-3.53,9.76-5.3,16.53h20.57c.18-2.81-4.71-4.81-5.15-6.41v-91.33l39.74,90.17c1.93,3.4,2.93,7.62,7.82,7.62,5.28-.03,34.8-86.9,41.8-97.07l5.82-3.29v88.75c0,1.83-6.85,7.13-5.15,11.56,5.02,1.67,22.57,3.11,25.71,0,4.38-4.32-4.81-4.3-5.35-8.78ZM819.88,405.33c-46.1,7.82-65.53,69.14-40.03,105.69,34.23,49.06,115.78,29.63,122.73-28.13,6.36-52.82-30.19-86.46-82.7-77.56ZM862.59,522.63c-53.26,33.85-104.53-44.32-66.26-92,6.18-7.7,19.02-15.93,28.7-17.58,60.39-10.27,86.26,78.61,37.55,109.58ZM1002.23,420.21l-29.94,82.24c-1.96,1.54-5.48-5.77-6.41-7.7-11.25-23.63-16.45-55.08-29.14-78.92l4.71-11.09c-5.15.31-28.31-2.06-28.24,3.84,0,.75,6.9,7.03,8.98,11.56,16.14,35.01,26.28,76.76,41.8,112.51l5.71,3.24,51.48-131.15c-16.47-.54-22.11-2.65-18.97,15.47ZM1034.07,535.91h84.89l-2.6-23.14-16.71,15.42h-38.58c-.26,0-3.86-3.58-3.86-3.86v-52.74c9.39.85,20.31-1.29,29.45.15,6.56,1.03,8.93,5.66,14.31,6.28l-.05-24.43c-13.23,7.93-28.57,8.55-43.71,7.72v-42.45c0-.28,3.6-3.86,3.86-3.86h38.58c4.14,0,5.3,13.72,11.56,10.27l.03-20.57h-73.31c-8.75,0,2.11,9.29,2.52,10.32,3.01,7.7,2.5,104.14-.62,112.48-1.18,3.11-5.1,5.12-5.77,8.39ZM1153.71,528.14c-2.21-4.86-2.88-96.63-1.47-106.85.95-6.64,5.89-9.94,5.28-16.55-6.54.77-25.51-2.75-28.26,3.86.15,2.11,3.91.75,5.2,2.96,3.86,6.77,3.86,91.76,2.63,105.17-.82,8.83-2.34,12.2-7.85,19.15,11.12,2.27,19.79,2.24,30.89,0-.49-3.4-5.1-4.84-6.41-7.75ZM1192.11,443.48c-8.57-25.25,20.57-37.3,40.75-27.83l14.7,14.77c2.29-22.29-.8-24.04-21.88-25.66-28.93-2.21-54.29,6.44-50.19,39.9,3.94,31.94,52.07,26.25,64.02,49.14,16.45,31.48-38.38,47.59-54.93,24.07-3.27-4.63-2.01-11.71-6.44-12.82-2.52,24.63-.26,30.22,24.61,33.2,24.53,2.96,53.64-5.87,55.21-34.59,2.29-42.01-58.66-38.97-65.84-60.18Z"/>
      <path class="cls-1" d="M760.11,6.01l118.35,275.25L999.34,6.01h57.88c1.03,7.83-7.2,5.11-12.51,11.94-2.98,3.83-5.06,10.1-5.55,15.01,6.38,91.14-8.26,193.32-.08,283.14.52,5.76,1.7,12.61,5.22,17.24,4.28,5.63,14.34,4.45,12.92,12.21h-74.6c-.92-8.1,9.01-5.74,14.12-12.9,1.42-1.99,6.46-15.2,6.46-16.68V47.17l-131.22,303.52-126.01-282.95v255.94c0,2.11,7.92,10.77,10.22,13.04,4.03,3.99,9.63,2.02,7.79,8.82h-56.59l15.1-17.05,3.03-12.41c-7.46-89,9.55-193.34-.11-280.51-.56-5.06-2.62-13.66-5.45-17.69-4.92-7-13.78-3.79-12.56-11.89h52.73Z"/>
      <path class="cls-1" d="M462.43,1.57c-210.37,23.68-202.73,369.11,40.41,349.09C728.81,332.05,712.65-26.56,462.43,1.57ZM563.1,308.03c-110.48,75.5-226.64-38.15-215.81-154.08,5.87-62.6,58.04-128.06,122.91-134.31,145.25-14,214.31,205.38,92.9,288.39Z"/>
      <path class="cls-1" d="M74.6,6.01c2.02,7.51-5.35,4.74-10.2,9.06-1.44,1.29-7.81,12.05-7.81,12.8v124.76h162.05V27.88c0-.62-5.04-9.83-5.93-10.79-4.57-4.91-14.15-3.73-12.07-11.08h72.02c1.72,7.85-5.96,4.54-10.44,9.57-3.95,4.43-6.88,13.95-7.57,20,4.99,88.84-6.63,184.8-.11,272.78.58,7.83.98,13.81,4.75,20.97l13.37,16.22h-72.02c-1.84-6.8,3.75-4.83,7.79-8.82,2.3-2.27,10.22-10.93,10.22-13.04v-150.48H56.59v150.48c0,.79,7.64,12.73,8.43,13.42,4.52,3.97,11.62.73,9.57,8.44H0l15.97-16.19c3.19-7.62,4.12-15.38,4.72-23.57,6.39-86.33-5.01-180.47-.1-267.64l-6.55-19.16L0,6.01h74.6Z"/>
      <path class="cls-1" d="M1306.73,6.01c-5.04,10.12,3.45,42.64-2.6,48.88-4.38,4.52-4.35-1.66-5.35-3.65-3.3-6.51-3.45-12.48-9.92-18.35-2.58-2.34-14.53-8.87-16.86-8.87h-109.32v128.61h93.89c1.69,0,12.96-9.2,14.3-11.45,4.61-7.76-1.35-13.92,10.14-11.7v64.31c-11.55,2.43-6.11-4.57-10.14-11.06-.4-.64-10.97-9.52-11.72-9.52h-96.46v154.34h117.04c14.5,0,35.06-28.65,32.17-43.72,11.68.4,5.13,6.71,5.13,8.99v52.73h-210.93l15.04-14.55c4.44-7.36,5.03-14.32,5.65-22.64,6.45-87.16-5.05-182.2-.1-270.21l-6.55-19.16-14.03-12.98h200.64Z"/>
      <path class="cls-1" d="M1651.42,6.01c.63,7.78-8.36,5.99-14.04,12.98-3.45,4.24-6.06,11.01-6.6,16.54,9.69,66.01-16.77,201.13,9.88,257.76,26.93,57.23,130.67,54.75,146.43-13.99,15.7-68.43-5.06-171.46,3.23-243.71-.46-4.8-1.54-9.8-4.04-13.96-4.13-6.85-13.64-7.28-13.96-15.62h56.59c1.41,7.77-8.65,6.59-12.92,12.21-2.64,3.47-4.65,10.28-5.15,14.74-8.1,72.49,15.32,200.39-8.97,263.68-27.25,71-155.39,73.86-191.09,13.67-33.41-56.34-7.84-203.8-15.95-274.72-.58-5.1-1.54-9.42-4.07-13.93-4.28-7.62-13.7-7.72-13.93-15.66h74.6Z"/>
      <path class="cls-1" d="M1383.9,314.69h124.76c8.17,0,26.63-17.8,21.87-28.32l7.71.02v59.16h-192.92c1.34-46.82,26.29-81.35,57.81-113.25,28.2-28.53,87.64-66.71,91.49-109.15,7.07-78.05-78.15-105.98-128.78-46.47-4.15,4.88-12.84,21.57-14.08,21.97-2.21.72-4.86.97-6.46-1.79-3.23-5.57-4.6-34.16.07-38.09,3.76-3.17,38.11-22.79,43.98-25.47,53.15-24.27,134.5-5.13,140.85,61.76,9.76,102.84-134.49,125.1-146.29,219.62Z"/>
      <path class="cls-1" d="M635.36,529.48c.43,1.59,5.33,3.59,5.14,6.41h-20.56c1.76-6.76,4.49-8.53,5.3-16.52,2.18-21.46,2.35-74.21-.09-95.42-.85-7.39-5.64-11.91-5.21-19.2,7.71.18,17-2.39,21.82,5.17l39.94,95.13,8.2-5.9,37.91-90.71c3.12-6.03,25.94-4.87,25.83.16-.01.55-5.44,5.39-6.52,8.87-3.15,10.22-3.05,95.65-1.37,109.65.54,4.49,9.74,4.45,5.37,8.78-3.14,3.11-20.7,1.68-25.73,0-1.68-4.42,5.15-9.72,5.15-11.55v-88.74l-5.8,3.29c-7.01,10.17-36.53,97.05-41.81,97.06-4.88.01-5.89-4.22-7.82-7.62l-39.74-90.16v91.32Z"/>
      <path class="cls-1" d="M819.88,405.33c-46.1,7.82-65.53,69.14-40.03,105.69,34.23,49.06,115.78,29.63,122.73-28.13,6.36-52.82-30.19-86.46-82.7-77.56ZM862.59,522.63c-53.26,33.85-104.53-44.32-66.26-92,6.18-7.7,19.02-15.93,28.7-17.58,60.39-10.27,86.26,78.61,37.55,109.58Z"/>
      <path class="cls-1" d="M1111.23,404.72v20.56c-6.28,3.45-7.44-10.28-11.58-10.28h-38.58c-.27,0-3.86,3.59-3.86,3.86v42.44c15.12.83,30.47.22,43.7-7.72l.04,24.43c-5.37-.61-7.74-5.24-14.3-6.28-9.13-1.45-20.04.7-29.44-.14v52.73c0,.27,3.59,3.86,3.86,3.86h38.58l16.71-15.42,2.59,23.14h-84.89c.66-3.26,4.6-5.28,5.76-8.39,3.12-8.34,3.64-104.79.63-112.47-.41-1.05-11.28-10.33-2.54-10.33h73.31Z"/>
      <path class="cls-1" d="M1247.55,430.43l-14.68-14.78c-20.19-9.47-49.32,2.57-40.76,27.83,7.19,21.22,68.15,18.16,65.85,60.19-1.57,28.72-30.69,37.55-55.21,34.6-24.87-2.99-27.13-8.59-24.61-33.21,4.43,1.11,3.17,8.17,6.44,12.82,16.54,23.53,71.37,7.4,54.93-24.08-11.94-22.86-60.08-17.18-64.01-49.13-4.11-33.45,21.24-42.12,50.17-39.89,21.08,1.62,24.18,3.37,21.89,25.66Z"/>
      <path class="cls-1" d="M941.45,404.73l-4.71,11.1c12.69,23.83,17.89,55.29,29.15,78.93.92,1.92,4.45,9.25,6.41,7.7l29.92-82.25c-3.13-18.13,2.51-16.02,18.97-15.48l-51.47,131.16-5.71-3.26c-15.53-35.75-25.66-77.5-41.81-112.51-2.09-4.53-8.98-10.81-8.98-11.54-.06-5.89,23.1-3.52,28.23-3.85Z"/>
      <path class="cls-1" d="M599.34,404.73c.43,7.29-4.37,11.81-5.21,19.2-1.3,11.35-1.12,98.69,1.4,104.22,1.31,2.88,5.92,4.35,6.39,7.73-10.95,2.57-19.91,1.07-30.87,0,.69-3.24,4.6-5.26,5.76-8.36,2.83-7.55,3.86-102.49,1.44-110.71-1.4-4.75-8.34-6.11-7.19-12.08h28.27Z"/>
      <path class="cls-1" d="M1157.52,404.73c.62,6.63-4.33,9.91-5.27,16.57-1.44,10.2-.76,101.96,1.46,106.85,1.31,2.88,5.92,4.35,6.39,7.73-11.09,2.25-19.77,2.26-30.87,0,5.49-6.93,7.02-10.31,7.84-19.14,1.25-13.42,1.25-98.39-2.64-105.17-1.27-2.22-5.04-.85-5.19-2.97,2.75-6.61,21.74-3.08,28.27-3.86Z"/>
      <path class="cls-1" d="M854.01,391.83c-.96,1.11-24.36,7.17-28.29,7.73-3.06-2.82,16.48-20.15,19.68-20.11,6.03.08,11.17,9.41,8.61,12.38Z"/>
      <path class="cls-1" d="M821.85,399.57c1.67.86,1.67,1.71,0,2.57v-2.57Z"/>
    </g>
  </g>
</svg>