<?xml version="1.0" encoding="UTF-8"?>
<svg id="Camada_1" data-name="Camada 1" xmlns="http://www.w3.org/2000/svg" viewBox="0 0 1080 1080">
  <defs>
    <style>
      .cls-1 {
        fill: #004950;
      }

      .cls-1, .cls-2, .cls-3 {
        stroke-width: 0px;
      }

      .cls-2 {
        fill: #4cab88;
      }

      .cls-3 {
        fill: #fff;
      }
    </style>
  </defs>
  <rect class="cls-1" x="-49.64" y="-46.57" width="1170.38" height="1152"/>
  <g>
    <g>
      <g>
        <path class="cls-3" d="M427.29,406.71c-48.31,0-62.9,27.6-62.9,71.93v76.97c0,43,14.6,71.66,62.9,71.66s60.25-27.07,60.25-64.5v-25.8c0-1.58-1.28-2.87-2.87-2.87h-36.73c-1.58,0-2.87,1.28-2.87,2.87v28.99c0,15.66-.8,29.99-17.52,29.99-15.4,0-18.84-11.68-18.84-29.99v-97.68c0-15.93,1.33-30.26,18.84-30.26s17.52,13.8,17.52,28.93v30.45c0,1.58,1.28,2.87,2.87,2.87h36.73c1.58,0,2.87-1.28,2.87-2.87v-28.59c0-37.16-14.07-62.11-60.25-62.11Z"/>
        <path class="cls-3" d="M574.59,406.71c-47.51,0-63.43,25.75-63.43,69.81v80.16c0,44.06,15.93,70.6,63.43,70.6s63.44-26.54,63.44-70.34v-80.42c0-43.79-16.19-69.81-63.44-69.81ZM593.44,567.55c0,14.6-2.39,28.4-18.85,28.4s-18.84-13.8-18.84-28.4v-101.66c0-14.86,2.39-27.87,18.84-27.87s18.85,13.01,18.85,27.87v101.66Z"/>
        <path class="cls-3" d="M745.51,412.23v94.87c0,3.12-4.28,4-5.51,1.13l-41.52-97.12c-.45-1.06-1.49-1.74-2.64-1.74h-25.76c-1.58,0-2.87,1.28-2.87,2.87v209.25c0,1.58,1.28,2.87,2.87,2.87h31.69c1.58,0,2.87-1.28,2.87-2.87v-101.2c0-3.16,4.35-4,5.53-1.07l41.52,103.34c.44,1.09,1.49,1.8,2.66,1.8h24.65c1.58,0,2.87-1.28,2.87-2.87v-209.25c0-1.58-1.28-2.87-2.87-2.87h-30.63c-1.58,0-2.87,1.28-2.87,2.87Z"/>
      </g>
      <rect class="cls-3" x="295.55" y="431.54" width="43.25" height="192.82" rx="2.87" ry="2.87"/>
      <path class="cls-2" d="M295.55,417.31c0,1.37,1.14,2.52,2.51,2.44,10.9-.62,21.35-5.25,28.51-12.44,7.04-7.01,11.62-16.49,12.39-27.02.12-1.7-1.17-3.17-2.87-3.17h-37.68c-1.58,0-2.87,1.28-2.87,2.87v37.32Z"/>
    </g>
    <g>
      <path class="cls-3" d="M619.28,666.75v35.77h-5.87v-15.64h-16.83v15.64h-5.87v-35.77h5.87v15.34h16.83v-15.34h5.87Z"/>
      <path class="cls-3" d="M639.28,700.54c-2.8-1.56-5.01-3.74-6.64-6.54-1.63-2.79-2.45-5.95-2.45-9.44s.82-6.64,2.45-9.42c1.63-2.78,3.84-4.95,6.64-6.51,2.79-1.56,5.86-2.34,9.19-2.34s6.44.78,9.24,2.34c2.8,1.56,5,3.73,6.61,6.51,1.61,2.78,2.42,5.92,2.42,9.42s-.81,6.65-2.42,9.44c-1.61,2.8-3.81,4.98-6.61,6.54-2.79,1.56-5.88,2.34-9.24,2.34s-6.39-.78-9.19-2.34ZM654.8,696.16c1.85-1.08,3.3-2.63,4.35-4.63,1.05-2,1.57-4.33,1.57-6.97s-.52-4.96-1.57-6.95c-1.05-1.99-2.49-3.52-4.35-4.58-1.85-1.06-3.97-1.6-6.33-1.6s-4.48.54-6.33,1.6c-1.85,1.06-3.3,2.59-4.35,4.58-1.05,1.99-1.57,4.31-1.57,6.95s.52,4.97,1.57,6.97c1.05,2.01,2.5,3.55,4.35,4.63,1.85,1.08,3.96,1.62,6.33,1.62s4.48-.54,6.33-1.62Z"/>
      <path class="cls-3" d="M715.32,666.75v35.77h-5.87v-24.5l-10.91,24.5h-4.07l-10.96-24.5v24.5h-5.87v-35.77h6.33l12.56,28.05,12.5-28.05h6.28Z"/>
      <path class="cls-3" d="M734.06,671.48v10.5h12.35v4.78h-12.35v10.96h13.89v4.78h-19.76v-35.82h19.76v4.79h-13.89Z"/>
      <path class="cls-3" d="M765.61,701.62c-1.92-.84-3.43-2.03-4.53-3.58-1.1-1.54-1.65-3.35-1.65-5.41h6.28c.14,1.54.75,2.82,1.83,3.81,1.08,1,2.6,1.49,4.56,1.49s3.6-.49,4.73-1.47c1.13-.98,1.7-2.24,1.7-3.78,0-1.2-.36-2.18-1.06-2.93-.7-.75-1.58-1.34-2.63-1.75-1.05-.41-2.5-.86-4.35-1.34-2.33-.62-4.23-1.24-5.69-1.88-1.46-.63-2.7-1.62-3.73-2.96-1.03-1.34-1.54-3.13-1.54-5.36,0-2.06.51-3.86,1.54-5.4,1.03-1.54,2.47-2.73,4.33-3.55,1.85-.82,4-1.23,6.43-1.23,3.47,0,6.3.87,8.52,2.6,2.21,1.74,3.44,4.11,3.68,7.13h-6.49c-.1-1.3-.72-2.42-1.85-3.35-1.14-.93-2.63-1.39-4.48-1.39-1.68,0-3.05.43-4.12,1.29-1.06.85-1.59,2.09-1.59,3.7,0,1.1.33,2,1,2.7.67.7,1.52,1.26,2.55,1.67,1.03.41,2.44.86,4.22,1.34,2.37.65,4.3,1.3,5.79,1.95,1.49.65,2.76,1.66,3.81,3.01,1.05,1.36,1.57,3.16,1.57,5.43,0,1.82-.49,3.53-1.47,5.14-.98,1.62-2.4,2.91-4.27,3.89-1.87.98-4.08,1.47-6.61,1.47-2.4,0-4.57-.42-6.49-1.26Z"/>
    </g>
  </g>
</svg>