<?xml version="1.0" encoding="UTF-8"?>
<svg id="Camada_2" data-name="Camada 2" xmlns="http://www.w3.org/2000/svg" viewBox="0 0 707.13 471.17">
  <defs>
    <style>
      .cls-1 {
        fill: #4cab88;
      }

      .cls-1, .cls-2 {
        stroke-width: 0px;
      }

      .cls-2 {
        fill: #fff;
      }
    </style>
  </defs>
  <g id="Layer_1" data-name="Layer 1">
    <g>
      <g>
        <g>
          <path class="cls-2" d="M190.54,42.8c-69.87,0-90.98,39.92-90.98,104.04v111.33c0,62.19,21.11,103.65,90.98,103.65s87.15-39.16,87.15-93.29v-37.32c0-2.29-1.86-4.15-4.15-4.15h-53.13c-2.29,0-4.15,1.86-4.15,4.15v41.93c0,22.65-1.15,43.38-25.34,43.38-22.27,0-27.26-16.89-27.26-43.38v-141.28c0-23.03,1.92-43.76,27.26-43.76s25.34,19.96,25.34,41.84v44.04c0,2.29,1.86,4.15,4.15,4.15h53.13c2.29,0,4.15-1.86,4.15-4.15v-41.35c0-53.74-20.35-89.83-87.15-89.83Z"/>
          <path class="cls-2" d="M403.59,42.8c-68.72,0-91.75,37.24-91.75,100.97v115.94c0,63.73,23.03,102.12,91.75,102.12s91.75-38.39,91.75-101.73v-116.32c0-63.34-23.42-100.97-91.75-100.97ZM430.85,275.44c0,21.11-3.46,41.08-27.26,41.08s-27.26-19.96-27.26-41.08v-147.03c0-21.5,3.46-40.31,27.26-40.31s27.26,18.81,27.26,40.31v147.03Z"/>
          <path class="cls-2" d="M650.81,50.78v137.21c0,4.51-6.19,5.78-7.96,1.63l-60.06-140.48c-.65-1.53-2.15-2.52-3.82-2.52h-37.26c-2.29,0-4.15,1.86-4.15,4.15v302.66c0,2.29,1.86,4.15,4.15,4.15h45.83c2.29,0,4.15-1.86,4.15-4.15v-146.38c0-4.57,6.3-5.78,8-1.55l60.06,149.48c.63,1.57,2.16,2.6,3.85,2.6h35.66c2.29,0,4.15-1.86,4.15-4.15V50.78c0-2.29-1.86-4.15-4.15-4.15h-44.3c-2.29,0-4.15,1.86-4.15,4.15Z"/>
        </g>
        <rect class="cls-2" y="78.71" width="62.56" height="278.89" rx="4.15" ry="4.15"/>
        <path class="cls-1" d="M0,58.12c0,1.98,1.65,3.64,3.63,3.53,15.77-.9,30.88-7.59,41.24-17.99,10.18-10.14,16.81-23.84,17.92-39.08C62.97,2.12,61.11,0,58.65,0H4.15C1.86,0,0,1.86,0,4.15v53.97Z"/>
      </g>
      <g>
        <path class="cls-2" d="M468.24,418.91v51.73h-8.48v-22.63h-24.34v22.63h-8.48v-51.73h8.48v22.18h24.34v-22.18h8.48Z"/>
        <path class="cls-2" d="M497.16,467.78c-4.05-2.26-7.25-5.41-9.6-9.46-2.36-4.04-3.54-8.6-3.54-13.66s1.18-9.6,3.54-13.62c2.35-4.02,5.55-7.16,9.6-9.41,4.04-2.26,8.47-3.39,13.29-3.39s9.32,1.13,13.36,3.39c4.05,2.25,7.23,5.39,9.57,9.41,2.33,4.02,3.5,8.56,3.5,13.62s-1.17,9.62-3.5,13.66c-2.33,4.05-5.52,7.2-9.57,9.46-4.04,2.25-8.5,3.39-13.36,3.39s-9.24-1.13-13.29-3.39ZM519.61,461.45c2.68-1.56,4.77-3.8,6.29-6.7,1.52-2.9,2.27-6.26,2.27-10.09s-.75-7.17-2.27-10.05c-1.51-2.88-3.61-5.09-6.29-6.62-2.68-1.54-5.74-2.31-9.16-2.31s-6.47.77-9.16,2.31c-2.68,1.54-4.77,3.75-6.29,6.62-1.51,2.88-2.27,6.23-2.27,10.05s.76,7.19,2.27,10.09c1.52,2.9,3.61,5.14,6.29,6.7s5.73,2.34,9.16,2.34,6.48-.78,9.16-2.34Z"/>
        <path class="cls-2" d="M607.15,418.91v51.73h-8.48v-35.44l-15.78,35.44h-5.88l-15.86-35.44v35.44h-8.48v-51.73h9.16l18.16,40.57,18.09-40.57h9.08Z"/>
        <path class="cls-2" d="M634.25,425.76v15.19h17.87v6.92h-17.87v15.86h20.1v6.92h-28.58v-51.81h28.58v6.93h-20.1Z"/>
        <path class="cls-2" d="M679.88,469.35c-2.78-1.22-4.96-2.94-6.55-5.18-1.58-2.23-2.38-4.84-2.38-7.82h9.08c.2,2.23,1.08,4.07,2.64,5.51,1.56,1.44,3.76,2.16,6.59,2.16s5.21-.71,6.85-2.12c1.64-1.41,2.46-3.24,2.46-5.47,0-1.74-.51-3.15-1.53-4.24-1.02-1.09-2.29-1.94-3.8-2.53-1.51-.6-3.61-1.24-6.29-1.94-3.37-.89-6.12-1.8-8.22-2.72-2.11-.91-3.91-2.34-5.4-4.28-1.49-1.94-2.23-4.52-2.23-7.75,0-2.98.74-5.58,2.23-7.81,1.49-2.23,3.57-3.94,6.26-5.14,2.68-1.19,5.78-1.78,9.31-1.78,5.01,0,9.12,1.25,12.32,3.76,3.2,2.51,4.98,5.94,5.33,10.31h-9.38c-.15-1.89-1.04-3.5-2.68-4.84-1.64-1.34-3.8-2.01-6.48-2.01-2.43,0-4.42.62-5.95,1.87-1.54,1.24-2.31,3.02-2.31,5.36,0,1.59.48,2.89,1.45,3.91.97,1.02,2.2,1.82,3.68,2.42,1.49.6,3.52,1.24,6.11,1.94,3.42.94,6.21,1.89,8.38,2.83,2.16.95,4,2.4,5.51,4.35,1.51,1.96,2.27,4.58,2.27,7.86,0,2.63-.71,5.11-2.12,7.44-1.41,2.34-3.48,4.21-6.18,5.62-2.71,1.41-5.9,2.13-9.57,2.13-3.48,0-6.6-.61-9.38-1.82Z"/>
      </g>
    </g>
  </g>
</svg>