<?xml version="1.0" encoding="UTF-8"?>
<svg id="Camada_2" xmlns="http://www.w3.org/2000/svg" viewBox="0 0 2394.22 1196">
  <defs>
    <style>
      .cls-1 {
        fill: #fff;
      }
    </style>
  </defs>
  <g id="Camada_1-2" data-name="Camada_1">
    <g>
      <path class="cls-1" d="M1596.44,787.11c.02,7.37-1.48,10.15-9.46,9.84-14.89-.57-14.91-.07-14.91-15.39,0-97.14-.1-194.28.19-291.43.03-7.5-2.43-11.07-8.87-14.4-25.65-13.24-50.95-27.14-76.37-40.78q-10.03-5.4-10.05,5.69c0,114.49.02,228.98-.1,343.47,0,4.06,2.41,10.52-1.89,11.8-6.09,1.8-13.12.64-19.73.38-2.08-.09-2.17-2.41-2.24-4.13-.09-2.6-.05-5.21-.05-7.81,0-119.12-.07-238.25.17-357.35.02-7.62-2.05-11.78-9.04-15.34-22.09-11.28-43.74-23.43-65.57-35.23-8.29-4.49-8.33-4.49-8.33,5.43-.02,134.72,0,269.46-.1,404.18,0,3.45,2.19,8.83-2.29,10.01-6.61,1.72-13.76,1.3-20.58-.09-.68-.14-1.16-2.48-1.25-3.82-.21-2.88-.12-5.78-.12-8.68,0-146,0-292,.03-438.02,0-3.66-.69-7.44,1.16-11.9,34.86,18.72,69.51,37.34,104.2,55.96,2.55-2.93,1.67-5.93,1.67-8.62.07-58.11-.03-116.23.17-174.34.03-6.56-1.82-10.12-7.91-13.36-93.67-50.04-187.16-100.42-280.69-150.7-8.71-4.7-8.76-4.69-8.76,4.62-.02,63.61-.02,127.21,0,190.82,0,8.9.42,9.13,8.29,4.88,30.23-16.29,60.49-32.5,90.61-48.99,5.95-3.25,8.43-4.18,8.43,4.63-.21,196.31-.21,392.61.02,588.93.02,7.79-2.12,9.82-9.68,9.56-14.73-.52-14.75-.1-14.75-14.65V240.21c0-11.7.02-11.64-10.55-5.92-21.07,11.4-42.03,23.03-63.35,33.92-6.78,3.47-9.25,7.34-9.23,15.17.28,166.82.23,333.65.12,500.47,0,4.13,2.38,10.41-1.72,12.01-6.28,2.45-13.66,1.28-20.53.38-2.1-.28-1.86-2.64-1.89-4.34-.05-2.6-.03-5.21-.03-7.81v-497.76c-30.61,16.42-59.55,31.91-88.48,47.44-30.78,16.52-61.41,33.3-92.38,49.44-7.15,3.71-9.53,8.09-9.39,16.02.5,26.88.19,53.77.19,80.65v11.14c16.21-8.68,31.11-16.61,45.98-24.61,17.79-9.56,35.66-19,53.27-28.87,6.04-3.37,8.09-3.37,7.98,4.51-.36,28.04-.12,56.08-.12,84.14v259.33c-.02,11.24-.02,11.31-11.09,11.24-14.82-.09-13.22,1.74-13.22-13.62-.03-99.74-.02-199.48-.03-299.24,0-11.21.02-11.16-9.75-5.88-21.83,11.78-43.57,23.76-65.64,35.12-5.8,2.98-7.48,6.51-7.46,12.75.17,86.73-.05,173.47.31,260.21.03,9.04-2.53,11.35-11.16,10.86-13.03-.73-13.07-.19-13.07-12.88,0-80.95,0-161.9-.02-242.86,0-10.9-.02-10.93-9.32-5.97-25.98,13.86-51.83,27.94-77.95,41.52-5.83,3.04-8.05,6.37-8.02,13.21.33,65.33.02,130.68.4,196.01.05,8.73-2.03,12.37-10.9,10.83-1.98-.33-4.06-.26-6.06-.03-5.48.61-7.58-1.28-7.58-7.18.19-71.7.19-143.4-.02-215.1-.02-5.81,2.86-8.02,7.2-10.32,35.12-18.76,70.09-37.83,105.36-56.29,5.66-2.97,7.01-6.35,6.98-12.13-.19-36.72.14-73.43-.28-110.15-.09-7.62,2.1-11.66,8.99-15.32,65.75-34.95,131.16-70.48,196.93-105.4,6.78-3.59,8.5-7.55,8.49-14.7-.24-79.51-.16-159.02-.16-238.52V0c5.55.26,9.39,3.61,13.53,5.83,107.83,57.84,215.57,115.83,323.46,173.56,6.4,3.44,8.73,7.2,8.69,14.61-.33,66.79-.09,133.58-.33,200.37-.03,6.65,1.84,10.24,7.88,13.41,34.74,18.24,69.17,37.1,103.89,55.41,5.54,2.92,7.84,6.06,7.84,12.56-.23,103.78-.23,207.58,0,311.37Z"/>
      <path class="cls-1" d="M388.01,1183.85c-.26,7.01-2.43,8.8-9.09,8.62-16.45-.42-32.95-.49-49.4,0-7.29.23-7.18-3.71-6.8-8.64.35-4.42-2.12-9.94,6.45-9.86,13.38.12,13.33-.38,13.4-13.99.17-36.99.42-73.97.57-110.97.02-2.22.68-4.62-1.96-7.48-5.69,14.19-11.24,27.88-16.68,41.63-13.36,33.78-26.98,67.48-39.72,101.51-3.12,8.4-8.62,7.34-14.89,7.76-6.56.45-10.05-1.27-12.7-8.1-17.4-44.91-35.45-89.55-53.31-134.27-.92-2.31-2.08-4.53-3.25-7.03-2.79,2.1-1.89,4.55-1.91,6.61-.24,38.43-.24,76.87-.75,115.29-.09,6.96,1.44,10.45,8.92,9.25,1.42-.23,2.92-.21,4.34,0,2.95.45,7.31-1.75,8.61,1.79,1.67,4.53,1.09,9.7.14,14.52-.42,2.08-2.71,1.8-4.37,1.8-17.63.02-35.26-.02-52.89,0-8.49,0-4.39-6.49-4.93-10.15-.52-3.59-1.56-7.91,5.29-8.17,15.86-.59,15.72-.97,15.88-16.74.43-43.62.82-87.25,1.7-130.85.16-7.72-2.01-10.67-9.6-9.51-1.68.26-3.47.23-5.19,0-2.67-.36-6.77,1.49-7.69-1.91-1.25-4.65-1.28-9.77.17-14.52.61-1.94,3.02-1.27,4.63-1.28,13.31-.07,26.6.09,39.89-.12,4.18-.07,6.18,1.61,7.64,5.36,20.34,52.09,40.78,104.15,61.36,156.59,19.9-50.77,39.89-101.41,59.47-152.2,2.78-7.2,6.06-10.5,14.3-9.89,11.49.87,23.11.59,34.65.07,6.73-.31,7.79,2.86,7.46,8.33-.3,4.81,1.11,9.73-6.96,9.8-17.54.14-17.63.52-17.46,18.2.36,41.89.87,83.78,1.25,125.66.12,13.17.05,13.59,13,13.01,7.69-.33,10.72,1.48,10.41,9.87Z"/>
      <path class="cls-1" d="M863.62,1093.93c-3.7-1.34-7.62-2.05-13.78-3.64,11.33-4.32,19.35-9.21,24.87-17.47,20.11-30.12,1.09-70.03-34.95-72.81-26.22-2.03-52.54-.29-78.81-1.02-6.63-.19-8.07,2-8.21,8.33-.14,7.32,1.42,10.12,9.42,9.79,13.53-.52,12.79-2.43,12.68,13.01-.24,43.61-.61,87.21-.87,130.8-.09,13.5-.03,14.04-13.73,13.6-7.74-.24-7.41,3.77-7.32,9.01.09,5.05-.71,9.37,7.2,9.2,23.96-.54,47.94-.14,71.92-.24,9.28-.05,18.38-1.8,27.23-4.56,22.42-7.01,34.84-23.96,35.28-47.84.42-22.04-10.85-38.92-30.94-46.14ZM798.1,1023.36c-.17-4.95,1.67-6.68,6.49-6.47,8.92.38,17.91-.1,26.77.69,16.4,1.46,24.61,9.7,27.19,26.15,2.41,15.3-4.37,29.17-17.51,35.24-12.44,5.76-25.79,5.21-39.04,5-4.46-.05-3.96-3.3-3.96-6.13-.03-9.23-.02-18.46-.02-27.68h.16c0-8.94.23-17.89-.09-26.81ZM841.37,1172.56c-7.69,1.61-15.5,1.35-21.55,1.6q-22.35.03-22.35-20.75c.05-14.7.45-29.41.28-44.11-.07-5.41,1.28-7.72,7.15-7.55,12.37.35,24.81-.31,37.03,2.39,18.12,4.01,27.38,15.79,27.33,34.55-.07,18.91-9.18,29.95-27.89,33.87Z"/>
      <path class="cls-1" d="M2174.87,1174.71c-9.11.57-15.2-3.83-19.52-11.66-6.26-11.37-12.94-22.49-19.4-33.77-6.13-10.71-11.87-21.72-23.95-27.82,36.02-12.42,41.8-35.9,39.56-61.27-1.34-15.15-8.29-26.74-22.49-33.46-8.19-3.89-16.8-6.07-25.79-6.73-25.4-1.84-50.84-.4-76.26-.97-5.12-.12-7.11,1.42-7.13,6.85-.02,10.95-.31,10.95,10.67,11.02,11.26.07,11.37.07,11.24,11.12-.42,43.9-.94,87.78-1.35,131.69-.12,14.12,0,14.49-14.23,14.87-6.8.17-6.52,3.97-6.18,8.5.31,4.18-2.03,9.67,5.99,9.53,17.92-.29,35.83-.09,53.76-.14,2.19,0,4.53.49,5.71-2.53,3.51-8.95-.66-15.18-10.39-15.22-1.72,0-3.47-.12-5.19,0-3.94.28-5.8-1.2-5.74-5.43.23-19.07.28-38.14.33-57.21,0-2.93.59-4.75,4.18-5.07,15.37-1.35,28.54,1.3,36.77,16.47,8.24,15.22,18.25,29.52,25.75,45.06,9.09,18.81,23.32,25.75,43.38,24.15,5.5-.43,7.32-2.29,6.49-7.24-.73-4.29,3.28-11.37-6.21-10.76ZM2068.23,1088.8c-3.96.16-3.7-2.74-3.7-5.34-.02-10.12-.02-20.22-.02-30.33h.21c0-10.1.09-20.2-.05-30.31-.03-3.66.56-6.04,5.07-5.95,10.97.21,21.99-.56,32.81,1.67,16.17,3.31,24.54,12.46,25.94,28.02,1.67,18.2-5.83,32.28-20.09,38.56-13.03,5.71-26.72,3.19-40.17,3.7Z"/>
      <path class="cls-1" d="M657.47,1081.58c-3.09-44.65-26.79-74.82-68.21-83.69-37.74-8.07-74.51,3.78-94.64,39.25-10.65,18.79-14.47,39.41-13.9,60.85,0,4.34-.21,8.68.03,13,2.53,43.35,28.56,74.48,69.22,82.91,40.99,8.5,78.78-9.2,96.36-45.6,10.17-21.07,12.74-43.66,11.14-66.72ZM621.66,1144.98c-10.71,22.33-30.3,32.07-54.47,31.44-25.91-.66-44.07-13.74-54.1-37.69-5.76-13.76-8.07-28.25-7.91-50.23.17-10.72,2.92-27.99,11.78-43.76,11.59-20.63,29.71-30.09,52.94-29.79,22.92.31,41.14,9.79,51.41,30.71,16.15,32.83,16.1,66.44.35,99.32Z"/>
      <path class="cls-1" d="M1926.49,1174.14c-7.17,1.34-10.72-1.75-13.03-8.73-6.37-19.12-13.53-38-20.39-56.97-12.34-34.17-24.78-68.28-36.91-102.52-1.86-5.21-4.37-7.62-9.94-6.87-2.85.38-5.83.43-8.66-.02-6.92-1.11-10.15,1.94-12.67,8.33-20.56,52.32-41.59,104.43-62.09,156.76-2.76,7.06-5.55,11.68-14,10.06-8.09-1.53-6.8,4.34-6.94,9.2-.16,5.21-.5,9.42,7.27,9.11,15.29-.59,30.63-.45,45.93,0,6.75.19,8.9-1.8,8.97-8.75.07-7.5-1.91-10.88-9.72-9.68-2.26.36-4.63-.09-6.92.09-5.24.42-5.6-1.58-3.85-6.04,6.02-15.27,11.87-30.64,17.37-46.1,1.65-4.67,4.13-6.13,8.87-5.95,8.94.33,17.91.1,26.86.09,8.66,0,17.35.38,25.99-.12,6.23-.36,9.32,1.65,11.12,7.79,3.77,12.7,8.26,25.2,12.6,37.72,4.27,12.29,4.34,12.74-8.14,12.44-7.6-.17-7.51,3.87-7.41,9.21.1,5.12-.52,9.56,7.31,9.3,16.15-.54,32.36-.56,48.52.02,7.31.26,8.5-2.6,8.47-8.95-.02-6.4-.56-10.91-8.61-9.42ZM1860.38,1098.72c-14.97-.07-29.97.02-44.94-.07-6.89-.03-3.56-4.42-2.55-7.11,6.58-17.47,13.4-34.88,20.06-52.32,1.82-4.75,3.42-9.58,5.6-15.77,8.57,24.55,16.69,47.82,24.87,71.09,1.06,3.02.14,4.2-3.04,4.18Z"/>
      <path class="cls-1" d="M2394.08,1153.14c-.42,10.67-1.25,21.34-1.2,32.01.03,5.71-1.8,7.39-7.43,7.31-19.07-.3-38.14-.1-57.21-.1s-38.14-.28-57.21.14c-6.91.16-8.43-2.6-7.96-8.71.42-5.21-.82-11.07,7.7-9.7,1.68.28,3.49-.16,5.19.07,6.04.83,7.79-1.63,7.81-7.7.12-45.93.69-91.85.92-137.78.05-12.06,2.45-12.08-11.44-11.57-7.83.28-10.64-1.82-10.31-10.01.26-6.68,2.48-8.16,8.71-8.12,36.68.24,73.38.31,110.08-.05,7.39-.07,9.49,2.33,9.04,9.4-.57,8.92-.68,17.94.03,26.84.59,7.62-2.38,9.79-9.3,8.76-1.98-.29-4.04-.16-6.06-.05-3.51.21-5.57-.94-5.12-4.86.1-.87.02-1.74,0-2.6q-.31-19.49-20.2-19.49c-10.98,0-21.97.3-32.93-.12-6.39-.24-9.44,1.25-9.32,8.43.3,17.61.07,35.24-.36,52.85-.14,5.5,2.5,6.02,6.84,5.97,15.01-.14,30.05.38,45.06-.23,7.55-.31,7.67,3.54,7.53,8.95-.12,5.01.71,9.58-7.2,9.25-14.71-.59-29.46.03-44.2-.28-5.64-.1-8.21,1.01-8.09,7.5.36,19.35.19,38.71-.14,58.06-.09,5.28,1.53,7.01,6.85,6.91,17.04-.28,34.08-.21,51.14-.03,4.48.03,7.01-.83,6.96-6.09-.07-5.17,1.39-10.38,1.08-15.51-.75-12.84,8.71-7.11,14.28-8.14,7.6-1.39,6.61,4.1,6.44,8.69Z"/>
      <path class="cls-1" d="M1280.73,1154.03c-.99,9.46-.87,19.05-.64,28.58.16,7.17-1.87,10.19-9.82,9.93-13.29-.45-26.58-.35-39.91-.26-4.89.03-9.8.05-14.71.05-2.74,0-5.48,0-8.24-.02-16.33-.05-32.66-.24-48.99.17-8.33.21-6.58-5.12-6.75-9.68-.19-4.63-.9-8.95,6.65-8.83,13.69.23,13.64-.28,13.71-13.67.24-44.21.26-88.43,1.01-132.64.16-8.83-2.29-12.41-10.97-10.72-9.39,1.82-11.16-2.78-10.62-10.97.35-5.07,1.41-7.06,6.87-6.96,16.76.33,33.54.4,50.29-.02,6.75-.16,7.62,3.02,7.31,8.43-.28,4.82,1.13,9.75-6.98,9.65-12.77-.14-12.74.35-12.81,13.01-.21,44.79-.24,89.57-.9,134.36-.12,8.28,2.57,10.13,10.22,9.87,15.6-.54,31.22-.36,46.82-.05,5.45.1,8.02-1.23,7.58-7.11-.31-4.3.57-8.68.35-13-.4-7.65,2.48-10.29,10.5-10.05,7.5.24,10.95,1.42,10.05,9.93Z"/>
      <path class="cls-1" d="M1500.22,1148.78c-.35,13-.82,25.98-1.04,38.97-.1,5.66-4.11,4.55-7.36,4.56-19.07.07-38.12.03-57.19.03-19.07.02-38.14-.3-57.19.17-7.29.17-7.15-3.77-6.77-8.66.35-4.41-2.2-9.94,6.39-9.93,14.37.03,14.32-.43,14.37-14.7.16-43.9.07-87.8.78-131.7.16-9.11-2.64-12.15-11.09-10.59-9.21,1.7-11.3-2.57-10.67-10.97.38-5.08,1.39-7.11,6.84-7.01,17.04.29,34.1.43,51.14-.03,7.67-.21,6.54,4.49,6.51,9.02-.03,4.44,1.32,9.94-6.44,8.97-1.7-.21-3.49.17-5.19-.05-6.04-.78-7.79,1.7-7.81,7.76-.07,46.78-.36,93.56-.94,140.34-.09,7.06,1.74,9.58,9.11,9.3,15.29-.56,30.63-.57,45.91.02,7.31.3,9.87-2.26,9.54-9.14-.12-2.86.54-5.74.69-8.62.59-11.59,6-15.32,17.3-12.13,2.55.73,3.16,2.2,3.11,4.37Z"/>
      <path class="cls-1" d="M1656.34,1190.29c-1.25,2.29-3.31,2.01-5.26,2.01-18.2.05-36.42-.05-54.63.09-7.63.05-5.12-5.52-5.19-9.23-.05-3.8-2.17-8.8,5.34-9.18,14.73-.76,14.89-1.13,14.99-15.93.31-44.79.4-89.57.83-134.36.05-5.5-1.87-7.32-6.99-6.78-1.72.19-3.47.03-5.21.02-7.96-.05-12.67-8.64-8.75-15.82,1.46-2.67,3.97-1.94,6.13-1.96,8.68-.1,17.33-.03,26.01-.03s17.94.31,26.88-.1c6.96-.33,6.45,4.04,6.18,8.47-.26,4.16,2,9.35-5.95,9.6-14.44.45-14.56.85-14.7,15.22-.45,44.79-.69,89.55-1.27,134.34-.07,5.54,1.25,8.22,7.1,7.53,1.72-.21,3.47-.03,5.21-.02,8.49.03,13.38,8.66,9.27,16.15Z"/>
      <path class="cls-1" d="M65.68,1189.94c-1.27,2.95-3.7,2.34-5.85,2.36-8.95.09-17.91.03-26.86.03s-17.92-.21-26.88.05c-8.12.24-5.5-5.6-5.71-9.65-.21-4.13-1.35-8.57,5.85-8.76,14.59-.4,14.47-.8,14.59-15.24.38-43.02.88-86.05,1.21-129.07.12-14.33,1.3-13.01-12.27-12.56-7.63.24-10.1-1.86-9.73-9.61.29-6.07,1.28-8.75,8.14-8.55,16.74.45,33.52.5,50.25-.02,7.48-.24,7.65,3.51,7.57,9.01-.07,5.29.23,10.19-7.43,9.01-1.41-.23-2.9.16-4.32-.03-6.72-.97-8.95,1.7-8.94,8.59.12,34.36-.19,68.73-.42,103.11-.07,12.7-.09,25.42-.57,38.11-.23,5.57,1.41,8.21,7.22,7.44,1.42-.19,2.88-.03,4.34-.02,9.06.03,13.47,7.27,9.8,15.81Z"/>
      <path class="cls-1" d="M1058.17,1183.75c-.09,6.92-2.24,8.92-8.99,8.75-16.48-.43-32.97-.56-49.44.03-7.63.26-7.63-3.68-7.36-9.02.24-4.72-1.47-9.73,6.8-9.6,14.04.23,14.07-.28,14.07-14.09.03-21.38.02-42.77.02-64.17h.69c0-22.26-.02-44.51,0-66.77.02-11.89.07-11.89-11.4-11.96-.59,0-1.18.09-1.74,0-2.71-.4-6.73,1.44-7.77-1.8-1.51-4.6-1.3-9.77,0-14.51.59-2.17,3.49-1.48,5.41-1.48,17.65-.05,35.28.21,52.91-.16,7.55-.16,6.45,4.55,6.56,9.16.12,4.88.43,8.9-6.82,8.94-13.6.1-13.55.52-13.62,13.79-.26,43.64-.59,87.28-.78,130.92-.07,14.3-.82,12.63,11.8,12.13,7.9-.33,9.75,2.36,9.65,9.82Z"/>
    </g>
  </g>
</svg>