<?xml version="1.0" encoding="UTF-8"?>
<svg id="Camada_2" xmlns="http://www.w3.org/2000/svg" viewBox="0 0 769.24 195.86">
  <defs>
    <style>
      .cls-1 {
        fill: #d1b082;
      }
    </style>
  </defs>
  <g id="Camada_1-2" data-name="Camada_1">
    <g>
      <path class="cls-1" d="M157.01,132.15v-.99l1.8-.72c1.35-.54,2.26-1.19,2.75-1.98.51-.81.77-1.89.77-3.24v-52.43c0-1.37-.26-2.48-.77-3.29-.48-.81-1.4-1.45-2.75-1.94l-1.8-.68v-.99h28.8c8.19,0,14.09,1.49,17.69,4.46,3.62,2.97,5.45,6.74,5.45,11.3,0,3.42-1.34,6.53-4.01,9.32-2.64,2.77-7.18,4.71-13.59,5.85,7.35.79,12.74,2.7,16.16,5.76,3.42,3.04,5.13,6.73,5.13,11.07,0,2.16-.47,4.34-1.4,6.53-.93,2.16-2.52,4.14-4.77,5.94s-5.33,3.26-9.23,4.37c-3.87,1.11-8.78,1.67-14.72,1.67h-25.52ZM177.22,96.69h4.28c4.5,0,7.74-1.04,9.72-3.11s2.97-5.68,2.97-10.85-.92-9.15-2.75-11.43c-1.8-2.27-4.75-3.42-8.82-3.42h-5.4v28.8ZM177.22,130.13h5c5.01,0,8.73-1.33,11.16-4.01,2.45-2.67,3.69-6.85,3.69-12.56,0-5.33-1.17-9.15-3.51-11.43-2.34-2.27-6.19-3.42-11.52-3.42h-4.82v31.41Z"/>
      <path class="cls-1" d="M216.87,132.15v-.99l1.49-.41c1.35-.42,2.26-1.01,2.75-1.8.51-.81.77-1.86.77-3.15v-31.41c0-1.46-.26-2.54-.77-3.24-.48-.72-1.4-1.22-2.75-1.49l-1.49-.41v-.99l17.24-5.81,1.04.99.9,8.64v.81c.92-1.89,2.14-3.61,3.65-5.18,1.5-1.59,3.16-2.88,5-3.87,1.86-1.01,3.69-1.53,5.49-1.53,2.54,0,4.48.71,5.81,2.12,1.35,1.42,2.03,3.2,2.03,5.36s-.66,4.01-1.98,5.27c-1.29,1.24-2.84,1.85-4.64,1.85-2.82,0-5.3-1.41-7.43-4.23l-.18-.18c-.7-.92-1.47-1.44-2.34-1.53-.88-.11-1.67.29-2.39,1.22-.7.61-1.26,1.33-1.71,2.16-.43.84-.83,1.8-1.22,2.88v27.99c0,2.68,1.17,4.35,3.51,5.04l3.2.9v.99h-25.97Z"/>
      <path class="cls-1" d="M279.28,133.64c-2.61,0-5.02-.5-7.2-1.49-2.16-.99-3.86-2.61-5.09-4.86-1.24-2.25-1.82-5.22-1.76-8.91l.32-25.79c0-1.53-.27-2.62-.81-3.29-.54-.69-1.38-1.17-2.52-1.44l-1.22-.41v-.99l18-3.51.99.99-.5,14.27v24.21c0,2.14.61,3.71,1.85,4.73,1.23.99,2.79,1.49,4.68,1.49s3.52-.27,5-.81c1.5-.54,2.98-1.33,4.46-2.39l.41-32.76c0-1.53-.25-2.61-.72-3.24-.48-.63-1.35-1.08-2.61-1.35l-.99-.32v-.99l17.55-3.83.99.99-.27,14.27v27.23c0,1.47.19,2.61.59,3.42.38.79,1.26,1.44,2.61,1.98l.99.32v.99l-17.55.99-.9-5.9c-2.23,1.8-4.62,3.32-7.2,4.55-2.59,1.23-5.61,1.85-9.09,1.85Z"/>
      <path class="cls-1" d="M318.07,132.15v-.99l1.4-.41c2.34-.69,3.51-2.34,3.51-4.95v-31.41c0-1.46-.25-2.54-.72-3.24-.45-.72-1.35-1.22-2.7-1.49l-1.49-.41v-.99l17.15-5.81.99.99.81,6.03c2.34-2.07,4.97-3.78,7.92-5.13,2.97-1.35,5.9-2.03,8.78-2.03,4.41,0,7.8,1.22,10.17,3.65,2.36,2.41,3.56,6.08,3.56,11.03v28.94c0,2.61,1.27,4.25,3.83,4.91l.9.32v.99h-23.67v-.99l1.31-.41c2.34-.74,3.51-2.4,3.51-4.95v-32c0-4.29-2.15-6.44-6.44-6.44-2.95,0-6.15,1.47-9.63,4.41v34.16c0,2.61,1.17,4.25,3.51,4.91l.9.32v.99h-23.58Z"/>
      <path class="cls-1" d="M376.1,132.15v-.99l1.4-.41c2.34-.69,3.51-2.34,3.51-4.95v-31.41c0-1.46-.25-2.54-.72-3.24-.45-.72-1.35-1.22-2.7-1.49l-1.49-.41v-.99l17.15-5.81.99.99.81,6.03c2.34-2.07,4.97-3.78,7.92-5.13,2.97-1.35,5.9-2.03,8.78-2.03,4.41,0,7.8,1.22,10.17,3.65,2.36,2.41,3.56,6.08,3.56,11.03v28.94c0,2.61,1.27,4.25,3.83,4.91l.9.32v.99h-23.67v-.99l1.31-.41c2.34-.74,3.51-2.4,3.51-4.95v-32c0-4.29-2.15-6.44-6.44-6.44-2.95,0-6.15,1.47-9.63,4.41v34.16c0,2.61,1.17,4.25,3.51,4.91l.9.32v.99h-23.58Z"/>
      <path class="cls-1" d="M448.76,133.64c-3.87,0-7.13-1.1-9.77-3.29-2.64-2.22-3.96-5.4-3.96-9.54,0-3.15,1.6-6.04,4.82-8.69,3.21-2.63,8.26-4.64,15.17-5.99,1.05-.2,2.25-.42,3.6-.63,1.35-.24,2.76-.5,4.23-.77v-7.92c0-4.56-.56-7.75-1.67-9.59-1.11-1.86-2.84-2.79-5.18-2.79-1.62,0-2.9.53-3.83,1.58-.93,1.02-1.53,2.81-1.8,5.36l-.18,1.13c-.16,2.88-.88,5-2.16,6.35-1.26,1.33-2.82,1.98-4.68,1.98-1.74,0-3.18-.52-4.32-1.58-1.15-1.08-1.71-2.53-1.71-4.37,0-2.72.95-5.02,2.84-6.89,1.91-1.89,4.46-3.3,7.61-4.23,3.15-.96,6.57-1.44,10.26-1.44,5.94,0,10.53,1.47,13.77,4.41,3.26,2.91,4.91,7.64,4.91,14.18v22.19c0,3.04,1.4,4.55,4.19,4.55h2.21l.9.77c-1.26,1.62-2.64,2.87-4.14,3.74-1.51.87-3.63,1.31-6.39,1.31-2.95,0-5.27-.68-6.98-2.03-1.71-1.37-2.84-3.21-3.38-5.49-2.01,2.14-4.07,3.95-6.17,5.45-2.1,1.5-4.84,2.25-8.19,2.25ZM454.88,127.51c1.35,0,2.61-.32,3.78-.95s2.57-1.62,4.19-2.97v-16.83c-.7.12-1.37.26-2.03.41-.66.12-1.43.25-2.3.36-3.09.81-5.57,2.18-7.43,4.1-1.83,1.89-2.75,4.44-2.75,7.65,0,2.77.63,4.84,1.89,6.21,1.28,1.35,2.84,2.03,4.64,2.03Z"/>
      <path class="cls-1" d="M529.8,133.95c-3.69,0-7.45-.45-11.25-1.35-3.81-.9-7-2.08-9.54-3.56l.5-13.68h.99l3.15,6.53c.92,1.89,1.91,3.56,2.97,5,1.08,1.44,2.57,2.57,4.46,3.38,1.32.66,2.59,1.11,3.83,1.35,1.26.25,2.66.36,4.19.36,4.07,0,7.3-1.1,9.68-3.33,2.4-2.22,3.6-5.06,3.6-8.55,0-3.26-.81-5.82-2.43-7.65-1.6-1.86-4.17-3.66-7.74-5.4l-4.1-1.8c-5.76-2.54-10.26-5.47-13.5-8.78-3.24-3.33-4.86-7.72-4.86-13.19,0-3.96,1.01-7.38,3.06-10.26,2.04-2.88,4.87-5.09,8.51-6.62,3.66-1.55,7.93-2.34,12.83-2.34,3.53,0,6.9.48,10.08,1.44,3.17.93,5.94,2.19,8.28,3.78l-.59,12.06h-1.04l-4.1-7.52c-1.15-2.34-2.28-3.98-3.42-4.95-1.15-.99-2.45-1.68-3.92-2.07-.88-.27-1.69-.45-2.43-.54-.72-.11-1.65-.18-2.79-.18-3.42,0-6.3.99-8.64,2.97s-3.51,4.64-3.51,7.97.9,6.15,2.7,8.19c1.8,2.05,4.43,3.87,7.92,5.49l4.64,1.98c6.41,2.82,11.04,5.83,13.86,9,2.81,3.18,4.23,7.28,4.23,12.29,0,5.92-2.24,10.73-6.71,14.45-4.44,3.69-10.74,5.54-18.9,5.54Z"/>
      <path class="cls-1" d="M579.41,133.64c-4.3,0-7.64-1.07-10.04-3.2-2.37-2.13-3.56-5.54-3.56-10.22v-34.34h-6.93v-1.04l2.43-.41c2.07-.45,3.85-1.1,5.36-1.98,1.5-.87,2.99-2.04,4.5-3.51l8.24-9.14h.99l-.32,14.04h11.25v2.03h-11.34v36.14c0,2.34.51,4.12,1.53,5.31,1.05,1.2,2.39,1.8,4.01,1.8,1.37,0,2.61-.34,3.69-1.04,1.08-.72,2.16-1.68,3.24-2.88l.99.99c-1.35,2.28-3.2,4.1-5.54,5.45-2.34,1.32-5.18,1.98-8.51,1.98Z"/>
      <path class="cls-1" d="M611.2,133.64c-3.87,0-7.13-1.1-9.77-3.29-2.64-2.22-3.96-5.4-3.96-9.54,0-3.15,1.6-6.04,4.82-8.69,3.21-2.63,8.26-4.64,15.17-5.99,1.05-.2,2.25-.42,3.6-.63,1.35-.24,2.76-.5,4.23-.77v-7.92c0-4.56-.56-7.75-1.67-9.59-1.11-1.86-2.84-2.79-5.18-2.79-1.62,0-2.9.53-3.83,1.58-.93,1.02-1.53,2.81-1.8,5.36l-.18,1.13c-.16,2.88-.88,5-2.16,6.35-1.26,1.33-2.82,1.98-4.68,1.98-1.74,0-3.18-.52-4.32-1.58-1.15-1.08-1.71-2.53-1.71-4.37,0-2.72.95-5.02,2.84-6.89,1.91-1.89,4.46-3.3,7.61-4.23,3.15-.96,6.57-1.44,10.26-1.44,5.94,0,10.53,1.47,13.77,4.41,3.26,2.91,4.91,7.64,4.91,14.18v22.19c0,3.04,1.4,4.55,4.19,4.55h2.21l.9.77c-1.26,1.62-2.64,2.87-4.14,3.74-1.51.87-3.63,1.31-6.39,1.31-2.95,0-5.27-.68-6.98-2.03-1.71-1.37-2.84-3.21-3.38-5.49-2.01,2.14-4.07,3.95-6.17,5.45-2.1,1.5-4.84,2.25-8.19,2.25ZM617.32,127.51c1.35,0,2.61-.32,3.78-.95s2.57-1.62,4.19-2.97v-16.83c-.7.12-1.37.26-2.03.41-.66.12-1.43.25-2.3.36-3.09.81-5.57,2.18-7.43,4.1-1.83,1.89-2.75,4.44-2.75,7.65,0,2.77.63,4.84,1.89,6.21,1.28,1.35,2.84,2.03,4.64,2.03Z"/>
      <path class="cls-1" d="M671.04,132.47l-17.78-42.66c-.93-2.27-2.54-3.79-4.82-4.55l-1.4-.41v-.99h26.01v.99l-1.8.41c-2.61.66-3.42,2.41-2.43,5.22l10.58,28.04,9.81-27.81c.54-1.35.68-2.45.41-3.33-.27-.87-1.07-1.5-2.39-1.89l-2.52-.63v-.99h14.54v.99l-2.88.72c-1.29.34-2.3.84-3.02,1.53-.7.66-1.26,1.65-1.71,2.97l-14.76,42.39h-5.85Z"/>
      <path class="cls-1" d="M713.81,77.11c-2.28,0-4.21-.72-5.76-2.16-1.56-1.44-2.34-3.25-2.34-5.45s.78-4.12,2.34-5.54c1.55-1.41,3.48-2.12,5.76-2.12s4.19.71,5.72,2.12c1.55,1.42,2.34,3.26,2.34,5.54s-.79,4.01-2.34,5.45c-1.53,1.44-3.44,2.16-5.72,2.16ZM701.97,132.15v-.99l1.4-.41c1.35-.42,2.26-1.01,2.75-1.8.51-.81.77-1.89.77-3.24v-31.41c0-1.41-.26-2.45-.77-3.15-.48-.72-1.4-1.22-2.75-1.49l-1.4-.27v-1.04l18.36-5.9,1.04.99-.32,14.27v28.08c0,1.35.24,2.43.72,3.24.51.81,1.41,1.42,2.7,1.8l.99.32v.99h-23.49Z"/>
      <path class="cls-1" d="M747.27,133.64c-3.31,0-6.26-.39-8.87-1.17-2.61-.74-5.02-1.69-7.2-2.84l.09-11.93h.99l3.42,6.03c1.46,2.68,3.08,4.67,4.86,5.99,1.77,1.29,4.03,1.94,6.8,1.94,3.21,0,5.81-.72,7.79-2.16s2.97-3.35,2.97-5.76c0-2.22-.71-4.03-2.12-5.45-1.42-1.41-4.03-2.68-7.83-3.83l-4.23-1.31c-4.08-1.19-7.29-3.06-9.63-5.58-2.34-2.54-3.51-5.67-3.51-9.36,0-4.41,1.73-8.16,5.22-11.25,3.48-3.08,8.46-4.64,14.94-4.64,2.61,0,5.06.29,7.38.86,2.31.57,4.52,1.43,6.66,2.57l-.59,10.85h-.99l-3.51-6.21c-1.29-2.22-2.55-3.78-3.78-4.68-1.24-.9-3.09-1.35-5.58-1.35-2.28,0-4.43.65-6.44,1.94-2.01,1.26-3.02,3.06-3.02,5.4s.86,4.1,2.57,5.45c1.71,1.33,4.24,2.55,7.61,3.69l4.5,1.31c4.83,1.47,8.28,3.5,10.35,6.08,2.07,2.59,3.11,5.67,3.11,9.27,0,4.89-1.92,8.81-5.76,11.75-3.85,2.94-9.25,4.41-16.2,4.41Z"/>
      <path class="cls-1" d="M296.16,195.54v-16.2h1.4v16.2h-1.4Z"/>
      <path class="cls-1" d="M306,195.54v-16.2h1.94l9.32,14.45h.09l-.09-14.45h1.35v16.2h-1.8l-9.41-14.58h-.14l.09,14.58h-1.35Z"/>
      <path class="cls-1" d="M330.54,195.54v-16.2h1.4v16.2h-1.4ZM325.5,180.65v-1.31h11.48v1.31h-11.48Z"/>
      <path class="cls-1" d="M343.86,195.54v-16.2h1.4v16.2h-1.4ZM344.13,195.54v-1.31h10.35v1.31h-10.35ZM344.13,187.89v-1.31h9.23v1.31h-9.23ZM344.13,180.65v-1.31h10.35v1.31h-10.35Z"/>
      <path class="cls-1" d="M361.6,195.54v-16.2h1.4v16.2h-1.4ZM362.32,195.54v-1.31h8.69v1.31h-8.69Z"/>
      <path class="cls-1" d="M377.85,195.54v-16.2h1.4v16.2h-1.4Z"/>
      <path class="cls-1" d="M393.9,195.86c-1.33,0-2.5-.3-3.51-.9-1.02-.63-1.82-1.55-2.39-2.79-.57-1.26-.86-2.81-.86-4.68,0-1.32.15-2.49.45-3.51.29-1.05.74-1.94,1.35-2.66.6-.74,1.32-1.31,2.16-1.67.87-.38,1.87-.59,3.02-.59.83,0,1.59.11,2.25.32.69.21,1.28.54,1.8.99.54.43.97.95,1.31,1.58.33.63.54,1.37.63,2.21l-1.4.32c-.07-.78-.25-1.42-.54-1.94-.27-.54-.63-.96-1.08-1.26-.43-.33-.89-.55-1.4-.68-.52-.11-1.04-.18-1.58-.18-.79,0-1.52.14-2.21.41-.66.25-1.25.65-1.76,1.22-.52.57-.9,1.31-1.17,2.21s-.41,1.98-.41,3.24c0,1.33.15,2.43.45,3.33.29.9.69,1.62,1.17,2.16.51.52,1.08.89,1.71,1.13.65.21,1.33.32,2.03.32.92,0,1.73-.18,2.43-.54.69-.38,1.24-.97,1.67-1.76.42-.78.7-1.76.86-2.93h-4.05v-1.35h5.45v7.7h-1.44l.72-4.59h-.32c-.18,1.11-.5,2.03-.95,2.75s-1.06,1.26-1.8,1.62c-.72.36-1.6.54-2.61.54Z"/>
      <path class="cls-1" d="M408.3,195.54v-16.2h1.4v16.2h-1.4ZM408.57,195.54v-1.31h10.35v1.31h-10.35ZM408.57,187.89v-1.31h9.23v1.31h-9.23ZM408.57,180.65v-1.31h10.35v1.31h-10.35ZM409.69,177.68v-1.49l3.38-2.57,3.33,2.57v1.49l-3.33-2.57-3.38,2.57Z"/>
      <path class="cls-1" d="M426.04,195.54v-16.2h1.94l9.32,14.45h.09l-.09-14.45h1.35v16.2h-1.8l-9.41-14.58h-.14l.09,14.58h-1.35Z"/>
      <path class="cls-1" d="M453.6,195.86c-1.11,0-2.1-.18-2.97-.54-.88-.38-1.62-.92-2.25-1.62-.61-.72-1.06-1.59-1.35-2.61-.3-1.01-.45-2.16-.45-3.42s.15-2.5.45-3.56c.33-1.05.79-1.95,1.4-2.7.6-.74,1.32-1.32,2.16-1.71.87-.42,1.85-.63,2.93-.63.83,0,1.6.12,2.3.36.69.25,1.28.59,1.8,1.04.51.45.9,1.01,1.17,1.67.29.63.45,1.34.45,2.12l-1.35.32c0-.92-.2-1.69-.59-2.3-.39-.63-.92-1.09-1.58-1.4-.66-.29-1.4-.45-2.21-.45-.75,0-1.47.16-2.16.45-.66.27-1.25.71-1.76,1.31-.52.61-.92,1.35-1.22,2.25-.27.9-.41,1.98-.41,3.24,0,1.6.23,2.88.68,3.87.47.99,1.14,1.73,1.98,2.21.87.45,1.89.68,3.06.68,1.08,0,1.95-.18,2.61-.54.69-.38,1.19-.95,1.53-1.67.36-.72.55-1.6.59-2.66l1.35.27c0,.84-.14,1.62-.41,2.34-.25.72-.62,1.37-1.13,1.94-.48.54-1.11.98-1.89,1.31-.79.29-1.7.45-2.75.45Z"/>
      <path class="cls-1" d="M467.09,195.54v-16.2h1.4v16.2h-1.4Z"/>
      <path class="cls-1" d="M475.54,195.54l5.81-16.2h2.03l5.81,16.2h-1.49l-5.22-14.9h-.23l-5.22,14.9h-1.49ZM477.97,191.63v-1.26h8.91v1.26h-8.91Z"/>
      <path class="cls-1" d="M506.7,195.54v-16.2h1.4v16.2h-1.4Z"/>
      <path class="cls-1" d="M516.54,195.54v-16.2h2.25l5.94,14.94h.09l5.94-14.94h2.21v16.2h-1.35l.09-14.81h-.14l-5.94,14.81h-1.71l-5.94-14.81h-.14l.09,14.81h-1.4Z"/>
      <path class="cls-1" d="M547.78,195.86c-1.17,0-2.19-.21-3.06-.63-.88-.42-1.6-.99-2.16-1.71-.57-.74-1.01-1.63-1.31-2.66-.27-1.01-.41-2.13-.41-3.33,0-1.86.28-3.42.86-4.68.6-1.26,1.41-2.21,2.43-2.84,1.05-.63,2.25-.95,3.6-.95,1.05,0,1.99.2,2.84.59.87.36,1.6.92,2.21,1.67.6.75,1.06,1.65,1.4,2.7.33,1.06.5,2.24.5,3.56,0,1.2-.16,2.32-.45,3.33-.27.99-.7,1.87-1.26,2.61-.54.72-1.25,1.29-2.12,1.71-.88.42-1.89.63-3.06.63ZM547.69,194.51c.56,0,1.17-.09,1.8-.27.63-.2,1.23-.55,1.8-1.04.56-.51,1.04-1.22,1.4-2.12.36-.92.54-2.12.54-3.56,0-1.71-.27-3.08-.81-4.14-.52-1.05-1.19-1.8-2.03-2.25-.81-.47-1.67-.72-2.57-.72-.54,0-1.13.09-1.76.27s-1.25.53-1.85,1.04c-.57.48-1.06,1.2-1.44,2.16-.36.93-.54,2.15-.54,3.65,0,1.42.16,2.57.5,3.47.33.9.77,1.61,1.31,2.12.54.52,1.13.88,1.76,1.08.63.21,1.26.32,1.89.32Z"/>
      <path class="cls-1" d="M562.57,195.54v-16.2h5.36c.87,0,1.67.09,2.39.27.72.16,1.32.41,1.8.77.51.34.9.75,1.17,1.26.29.52.45,1.15.45,1.89,0,.63-.14,1.19-.41,1.67-.25.45-.62.84-1.13,1.17-.52.3-1.19.53-2.03.68v.23c1.46.16,2.53.57,3.2,1.26.65.7.99,1.61.99,2.75,0,.9-.21,1.67-.63,2.3-.39.63-1.02,1.13-1.89,1.49-.84.34-1.94.5-3.29.5h-5.99ZM563.92,194.24h5c.63,0,1.18-.06,1.67-.18.51-.11.92-.28,1.26-.5.36-.24.63-.54.81-.9.18-.38.27-.83.27-1.35,0-.47-.09-.91-.27-1.31-.16-.38-.39-.72-.72-.99-.3-.27-.7-.5-1.17-.68-.45-.18-.98-.29-1.58-.36-.61-.09-1.26-.14-1.98-.14h-3.29v6.39ZM563.92,186.59h2.97c.83,0,1.59-.06,2.25-.18.69-.11,1.26-.29,1.71-.54.47-.24.82-.54,1.04-.9.24-.38.36-.83.36-1.35s-.11-.99-.32-1.35c-.18-.36-.48-.65-.9-.9-.39-.24-.88-.42-1.44-.54-.57-.11-1.24-.18-1.98-.18h-3.69v5.94Z"/>
      <path class="cls-1" d="M582.05,195.54v-16.2h1.4v16.2h-1.4Z"/>
      <path class="cls-1" d="M591.89,195.54v-16.2h1.4v16.2h-1.4ZM592.61,195.54v-1.31h8.69v1.31h-8.69Z"/>
      <path class="cls-1" d="M608.14,195.54v-16.2h1.4v16.2h-1.4Z"/>
      <path class="cls-1" d="M616.58,195.54l5.81-16.2h2.03l5.81,16.2h-1.49l-5.22-14.9h-.23l-5.22,14.9h-1.49ZM619.01,191.63v-1.26h8.91v1.26h-8.91ZM623.78,177.32h-1.35l1.71-3.56h1.71l-2.07,3.56Z"/>
      <path class="cls-1" d="M637.29,195.54v-16.2h5c.78,0,1.5.08,2.16.23.65.12,1.24.32,1.76.59.51.25.92.56,1.26.95.36.36.63.8.81,1.31.2.52.32,1.07.32,1.67,0,.54-.09,1.07-.27,1.58-.16.48-.39.9-.72,1.26-.34.36-.75.66-1.26.9-.48.21-1.06.36-1.71.45v.27c.38.07.78.18,1.17.36.42.18.81.5,1.17.95.36.43.65,1.04.9,1.85l1.08,3.87h-1.44l-.9-3.42c-.16-.72-.45-1.31-.9-1.76-.43-.45-.92-.77-1.49-.95-.54-.2-1.11-.32-1.71-.32h-3.83v6.44h-1.4ZM638.68,187.8h2.97c.36,0,.78-.01,1.26-.05.47-.02.96-.09,1.44-.18.51-.11.97-.29,1.4-.54.42-.27.77-.63,1.04-1.08s.41-1.01.41-1.71c0-.74-.14-1.33-.41-1.76-.27-.45-.62-.79-1.04-1.04-.39-.27-.83-.45-1.31-.54-.48-.11-.95-.19-1.4-.23-.43-.02-.79-.05-1.08-.05h-3.29v7.16Z"/>
      <path class="cls-1" d="M656.6,195.54v-16.2h1.4v16.2h-1.4Z"/>
      <path class="cls-1" d="M665.05,195.54l5.81-16.2h2.03l5.81,16.2h-1.49l-5.22-14.9h-.23l-5.22,14.9h-1.49ZM667.48,191.63v-1.26h8.91v1.26h-8.91Z"/>
      <path class="cls-1" d="M138.21,138.24H35.46V62.3l.25-.24,42.62-41.68L60.38,2.81,1.64,60.27v77.16H0V59.58l.25-.24L60.38.53l19.11,18.7L99.15,0v38.45l39.06,38.21v61.58ZM37.1,136.61h99.48v-59.27l-37.43-36.6v45.75h-1.63v-47.34l-18.02-17.63-42.39,41.47v73.62ZM80.67,20.37l16.85,16.47V3.89l-16.85,16.48Z"/>
    </g>
  </g>
</svg>