<?xml version="1.0" encoding="UTF-8"?>
<svg id="Camada_2" data-name="Camada 2" xmlns="http://www.w3.org/2000/svg" viewBox="0 0 823.09 72.78">
  <defs>
    <style>
      .cls-1 {
        fill-rule: evenodd;
      }

      .cls-1, .cls-2 {
        fill: #fff;
      }
    </style>
  </defs>
  <g id="Camada_1-2" data-name="Camada 1">
    <g>
      <rect class="cls-2" y="16.11" width="11.7" height="55.9"/>
      <path class="cls-1" d="M53.52,48.93c-.28.98-.56,1.96-.84,2.94-.28,1.05-.56,2.03-.84,3.01-.24.98-.53,2-.81,3.01-.42-1.65-.88-3.33-1.33-5.01-.04-.1-.04-.18-.07-.28-.46-1.75-.91-3.5-1.4-5.25l-9.98-31.24h-15.69v55.9h10.4v-33.9c0-.98-.04-2.49-.11-4.52-.07-2.03-.21-4.55-.35-7.64l4.24,14.85,10.09,31.21h8.34l10.05-31.21c.49-1.4,1.05-3.33,1.75-5.81.7-2.49,1.51-5.5,2.42-9.04-.1,2.73-.21,5.22-.28,7.53-.07,2.35-.11,3.89-.11,4.62v33.9h10.4V16.11h-15.62l-10.26,32.82Z"/>
      <polygon class="cls-1" points="129.87 1.68 129.87 0 119.61 0 109.63 10.05 109.63 11.31 116.35 11.31 129.87 1.68"/>
      <path class="cls-1" d="M141.24,28.52c-2.22-4.24-5.48-7.5-9.7-9.82-4.19-2.28-9.23-3.41-15.2-3.41s-10.91,1.14-15.15,3.39c-4.21,2.27-7.45,5.53-9.67,9.77-2.25,4.27-3.36,9.39-3.36,15.33s1.11,11.14,3.36,15.49c2.28,4.34,5.48,7.7,9.7,10.03,4.21,2.33,9.26,3.49,15.07,3.49s10.7-1.19,14.94-3.59c4.27-2.4,7.58-5.79,9.88-10.14,2.35-4.34,3.49-9.41,3.49-15.28s-1.11-10.99-3.36-15.25ZM128.39,58.43c-2.84,3.46-6.85,5.17-12.1,5.17-3.39,0-6.26-.8-8.69-2.4-2.46-1.58-4.34-3.85-5.69-6.83-1.32-2.95-1.99-6.49-1.99-10.6,0-6.05,1.42-10.78,4.29-14.22,2.9-3.36,6.9-5.07,12.13-5.07s9.18,1.71,12.05,5.12c2.87,3.44,4.27,8.14,4.27,14.17,0,6.36-1.4,11.22-4.27,14.66Z"/>
      <path class="cls-1" d="M178.1,52.01c-.25.77-.56,1.89-.98,3.36-.35,1.51-.98,3.89-1.86,7.18-.63-2.35-1.16-4.41-1.65-6.16-.49-1.75-.91-3.19-1.3-4.38l-11.52-35.9h-12.22l20.66,55.9h11.87l20.56-55.9h-12.12l-11.45,35.9Z"/>
      <polygon class="cls-1" points="219.36 48.23 249.2 48.23 249.2 39.19 219.36 39.19 219.36 25.15 251.62 25.15 251.62 16.11 207.66 16.11 207.66 72.01 253.26 72.01 253.26 62.97 219.36 62.97 219.36 48.23"/>
      <rect class="cls-2" x="261.84" y="16.11" width="11.73" height="55.9"/>
      <path class="cls-1" d="M325.87,45.11c-.67-.63-1.47-1.23-2.38-1.79-.91-.56-1.93-1.09-3.12-1.61-1.12-.46-2.66-.95-4.62-1.47-1.93-.49-4.24-1.05-6.9-1.65-4.59-.98-7.6-1.79-9-2.42-1.47-.63-2.59-1.44-3.36-2.38-.74-.91-1.12-2.1-1.12-3.57,0-2.21.88-3.89,2.63-5.01,1.79-1.09,4.45-1.65,7.99-1.65s5.92.63,7.67,1.82c1.82,1.23,3.01,3.05,3.57,5.43l11.35-1.54c-.98-4.97-3.22-8.58-6.72-10.75-3.47-2.17-8.69-3.26-15.62-3.26s-12.75,1.37-16.57,4.03c-3.78,2.7-5.71,6.55-5.71,11.59,0,2.98.56,5.46,1.68,7.43,1.12,2,2.7,3.57,4.66,4.76.91.56,1.82,1.02,2.77,1.44.98.46,2.24.91,3.82,1.37,1.61.49,3.78,1.05,6.58,1.68,2.45.53,4.48.98,6.09,1.37,1.65.42,2.91.81,3.75,1.12,1.72.7,3.05,1.58,3.96,2.59.95,1.05,1.4,2.35,1.4,3.92,0,2.52-1.02,4.38-3.08,5.6-2.03,1.26-5.08,1.86-9.21,1.86s-6.97-.67-9.21-2c-2.24-1.33-3.71-3.47-4.48-6.44l-11.31,1.86c1.16,5.11,3.78,8.97,7.92,11.49,4.1,2.59,9.7,3.85,16.78,3.85,7.88,0,13.83-1.44,17.9-4.34,4.06-2.87,6.09-7.07,6.09-12.54,0-2.31-.35-4.38-1.09-6.16-.7-1.79-1.75-3.33-3.08-4.62Z"/>
      <polygon class="cls-1" points="372.91 48.23 402.75 48.23 402.75 39.19 372.91 39.19 372.91 25.15 405.17 25.15 405.17 16.11 361.21 16.11 361.21 72.01 406.81 72.01 406.81 62.97 372.91 62.97 372.91 48.23"/>
      <path class="cls-1" d="M446.35,48.93c-.28.98-.56,1.96-.84,2.94-.28,1.05-.56,2.03-.84,3.01-.25.98-.53,2-.81,3.01-.46-1.75-.91-3.5-1.4-5.29-.46-1.75-.91-3.5-1.4-5.25l-9.98-31.24h-15.69v55.9h10.4v-33.9c0-.98-.04-2.49-.1-4.52-.07-2.03-.21-4.55-.35-7.64l4.24,14.85,10.09,31.21h8.3l10.09-31.21c.46-1.4,1.05-3.33,1.75-5.81s1.51-5.5,2.42-9.04c-.11,2.73-.21,5.22-.28,7.53-.07,2.35-.11,3.89-.11,4.62v33.9h10.4V16.11h-15.62l-10.26,32.82Z"/>
      <polygon class="cls-1" points="505.69 72.01 517.38 72.01 517.38 51.49 546 51.49 546 42.45 517.38 42.45 517.38 25.15 546.91 25.15 546.91 16.11 505.69 16.11 505.69 72.01"/>
      <path class="cls-1" d="M581.63,16.11h-13.81l-20.43,55.9h11.74l4.94-14.27h21.3l4.96,14.27h11.58l-20.3-55.9ZM566.69,48.94l5.89-17.27c.21-.59.57-1.65,1.01-3.15.49-1.47.85-2.74,1.14-3.83.34,1.11.65,2.2.98,3.34.34,1.11.65,2.2,1.01,3.28l6.05,17.63h-16.08Z"/>
      <path class="cls-1" d="M640.46,48.93c-.28.98-.6,1.96-.88,2.94-.25,1.05-.53,2.03-.81,3.01-.25.98-.53,2-.84,3.01-.42-1.75-.88-3.5-1.37-5.29-.49-1.75-.95-3.5-1.4-5.25l-9.98-31.24h-15.69v55.9h10.4v-33.9c0-.98-.03-2.49-.1-4.52-.07-2.03-.21-4.55-.39-7.64l4.27,14.85,10.05,31.21h8.34l10.09-31.21c.46-1.4,1.02-3.33,1.72-5.81.7-2.49,1.54-5.5,2.45-9.04-.14,2.73-.25,5.22-.32,7.53-.03,2.35-.07,3.89-.07,4.62v33.9h10.37V16.11h-15.59l-10.26,32.82Z"/>
      <rect class="cls-2" x="677.52" y="29.07" width="11.14" height="42.94"/>
      <polygon class="cls-1" points="676.29 23.85 676.29 25.08 683.02 25.08 696.5 14.11 696.5 12.4 686.27 12.4 676.29 23.85"/>
      <polygon class="cls-1" points="711.49 16.11 699.76 16.11 699.76 72.01 741.47 72.01 741.47 62.97 711.49 62.97 711.49 16.11"/>
      <rect class="cls-2" x="749.39" y="16.11" width="11.73" height="55.9"/>
      <path class="cls-1" d="M822.44,70.22l-19.68-54.11h-13.81l-2.12,5.89-18.25,50h11.69l4.94-14.27h21.33l4.94,14.27h11.61l-.65-1.78ZM787.85,48.94l5.87-17.27c.23-.59.57-1.65,1.03-3.15.49-1.47.88-2.74,1.11-3.83.36,1.11.7,2.2.98,3.34.36,1.11.7,2.2,1.06,3.28l.1.28,5.92,17.35h-16.08Z"/>
    </g>
  </g>
</svg>