<?xml version="1.0" encoding="UTF-8"?>
<svg id="Camada_2" xmlns="http://www.w3.org/2000/svg" viewBox="0 0 408.08 479.53">
  <defs>
    <style>
      .cls-1 {
        fill: #fff;
        fill-rule: evenodd;
      }
    </style>
  </defs>
  <g id="Camada_1-2" data-name="Camada_1">
    <g>
      <path class="cls-1" d="M214.56,113.89l1.07-1.36-1.71-1.29.72-1.34-.39-2.81-3.44-.43-.95-1.63c-1.22.02-2.43.03-3.66.06l-2.64,1.69-1.71,1.36-1.71-.64.36-2,3.16-1.18,3.82-1.02,1.44-1.65-2.56-.12-2.72-1.24-3.44-.9-2.32-1.89-2.57-1.87-1.18-1.71,1.33-.33.27-1.24-2.55-2.91-2.95-3.18-4.2-5.49-1.45-2.48-2.19,3.26c.11.92.2,1.86.3,2.81l-2.65,1.08-1.61,1.97-2.65-.12-.72-1.82-1.83-1.35-2.55.6.59-3.12c-.07-1.39-.14-2.76-.2-4.11l-.25-2.15-3.01-.15-2.36-1.56-2.15-2.26-3.67-2.4-1.33,1.11-3.15-.15-1.26-.85c-1.17,0-2.34-.02-3.53-.03l-1.56,1.54,1.11,2.26-.78,2.98.24,2.04,1,2.8c-.65,0-1.27-.02-1.92-.02l-.09,2.66-1.4,1.49,1.62,1.23,2.44,1.98.54,3.53c-.06,1.36-.15,2.7-.22,4.08l-2.15,2.82-2.89,2.2-3.86.44,1.89,3.58c-.12,1.51-.24,3.05-.35,4.58l.92,2.68-.78,2.16-1.97,2.68-3.96.44-1.92-3.89-2.35-3.34c.11-.94.22-1.87.32-2.81l-.33-3.91.84-3.22-4.59-.69-3.42-.22-1.62-1.14-4.07-1.2-1.22-1.92-3.2-2.1-3.18-2.26-5.08,1.11-.6-2.01-.61-4.6-1.91-1.28-.9-1.83,2.3-5.39,3.51-3.94,3.27-3.44,3.12-1.17,2.64-1.73-.24-1.93-2.94-.88-3.12-1.44,3.94.79,3.13,1.03,1.68-.36.99-1.99,2.52,1.12,1.79-.37.57-1.57,1.25-.64,1.16-2.09-1.91-.28-2.43-.31-.53-1.18-2.36-1.33,1.85.16,2.74.96,1.8.82,2.29-.74,1.88-1.85-1.03-1.54c.67.02,1.33.02,2.02.04l.85,1.4-1.4,1.49-1.65,2.8c-.3,1.16-.61,2.35-.9,3.54l-2.37.77.19,1.61,2.29.18c-.11.49-.23,1-.07,1.55.86.08,2.06-.03,2.89-.29l1.25-1.87,2.95.18,1.54.29,1.51.83c.78,0,1.56,0,2.36.02l.55-2-2.28-.58-.64-2.53-2.72-.28-1.73-1.98-1.86-.55c.09-.47.22-.96.33-1.42l1.76.42,1.02-1,.02-1.14c.73.02,1.44.03,2.17.03l1.13-1.61,2.32-1.57.9-1.34-.78-1.46-.47-2.39,1.84-.33.87-1.73-.96-1.73-1.59-.93-1.9-1.37c.83.02,1.69.02,2.5.03l.52-.85,1.79.23,1.28,1,2.09-.1,1.94-.42-1.3-1.65,1.11-.33,1.39,1.9,1.85.21.61,1.81,1.39.35.75,1.36,1.51.7.77,1.74,1.81.71,1.51,1.81.35,2.18-2.32,2.33-2.04,2.38,1.03,2.3-3.64.51-1.88-.53c-.68,0-1.34,0-2.02,0l-2.7,1.91c-.07.69-.14,1.4-.22,2.09l3.03.57,2.48-.13.67-1.18,1.15-.65,1.58.39,2.93.92,2.89,2.96.64,1.61,1.86,2.06h2.6l2.93,2.77,4.15.12,2.79,1.24.11-1.68-4.67-3.44-1.92-1.48-1.01-1.62,2.93,1.47,5.05,2.57,2.71,1.5c-.11-.83-.22-1.65-.33-2.46l1.1-2.19-2.49-1.33-.95-3.31-3.21-1.16-4.02-4.09,1.06-1.13,1.07-1,5.19,3.75,2.08,2.43,2.14.38.09-2.84,2.31-1.05.13-1.13c.54,0,1.09-.02,1.65-.02l.4-1.27-.56-1.85c-1.05,0-2.13.02-3.19.03-.08-.32-.14-.65-.21-.97l-2.24-1.57-1.38-.23-2.16-.93c-.51,0-1.04.01-1.55.01l-.64-1.32-.7-1.16-2.57.02-1.09-.11c-.06-.66-.13-1.32-.21-1.97h1.79l.81-.9-2.45-.68.21-.79,1.08-.22-1.46-1.3-1.85-.55.57-1.21-1.9-.84-2.02.1-.34-.95-1.61-.1-.67-.23,1.29-.96-1.76-.61-2.24.61-1.4-1.65-.13-.91-1.31-.1v-1.1s-1.99-.81-1.99-.81c-.89,0-1.77,0-2.66,0l-.48.89-1.42.18-1.23-.31-.64,1.08-1.34.1.26-1.41,1.04-1.25-.8-1.75-.16-1.49c-.71-.02-1.46-.02-2.17-.03l-1.4,1.09-1.52.07-1.32.75-.84,1.53.41,1.69-1.07,1.08.7,2.17-1.24.18-.93-1.86.38-2.41.48-1.57,1.7-1.6,1.97-1.27c-.66,0-1.33-.02-2-.02l-2.25.23-2.83,1.84-2.54,2.67-1.73,3.53,1.82.46,1.38.13.1,1.39-1.52-.34-1.92.48.75,1.75c.68,0,1.38.02,2.06.02l1.18-.4,1.03,1.1,2.36,1.04-1.8.54-.59,1.56.88,1.15-2.83,3.11-1.65,2.23-2.01,1.77-1.16-.76-.17-2.77,1.62-1.6-1.59-2.59-2.74,1.9-1.24-3.57-.74-.47,1.01-1.76.58-1.95-1.04-.25.74-1.57-.84-1.79-2.05-.16-.94,1.01-.98.06-1.97,1.64-.32,1.39-.91,1.07.8,1.9,1.11,1.3-1.45,1.67-1.77-.54-.45,1.97,1.84-.06,2.6-1.34c-.33.7-.68,1.38-.98,2.09l-4.5,2-1.2,3.12-1.44-1.76,1.71-2.1c-.48-.02-.94-.03-1.39-.06l.95-1.98c.42.03.85.04,1.26.06l1.15-2.86-1.97-1.77-1.84,1.97-2.12.85,1.46,2.28-2.07,1.22-1.4,1.64-5.43.03-1.77-1.38-1.67-.43-1.18-1.83-2.54,1.17-3.59,1.28-.83,2.05-2.59,3.12,1.08-3.8-1.41-1.54-3.24.55-5.15-1.02.83-1.05,2.76-.82-.98-2.09-1.79.02-2.7-2.19.4-1.5-1.6-.47-1.24.02-1.85,1.15-1.44.26,2.09-2.78-3.46,2.3-.86-.43,2.64-3.16-.61-.64-2.9,1.95-2.43,1.2-1.68.19-2.84.8-3.41,1.24,4.03-2.03,2.19-.5,1.82-.55,1.76-1.01-.27-.26-2.88.77-3.62,1.2-1.15-.02c-.31-.03-.63-.07-.94-.1l-4.46,1.71-1.31-.54,1.46-2.19-1.98-.51.77-1.16-.47-.55-2.15.41.81-1.16c-.41-.06-.8-.14-1.16-.2l.1-1.04c-.33-.07-.68-.14-1-.21l-.56-.12c-16.39,9.8-31.59,21.61-45.26,35.06l1.91-.49-.39,1.2-3.16,1.34-2.22,1.81c-.34.35-.66.7-.99,1.04l-1.57,1.82,4.5-2.23,2.19-.4c.8-1.12,1.96-2.63,3.14-3.31l1.26.38-.71,2.27-.15,1.92.77,1.08,1.94-.49.31,1.14c.34.06.72.1,1.1.16l-.45,2.02.43,1.96c.04.9.1,2.11.13,3.03.43-.14.99-.31,1.41-.45l.19,1.49-.7,2.17,1.29,1.1-1.76,1.92.99,1.57-1.61,1.79.76.9,1.1.45-1.34,2.18-.44,2.45-1.37,2.71-.95,2.62,1.61.5-1.23,3.11.37,3.12-.63,2.2,1.2,1.82,1.53,1.37,1.4.98-.46,1.73,1.29,2.37.92,2.02-.84,4.19c-.48,1.09-.92,2.2-1.37,3.3l-.47-2.21-.36-2.88.39-1.73-1.09-1.85-.97-.79,1.1-2.72c-.53-.03-1-.08-1.48-.12l-.57-1.47-.74-.76-.85-.59-1.45.22-.05,2.29.76,1.46.55,2,1.68,3.32-.39,3.36-.61,4.3-1.47,3.34-2.04,4.6c-.67,1.74-1.31,3.48-1.94,5.23l-1.57,1.15c-.41,1.16-.82,2.32-1.23,3.5l.14,3.77-1.61,3.46-.5,2.83.28,2.53-1.17,3.58.63,3.14,1.35,2.62-.06,5.27,1.27,2.26-.2,2.75,1.01,3.25c.85.06,1.68.11,2.53.18l1.45,2.29,2.55,1.96,1.56,2.91.03,3.4.5,3.44.51,5.68,1.5,2.54,1.96,2.95.38,2.07-2.07,1.7.98,2.32,2.13,2.36,2.77,2.65,1.53,2.77-.5,2.23.5,1.9,2.31,1.37,2.15,2.62,1.51,2.15v2.49s1.38-.74,1.38-.74l.51-2.7-.82-3.14-2.05-1.36-.11-2.7-2.27-2.38-.68-3.54-.62-3.32-1.81-2.57-.29-3.27-1.89-1.13-.76-4.11-1.84-3.53.36-4.44,1.86-.07,2.44,1.53,1.2,2.5-.35,3.81,2.23,5.2,2.61,4.22,2.48,3.01,1.72,2.97.23,3.3,2.83,2.19,1.95,3.22,1.51,3.36,3.34,4.74,1.21,4.04,1.83,1.96-1.95,1.39-.6,2.47,3.89,3.96,3.27,3.31,4.06,1.64,4.27,3.13,5.02,2.72,5.63,3.35,4.61,1.63,2.95-.11.92-1.66,3.35-.29,3.74,2.18,4.15,3.68,2.33,3c1.14.03,2.27.06,3.41.09l1.34.02,1.94.88,2.13,3.17,4.23,1.55.17-2.08,2.34,1.29q6.99,9.99,6.42,12.05l1.37,1.66,1.74-.79,2.36,1.25q4.72,4.52,6.89,4.37l5.94,3.07,3.18,1.44-.23-3.19,1.51-2.02,5.53.46.63,2.02,1.8-.18.96-2.62-2-2.45c-1.91-.02-3.83-.03-5.74-.06l-3.77-.25-5.49-.47-2.59-1.86-3.58-3.92.15-3.07c-.02-1.38-.04-2.76-.04-4.12l1.13-5.19c-.01-1.18-.01-2.36-.01-3.55l-1.81-2.77-3.53-1.96-5.27.33-3.69-.91-4.09,1.61-2.7-1.93,2.51-2.06v-1.7c0-.71,0-1.4.02-2.1l.97-2.32,1.38-3.75c0-1.41.04-2.82.06-4.22l2.35-1.62.42-3.16-1.71-1.26-5.79.3-3.63.52-1.6,2.91-1.62,4.37-1.74,3.96-3.04.34-4.36,1.16-4.5.51-2.04-3.03-3.67-2.2-1.26-3.41-2.47-4.48-1.22-7.54-.31-5.41,2.04-4.09,1.17-4.7-1.49-4.95,3.59-4.58,2.73-.12,2.89-2.33,2.97-2.77,3.8.73,2.68,1.08,2.29-.96,1.71,2.68c1.13.01,2.25.05,3.36.08l2.63-.15-.44-2.02,1.1-3.23,4.15-.09,2.86-.35,5.27.69,1.95,2.86c.57.02,1.14.03,1.73.05l1.21-1.61,1.54-.38,2.39,2.47,2.21,3.06c-.04,1.17-.08,2.32-.09,3.48l1.25,2.04.54,2.27,1.73,1.67.91,2.45,2.12,1.28.14,2.65,1.98.65,1.22-1.82,1-2.87-1.09-3.5-1.06-5.31-2.39-4.69c.05-2.03.11-4.04.43-7.05.36-.96.85-2.24,1.25-3.18l2.27-4.38,3.28-1.34,3.94-3.35,3.7-2.52,3.51-1.36.61-2.52,2.69-1.56-2.17-4.29-1.67-1.95.8-2.31-1.44-2.12,2.65-1.33,2.19,3.09,1.37-3.07,1.56-2.67,1.7-1.7,1.72-5.68c1.67,0,3.33,0,5,.02l3.14-1.86,3.7-.37-.96-2.26-.24-4.62,2.5-3.5h2.88l.88-2.02,3.78.16,3.35-2,2-2.74q5.98-.18,8.81.79c-.36.35-.81.8-1.15,1.15-1.55.02-3.1.03-4.75.1-.76.61-1.79,1.41-2.54,2.01,0,.87.13,2.02.36,2.87l2.04.9,2.09-1.85,1.55-1.12,3-.94,3.14-1.67,3.17-.76,2.25-3.1,2.25-2.17.07-2.49-3.25.92-1.96,3.78-3.9.22-3.32-1.57-3.55-2.66-2.07-4.6,2.78-2.29-.46-3.66-4.28-.31-4.56,1.4-5.04,3.01-4.9,4.94-4,2.85,1.57-2.68,2.39-2.83,1.54-1.4-3.99-1.05h5l1.12-2.47,2.68-2.24,3.21-.19,1.21-2.77,2.63-1.02c1.41,0,2.81-.02,4.23-.03l7.58-.25,3.95.65,3-.21,2.74-2.28,2.22-3.07,4.76-.59,2.27-1.08h0ZM99.85,25.73l-3.91,1.16c-4.86,2.14-5.98,2.91-7.68,4.06l-2.07.92c-.46-.03-.93-.06-1.37-.1l-2.88,1.34,2.07-2.71-.84-1.16,6.27-3.17,3.87-2.4,2.13-1.6c.45-.27.89-.56,1.35-.84l2.24-.13,1.19.31.22.75.39.7,2.08-.62.69.23-.2,1.51-1.34,1.19-2.19.54h0ZM99.05,43.67l-1.69.26-2.14.86-1.45-.55,3.48-1.38,2.99-.69-1.19,1.5h0ZM110.48,39.38l-1.74.28-1.06.07.4,1.24-1.61,1.48-1.72.15-1.65-.18-1.33-1.7-1.14.18-.09-.8-1.39.62-2.45,1.05-2.02.48-2.3.96h-2.27c-.79-.03-1.54-.08-2.31-.12l-.38-.98,1.02-2.17c-.56-.04-1.12-.08-1.69-.1l-1.87-.23,1.1-2.26,2.82-.95c.83.06,1.63.09,2.46.15l2.64.26c.94-.64,1.04-.81,1.19-.98-.21-.3-.42-.56-.61-.86-.54-.05-1.07-.09-1.6-.13l-2.01.1c-.55-.02-1.1-.06-1.63-.1l-.59-1.03,1.49-.79,1.66-.33,1.91-.42.15-.96-1.55.12-1.61.42.37-.82c-.27-.02-.54-.05-.79-.06l.87-.79,2.3-.9,1.44-1.36,1.97-.8,1.49-.3,1.35-.43,1.87-.85c.4.02.78.04,1.16.06l.19.31-1.35,1.31-.95.64.59.25,1.33-1.04,1.11-.05.5.54.71.14-1.42,1.04-1.12.86,1.19-.14.88-.78c.39.04.81.05,1.2.07l.47-.89.86-1.05.92.17-.53,1.55-.6,1-.98,1.17-.07.72.51.14,1.1-.69.82-1.6.86-1.17c.53-.53,1.07-1.06,1.61-1.6.45.03.86.03,1.33.06l.72.91-.45,1.49-1.8,2.26.23,1.16-1.66,1.73v1.84l1.92,1.29.65,1.13-1.02.97h0ZM118.18,13.7l1.85-.89-.35-.4-1.72.66c-.34-.02-.68-.05-1.01-.07l-.52-.11c-2.04.75-3.97,1.69-5.98,2.47-.27-.02-.56-.04-.82-.06l-1.7.44-1.27.93.03.6,1.69-.72-.45.64,1.32-.42,1.09-.6.75-.03,1.72-.88,1.51-.55-1.18.99.98-.27,1.53-.39,2.52-1.34h0ZM108.06,18.43l-.61-.31,2.01-.9,1.57-.32-2.97,1.53h0ZM117.72,14.86l.84-.59.05.14c.1,0,.37.01,1.07-.08l-1.12.73-.84-.2h0ZM120.46,19.82l-1.56.88c-.48-.02-.99-.04-1.49-.06-.47-.02-.95-.05-1.44-.07l-1.29.11-2.21.96-2.48.7c-.49-.03-1.02-.05-1.52-.09l-.14-.48.88-.76,1.41-.47c.38.02.75.05,1.11.07.86,0,1.41-.25,1.82-.45-.33-.02-.66-.03-.98-.05l-1.07-.41-1.41.35-1.18.1-.58-.39-1.13-.15,1.37-.99,1.9-.84,1.73-.73,2.18-1.04,1.66-.38.25.18-.1.56c.25.02.48.03.72.04l.18.51-1.03,1.29-.13.67c.38.02.76.05,1.12.06.79.02.96.02,1.61-.67l-.63-.23q1.71-1.07,1.93-1.81l.79-.59.89-.2,1.06-.5c.24,0,.5.02.75.04l-.91.9c-.34.26-.68.51-1.01.76l-.38,1.05.32.44.98-.71c.2.02.41.02.61.03l-.27.64-2.34,1.69h0ZM122.29,12.06l.55.1,1.42-.87.11-.42-.53.05-1.04.65-.5.48h0ZM126.61,12.01l-.55.05-.5.62-1.11.55-1.14.02-.95.25-.25-.17,1.58-1.26,1.49-.48,1.13-.22c.37.02.72.03,1.08.06l.51.02-1.28.58h0ZM129.48,10.63c.92-.51.96-.6.96-.66-.02-.06-.08-.11-.06-.4l-.88.02-1.06.21-1.95.71c.26,0,.49.02.76.02.32.03.64.05.99.06.4.02.81.05,1.21.06l.04-.04h0ZM111.97,25.63l-.73-.23,1.14-.59.9-.06-1.31.89h0ZM114.84,27.12l-1.48.72c.39-1.3.29-1.42.26-1.45-.05-.06-.21-.24-.17-1.08.42-.23.97-.55,1.38-.78l1.64.55-.04.65-1.6,1.39h0ZM122.55,32.44l-1.96.04c-.39.28-1.66,1.16-2,1.18-.06.02-1.09-.66-1.15-1.02l.16-.35c.05-.1.24-.59.43-1.44-.29-.14-.7-.32-.99-.45l-.33-.71-.42-.92,1.06-1.06.95-.05c.08,1.44.09,1.77,2.7-.59l-.02-1.16.66-1.01,1.37-.31.59.49h.48s1-.97,1-.97l1.18-.06-.09.75q.34,1.76-2.33,2.76l.51.8.2,1.2-.22,1.29-1.78,1.59h0ZM134.78,26.64l-1.57,1.5-1.43.83-1.36-.43-.98,1.37-1.55.85-1.76.24q.19-.31,1.14-2.55c.54-.8,1.07-1.57,1.61-2.36,1.23-.36,1.31-.49,2.06-1.69q.24-.34,2.33-.4l.97.57c.43,0,.86.02,1.3.04.17.03.41.09.91.72-.5.39-1.21.89-1.68,1.31h0ZM157.04,49.81l-2.04.47-1.87-.26-.82-1.56c1-1.33,1.63-1.89,1.71-1.94q.17-.06,3.35-.18l.76,1.79-1.09,1.69h0ZM128.12,14.38l1.02-.32.96-1.23.1-.65c-.91.55-1.54,1-2.08,2.2h0ZM123.06,19.99c.42-.35.07-.61-.12-.63l-.27.11c-.26.27-.57.31-.78.31l-.74.91c.26-.01.65.04.91-.05,0,0,.65-.37,1-.67h0ZM133.07,17.59c.27-.24.46-.75.47-.78,0-.09-.1-.67-.37-.7-.11-.02-.53.14-1.17.51l-.12-.94c-.31,0-.6-.02-.89-.03-.15.82-.57,3-1.55,2.26l.38-1.5c-.28-.02-.54-.03-.82-.04l-.97.91-.84,1.04-.13-.9,1.22-1.56-.57-.72-1.62,1.25c-.16.26-.5.55-.53.85-.01,1.05-.09,1.24-.17,1.42l.72.63,1.07-.31.76-.14-.22.76-.97,1.52,1.05-.41,1.16-.04.92-.14.86-.92c.39-.43.78-.87,1.17-1.32.39-.26.78-.42,1.15-.72h0ZM132.93,13.02l.97-.25.14-.63-.98.03-.84.75.71.1h0ZM135.95,12.7l-.58-.3.41-1.04-.92-.18-.37-.07-.94.3.29-.47-.59.03.78-.7c.24.02.48.02.73.02l.98-.74v-.32s-.51.03-.51.03l.68-.59,1.75-.31.64-.09-.15.49-.27.49.68-.1-.12.44.16.39-.74.76-.15.54-.81.81-.94.59h0ZM142.46,7.66l.86-.26.95-.78-.13-.23h-.42c-.35.2-.7.42-1.05.64l.55.02-.76.6h0ZM141.16,11.89l.73-.52.02-.79-.95-.17.05-.78-.92.43-.49.69-1.06,1.19.66.23.97-.1,1-.18h0ZM141.47,13.37c.21-.23.42-.46.63-.69-.38,0-.74-.02-1.12-.03-.34-.02-.67-.02-1.01-.03l-1.17.6-.56.57,1.35-.03.88-.2,1.01-.18h0ZM137.4,17.44l1.33-.83.5-.68-.11-.86c-.35,0-.72,0-1.05-.02l-.28-.38-1.2.18-1.02.96.34.8.39.72,1.1.11h0ZM134.32,22.14l-1.14.41-.57-.54c-.35-.02-.7-.02-1.03-.04l-.07-1.13.93-.83,1.83-.63.97-.14-.19.92.44.71-1.16,1.26h0ZM127.67,22.92c.33,0,.64,0,.98.03l.22-.8-1.19.77h0ZM153.35,21.3c-.88.29-.9.54-.96.88q-.1.76-3.82.96l-.5-.7-.73.61-1.23.33c-.81,0-1.61-.02-2.4-.03q-1.86.19-2.75-1.26c-.42.18-.93.45-1.36.64l-1.98.13-.69-1.08-.07-1.03,1.49-1.32c.32-1.56.35-1.61,1.17-3.12.35-.06.81-.13,1.15-.19.48.02.97.02,1.45.03l-.3,1.09-.66,1.2.48,1.24,1.56-.05,1.66.44,1.42-.13,2.32-.55,1.61-.55,1.7.51,1.6.59-.14,1.35-.02.02h0ZM143.32,14.58l-1.37-.32,1.28-1,1.42-.25c.02.12.02.27-.07,1.1-.4.14-.85.45-1.26.47h0ZM152.01,9.16c-.57.46-.75.53-.78.54-.21.06-.36-.13-.54-.18-.2-.05-.29.02-.34.05-.24.14-.4.38-.62.55l-.44-.39-.61.68c-.34.56-.46.61-.58.64h-.41l-.76.52-.73-.34-1.21.16-1.04-.42.44-.91-.16-.59.9-.35.74.02c.08-.02.25-.03.98-.27l.27-.6-.83.03-.84.22-.72.11-.09-.5c.3-.23.61-.49.92-.72l-.42-.08c.28-.22.58-.43.89-.64l.78-.31.82-.67.51-.07.45.05c.59-.35.59-.41.59-.49-.02-.3.04-.31.59-.48l.58.03c.12.03.39.1.92-.43l-.04-.03-.43-.03c.14-.07.46-.25,1.14-.37l.22.03.02.07c-.04.1-.08.16-.49.94-.22.22-.25.31-.25.42-.05.32.49.19.44.53-.03.31-.66.49-.38.81.09-.02.19-.04.67-.35l.13.36-.39.43-.23.57q.07.06.91.59c-.21.29-.39.58-.59.88h0ZM168.02,2.38c.05.06.09.1.31.49l-.49.11c-.17.26-.48.27-.7.44-.25.03-.45.03-.66.03h-.58l-.45.18.02.4q.76-.06,1.1.14c.31-.07.65-.42.68-.47l.51.43-.13.28-.54.04c-.21.74-.96,1.01-1.4,1.54l-.57.26-.22.47h-1.43l.52.28.39.79-.78.34-.68.04-.32-.51-.83.06.7.75q-1.07.82-2.18.59l-.22-.47h-.66q-.75.51-.77.65c-.24.12-.56.25-.8.38v.6l.59-.37.69-.42c.51-.03.88.38,1.38.42.43.56.36.83.33.96-.15.06-.15.06-.4,0-.42,0-.69,0-.96,0l-.14.03c.02.55.77,1.04.26,1.63q-.14.19-1.66.05h-.64l.1.92-.52.99-1.05.22.02,1.11,1.09-.51.06.84q-.42.69-2.66,1.69c-.25,0-.51,0-.78,0-.51.24-.99.15-1.35.06l-.04-.13q.36-.61.4-.81c-.33,0-.66-.02-.99-.02q-1.73.11-1.98-.24c-.5.07-.76.63-1.32.64-.68,0-1.16-.66-1.86-.57-.52.08-1.12.42-1.59.59l-.77-.56-.12-1.15,1-.81q1.46-.29,2.05-2.1c1.24-.07,1.31-.05,1.39-.02.27.12.47.52.49.56.19.4.85.56,1.23.78l1.04-.06,1.23-.76.73-.89c-1.86,1.24-2,1.2-3,.99l.14-.75,1.23-.59-1.02.11h-1.11s-.63-.23-.63-.23l.31-.52c.15-.24.33-.48.49-.71l1.01-.44.83-.18,1.03-.11.67.22.67,1.09c.13-.26.23-.52.36-.77.26-.39.81-.31,1.1-.66-.34-.05-.82-.1-1.17-.15l-.52-.45-.51-.95-.12-.7-.06-.5.55-.59.99.18q.86.1,1.62,1.51c.21.03.47.06.67.08l.53-.1-1.01-.23.09-.57-.17-.32-.42-.12.31-.53.49-.1.43.02c.45-.09.88-.3,1.34-.37l.47-.18.64-.06c.24,0,.5,0,.75,0l.32-.39-.3-.05-.3-.1-.72.05c.44-.3.88-.6,1.34-.9l.36-.04-.46-.08c-.64.34-.68.33-.98.31l-.27.31-.52.44-.73.48c-.29,0-.58-.02-.87-.02l-.59-.1q-.88.66-2.61.64l.45-.62.79-.59.76-.41-.67.07-.51.34-.86.58c-.4-.05-.71-.37-1.13-.42-.01-.21-.01-.21.25-.51l-.3-.18.73-.54-.07-.1-.22-.1.56-.38.43.06.52-.33h.5q.25-.06,1.06-.46h.2s.13.2.13.2l.35.02c.36-.21.61-.52.93-.77l.29-.07h.12s.01.27.01.27l.4-.07c-.02.21-.18.36-.14.57l.11.06c.22,0,.39,0,.57.02l.12.43q.2.04.42.02l.15-.5q-.4-.22-.48-.39l-.49-.1.57-.44q.93-.25.98-.23l.33.03.2-.28h.32l.2.39h.15c.12-.55.28-.67.36-.71l.44.11c.17.14.19.44.5.46q.05-.09.11-.37l.24-.09.28.33.13-.04c0-.17.01-.2-.04-.45.18.06.38.14.6.2q.2.23.29.27l.43-.05.16.31.31-.2h.38l.16-.15.67.35.38.37.4.06.2-.15.54.42h0ZM191.16,2.79c1.15.26,1.66.39,2.4.61l-.06.16q.48.2,2.32.76l.12.18c-.29-.04-.66-.1-.92-.15.38.18.93.36,1.32.48.27-.02.56-.04.82-.08l.79.23c2.27.75,4.35,1.98,6.59,2.86l.08.12q.4.34,1.82.88l-.4.03q3.64,1.57,3.75,1.73c.38.21,1.75.91,2.6,1.18-.21-.19-.54-.39-.81-.51.92-.38,3.06.58,3.07.58l-.15.2-.46-.13c.61.36,1.2.66,1.81.94.48,0,.56,0,.64-.02l.43-.19c.46.17.94.35,1.41.54.22.1.3.13.42.18.22.17.55.38.78.53,1.68.82,3.24,1.58,4.79,2.4l.09.17q-2.04-.89-3.64-1.84l-.28-.14q-.4-.19-1.44-.55c-.48.03-.57.04-.7.06l-.39.18.41.28c.25.24.35.28.45.34,2.14,1.09,4.56,1.49,6.74,2.45.84.45,1.4.75,1.93,1.05l-.42.06.08.22c1.89,1.2,4.11,1.76,6.05,2.84-.21.32-.31.33-.42.34l-.44-.14.44.54c-.51.28-.56.32-1.31.16.29.49.39.65,1.62.99l.2-.39c1.98.51,2.79,1.29,3.5,1.99-.26.07-.67.06-.92-.04-.35-.05-.43-.05-.5-.03l.03.46c-.37.17-.69.19-.98.22-.46-.34-.95-.66-1.44-1-.31.03-.63.06-.97.07l.24.29q1.51.52,1.71.65c.04.28.22.63.43.83.43.15.7.13.96.1l-.21-.39c.97-.46,1.63.1,2.95,1.17.22.17.41.3.57.42.65.49,1.31.99,1.98,1.5-.54.07-.62.08-.72.08q-.34-.03-1.92-.84l.13.47c4.94,1.97,10,5.54,10.05,5.58-.37.26-.83.27-1.21.52.17.23.41.56.61.79l-.44.27c-1.51-.67-2.5-2.2-4.17-2.62.16.25.35.63.4.93-.48.26-.58.32-1.26.33l-.06.02c-.04.42.28.71.6.99,1.16.98,2.32,1.38,3.76,1.32l.27-.03c.92.14,1.54.85,2.4,1.08.28.02.33.02.41.02l-.09-.59-.13-.43.44-.07c.4.33.67.55.92,1.65-.65.23-1.12.26-1.62.29-.17,1.04.91,1.69.88,2.7-.3.24-.32.24-.32.24l-.11.43c-.26.06-.57.25-.74.46-.27.02-.64.12-.87.24.02.72.44,1.42.06,2.16q-1.03.33-4.17-.6l-.4-.25-.13-.05-.34-.18h-.11s-.13-.06-.13-.06l-.14-.06c-.39-.04-.43-.02-.46-.02l.04.08q1.05,1.15,1.32,1.61l-.29.37.09.45c.16.22.3.38.43.54l-.41.39q.34.85.53,1.36l-.27.27c.07.27.18.65.28.92q-.38.8-.16,1.59l.3.38c-.34.43-.45.55-1.15.55l-.44.03c-.46.71-.17,1.59-.55,2.33q-.8-.08-1.42.06-.57-.75-1.47-2.1c-.45.02-.92.04-1.38.07.37.66.43.76,1.24,1.87-.83.04-1.67.08-2.52.11.25.59.67,1.09.85,1.7q-.37.5-1.69.76c.44,1.37,2.76,1.45,2.36,3.33.49.97.99,1.87,1.53,2.76l-.25.39h-.44q-.44.79.36,2.26c-.21.15-.57.27-.83.3-.5.16-.65.16-.81.18-.28.04-.66.18-.89.35l.1.44c.63,1.54,2.02,2.51,2.95,3.85,1.06,1.55.02,3.44.73,5.06.23.51.33.71.42.88l.23.45c-1.5,4.36-6.31-1.64-9.53-2.32l-.25.02c-.29.06-.62.17-.86.29-.44.2-.6.2-.78.2-1.83.16-16.45-11.41-14.77-13.53.28-.35.73-.55.92-.98-.23-.86-.52-1.56-.82-2.26-.27-.04-.66-.08-.96-.08-.38.49-.36,1.16-.8,1.61q-.69,0-2.65-3.96l.33-.3c.17-.02.35-.02.52-.02q-.17-.84-.61-1.18c-.44-.1-.59-.08-.74-.08h-.44l-.15.47c-2.23.96-3.9-3.04-3.92-3.09.18-.24.55-.48.85-.55-.56-1.8-2.59-1.67-3.63-2.85-.13-.26-.16-.37-.21-.45l-.21-.45.17-.41q.83-.26.97-.86c.31.03.7.12.99.21.08-.71-.27-1.48-.61-2.24l.41-.17.38.2c.29.02.43.02.59,0h.49c.05-.26.17-.59.33-.8l.49.06c.43,0,.81,0,1.19-.02-.24-.46-.47-.9-.72-1.35q-.39-.45-1.51-1.21c-.16-.23-.19-.29-.23-.38l.19-.45-.23-.39.2-.39-.12-.23c-.47-.59-.64-.64-1.23-.76-.64.02-.91.03-1.16.03q-1.1-.17-2.2-.67c-.53-.04-.78-.03-1.05-.02v.43c.28.06.66.12.92.13l.29.37c.47.02.94.1,1.39.1.54.5.79,1.03,1.06,1.55q-.88,0-1.4.07c-.16.24-.33.59-.4.87l-.57.12c-1.07-.71-2.49-.51-3.48-1.4-1.21-1.04-.04-1.68-.03-1.68l.47-.08.2-.39c-.59-.58-1.33-1.01-1.85-1.67,1.82-.93,3.35.66,5.06.54h.09l.77-.03.5.1c.31,0,.57,0,.8,0l-.11-.44c-.28-.35-.9-.91-2.35-1.52l-.07-.02h-.17c-1.71.02-2.48-3.07-4.3-1.85l.17.47c-.52.2-1.12.22-1.74.24l-.45-.1c-.53-.1-.67-.1-.78-.1-.83-.11-.89-.19-1.3-.63-.18-.34-.3-.6-.41-.88.21,0,.43,0,.65-.02-.09-.59-.54-1-.76-1.56l.34-.27c.2-.26.07-.53-.08-.79-.26,0-.55,0-.84,0-.14-.23-.2-.59-.17-.85-.17-.46-.34-.78-.51-1.11q-.8-.79-.92-1.1c-.15-.35-.16-.39-.18-.44l-.73-.51-.22-.13c-.24-.22-.52-.55-.75-.79q-.76-.77-.89-.84l-.2-.18-.26-.25-.28-.19c-.16-.16-.42-.35-.62-.48l-.12-.18-.51-.51-.25-.13-.23-.1-.23-.11h-.25l-.15-.05-.22-.17-.21-.15-.35-.31c-.22-.43-.41-.83-.6-1.2l-.59-.42c-.33-.08-.38-.08-.43-.08l-.5-.14-.63-.5h-.13l-.13.02-.62-.15c-.21-.12-.48-.25-.69-.31l-.15-.04h-.92l-.16-.02-.2-.08-.2-.16c-.21-.09-.48-.22-.7-.31h-.11l-.46-.04h-.37l-.18-.06c-.41-.29-.63-.42-.94-.12l-.05.16-.14.03h-.12l-.11.05-.12.09-.09.07-.04.16c-.29.03-.66-.02-.91-.1l-.18-.13h-.54l.08.31-.1.06-.17-.09-.14-.04-.14-.09c-.26-.09-.62-.15-.87-.14h-.42c.07.21.2.49.34.64l.1.16-.11.11h-.25l-.64-.14-.18-.15-.21-.09-.51-.23-.15-.08-.16-.07-.15-.09-.04-.16-.16-.15-.13-.16-.39-.14-.13-.17v-.15l.13-.12.2-.11c-.64-.35-1.34-.54-2-.8l-.17-.14-.34-.37.23-.35h.7l.12-.39h.19c.24.06.58.14.84.18h.16l.46-.18c.26-.06.27-.06.27-.06h.34l.15.06.13.09h.15l.17.08h.25l.41-.4.09-.08c0-.5-.05-.68-.11-.87h-.07c-.26-.02-.3-.02-.33-.02l-.42.13c-.28,0-.5,0-.7,0l-.15.07-.33.18h-.41c-.25,0-.6-.15-.81-.3l-.17-.05-.49-.27h-1.1c-.38-.48-.41-.54-1.15-.54q-.68-.9-.37-1.39h.53l.12-.07.05-.13.03-.14-.02-.13.04-.13.09-.06.14-.02.13-.07c.43-.06.89,0,1.31-.12.39-.17.58-.17.75-.17l.11-.07c.09-.3.09-.35.08-.41l.02-.18c.23-.09.56-.14.79-.09l.47.08h.49l.23-.13.57-.16h.08l.41-.09.04-.12.03-.48c-.11-.28-.2-.46-.27-.63l-.08-.11-.07-.11-.11-.11-.17-.43-.34-.04-.07.02-.44.11h-.27l-.1-.12-.12-.09c-.43-.1-.49-.1-.55-.1v-.36s0-.1,0-.1l.08-.38.07-.02h.06l.05-.07-.04-.14.06-.03.06-.07.06-.07.05-.08h.1l.08-.02.31-.02.04-.09.08-.28.41-.47-.03-.27c.25.02.55.03.81.04l.11.1.14.06c.32.06.46.06.6.06-.2-.26-.41-.51-.6-.76l-.11-.09-.1-.1-.14-.08-.29-.34.03-.04.07-.15.04-.02-.02-.06.04-.05v-.05l.21-.06.1.06.13.08.13.09.15.08.35.16.43.15h.06l.1.02.33.08.14.07.14.06.17.09.32.1.08.02.11.04h.26l-.07-.09-.36-.17-.1-.06-.38-.17-.11-.03h-.18l-.29-.11-.17-.11-.13-.08-.11-.09-.14-.08-.14-.06-.13-.05h-.05s-.13-.02-.13-.02l-.07-.02-.1-.08-.09-.08-.04-.08.03-.02.02-.02c.38,0,.4,0,.4,0l.05-.1v-.03s.05,0,.05,0l.29-.02.06.02.07-.08v-.06h.06v-.05s-.02-.03-.02-.03l-.06-.09-.05-.14v-.08l.31.08.15.06.16.07.15.06.39.23.14.07.16.09.24.11.16.06.13.1.1.07.08.09.26.27c.3.23.34.25.38.29l.62.14-.13-.1-.54-.46-.13-.08-.13-.08-.16-.1c-.23-.15-.55-.31-.8-.45-.42-.22-.5-.28-.56-.32h.17l.16.02.23.08.19.06.2.1.15.07c.24.05.24.05.27.05l.08.02.45.18.16.05.11.03.59.23.2.08.23.08.13.05.15.08.2.06.2.07.1.02.12.03h.12l-.2-.13-.59-.28-.16-.08-.55-.26-.23-.09-.15-.06-.54-.22-.13-.03h-.04c-.29-.1-.64-.24-.9-.35.26-.02.64,0,.9.02h.19l.14.04.09.02.12.03h.06l.45.16.19.06.24.08.11.03.21.07.09.02c.28.07.64.17.93.23l.35.1.08.02.15.04.44.11h.05l.16.03.29.06-.55-.26-.19-.09-.2-.07-.26-.1-.65-.23-.53-.16-.17-.07h-.1s-.1,0-.1,0l-.17-.02-.15-.03-.07-.02c-.22-.06-.53-.14-.75-.22l-.2-.07-.54-.22-.14-.06-.1-.06h.29s.08.04.08.04l.18.05h.04l.17.03.08.03h.11s.03,0,.03,0l.2.07.21.06.17.05c-.34-.14-.69-.27-1.05-.39l-.21-.07-.24-.06c-.31-.07-.32-.07-.33-.07l-.13-.02-.21-.07-.42-.14-.18-.14-.03-.03.46-.03c.23.04.24.04.26.03l-.39-.21q.45.03,1.43.26h.33l.46.1q-.32-.17-1.88-.59l-.03-.12.2.02c-.23-.06-.53-.16-.74-.23.32-.02.72-.02,1.02-.02.2.02.23.02.23.02.28,0,.66.02.94.06h.18c.59.08.81.12,1.88.3-.35.06-.8.07-1.28.1.27.07.66.15.93.22h-.23l.55.14.48-.03-.43-.11.11-.04h.17s.07,0,.07,0l.3-.02c.3.03.68.09.98.14.2,0,.29,0,.38,0-.39-.1-.38-.1-.38-.1,1.19.14,2.82.39,2.85.39h.02l.1-.03c.45.08.91.17,1.38.26l.2.16c.26.09.63.21.9.3-.35.07-.67.09-.98.11l.45.15c-.24.1-.65.12-1.09.15.33.17.71.4,2.26.87l-.09-.17h.03l-.07-.1h.05l-.37-.22c.5-.1.67-.12.86-.13.36-.11.89-.03,1.24.05l.1.19c.6.22,1.21.4,1.81.59l-.37-.24.45-.02c-.51-.18-.7-.25-2.9-.82l.44.06.22-.12c.59.11,2.09.4,3.28.87.62.18,1.05.3,1.48.42,1.37.39,2.62,1.08,4,1.41-.91-.42-1.83-.74-2.74-1.13l-.13-.09h.06v-.02h.03q-.44-.21-1.45-.54c.48,0,.92.11,1.39.17-.8-.54-1.8-.59-2.68-.92h.02l.02-.02.68.05c.88.14,1.77.13,2.65.33h0ZM198.21,124.83c-1.32,2.59-2.02,2.42-2.43,2.33-.35-.1-.51-.2-.84-.44-.39-.26-.67-.63-1.03-.92-.41-.32-.86-.57-1.28-.88l-.34-.27c-.37-.38-.56-.91-.98-1.24-.43-.32-.97-.42-1.41-.67.38-.21.9-.48,1.29-.69.33.06.67-.06,1-.07.36,0,.64.12,1.09.72.15.18.59.76,1.82,1.25.36.15.45.15,1.16.1.13-.02.5-.04.76.03.44.17.8.47,1.25.66l-.06.09h0ZM226.47,128.81q-.79,1.75-.17,3.66c1.02,3.15.3,3.49.03,3.61-.52.23-.54.28-.71.51-1.1-.48-1.88-.83-3.94-2.81-1.22-1.19-1.61-1.26-2.45-1.34-3.33.07-6.66.13-10.03.18-.08-.58-.49-1.07-.53-1.68-.08-.78,0-1.46.22-2.01.3-.76.79-1.35,1.45-2.12,2.43-2.82,3.94-5.7,3.95-5.73.07-.13.08-.21.08-.63-.01-.54.12-1.09.05-1.65-.07-.39-.49-.74-.23-1.2.23-.39,1.37-.77,1.51-.79.35.02.68.14,1.04.05.13.26.15.31.48.65.87.91.33,2.22.09,2.35-.29.17-.76,0-.97.44q-.24.48-.58,2.75c.52.18.94.55,1.49.67.9.2,1.85,0,2.75.3.43.12.64.37,1,.79.69.76,2.85,1.89,2.89,1.89q.51.27,2.12.31c.17.42.43.96.63,1.4l-.17.38h0ZM283.71,56.25c-.69-.68-1.37-1.35-2.04-2.03-.44-.31-.79-.71-1.29-.96q-1.21-.5-1.41-.41l-.23.02c-.7-.52-1.08-1.32-1.7-1.93-.46-.47-1-.83-1.49-1.27-.45.05-.9.1-1.36.14-.48.14-.32.48-.26.69.02,0,.32.87-.09,1.04l.17.42c-.78.12-1.5-.39-2.28-.32-1.16.1-1.15.63-1.13.98.02.39-.09.43-.33.5-.4.03-.81.07-1.22.11-.33-.34-.62-.67-.95-1-.31-.34-.62-.67-.95-.98-.43-.38-.95-.61-1.41-.95l-.42.3c.33.33.64.65.96.96q-1.31-.4-1.42-.39c-.35.03-1.53.18-1.61.71-.13.97,1.75,2.79,2.44,2.35l.08-.48c1.5-.34,2.99,1.16,4.17,2.35-.81-.14-2.29-.42-3.38.26.45.47,1.04,1.07,1.48,1.53l.49-.31c.45-.03.91-.06,1.37-.1l.4.24c.59.68,1.18,1.37,1.77,2.07l1.22,1.02c.23-.02.46-.03.69-.05q.98-.38,1.84-.44c.24,0,.44-.02.73-.06,1.2-.33,1.7.84,2.6,1.22,1.11.47,2.04.23,2.51.04l-.17-1.16q-.58-1.04-.65-1.37c-.08-.36-.07-.39.02-.55h.56c.13-.63-.74-1.24-.11-1.84q.2-.18,2.38-.36h0ZM143.37,249.24c-2.55-.21-3.95-2.23-4.23-2.62-.51-.84-.83-1.15-1.91-1.02-.8.1-3.91-1.09-3.91-1.1-.51-.23-.61-.3-.76-.98-.38-1.71-3.7-2.83-3.74-2.86-.96-.19-2.76-.23-2.93-.18-1.1.33-1.73,1.34-2.72,1.86-4.17,2.11-9.6-2.81-6.13-5.55q.41-.32,3.43-.14c1.3.03,2.39.05,3.52.06.66.06,1.24.72,1.99.33q1.39-.74,1.6-.75c1.27-.05,2.55-.05,3.82-.09,1.07.06,1.27.51,1.46,1.02q.28.68,2.11,1.69c1.54.92,3.3,1.44,4.73,2.55.95.74,1.39,1.96,2.57,2.45,1.74.7,3.52.08,5.27.11.7.02,1.23.02,1.77.02,2.11.33,5.36,3.61,6.42,5.28-4.16-.02-8.27-.05-12.39-.07h0ZM148.24,258.98q-1.05,1.31-1.41,1.47c-.54.26-1.07-.12-1.6-.02-.09-.23-.12-.32-.12-.69,0-.59,0-.81-.29-1.03,0-.02-1.44-1.04-2.19-.91-.88.15-.95.17-1.29-.1l-.43-.44c-.35-.5-.56-1.06-.86-1.54,1.56,0,3.12.02,4.7.03l.48.09c.52.22.9.67,1.42.86.46.18.99.02,1.41.34.58.47.19,1.15.42,1.68l-.23.25h0ZM191.65,257.13c-.48.26-.84.71-1.41.77-.55,0-1.1,0-1.65,0-.64,0-3.43-.37-4.07-.63-.69-.26-.94-.26-1.64.02-.38.16-3.32.77-6.2.69-.93-.03-1.81.4-2.74.4-.95,0-1.79-.47-2.74-.47-2.04,0-3.15,2.26-5.25,2.15-.69,0-1.2,0-1.75,0-.77-.19-2.63-2.26-3.25-2.94,0-1.69.01-3.38.01-5.06q2.23-.4,3.13-.41l5.8.27c1.38.09,2.16,1.4,3.45,1.66,1.04.21,1.49,1.42,2.59,1.45.23,0,2.82-.03,2.82-.03.71-.22.98-1.06,1.69-1.28h.83c.88.08,1.58.67,2.43.83.53,0,1.08,0,1.64,0,1.71-.04,1.88-.09,4.89-.77.1.79-.42,1.61,0,2.41.35.68,1.17.41,1.64.83l-.22.1h0ZM292.67,351.88q-.41,1.53-2.1,4l-6.02,7.22c-1.82,1.74-8.55,7.5-8.58,7.51-1.33,1.55-1.74,2.92-2.15,4.27-.18,1.12-.32,1.62-.49,2.1-.02.31-.07.71-.1,1.02-.21.95-.31,1.29-.42,1.63-.5,1.54-1.08,2.54-2.53,4.53-.53.77-.59.98-.66,1.2q-3.07,5.83-3.54,5.95-7.94,9.62-8.99,9.9c-.48.36-1,1-1.22,1.56-2.66.66-5.07.75-7.53.85q-3.09,2.12-3.49,2.3c-.99.02-1.97.06-2.96.08-9.74,5.67-9.64,7.7-9.52,9.86.2,3.88-10.65,11.9-11.43,11.94.29-.55.76-1.27,1.15-1.76q-.08-.02-9.22,8.33-3.28,3.02-11.25,1.64c-.72,0-1.44.02-2.16.04.06.3.11.69.17.99q1.6,1.12,2.29,1.99c-.26.94-.37,1.27-.46,1.56.67.11.83.11,1.01.1-.16.47-.3.94-.48,1.42l-.8.88c-1.74,1.61-5.73,4.39-5.76,4.39-1.6-.28-2.39-.28-3.21-.27-.6.19-1.4.38-2,.48-.48,0-.82,0-1.15,0-1.32.13-2.09.14-2.88.15-.1.32-.15.67-.25.98.12.61.12,1.42,0,2.04-.23.16-.57.4-.8.55-.22.67-.25.8-.28.94-1.07.83-2.05.83-3.02.83-.24-.17-.57-.41-.82-.58-1.19-.31-1.46-.31-1.74-.3-.09.42-.14.83-.22,1.23,0,.63.02,1.46.04,2.06.57.07,1.38-.1,1.86-.41.2-.04.23-.04.23-.04h.18c.36.51.34.64.31.77q-.84,1-2.71.86-.93,1.94-1.61,2.71c-.61,1.17-.78,1.85-.91,2.5-.84,0-1.66,0-2.48,0-.62.21-1.38.64-1.91,1.02-.24.42-.25.52-.28.64q.17.79,1.68,2.32c.32.06.72.14,1.01.18.76.29.7.5.64.71-1.79.92-3.2,2.38-4.83,3.53-.03.31-.08.72-.11,1.01-.61.13-1.17.15-1.77.15-.24.95-.28,1.25-.32,1.54.08.36.08.45.06.54.15.59.26,1.37.29,1.99l-.04.24c.15.59.3,1.39.39,2,.91.22.87.38.8.56.62.02,1.41.17,2,.31-.38.19-.88.47-1.19.77-1.25.07-1.98.07-2.68.09-.66-.21-.74-.21-.82-.21-.62-.12-1.39-.25-2-.35-.57-.47-.57-.53-.56-.61-.32-.03-.74-.07-1.03-.11-.87-1.04-2.15-1.6-2.82-2.82l.17-.3v-.19c-.31-.07-.69-.17-.99-.26-.08-.84-.29-.84-.53-.84l-.51-.27.65-.27c-.46-.36-.89-1.07-1.05-1.64-.02-.98-.04-1.04-.04-1.09-.2-.22-.48-.51-.69-.74-.26-.8-.26-.86-.26-.9q.89-.59,2.89-.76c-.09-.3-.22-.68-.32-.97-.29-.04-.69-.12-.97-.19.06-.3.14-.69.2-.99-.53-.33-1.36-.59-1.96-.65,0-.3,0-.73-.02-1.03.87-.66.86-.99.84-1.36.74.34,1.37.84,2.07,1.21-.08-.6-.34-1.36-.64-1.89-.82-.9-.84-1.25-.87-1.62.64-.03.64-.1.64-.16.13.81.13.96.17,1.07.3.35.78.83,1.21,1.06q.51-3.61.69-3.77c.11-.85.1-1.51.1-2.2.26-.19.59-.43.85-.6.3-.74.3-1.14.3-1.53h-1.73l-.27,3.49c-.45,0-.92,0-1.39,0-.25-.12-.62-.3-.88-.44q-.22-.79.46-2.86c.3-.07.73-.19,1.02-.28.01-.49-.11-1.2-.36-1.6-.13-.29-.28-.66-.42-.94,1.42-2.86,1.87-3.82.17-6.8.74-1.52,2.21-2.54,2.89-4.12l-.14-.31c.03-.3.05-.71.06-1.02-.06-.61-.06-.92-.06-1.23,3.53-3.04,3.26-4.66,1.91-12.4-.04-.3-.04-.41-.04-.52q.67-1.58,2.66-8.03c.06-2.19,1.74-3.76,2.13-5.8.25-.52.25-.73.25-.92v-.59c-.26-.55-.43-1.4-.4-2.02.5-.92.51-1.12.51-1.32l.02-.31c0-.3-.02-.68-.03-.98-.25-.71-.25-.96-.24-1.2l.15-.18c-.07-.6.02-1.41.22-1.97.37-.96.37-1.06.37-1.17-.06-.33-.17-.76-.24-1.08-.03-.59-.03-.79-.03-1l.18-.31c-.07-.63,0-1.53.16-2.17.07-2.13.13-4.31.19-6.52-.64,0-1.48,0-2.11-.04-6.1-7.37-11.63-8.47-11.69-8.48q-1.51-.17-13.49-18.21c-.09-.63-.1-1.16-.14-1.67-.67-6.92-10.28-7.34-10.58-14.52-.02-.24-.04-.47-.05-.72q-1.54-2.01-1.22-3.8,2.26-1.48,2.22-3.15c.96-.6,2.12-.65,3.13-1.08.33-1.26.31-1.75.3-2.24q-1.8-.27-3.12.26c-.29-.14-.67-.34-.94-.47-.66-2.1.08-4.27-.27-6.38.96-.59,2.04-.58,3.12-.56-.06-3.78,1.14-4.05,3.33-4.52.06-.46.11-1.1.16-1.55.68-.43,1.58-.96,2.28-1.32-.11-.82-.29-1.91-.44-2.73.63-.06,1.5-.12,2.17-.15q.98-1.04,1.58-5.92c3.88-2.5.22-6.53.3-9.79-.59-.13-1.36-.46-1.85-.81.14-.85.83-2.63,3.9-4.74.11-1.03.21-1.64,1.45-3.83,1.74-.02,1.8-.07,3.06-1.01.36-1.95.35-3.51.35-5.07,4.55.11,6.86-1.88,7.96-2.85,2.25-.19,3.75-.19,5.29-.19-.15-2.79.26-2.97,2.69-3.49h1.78l.37.83s-3.26,2.51-3.63,4.08c1.85,2.86-1.58,7.15,2.38,9.39.91-2.41-1.08-4.78-.09-7.18.02-.03,1.22-1.64,3.62-1.54,1.14-1.25,1.14-1.44,1.16-2.9,2.76-1.08,4.46,1.71,6.87,1.85.78.8.78,1.61.77,2.42.62.12,1.43.29,2.04.42,2.23.4,3.61.39,5.01.39,2.2.37,3.36,2.26,5.08,3.41q1.25-.28,2.94-3.92c1.35-.22,1.49-.26,3.17.51.35.08.5.08.63.08l1.83-1.43c2.71.46,2.86.7,3.63,1.8-.49.36-1.25.71-1.85.83q.03.91.29,3.05.84.12,4.12-.87c1.08-.2,1.36-.21,1.63-.21-.14,1.65-.28,3.35,2.54,3.77.16.29.16.57.15.84q4.01,2.22,4.57,2.26c1.43,4.48,1.96,6.17,9.3,7.47.64.01,1.08,0,1.51,0,1.96.08,3.86-1.36,5.88-.32,2.09,1.24,10.08,5.13,10.09,5.13q.21.34,1.79,4.78c-.13,1.41-.24,2.8-.38,4.19.64.02,1.44,0,2.08-.02q1.18,2.61-3.83,8.21c-.33,1.24-.38,1.75-.42,2.26,3.02.4,3.16-.92,3.37-2.91.27-.17.62-.42.88-.59.37,0,.61-.02.84-.03.27,0,.55,0,.81-.02,2.48.89,4.15,1.36,4.15,1.36.08.32.19.72.28,1.01-.32.22-.71.51-1.03.74-.36.46-.93,1.04-1.39,1.42-.42,1.4-.46,1.89-.53,2.38,1.03-.02,2.05-.06,3.08-.1.14-1.18.28-2.36.43-3.56,2.2-.39,2.44-.31,4.12.57,1.06.39,1.32.39,1.55.38q2.63.36,7.72,3.84-1.92,1.38-2.18,2.17c2.17,1.44,3.04.87,3.86.34.6-3.03,2.73-1.86,5.68-.23,1.87-.03,3.26-.1,4.64-.15,4.79-1.76,5.52,4.75,9.08,5.8,1.7.11,2.74.07,3.78,0,1.19.66,2.23,1.24,1.64,9.02h0ZM404.92,203.39l-3.75-18.54c-1.03-1.69-1.44-3.68-2.7-5.26-.61,3.85,1.65,7.21,1.87,10.92-.07.03-.13.07-.64-.29-.3-.83-.85-1.89-1.31-2.64-.39.2-.81.39-1.28.58l-11.93-23.65c-.81,1.78-2.71,2.62-3.73,4.25q-1.52-2.23-2.99-2.48c-.37,1.22-1.27,2.3-1.25,3.66-.95.18-1.95.35-2.91.94q.32,3.07-.04,4.11c-.42.03-.95.06-1.35.08-.26.31-.6.69-.88.98l-.32.05c-.39-.06-.91-.15-1.3-.21,0,0-.01,0-.29.06-1.85.39-2.35.14-3.52-1.1-.29-.14-.68-.31-.95-.45-.22,2.42.66,4.68.99,7.02-.77.25-1.86.39-2.69.37.56,2.15,1.07,4.31,1.57,6.49-.99.11-1.98.23-2.8,1.57.5,3.48.76,6.96,1.31,10.42.19.92.35,1.86.51,2.79-.86.1-1.71.19-2.57.29.29,2.5-1.04,4.67-1.44,7.02-6.38,4.12-.85,12.26-5.72,16.9l-.47.23c-.38.1-.89.24-1.28.34q.08.66-2.22,12.34c.04.97.08,1.95.11,2.93,1.41.18,2.86.1,4.27.27.16.42.37.97.55,1.38q-.85,2.9-.88,13.61c0,.56,0,1.12,0,2.74q-.43,1.78-2.09,3.48c.09,1.89.54,3.73.72,5.63-.04.55-.06,1.09-.08,1.63-.16,3.65.48,4.48,3.1,7.94.4.03.92.08,1.32.1.66,1.32.61,2.82,1.05,4.17.43.06.97.14,1.39.18q-.84,6.77,4.38,9.91c-.14,1.4-.33,2.76-.46,4.14,1.9,1.76,2.8,4.57,5.58,5.39.84-1.16,1.3-2.51,2-3.73.8-.09,1.85-.25,2.65-.4l.45-.06c.77-.16,1.9-.11,2.64.11.15.41.35.96.49,1.36,3.64-.57,3.83-6.16,8.21-5.64.11-.02.19-.03.69-.63.37-.75,1.15-1.61,1.8-2.14.35.19.82.45,1.17.65q-.33,5.57.41,6.62c1.42-.32,2.72-.66,3.9-.98-.33,1.61-.69,3.23-1.33,5.76q-9.87,38.66-11.67,42.29c-.22.48-.44.97-.65,1.44-3.83,8.73-6.37,14.5-25.9,44.77-1.61,2.12-3.24,4.2-4.9,6.27-8.67,11.01-9.21,11.68-17.7,20.3-.18.19-.38.37-1.01.97q-1.91,1.69-3.09,2.84v.07q-2.27,2.07-3.05,2.82l.51-.39c7.17-6.7,16.34-16.09,23.05-23.27q8.33-9.64,22.46-30.41,6.79-10.81,17.62-33.71,5.07-11.91,12.26-36.52c5.73-23.02,6.58-42.92,7.25-58.94q0-13.54-3.16-39.79h0ZM330.11,96.91l-2.62-2.97c-.55-.55-.75-.43-.88-.37-.22-.11-.4-.3-.61-.43h-.23c-.23.08-.21.38-.41.5-.04.37.21.7.17,1.06-.59-.36-1.1-.79-1.66-1.16l-.67.25c.76,1.03,1.36,2.15,2.13,3.15l-.19.04-.06.31-.42.13-.28.51c-.25-.11-.41-.35-.64-.46l-.29.22c1,1.49,1.98,3.01,2.94,4.53q.55,0,1.13-.14c.42.67.84,1.34,1.27,2.02q-.55.2-.76.25c0,.31.42,1.25.42,1.26.19.51.62.89.81,1.39l-.14.3c.49,1.65,2.01,2.4,2.24,2.03.4-.67.43-.72,1.22-.18q.22-.13-.17-2.36c.94-.11,1.86-.22,2.75-.35-.18-.31-.38-.61-.57-.94-.17-.26-.23-.31-.54-.64-.61-.63-.59-.76-.56-.82l.14-.13c-.29-1.02-1.87-3.31-2.79-4.58-.29-.43-.56-.85-.86-1.28h.27c.06-.14.2-.5-.17-1.14h0ZM325.51,96.93h0l-.16.02.16-.02h0ZM345.92,104.04l-.5.09c.35.61.75,1.32.75,1.32l-.39.15q.05.26.36.77l.21.34c.55.76,1.34,1.35,1.76,2.22l-.05.38-.39.05c-.14.45.21.79.26,1.21-.27.15-.62.09-.89.29l-.21.14c-.64-.22-1.05-.84-1.69-.99l-.13.18c.21.47.24.55.23,1.06-.77.21-.99.1-1.17.03q-.42.2-.84.17c.05.29.06.35.9,1.81-.3.02-.57.07-.86.12q-.77-.37-.92-.41.14.96.11,1.08c-.41.43-.47.47-.72.6l-.46-.4q.43-1.14-.82-3.18l.46-.42h.19c.08-.36-.27-.74-.03-1.11,1.96-.16.37-1.72.37-1.73l-2.49-.44c-.16.22-.2.49-.29.75-.61.07-1.45-1.45-1.7-1.9h.03l.02-.02h.05l.05-.02h.07l.29-.17c-.06-.4-.26-.77-.26-1.18l.29-.1c-.52-1.16-.86-1.93-1.74-1.01-.39-.04-.42-.1-1.07-1.08l.58-.03c-.11-.22-.22-.49-.33-.7-.05-.23-.14-.47-.18-.7l.17-.03h.23c.7-.21,1.26.24,1.89.36.18-1.61-1.35-2.21-1.99-3.33-1.73-.83-2.04-3.14-3.93-3.83l.19.57c-.47.07-.95.14-1.44.21q-.68-.65-1.11-1.23l.09-.39.16-.08c-.35-1.06-2.64-3.09-2.67-3.1q.24.5.75,1.25l-.58.07c-.37-.29-1.51-1.13-1.51-1.13l-.03.2c-.21.16-.4.18-.6.21q-1.11-1.36-.52-1.94c-.26-.73-.9-1.2-1.31-1.83-.15-.21-.3-.41-.46-.61-.13-.21-.21-.42-.31-.63-1.98-.31-2.94-2.4-2.82-2.71.65-.13,1.07.8,1.8.4-.24-.95-1.1-1.38-1.59-2.13q-1.49-2.23-1.7-2.48c.76.07.99.06,1.24-.14l.45-.15.22-.08c.42.11.65.51,2.7,4.26.88-.12,1.72-.25,2.55-.38.64.8,1.29,1.6,1.92,2.4.48.63.5,1.49,1.01,2.1.21.28.37.48.52.69l-.29.18.69,1.79c.77.68,1.9.55,2.72,1.15.86.66,1.34,1.65,2.24,2.3.71.51,1.23,1.24,2.05,1.66.21.19.36.43.57.6.8-.25,1.97,1.58,3.12,3.36.25-.04.5-.09.76-.13q2.67,3.47,2.87,3.57c.24-.57-.44-1.51-.68-1.82l.14-.2c.98.71,1.64,1.76,2.64,2.47.44.53.73.96,1.01,1.38h0ZM316.32,79.47l-.11-.15-.23.43c-.01.31.23.56.2.88l-.19.18v.04c.06.21.25.37.35.56.11.34.12.71.3,1.04.15.3.39.52.56.79l.53.26.07-.34-.13-.32c-.41-.81-.4-.87-.35-.91h.24c.2-.16.2-.2.17-.29-.1-.2-.33-.31-.46-.52l-.11-.3c-.06-.17-.09-.3-.84-1.36h0ZM360.76,98.2c6.63,8.69,8.43,11.83,20.01,32.18,4.37,9.1,9.63,21.48,13.38,30.86l-.05-.12-.02-.06.02.05c.12.35.26.79.4,1.12.17.5.34,1,.51,1.52.11.3.22.67.34.96.12.39.28.92.41,1.32l-.08-.26-.11-.35c-.24-.71-.5-1.44-.74-2.16l-.17-.5-.13-.38c-.2-.55-.38-1.1-.57-1.63l-.09-.24-.13-.33-.13-.36-.07-.16-.13-.35c-.24-.64-.49-1.27-.72-1.92-.08-.19-.18-.41-.42-1.09-.12-.31-.28-.72-.39-1.02-.75-1.97-1.71-3.85-2.38-5.85-.15-.37-.38-.88-.55-1.24-.57-.87-.82-1.89-1.46-2.71.08,1.18.81,2.11,1.17,3.19l-.05.06-.13.14c-.15-.29-.37-.66-.52-.95l-.14-.11.19.58c.11.25.22.47.32.72,0,.03,2.27,5.02,3.09,6.15q-.48-1.27-.63-1.81.7,1.48.78,2.13c.83,2.05.86,2.22,1.11,3.06l-.14.02-.33-.42c.21.71.23.79.59,1.65.09.25.2.51.39,1.08.47,1.35.49,1.47.54,2.16-.05.04-.09.1-.3-.15-.72-1.68-1.37-3.39-2.09-5.06l.11.51c.07.31.17.72.22,1.03-1.53-2.59-1.55-3.18-1.56-3.61l.2.55.2-.14c-.4-.99-.78-1.98-1.34-3.12q-.55-.37-3.77-7.34c-1.18-2.55-2.95-4.73-4.4-7.1-1.02-1.65-3.15-4.25-7.82-9.56l-.49.22c.32.86.9,1.55,1.35,2.33l.19.35.09.56.2.76c.33.63.64,1.25,1.18,1.72l.52.02q.7,1.44,1.18,2.29l.24.1c.22.39,3.82,5.94,5.07,6.35,1.43,2.67,4.03,4.65,4.64,7.79-.35-.67-.39-.74-1.04-1.36l-.45.22c.13.34.29.79.41,1.12.14.3.26.56.51.88l.33-.27c.11.28.23.55.34.83.02.06,1.9,5.32,1.73,8.22.33.95.67,1.9,1.01,2.86-.26.1-.55.21-1.18.14-1.19-.74-1.34-2.22-2.28-3.13-.13-.28-.28-.61-.39-.9q1.13-.42,1.65-.42.09-2.05.22-2.28c-2.31-6.63-7.82-12.26-9.61-14.1-.6-1.08-.62-1.12-1.22-1.68-2.12-1.93-1.96-5.7-5.37-6.54.2.71.22.79.35,2.15l-.42.39c-.06.02-.14.03-.39.35q.48,1.88.85,2.7l-.26.48c-.1.02-.21.05-.8.09-.49-.28-.92-.67-1.41-1h0s0,0,0,0h-.04s-.02,0-.02,0h-.03l-.06.02c-2.37-.8-1.42,1.15.47,5.03.11.25.21.49.32.72.33.73.62,1.47.88,2.25-.28.15-.71.29-1.01.32q-1.01,1.66-.77,3.08c-.27.2-.59.5-.77.77.09.35.18.82.24,1.17q.64,3.49,2.33,6.5c.31.83.61,1.65.9,2.5-2,1.2-1.8,3.67-3.05,5.3-2.33.28-.61,3.76-2.93,4l-.29.45.42.14c.01.27.02.63.04.91-.82-.74-1.13-1.81-1.78-2.67-.7-.43-1.39-.87-2.07-1.28-.19.26-.55.54-.87.68-.51-.24-.77-.75-1.16-1.08-.33.03-.77.17-1.04.37-.39.05-.76.09-1.24-.1-.82-2.17-.89-2.57-.79-3.6l-.23-.77c-.09-.26-.17-.51-.25-.76-.17-.27-.39-.64-.59-.9-1.25-2.07-.96-4.5-1.58-6.71-.53-1.45-1.05-2.9-1.71-4.58-2.08-2.22-2.14-5.46-4.01-7.77l-.12-.75c.63-.06,1.25-.15,1.81-.51-.07-.34-.21-.79-.37-1.11l.2-.46.29-.02q.52.49,2.16.63c1.06-.14,2.09-.28,3.44-.32,1.05,1.03,2.54,1.14,3.75,1.81.11,0,.21-.03.71-.36.09-.34.21-.8.3-1.15q-1.52-6.35-6.14-12.02c-.62-1.23-1.23-2.45-1.85-3.66-1.18-.99-2.3-2.05-3.5-3.03l-.36.06c-.34.07-1.01.23-2.22-1.15l-.31.05c-1.08-1.2-.91-1.63-.58-2.42.31-.12.67-.36.89-.58.04,0,1.71,1.47,3.3.78-.16-.29-.31-.56-.48-.85l-.53-.66c-.32-.59-.74-1.5-1.33-1.81-.42-.67-.8-1.35-1.06-2.1.29,0,.72.22.94.46.13.22.26.44.4.67.31.08.73.09,1.05.04l.45.27c.34-.06.65-.11.99-.18-.4-.67-.81-1.35-.99-2.3.24-.2.65-.41.97-.48-.82-1.35-1.63-2.66-2.16-4.01l.5-.12c.1-.02.17-.03.19-.45q-.52-2.47,0-3.1c-.47-.71-.93-1.4-1.42-2.11l-.85-.53c-.3-.42-.59-.84-.48-1.38l.22-.06.22-.04h.56q-.2-.55-1.08-2.21l.25-.52c-.14-.3-.19-.72-.19-1.03.3-.09.71-.1,1.01-.07l.34-.09.34-.43.27-.08c-.32-.4-.63-.82-1.06-1.41-.68-.76-1.44-1.48-2.09-2.25-.34-.48-.65-.95-.99-1.44-.17-.2-.33-.41-.57-.69-1.98-2.1-3.54-4.54-5.34-6.77-.08-.11-.19-.21-.56-.65-.27-.23-.56-.58-.78-.85.35-1.48-1.42-2.08-1.47-3.43q1.54,1.47,4.08,4.63l.54-.02c.26.31.54.62,1.03,1.22q1.2,1.79,1.77,2.26h0s.04-.19.04-.19q-.82-1.34-.68-1.91c.09-.02.18-.06.54.22,1.22,1.37,4.06,4.68,4.06,5.77q-1.34-.83-1.46-.88c-.21.07-.4.12-.38.57.21.26.49.62.72.87.27.35.56.72.85,1.08l.31-.11.06-.16q1.19,1.42,1.86,1.69l.31-.1q-1.09-1.44-1.26-2.1c.09-.03.2-.07.51-.35l-.21-.54c.08-.02.18-.06.48.22,1.12,1.43,1.18,1.48,1.82,2.08l.49-.19-.21-.48.34-.42c-.54-1.18-1.26-2.27-1.65-3.53.92.77,1.77,1.64,2.68,2.42l-.06-.2q-2.54-3.03-2.63-3.22c.3-.02.74.1,1,.25l-.48-.63c-3.24-3.27-5.89-7.06-8.84-10.58.03-.03.06-.06.36.23.23.25.58.6.79.84,0,0,.03-.03.32.22q1.39,1.39,1.71,1.6l-.08-.24q-4.82-5.38-5.6-5.75.91,1.04,1.15,1.62c-1.21-.67-1.66-2.02-2.67-2.86h0s0,0,0,0l-.18-.09.2-.26c.4-.56.33-1.14-.24-1.72,7.34,7.95,16.71,18.96,23.45,27.43h0ZM335.96,73.74c-.85.42-1.99.85-3.42,1.28.69.71,1.53,1.23,2.2,1.92l.27.3q1.51,1.8,2.04,2.2,1.48,1.13,1.64,1.3l.53.61.49.56q.76.8,2.66,2.37c.77.63,1.21,1.52,1.83,2.27l.25.3c.34.41.73.79,1.06,1.21.31-.12.61-.22.9-.33q-1.9-2.34-2.07-2.82l.08-.03.13-.05c.23.08.38.3.61.35-.16-.41-.73-.59-.62-1.16l.1-.03c-.5-.6-1.02-1.2-1.54-1.79l.39-.18c-.42-.51-.86-.99-1.31-1.47l-.17.1.05.15-.05.06c-.37-.11-.48-.54-.82-.68q-1.51-2.01-3.34-4c-1.07-1.17-1.71-1.98-1.88-2.43h0ZM331.32,75.4h0c-.91.23-1.88.47-2.94.7l.06.08.36.52c.19.2.43.35.63.56l.39.43.23-.1.15.02.14-.09.06.02.34.26c.32.31.69.56,1.04.84l.06-.39.21.06.17.07c.16.07.26.27.47.2.23-.07-.02-.59-.02-.59l-.17-.26c-.17-.22-.21-.28-.18-.33.18-.03.24-.06.13-.3q-.16-.36-1.12-1.73h0ZM301.55,40.95v-.02s-1.6-1.08-2.29-1.49q2.96,1.96,4.39,2.94l3.63,2.61c10.45,7.62,10.79,7.94,28.82,24.58l1.22,1.2c.56.58.64,1.16.1,1.57-1.21-1.22-1.49-1.57-1.99-2.21l.31.13c-.31-.34-.44-.77-.64-1.16q.76.7,1.04.85c-1.28-1.36-2.53-2.74-3.88-4.06l-.56-.51-.07.06c-.38-.35-.79-.75-1.23-1.12l.14.18.48.49.05.39.24.27c.28.28.73.68.88,1.06l-.29-.1c.36.4.72.81,1.07,1.25h-.1c-2.74-2.1-4.4-3.35-5.53-4.33l-.57-.54q-9.36-8.39-10.88-9.97l.3.05c-1.26-1.19-1.93-1.71-4.52-3.69l.06-.11c-.67-.51-1.34-1.01-2.11-1.58-1.49-1.07-1.64-1.15-2.13-1.41.27.25.55.47.82.72-.64-.44-1.31-.89-1.97-1.33v.02h0l-.2.12c10.5,8.32,16.73,15.54,16.77,15.6,1.58,1.41,3.13,2.84,4.75,4.37,1.35,1.39,3.21,2.16,4.61,3.5.2.2.4.38.6.59q1.02,1,3.07,3.87c-.84.45-1.98.88-3.41,1.31-2.47-2.66-3.11-2.78-3.32-2.82.39.38.72.76,1.1,1.16l.11.3-.29.12c.42.53.78,1.07,1.17,1.6-.91.24-1.88.48-3.04.54q-.16-.39-1.3-1.65c-2.91.12-1.79-4.43-4.72-4.13l-.49.1c-.38-.39-.74-.76-1.09-1.12l-.44-.56.08-.14c-1.6-1.85-4.03-2.94-4.96-5.41l.28-.13q-2.54-3.68-2.57-3.77h.03v-.02h.03l.11-.2-.02-.31c-.42-.35-.84-.68-1.28-1.01l-.99-.92c.09-.02.19-.04.47,0,.18.1.49.17.71.19q-4.19-4.91-4.57-5.22c-.07.02-.15.04-.48.15-1.08-.83-1.7-2.09-2.62-3.07l.56.41c-.11-.11-12.16-9.75-12.47-10.72q-.96-.64-1.44-.8l-.05.31.24.3.12.19.56.43q0,.11,1.06,1.28l-.29-.02-.62-.49.11-.04q-.76-.52-1.22-.92l-.07-.14c-.32-.24-.77-.54-1.05-.83l.21-.21c-.7-.51-1.59-.74-2.1-1.52l.33.1-.24-.19c-.67-.43-1.34-.85-2.15-1.46q3.66,2,4.05,2.13l-.54-.39c-.22-.14-.46-.26-.67-.42-.59-.37-1.26-.61-1.86-.96-.02,0-1.61-1.14-2.25-1.66q1.86,1.1,2.26,1.18c-1.24-.96-3.54-2.23-4.47-2.74-.44-.25-.88-.5-1.27-.85q3.16,1.52,4.67,2.33c-.52-.37-.72-.52-3.41-2.05l.15-.04c.32.08.65.13.97.27l.05-.06c-.51-.29-1.02-.59-1.69-.91-.57-.09-2.58-1.14-3.67-2.09.02-.04.05-.07.32.06,1.19.72,1.62.87,1.84.96l-.05-.07s-2.36-1.49-3.52-2.18l-.16-.08.19.06,1.78.93.05-.05c.92.43,1.49.75,3.1,1.65h.08s-.61-.3-.61-.3c-.23-.13-.47-.27-.7-.39-1.1-.63-1.11-.64-2.89-1.57l-.03-.19c.19.1.42.22.81.44.39.22.78.43,1.16.65.49.26.96.53,1.24.61-.67-.39-1.4-.76-2.11-1.14l-.03-.06c.93.46,1.91.87,2.84,1.36l1.54.92c.26.14.51.29.85.47.46.12.84.39,1.26.58-.31-.18-.63-.36-.92-.55l-.12-.09c.72.4,1.43.81,2.14,1.2.12.08.24.14.5.3.68.39,1.34.79,2.03,1.2l-.18-.14c-.55-.32-1.09-.63-1.63-.96l-.16-.1c.45.26.88.51,1.3.75h.03s13.29,8.51,13.29,8.51h0ZM282.24,29.78c-1.05-.59-2.08-1.16-3.14-1.73l-.07-.02.16.11-.02.06.34.19c.91.5,1.81,1,2.71,1.49l.02-.1h0ZM337.35,72.75l.2-.26-.16-.09v.06s-.16-.1-.49-.4l-.55-.54-.05-.02-.04.07s.07.28,1.07,1.18h0ZM231.91,8.82l-.79-.24c-1.23-.33-1.32-.35-1.54-.39l.14.06q-.31-.04-2.75-.71l-.08.09c-1.71-.46-3.43-.87-5.16-1.29-.04,0-2.5-.55-2.96-.61q.2.08.71.23c-.38-.02-.69-.1-.91-.14-.72-.16-1.38-.32-2.01-.49-1.83.31-3.35-.75-5.05-.93h-.05c.77.22,1.58.38,2.37.56.24.06.5.12.75.19q3.34.76,3.91.96-.21,0-2.24-.51c-.26-.06-.53-.14-.78-.18-.27-.07-.54-.14-.79-.19-.28-.06-.55-.13-.81-.19q-1.35-.3-1.64-.32c.83.24,1.67.43,2.48.66v.07c-.44-.1-.89-.2-1.34-.31-.7-.18-1.4-.38-2.09-.54.1.06.31.13,1.56.43l-.15.1c3.41,1.32,7.04,1.66,10.51,2.69-1.26-.27-2.47-.65-3.72-.88.59.21,4.87,1.32,5.42,1.38q-.19-.08-2.43-.72c1.02-.04,1.9.48,2.87.7l.16-.05c-.28-.14-2.42-.8-3.21-1.03-.48-.12-.87-.23-1.28-.33l-.1-.08q1,.25,2.96.78l.13-.05-1.12-.35.61.14c.66.18,1.3.38,1.97.53.22.06.45.13.67.19l-.16.02h-.06s-.31-.02-.31-.02q.18.09.64.25.11.23,1.36.59c.56.17,1.12.35,1.66.51l-.25-.16.06-.02.48.07q-.22-.16-1.55-.63l-.1-.06c.32.06,3.1,1.02,3.12,1.03v.02q-.29-.03-.43.04c2.66,1.28,5.62,1.59,8.4,2.47l-.16-.1s-5.05-1.77-6.94-2.44c-1.3-.47-2.59-.86-3.88-1.23-.22-.15-.27-.21-4.89-1.43l.14-.11q5.38,1.43,9.89,2.79l.05-.03c-.65-.29-1.3-.5-1.98-.71.29.04.38.06,2.87.82l.04-.05q-.3-.1-1.83-.59l-.05-.12-.36-.16h0ZM216.53,5.32l-.41-.08.41.08h0ZM212.35,3.82c-.27-.06-1.89-.4-2.03-.35.19.05.4.08.61.15v.02c-1.16-.23-2.3-.42-3.45-.63.99.24,1.99.32,2.96.64-.2-.03-.39-.08-.59-.11l-1.79-.36-.41-.08c-.27-.05-.55-.09-.82-.15.34.08.67.14,1.02.22h0s-.44-.06-.44-.06l-.03.03c2.75.52,3.59.72,4.42.9-1.09-.15-2.15-.44-3.24-.63-.69-.11-.71-.11-.92-.02.9.24,2.88.63,3.75.77v-.02c.22.02.44.08.65.1l-.49-.16c.46.06.89.14,1.82.34l-.13.09c.61.13,1.2.27,1.78.39.48.09.98.2,1.47.26l.09-.07-.19-.06c.57-.02,1.08.5,1.69.27-.62-.31-1.32-.24-1.93-.53.24.05.52.1.77.14q-.33-.12-4.57-1.09h0ZM202.9,1.37c-.49-.07-.97-.14-1.52-.22-.74-.11-1.49-.22-2.25-.32l-.32-.05c.95.15,1.89.24,2.84.43h-.12c.31.06.63.1.93.14h0l-.55-.06c.74.11,1.47.22,2.19.35-.34-.05-.65-.11-.96-.14l.05.02c.94.14,1.87.32,2.8.43-.68-.14-1.36-.19-2.04-.36l.18.03-.21-.06c.7.12,1.39.2,2.07.36.53.09,1.06.19,1.57.29.44.07.93.16,1.35.24.29.06.62.11.92.16-.72-.14-1.96-.38-3.77-.69-.26-.05-.49-.09-.74-.13l-.37-.06.13.02-.05-.02c-.7-.14-1.42-.25-2.13-.37h0ZM196.55.42h.02l.41.06c-.99-.13-1.96-.26-2.94-.38l-.7-.1.53.07h.09c1.19.15,2.36.3,3.54.49l-.13-.04.08.04h.06c.91.13,1.78.24,2.67.39l1.3.19c.48.07.94.16,1.39.23h.03c.42.07.83.14,1.25.21l.79.14.48.07c-.58-.1-2.61-.46-5.03-.83l.34.05-1.54-.22c-.48-.07-.95-.14-1.41-.21l.23.03-1.47-.2h0ZM155.84,28.2l-1.29.96-3.31-.22-.2-1.33.07-1.69c.69,0,1.38,0,2.04.02l2.99.18,1.74,1.53-2.05.55h0ZM139.74,68.79q-.66.83-.84.99c-.11.06-1.1.77-1.83.96-.78.2-1.12.09-1.12.09-.44-.14-.64-.55-.95-.84.31-.16.65-.35.96-.53,1.33-.76,1.7-.87,1.98-.93q.64-.13.85-.23c.36-.19.63-.53,1-.73l.06,1.08-.1.14h0ZM147.15,72.67l-1.11.56c-.89,0-1.77-.02-2.66-.02l-.42-2.82,2.21-1.1,2.06.31c-.01.65.05,1.3.05,1.96-.04.38-.07.74-.13,1.11h0ZM405.73,208.47c.65,4.11,1.01,7.05,1.31,11.52-.34-4-.8-7.86-1.31-11.52h0ZM408.05,243.05s.01.07.01.1v.07c0,.08-.01.15-.01.23v-.39h0ZM408.07,243.21s0-.02.02-.05c-.02.29-.02.55-.02.85v-.8h0ZM408.05,244.28v.38-.38h0ZM396.45,317.48l-.06.17c1.62-5.02,3.09-10.18,4.44-15.51,0-.02,0-.02,0-.02-1.73,6.89-2.56,10.12-4.44,15.56.02-.07.04-.13.06-.19h0ZM380.83,354.93c2.61-5,5.12-10.25,7.49-15.76.08-.18.17-.35.26-.54-3.12,7.29-4.32,10.08-7.75,16.3h0ZM362.79,384.54c3.98-5.55,6.7-9.87,8.17-12.2-3.83,6.12-5.5,8.76-9.06,13.45.3-.43.59-.83.89-1.25h0ZM336.91,70.44c.48.48.97.99,1.44,1.48-.33-.39-.69-.76-1.04-1.14-.12-.12-.28-.26-.44-.39l.04.05h0ZM360.98,98.51h0c-.07-.11-.14-.22-.21-.32l.21.32h0ZM380.76,130.38h0c-3.18-6.14-4.71-9.05-7.67-13.73,2.35,3.91,4.59,7.87,6.66,11.83.35.64.69,1.29,1.01,1.9h0ZM393.01,158.31c.66,1.75,1.3,3.48,1.89,5.11l-.13-.4c-.1-.31-.23-.71-.36-1.04l-.1-.28-.11-.33-.04-.14c-.38-.96-.76-1.93-1.15-2.93h0ZM394.92,163.5c.05.14.1.29.16.43l-.03-.11-.13-.31h0ZM336.87,70.39c.17.13.32.26.44.39l-1.23-1.2c-5.05-5.02-7.42-7.38-11.79-11.02.48.44.96.87,1.45,1.3,3.24,2.87,6.72,6.12,10.34,9.72l.78.82h0ZM199.28.8s.07.02.09.02c-.45-.08-.91-.14-1.35-.2h-.05c.46.07.89.12,1.32.19h0ZM199.9.89c.17.04.33.06.51.08l.48.09h.03c-.34-.06-.69-.1-1.02-.17h0ZM201.01,1.07h.01l-.1-.02s.05,0,.09.02h0ZM204.94,1.73c.24.04.49.08.72.12-.23-.04-.48-.09-.72-.12Z"/>
      <path class="cls-1" d="M175.4,247.46c-.89,0-1.98-.21-3.28-.62-1.3-.41-2.45-1.16-3.43-2.24-.98-1.08-1.48-2.67-1.48-4.76,0-1.84.4-4.25,1.19-7.24.79-2.98,1.79-6.33,3-10.05,1.21-3.71,2.41-7.62,3.62-11.71,1.21-4.09,2.21-8.21,3-12.33.79-4.13,1.19-8.09,1.19-11.9,0-2.35-.08-4.54-.24-6.57-.16-2.03-.63-3.67-1.43-4.91-.79-1.24-2.14-1.86-4.05-1.86-1.78,0-3.29.52-4.52,1.57-1.24,1.05-2.25,2.4-3.05,4.05-.79,1.65-1.36,3.4-1.71,5.24-.35,1.84-.52,3.56-.52,5.14,0,1.01.08,1.95.24,2.81.16.86.37,1.63.62,2.33-2.48,0-4.22-.68-5.24-2.05-1.01-1.37-1.52-2.97-1.52-4.81,0-1.97.46-3.94,1.38-5.9.92-1.97,2.19-3.79,3.81-5.48,1.62-1.68,3.47-3.03,5.57-4.05,2.09-1.02,4.31-1.52,6.66-1.52,3.94,0,6.87,1.54,8.81,4.62,1.94,3.08,2.9,7.19,2.9,12.33,0,3.68-.41,7.54-1.24,11.57-.82,4.03-1.84,8.05-3.05,12.05-1.2,4-2.43,7.84-3.67,11.52-1.24,3.68-2.27,7.08-3.09,10.19-.83,3.11-1.24,5.74-1.24,7.9,0,1.08.17,1.97.52,2.67.35.7,1.06,1.05,2.14,1.05,1.78,0,3.84-.9,6.19-2.71,2.35-1.81,4.78-4.28,7.28-7.43,2.51-3.14,4.95-6.68,7.33-10.62,2.38-3.93,4.52-8.05,6.43-12.33,1.9-4.28,3.43-8.49,4.57-12.62,1.14-4.13,1.71-7.93,1.71-11.42,0-3.17-.48-5.51-1.43-7-.95-1.49-2.22-2.46-3.81-2.91.89-1.52,1.83-2.63,2.81-3.33.98-.7,1.89-1.05,2.71-1.05,1.33,0,2.64.86,3.91,2.57,1.27,1.71,1.9,4.38,1.9,8s-.65,7.46-1.95,11.9c-1.3,4.44-3.06,9.06-5.29,13.85-2.22,4.79-4.76,9.44-7.62,13.95-2.86,4.51-5.84,8.57-8.95,12.19-3.11,3.62-6.19,6.51-9.24,8.66-3.05,2.16-5.87,3.24-8.47,3.24h0ZM213.4,247.46c1.71,0,3.46-1.21,5.24-3.62,1.78-2.41,3.83-6.22,6.14-11.42,2.32-5.21,5.19-11.98,8.62-20.33,3.43-8.35,7.68-18.42,12.76-30.23.06.63.11,1.36.14,2.19.03.82.05,1.87.05,3.14,0,2.54-.08,5.57-.24,9.09-.16,3.52-.33,7.19-.52,11-.19,3.81-.36,7.51-.52,11.09-.16,3.59-.24,6.68-.24,9.29,0,3.68.27,6.54.81,8.57.54,2.03,1.67,3.05,3.38,3.05.32,0,.54-.03.67-.09.13-.06.38-.16.76-.29.76-2.35,1.84-5.3,3.24-8.85,1.4-3.56,3-7.41,4.81-11.57,1.81-4.16,3.71-8.32,5.71-12.47,2-4.16,4-8.03,6-11.62,2-3.59,3.92-6.55,5.76-8.9-2.48,9.33-4.68,18.33-6.62,26.99-1.93,8.66-2.9,16.77-2.9,24.33,0,2.6.19,4.68.57,6.24.38,1.56,1.14,2.68,2.28,3.38,1.14.7,2.79,1.05,4.95,1.05-.25-1.08-.49-1.92-.71-2.52-.22-.6-.4-1.29-.52-2.05-.13-.76-.19-1.84-.19-3.24,0-3.05.26-6.81.76-11.28.51-4.48,1.19-9.25,2.05-14.33.86-5.08,1.79-10.08,2.81-15,1.01-4.92,2.03-9.32,3.05-13.19.82-3.24,1.63-5.98,2.43-8.24.79-2.25,1.41-3.95,1.86-5.09-1.14-.44-2.16-.67-3.05-.67-1.02,0-1.84.33-2.48,1-.64.67-1.4,1.64-2.29,2.9-.83,1.27-2.13,3.3-3.91,6.1-1.78,2.79-3.78,6.09-6,9.9-2.22,3.81-4.46,7.89-6.71,12.24-2.25,4.35-4.32,8.71-6.19,13.09-1.87,4.38-3.32,8.51-4.33,12.38.13-3.56.35-7.49.67-11.81.32-4.32.62-8.7.9-13.14.29-4.44.43-8.63.43-12.57,0-5.78-.37-10.19-1.1-13.24-.73-3.05-1.81-5.16-3.24-6.33-1.43-1.17-3.19-1.76-5.28-1.76s-4.24.43-6.43,1.29c-2.19.86-4.19,2.05-6,3.57-1.81,1.52-3.28,3.24-4.43,5.14-1.14,1.9-1.71,3.9-1.71,6,0,1.01.18,2.14.52,3.38.35,1.24.89,2.28,1.62,3.14.73.86,1.7,1.28,2.91,1.28-.06-.44-.11-.89-.14-1.33-.03-.44-.05-.98-.05-1.62,0-2.6.43-5.24,1.29-7.9.86-2.67,2.16-4.91,3.9-6.71,1.75-1.81,3.95-2.71,6.62-2.71,1.33,0,2.21.24,2.62.71.41.48.62,1.06.62,1.76s-.11,1.41-.33,2.14c-.22.73-.43,1.32-.62,1.76-3.87,8.63-7.54,16.8-11,24.52-3.46,7.71-6.57,14.6-9.33,20.66-2.76,6.06-5,10.98-6.71,14.76-1.71,3.78-2.76,6.11-3.14,7h0ZM329.75,250.7c-1.4,0-3.03-.87-4.9-2.62-1.87-1.74-3.83-4.03-5.86-6.86-2.03-2.82-4.05-5.92-6.05-9.28-2-3.36-3.84-6.73-5.52-10.09-1.68-3.37-3.09-6.38-4.24-9.05-1.78,6.22-3.49,12.33-5.14,18.33-1.65,6-3.21,11.44-4.67,16.33-1.59,0-3.03-.44-4.33-1.33-1.3-.89-1.95-2.03-1.95-3.43,0-.7.16-1.54.48-2.52.32-.98.6-1.89.86-2.71,1.59-5.02,3.14-9.74,4.67-14.19,1.52-4.44,3.02-8.73,4.48-12.85,1.46-4.13,2.97-8.22,4.52-12.28,1.55-4.06,3.19-8.16,4.9-12.28,1.71-4.13,3.55-8.41,5.52-12.85-2.67.45-4.98,1.09-6.95,1.95-1.97.86-3.56,1.65-4.76,2.38-1.21.73-2.03,1.09-2.48,1.09-.26,0-.62-.14-1.1-.43-.48-.29-.9-.63-1.28-1.05-.38-.41-.57-.78-.57-1.09,1.65-.7,3.59-1.46,5.81-2.29,2.22-.82,4.66-1.52,7.33-2.09,2.67-.57,5.43-.86,8.28-.86s5.51.33,8.33,1c2.82.67,5.43,1.71,7.81,3.14,2.38,1.43,4.3,3.27,5.76,5.52,1.46,2.25,2.19,4.97,2.19,8.14s-.71,5.79-2.14,8.05c-1.43,2.25-3.3,4.14-5.62,5.67-2.32,1.53-4.84,2.75-7.57,3.67-2.73.92-5.43,1.62-8.09,2.09-2.67.48-5.08.79-7.24.95-2.16.16-3.78.24-4.86.24,1.97,3.36,3.84,6.63,5.62,9.81,1.78,3.17,3.71,6.33,5.81,9.48,2.09,3.14,4.57,6.3,7.43,9.47,2.86,3.17,6.32,6.41,10.38,9.71-.38.83-1.06,1.56-2.05,2.19-.98.64-1.92.95-2.81.95h0ZM304.71,207.57c3.43-.19,6.9-.75,10.43-1.67,3.52-.92,6.74-2.22,9.67-3.91,2.92-1.68,5.27-3.81,7.05-6.38,1.78-2.57,2.67-5.63,2.67-9.19s-.82-6.24-2.48-8.24c-1.65-2-3.78-3.43-6.38-4.28-2.6-.86-5.33-1.29-8.19-1.29-2.16,4.38-4.32,9.63-6.47,15.76-2.16,6.13-4.25,12.52-6.28,19.19Z"/>
    </g>
  </g>
</svg>