<?xml version="1.0" encoding="UTF-8"?>
<svg id="Camada_1" xmlns="http://www.w3.org/2000/svg" viewBox="0 0 256 256">
  <defs>
    <style>
      .cls-1 {
        fill: #fff;
        fill-rule: evenodd;
      }

      .cls-2 {
        fill: #143268;
      }
    </style>
  </defs>
  <rect class="cls-2" x="-18.4" y="-9.21" width="290.04" height="275.74"/>
  <g>
    <path class="cls-1" d="M131.97,80.48l.4-.51-.65-.49.27-.51-.15-1.06-1.3-.16-.36-.62c-.46,0-.92.01-1.38.02l-1,.64-.65.51-.65-.24.13-.75,1.19-.45,1.44-.38.54-.62-.97-.05-1.03-.47-1.3-.34-.88-.71-.97-.71-.44-.65.5-.12.1-.47-.96-1.1-1.11-1.2-1.58-2.07-.55-.94-.82,1.23c.04.35.08.7.11,1.06l-1,.41-.61.74-1-.05-.27-.69-.69-.51-.96.23.22-1.18c-.02-.52-.05-1.04-.07-1.55l-.09-.81-1.14-.06-.89-.59-.81-.85-1.39-.91-.5.42-1.19-.06-.48-.32c-.44,0-.89,0-1.33-.01l-.59.58.42.85-.29,1.12.09.77.38,1.06c-.24,0-.48,0-.72,0l-.03,1.01-.53.56.61.46.92.75.2,1.33c-.02.51-.06,1.02-.08,1.54l-.81,1.06-1.09.83-1.46.17.71,1.35c-.05.57-.09,1.15-.13,1.73l.35,1.01-.3.82-.74,1.01-1.49.17-.72-1.47-.89-1.26c.04-.35.08-.71.12-1.06l-.12-1.48.32-1.21-1.73-.26-1.29-.08-.61-.43-1.54-.45-.46-.72-1.21-.79-1.2-.85-1.92.42-.23-.76-.23-1.74-.72-.48-.34-.69.87-2.03,1.32-1.49,1.23-1.3,1.18-.44,1-.65-.09-.73-1.11-.33-1.18-.54,1.49.3,1.18.39.64-.14.37-.75.95.42.68-.14.22-.59.47-.24.44-.79-.72-.11-.92-.12-.2-.45-.89-.5.7.06,1.03.36.68.31.86-.28.71-.7-.39-.58c.25,0,.5,0,.76.02l.32.53-.53.56-.62,1.06c-.11.44-.23.89-.34,1.34l-.9.29.07.61.87.07c-.04.19-.09.38-.03.59.32.03.78-.01,1.09-.11l.47-.71,1.11.07.58.11.57.31c.3,0,.59,0,.89,0l.21-.75-.86-.22-.24-.95-1.03-.11-.65-.75-.7-.21c.03-.18.08-.36.13-.54l.66.16.38-.38v-.43c.28,0,.55.01.83.01l.43-.61.88-.59.34-.51-.29-.55-.18-.9.7-.12.33-.65-.36-.65-.6-.35-.72-.52c.31,0,.64,0,.94.01l.19-.32.67.09.48.38.79-.04.73-.16-.49-.62.42-.12.52.72.7.08.23.68.52.13.28.52.57.26.29.66.68.27.57.68.13.82-.87.88-.77.9.39.87-1.37.19-.71-.2c-.26,0-.51,0-.76,0l-1.02.72c-.03.26-.05.53-.08.79l1.14.22.94-.05.25-.45.43-.25.59.15,1.11.35,1.09,1.12.24.61.7.78h.98l1.11,1.05,1.57.05,1.05.47.04-.63-1.76-1.3-.72-.56-.38-.61,1.11.55,1.91.97,1.02.57c-.04-.31-.08-.62-.12-.93l.42-.83-.94-.5-.36-1.25-1.21-.44-1.52-1.55.4-.43.41-.38,1.96,1.42.78.92.81.14.04-1.07.87-.4.05-.43c.2,0,.41,0,.62,0l.15-.48-.21-.7c-.4,0-.8,0-1.2.01-.03-.12-.05-.25-.08-.37l-.85-.59-.52-.09-.82-.35c-.19,0-.39,0-.59,0l-.24-.5-.26-.44h-.97s-.41-.04-.41-.04c-.02-.25-.05-.5-.08-.75h.67l.31-.34-.93-.26.08-.3.41-.08-.55-.49-.7-.21.22-.46-.72-.32-.76.04-.13-.36-.61-.04-.25-.09.49-.36-.66-.23-.85.23-.53-.62-.05-.34-.49-.04v-.42s-.75-.31-.75-.31c-.34,0-.67,0-1,0l-.18.34-.54.07-.47-.12-.24.41-.51.04.1-.53.39-.47-.3-.66-.06-.56c-.27,0-.55,0-.82-.01l-.53.41-.57.03-.5.28-.32.58.15.64-.4.41.27.82-.47.07-.35-.7.14-.91.18-.59.64-.6.74-.48c-.25,0-.5,0-.75,0l-.85.09-1.07.69-.96,1.01-.65,1.33.69.17.52.05.04.52-.57-.13-.73.18.28.66c.26,0,.52,0,.78,0l.44-.15.39.42.89.39-.68.2-.22.59.33.43-1.07,1.17-.62.84-.76.67-.44-.29-.06-1.05.61-.6-.6-.98-1.04.72-.47-1.35-.28-.18.38-.66.22-.74-.39-.09.28-.59-.32-.68-.78-.06-.35.38-.37.02-.75.62-.12.52-.34.4.3.72.42.49-.55.63-.67-.2-.17.75.69-.02.98-.51c-.12.26-.26.52-.37.79l-1.7.75-.45,1.18-.55-.66.65-.79c-.18,0-.35-.01-.53-.02l.36-.75c.16.01.32.02.48.02l.44-1.08-.74-.67-.69.75-.8.32.55.86-.78.46-.53.62h-2.05s-.67-.51-.67-.51l-.63-.16-.44-.69-.96.44-1.36.48-.31.77-.98,1.18.41-1.44-.53-.58-1.22.21-1.95-.38.31-.4,1.04-.31-.37-.79h-.68s-1.02-.82-1.02-.82l.15-.57-.6-.18h-.47s-.7.44-.7.44l-.54.1.79-1.05-1.31.87-.33-.16,1-1.19-.23-.24-1.1.74-.92.45-.63.07-1.07.3-1.29.47,1.52-.77.83-.19.69-.21.66-.38-.1-.1-1.09.29-1.37.45h-.44c-.12-.02-.24-.03-.35-.05l-1.69.65-.49-.2.55-.83-.75-.19.29-.44-.18-.21-.81.15.31-.44c-.15-.02-.3-.05-.44-.08l.04-.39c-.13-.03-.26-.05-.38-.08l-.21-.05c-6.19,3.7-11.93,8.16-17.09,13.24l.72-.18-.15.45-1.19.51-.84.68c-.13.13-.25.26-.37.39l-.59.69,1.7-.84.83-.15c.3-.42.74-.99,1.19-1.25l.47.15-.27.86-.06.72.29.41.73-.18.12.43c.13.02.27.04.41.06l-.17.76.16.74c.01.34.04.8.05,1.15.16-.05.37-.12.53-.17l.07.56-.27.82.49.42-.66.72.38.59-.61.68.29.34.42.17-.51.82-.17.92-.52,1.02-.36.99.61.19-.46,1.17.14,1.18-.24.83.45.69.58.52.53.37-.18.65.49.89.35.76-.32,1.58c-.18.41-.35.83-.52,1.25l-.18-.83-.14-1.09.15-.65-.41-.7-.37-.3.41-1.03c-.2-.01-.38-.03-.56-.05l-.21-.55-.28-.29-.32-.22-.55.08-.02.87.29.55.21.75.63,1.25-.15,1.27-.23,1.62-.55,1.26-.77,1.74c-.25.66-.49,1.32-.73,1.98l-.59.43c-.16.44-.31.88-.46,1.32l.05,1.42-.61,1.31-.19,1.07.11.95-.44,1.35.24,1.18.51.99-.02,1.99.48.85-.07,1.04.38,1.23c.32.02.63.04.96.07l.55.86.96.74.59,1.1v1.28s.2,1.3.2,1.3l.19,2.15.57.96.74,1.12.14.78-.78.64.37.88.8.89,1.05,1,.58,1.05-.19.84.19.72.87.52.81.99.57.81v.94s.52-.28.52-.28l.19-1.02-.31-1.18-.77-.51-.04-1.02-.86-.9-.26-1.34-.23-1.25-.68-.97-.11-1.23-.71-.43-.29-1.55-.7-1.33.13-1.68.7-.03.92.58.45.95-.13,1.44.84,1.96.98,1.59.93,1.14.65,1.12.09,1.25,1.07.83.74,1.22.57,1.27,1.26,1.79.46,1.52.69.74-.74.52-.23.93,1.47,1.49,1.23,1.25,1.53.62,1.61,1.18,1.9,1.03,2.13,1.26,1.74.62,1.11-.04.35-.63,1.26-.11,1.41.82,1.57,1.39.88,1.13c.43.01.86.02,1.29.03h.51s.73.34.73.34l.81,1.2,1.6.58.07-.79.88.49q2.64,3.77,2.43,4.55l.52.63.66-.3.89.47q1.78,1.71,2.6,1.65l2.24,1.16,1.2.55-.09-1.21.57-.76,2.09.17.24.76.68-.07.36-.99-.76-.92c-.72,0-1.45-.01-2.17-.02l-1.43-.09-2.07-.18-.98-.7-1.35-1.48.06-1.16c0-.52-.01-1.04-.01-1.55l.43-1.96c0-.45,0-.89,0-1.34l-.68-1.05-1.33-.74-1.99.12-1.39-.35-1.54.61-1.02-.73.95-.78v-.64c0-.27,0-.53,0-.79l.37-.88.52-1.42c0-.53.01-1.07.02-1.59l.89-.61.16-1.19-.65-.48-2.19.12-1.37.2-.6,1.1-.61,1.65-.66,1.49-1.15.13-1.65.44-1.7.19-.77-1.14-1.39-.83-.47-1.29-.93-1.69-.46-2.85-.12-2.04.77-1.54.44-1.77-.56-1.87,1.35-1.73,1.03-.05,1.09-.88,1.12-1.05,1.44.28,1.01.41.86-.36.64,1.01c.43,0,.85.02,1.27.03l.99-.06-.17-.76.42-1.22,1.57-.03,1.08-.13,1.99.26.74,1.08c.22,0,.43,0,.65.02l.46-.61.58-.14.9.93.84,1.15c-.01.44-.03.88-.04,1.31l.47.77.2.86.65.63.34.92.8.48.05,1,.75.25.46-.69.38-1.08-.41-1.32-.4-2.01-.9-1.77c.02-.77.04-1.53.16-2.66.13-.36.32-.85.47-1.2l.86-1.65,1.24-.51,1.49-1.26,1.4-.95,1.33-.51.23-.95,1.01-.59-.82-1.62-.63-.74.3-.87-.54-.8,1-.5.83,1.17.52-1.16.59-1.01.64-.64.65-2.14c.63,0,1.26,0,1.89,0l1.19-.7,1.4-.14-.36-.85-.09-1.75.94-1.32h1.09l.33-.76,1.43.06,1.26-.75.75-1.03q2.26-.07,3.33.3c-.14.13-.31.3-.43.43-.59,0-1.17.01-1.79.04-.29.23-.67.53-.96.76,0,.33.05.76.14,1.08l.77.34.79-.7.59-.42,1.13-.35,1.18-.63,1.2-.29.85-1.17.85-.82.03-.94-1.23.35-.74,1.43-1.47.08-1.25-.59-1.34-1-.78-1.74,1.05-.86-.17-1.38-1.62-.12-1.72.53-1.9,1.14-1.85,1.87-1.51,1.08.59-1.01.9-1.07.58-.53-1.51-.4h1.89l.42-.93,1.01-.85,1.21-.07.46-1.05.99-.38c.53,0,1.06,0,1.6-.01l2.86-.09,1.49.25,1.13-.08,1.03-.86.84-1.16,1.8-.22.86-.41h0ZM88.66,47.19l-1.48.44c-1.83.81-2.26,1.1-2.9,1.53l-.78.35c-.17-.01-.35-.02-.52-.04l-1.09.51.78-1.02-.32-.44,2.37-1.2,1.46-.91.81-.6c.17-.1.34-.21.51-.32l.85-.05.45.12.08.28.15.26.78-.23.26.09-.08.57-.51.45-.83.2h0ZM88.36,53.96l-.64.1-.81.32-.55-.21,1.31-.52,1.13-.26-.45.57h0ZM92.68,52.35l-.66.11-.4.03.15.47-.61.56-.65.06-.62-.07-.5-.64-.43.07-.03-.3-.53.23-.92.4-.76.18-.87.36h-.86c-.3-.01-.58-.03-.87-.05l-.14-.37.38-.82c-.21-.02-.42-.03-.64-.04l-.71-.09.42-.85,1.06-.36c.31.02.61.04.93.06l.99.1c.35-.24.39-.31.45-.37-.08-.11-.16-.21-.23-.32-.2-.02-.41-.03-.61-.05l-.76.04c-.21,0-.41-.02-.62-.04l-.22-.39.56-.3.63-.12.72-.16.05-.36-.59.05-.61.16.14-.31c-.1,0-.21-.02-.3-.02l.33-.3.87-.34.54-.51.74-.3.56-.11.51-.16.71-.32c.15,0,.29.02.44.02l.07.12-.51.49-.36.24.22.09.5-.39.42-.02.19.2.27.05-.54.39-.42.32.45-.05.33-.29c.15.02.3.02.45.03l.18-.34.33-.4.35.06-.2.59-.23.38-.37.44-.03.27.19.05.42-.26.31-.6.33-.44c.2-.2.4-.4.61-.6.17.01.33.01.5.02l.27.35-.17.56-.68.85.09.44-.63.65v.69l.73.49.24.43-.38.37h0ZM95.58,42.65l.7-.34-.13-.15-.65.25c-.13,0-.26-.02-.38-.03l-.2-.04c-.77.28-1.5.64-2.26.93-.1,0-.21-.02-.31-.02l-.64.17-.48.35v.23s.65-.27.65-.27l-.17.24.5-.16.41-.23h.28s.65-.35.65-.35l.57-.21-.44.37.37-.1.58-.15.95-.51h0ZM91.76,44.44l-.23-.12.76-.34.59-.12-1.12.58h0ZM95.41,43.09l.32-.22.02.05s.14,0,.4-.03l-.42.28-.32-.08h0ZM96.44,44.96l-.59.33c-.18,0-.37-.02-.56-.02-.18,0-.36-.02-.54-.03l-.49.04-.84.36-.94.26c-.19-.01-.38-.02-.57-.03l-.05-.18.33-.29.53-.18c.15,0,.28.02.42.03.32,0,.53-.09.69-.17-.12,0-.25-.01-.37-.02l-.4-.15-.53.13-.44.04-.22-.15-.43-.06.52-.37.72-.32.65-.28.82-.39.63-.14.1.07-.04.21c.09,0,.18.01.27.02l.07.19-.39.49-.05.25c.14,0,.29.02.42.02.3,0,.36,0,.61-.25l-.24-.09q.64-.4.73-.68l.3-.22.33-.08.4-.19c.09,0,.19,0,.28.02l-.34.34c-.13.1-.26.19-.38.29l-.14.4.12.17.37-.27c.08,0,.16,0,.23.01l-.1.24-.88.64h0ZM97.14,42.03l.21.04.53-.33.04-.16-.2.02-.39.25-.19.18h0ZM98.76,42.01l-.21.02-.19.23-.42.21h-.43s-.36.1-.36.1l-.09-.06.6-.48.56-.18.42-.08c.14,0,.27.01.41.02h.19s-.48.23-.48.23h0ZM99.85,41.49c.35-.19.36-.23.36-.25,0-.02-.03-.04-.02-.15h-.33s-.4.09-.4.09l-.74.27c.1,0,.19,0,.29,0,.12.01.24.02.37.02.15,0,.31.02.46.02l.02-.02h0ZM93.24,47.15l-.27-.09.43-.22.34-.02-.49.34h0ZM94.32,47.72l-.56.27c.15-.49.11-.54.1-.55-.02-.02-.08-.09-.06-.41.16-.09.37-.21.52-.29l.62.21-.02.25-.6.52h0ZM97.23,49.73l-.74.02c-.15.11-.62.44-.76.44-.02,0-.41-.25-.43-.38l.06-.13s.09-.22.16-.55c-.11-.05-.27-.12-.38-.17l-.12-.27-.16-.35.4-.4.36-.02c.03.54.03.67,1.02-.22v-.44s.24-.38.24-.38l.52-.12.22.19h.18s.38-.37.38-.37l.45-.02-.04.28q.13.67-.88,1.04l.19.3.08.45-.08.49-.67.6h0ZM101.85,47.54l-.59.57-.54.31-.51-.16-.37.52-.59.32-.66.09q.07-.12.43-.96c.2-.3.4-.59.61-.89.46-.14.5-.18.78-.64q.09-.13.88-.15l.37.22c.16,0,.32,0,.49.01.07.01.15.03.34.27-.19.15-.46.34-.63.49h0ZM110.26,56.28l-.77.18-.71-.1-.31-.59c.38-.5.62-.71.65-.73q.06-.02,1.27-.07l.29.68-.41.64h0ZM99.33,42.91l.38-.12.36-.46.04-.25c-.34.21-.58.38-.78.83h0ZM97.43,45.03c.16-.13.03-.23-.04-.24l-.1.04c-.1.1-.22.12-.3.12l-.28.35c.1,0,.24.02.34-.02,0,0,.25-.14.38-.25h0ZM101.21,44.12c.1-.09.17-.28.18-.29,0-.03-.04-.25-.14-.26-.04,0-.2.05-.44.19l-.05-.35c-.12,0-.23,0-.34-.01-.06.31-.22,1.13-.59.85l.14-.57c-.11,0-.2-.01-.31-.02l-.37.34-.32.39-.05-.34.46-.59-.22-.27-.61.47c-.06.1-.19.21-.2.32,0,.4-.03.47-.07.54l.27.24.4-.12.29-.05-.08.29-.36.58.4-.15h.44s.35-.07.35-.07l.33-.35c.15-.16.29-.33.44-.5.15-.1.3-.16.43-.27h0ZM101.15,42.39l.37-.09.05-.24h-.37s-.32.29-.32.29l.27.04h0ZM102.29,42.27l-.22-.12.15-.39-.35-.07-.14-.03-.36.12.11-.18h-.22s.29-.25.29-.25c.09,0,.18,0,.28,0l.37-.28v-.12s-.19.01-.19.01l.26-.22.66-.12.24-.03-.06.19-.1.18.26-.04-.05.17.06.15-.28.29-.06.2-.31.31-.35.22h0ZM104.75,40.37l.32-.1.36-.29-.05-.09h-.16c-.13.08-.26.16-.39.24h.21s-.29.24-.29.24h0ZM104.26,41.97l.28-.2v-.3s-.35-.06-.35-.06l.02-.29-.35.16-.18.26-.4.45.25.09.37-.04.38-.07h0ZM104.38,42.53c.08-.09.16-.17.24-.26-.14,0-.28,0-.42-.01-.13,0-.25,0-.38-.01l-.44.23-.21.22h.51s.33-.09.33-.09l.38-.07h0ZM102.84,44.06l.5-.31.19-.26-.04-.32c-.13,0-.27,0-.4,0l-.1-.14-.45.07-.38.36.13.3.15.27.41.04h0ZM101.68,45.84l-.43.15-.22-.2c-.13,0-.27,0-.39-.02l-.03-.43.35-.31.69-.24.36-.05-.07.35.17.27-.44.48h0ZM99.17,46.13c.13,0,.24,0,.37.01l.08-.3-.45.29h0ZM108.86,45.52c-.33.11-.34.2-.36.33q-.04.29-1.44.36l-.19-.26-.28.23-.46.12c-.3,0-.61,0-.91-.01q-.7.07-1.04-.48c-.16.07-.35.17-.51.24l-.75.05-.26-.41-.03-.39.56-.5c.12-.59.13-.61.44-1.18.13-.02.3-.05.43-.07.18,0,.37,0,.55.01l-.11.41-.25.45.18.47.59-.02.63.17.53-.05.87-.21.61-.21.64.19.6.22-.05.51h0ZM105.07,42.98l-.52-.12.48-.38.54-.09s0,.1-.03.42c-.15.05-.32.17-.48.18h0ZM108.35,40.94c-.21.18-.28.2-.29.2-.08.02-.13-.05-.2-.07-.07-.02-.11,0-.13.02-.09.05-.15.14-.23.21l-.17-.15-.23.26c-.13.21-.17.23-.22.24h-.15l-.29.2-.28-.13-.46.06-.39-.16.17-.34-.06-.22.34-.13h.28s.09,0,.37-.09l.1-.23h-.31s-.32.09-.32.09l-.27.04-.03-.19c.11-.09.23-.19.35-.27l-.16-.03c.11-.08.22-.16.33-.24l.29-.12.31-.25.19-.03.17.02c.22-.13.22-.15.22-.18,0-.11.02-.12.22-.18h.22s.15.05.35-.15h-.02s-.16-.02-.16-.02c.05-.03.17-.09.43-.14h.08s0,.04,0,.04c-.02.04-.03.06-.18.35-.08.08-.09.12-.09.16-.02.12.19.07.17.2-.01.12-.25.18-.15.31.03,0,.07-.01.25-.13l.05.14-.15.16-.09.22s.03.02.34.22c-.08.11-.15.22-.22.33h0ZM114.4,38.38s.04.04.12.18l-.19.04c-.06.1-.18.1-.27.17-.09.01-.17.01-.25.01h-.22l-.17.07v.15q.29-.02.42.05c.12-.03.25-.16.26-.18l.19.16-.05.11-.2.02c-.08.28-.36.38-.53.58l-.22.1-.08.18h-.54l.2.11.15.3-.29.13-.26.02-.12-.19-.31.02.26.28q-.4.31-.82.22l-.08-.18h-.25q-.28.19-.29.25c-.09.05-.21.09-.3.14v.23l.22-.14.26-.16c.19-.01.33.15.52.16.16.21.14.31.12.36-.06.02-.06.02-.15,0-.16,0-.26,0-.36,0h-.05c0,.22.29.4.1.63q-.05.07-.63.02h-.24l.04.35-.2.37-.4.08v.42s.42-.19.42-.19l.02.32q-.16.26-1.01.64c-.09,0-.19,0-.3,0-.19.09-.37.06-.51.02l-.02-.05q.14-.23.15-.31c-.12,0-.25,0-.37,0q-.65.04-.75-.09c-.19.03-.29.24-.5.24-.26,0-.44-.25-.7-.22-.19.03-.42.16-.6.22l-.29-.21-.05-.43.38-.31q.55-.11.77-.79c.47-.03.5-.02.53,0,.1.05.18.2.18.21.07.15.32.21.47.29l.39-.02.47-.29.27-.34c-.7.47-.76.45-1.13.37l.05-.28.46-.22-.38.04h-.42s-.24-.09-.24-.09l.12-.2c.06-.09.13-.18.18-.27l.38-.17.31-.07.39-.04.25.08.25.41c.05-.1.09-.2.13-.29.1-.15.31-.12.42-.25-.13-.02-.31-.04-.44-.06l-.2-.17-.19-.36-.04-.26-.02-.19.21-.22.38.07q.33.04.61.57c.08.01.18.02.25.03l.2-.04-.38-.09.03-.22-.07-.12-.16-.05.12-.2.19-.04h.16c.17-.03.33-.11.51-.13l.18-.07.24-.02c.09,0,.19,0,.28,0l.12-.15-.11-.02-.11-.04-.27.02c.17-.11.33-.23.51-.34l.13-.02-.17-.03c-.24.13-.26.12-.37.12l-.1.12-.2.17-.27.18c-.11,0-.22,0-.33,0l-.22-.04q-.33.25-.99.24l.17-.23.3-.22.29-.15-.25.03-.19.13-.32.22c-.15-.02-.27-.14-.43-.16,0-.08,0-.08.09-.19l-.11-.07.27-.2-.03-.04-.08-.04.21-.14.16.02.2-.12h.19q.09-.02.4-.17h.07s.05.08.05.08h.13c.14-.07.23-.19.35-.29l.11-.03h.05s0,.1,0,.1l.15-.03c0,.08-.07.14-.05.22l.04.02c.08,0,.15,0,.22,0l.04.16q.07.01.16,0l.06-.19q-.15-.08-.18-.15l-.18-.04.21-.17q.35-.09.37-.09h.13s.07-.09.07-.09h.12l.07.15h.06c.05-.21.1-.25.13-.27l.17.04c.06.05.07.17.19.17t.04-.14l.09-.03.11.12.05-.02c0-.06,0-.08-.01-.17.07.02.14.05.22.08q.07.09.11.1l.16-.02.06.12.12-.08h.14l.06-.06.25.13.14.14.15.02.08-.06.2.16h0ZM123.14,38.53c.43.1.63.15.91.23l-.02.06q.18.08.87.29l.04.07c-.11-.01-.25-.04-.35-.06.14.07.35.14.5.18.1,0,.21-.02.31-.03l.3.09c.86.28,1.64.75,2.49,1.08l.03.05q.15.13.69.33h-.15q1.37.61,1.41.66c.14.08.66.34.98.45-.08-.07-.2-.15-.31-.19.35-.14,1.15.22,1.16.22l-.06.08-.17-.05c.23.14.45.25.68.35.18,0,.21,0,.24,0l.16-.07c.17.06.36.13.53.2.08.04.11.05.16.07.08.06.21.14.3.2.63.31,1.22.6,1.81.91l.03.06q-.77-.34-1.38-.69l-.11-.05q-.15-.07-.54-.21c-.18.01-.22.02-.26.02l-.15.07.15.11c.09.09.13.11.17.13.81.41,1.72.56,2.55.92.32.17.53.28.73.4l-.16.02.03.08c.71.45,1.55.67,2.29,1.07-.08.12-.12.12-.16.13l-.17-.05.17.2c-.19.11-.21.12-.49.06.11.19.15.25.61.37l.08-.15c.75.19,1.05.49,1.32.75-.1.03-.25.02-.35-.01-.13-.02-.16-.02-.19-.01v.17c-.13.06-.25.07-.36.08-.17-.13-.36-.25-.54-.38-.12.01-.24.02-.37.03l.09.11q.57.2.65.25c.01.11.08.24.16.31.16.06.26.05.36.04l-.08-.15c.36-.17.62.04,1.11.44.08.06.16.11.22.16.25.18.49.38.75.57-.2.03-.23.03-.27.03q-.13-.01-.73-.32l.05.18c1.87.74,3.77,2.09,3.79,2.11-.14.1-.31.1-.46.2.06.09.15.21.23.3l-.17.1c-.57-.25-.94-.83-1.57-.99.06.09.13.24.15.35-.18.1-.22.12-.48.12h-.02c-.02.16.11.28.23.38.44.37.87.52,1.42.5h.1c.35.04.58.31.91.39.1,0,.13,0,.15,0l-.03-.22-.05-.16.17-.03c.15.12.25.21.35.62-.24.09-.42.1-.61.11-.07.39.35.64.33,1.02-.11.09-.12.09-.12.09l-.04.16c-.1.02-.21.09-.28.18-.1,0-.24.05-.33.09,0,.27.17.54.02.82q-.39.12-1.57-.23l-.15-.09-.05-.02-.13-.07h-.04s-.05-.02-.05-.02l-.05-.02c-.15-.02-.16,0-.18,0v.03q.41.43.51.61l-.11.14.03.17c.06.08.11.14.16.2l-.15.15q.13.32.2.51l-.1.1c.03.1.07.25.11.35q-.14.3-.06.6l.11.15c-.13.16-.17.21-.43.21h-.16c-.17.28-.06.61-.21.89q-.3-.03-.54.02-.21-.28-.55-.79c-.17,0-.35.02-.52.02.14.25.16.29.47.71-.31.02-.63.03-.95.04.09.22.25.41.32.64q-.14.19-.64.29c.17.52,1.04.55.89,1.26.19.37.38.71.58,1.04l-.09.15h-.16q-.16.3.14.85c-.08.06-.21.1-.31.11-.19.06-.25.06-.31.07-.11.02-.25.07-.33.13l.04.17c.24.58.76.95,1.11,1.45.4.58,0,1.3.28,1.91.09.19.13.27.16.33l.09.17c-.57,1.65-2.38-.62-3.6-.88h-.1c-.11.03-.23.07-.32.12-.17.08-.23.08-.3.08-.69.06-6.21-4.31-5.58-5.11.1-.13.28-.21.35-.37-.09-.32-.2-.59-.31-.85-.1-.01-.25-.03-.36-.03-.14.18-.14.44-.3.61q-.26,0-1-1.49l.13-.11c.06,0,.13,0,.2,0q-.06-.32-.23-.45c-.17-.04-.22-.03-.28-.03h-.17l-.06.18c-.84.36-1.47-1.15-1.48-1.17.07-.09.21-.18.32-.21-.21-.68-.98-.63-1.37-1.08-.05-.1-.06-.14-.08-.17l-.08-.17.07-.15q.31-.1.37-.32c.12.01.26.05.37.08.03-.27-.1-.56-.23-.85l.15-.06.14.08c.11,0,.16,0,.22,0h.18c.02-.1.06-.22.13-.3l.18.02c.16,0,.3,0,.45,0-.09-.17-.18-.34-.27-.51q-.15-.17-.57-.46c-.06-.09-.07-.11-.09-.14l.07-.17-.09-.15.08-.15-.05-.09c-.18-.22-.24-.24-.46-.29-.24,0-.34.01-.44.01q-.42-.06-.83-.25c-.2-.02-.29-.01-.4,0v.16c.11.02.25.05.35.05l.11.14c.18,0,.35.04.53.04.2.19.3.39.4.59q-.33,0-.53.03c-.06.09-.13.22-.15.33l-.22.05c-.4-.27-.94-.19-1.31-.53-.46-.39-.02-.63-.01-.63l.18-.03.08-.15c-.22-.22-.5-.38-.7-.63.69-.35,1.27.25,1.91.2h.33s.19.02.19.02c.12,0,.21,0,.3,0l-.04-.17c-.11-.13-.34-.34-.89-.58h-.03s-.02,0-.02,0h-.05c-.64,0-.94-1.16-1.63-.7l.07.18c-.2.08-.42.08-.66.09l-.17-.04c-.2-.04-.25-.04-.3-.04-.31-.04-.34-.07-.49-.24-.07-.13-.11-.23-.15-.33.08,0,.16,0,.25,0-.04-.22-.2-.38-.29-.59l.13-.1c.08-.1.03-.2-.03-.3-.1,0-.21,0-.32,0-.05-.09-.08-.22-.07-.32-.07-.17-.13-.29-.19-.42q-.3-.3-.35-.42c-.06-.13-.06-.15-.07-.17l-.28-.19-.08-.05c-.09-.08-.2-.21-.28-.3q-.29-.29-.34-.32l-.08-.07-.1-.09-.11-.07c-.06-.06-.16-.13-.24-.18l-.05-.07-.19-.19-.09-.05-.09-.04-.09-.04h-.09l-.06-.02-.08-.06-.08-.06-.13-.12c-.08-.16-.15-.31-.22-.45l-.22-.16c-.13-.03-.14-.03-.16-.03l-.19-.05-.24-.19h-.1s-.23-.05-.23-.05c-.08-.05-.18-.09-.26-.12h-.06c-.12-.01-.23-.01-.35-.01h-.06s-.08-.04-.08-.04l-.08-.06c-.08-.03-.18-.08-.26-.12h-.04l-.17-.02h-.14l-.07-.02c-.16-.11-.24-.16-.36-.05l-.02.06h-.05s0,.01,0,.01h-.04l-.04.02-.04.03-.03.03-.02.06c-.11.01-.25,0-.34-.04l-.07-.05h-.2l.03.12-.04.02-.07-.03h-.05s-.05-.05-.05-.05c-.1-.03-.23-.06-.33-.05h-.16c.03.08.08.18.13.24l.04.06-.04.04h-.09l-.24-.05-.07-.06-.08-.03-.19-.09-.06-.03-.06-.03-.06-.03-.02-.06-.06-.06-.05-.06-.15-.05-.05-.06v-.06l.05-.05.08-.04c-.24-.13-.51-.2-.75-.3l-.07-.05-.13-.14.09-.13h.27l.05-.15h.07c.09.02.22.05.32.07h.06l.17-.07c.1-.02.1-.02.1-.02h.13l.06.02.05.03h.06l.06.03h.09l.15-.15.03-.03c0-.19-.02-.26-.04-.33h-.03c-.1,0-.11,0-.12,0l-.16.05c-.11,0-.19,0-.27,0l-.06.03-.12.07h-.15c-.09,0-.23-.06-.31-.12l-.07-.02-.19-.1h-.42c-.14-.18-.16-.21-.43-.21q-.26-.34-.14-.52h.2l.05-.03.02-.05v-.05s0-.05,0-.05v-.05s.05-.02.05-.02h.05s.05-.03.05-.03c.16-.02.33,0,.49-.05.15-.06.22-.06.28-.06l.04-.03c.04-.12.04-.13.03-.15v-.07c.09-.03.22-.05.3-.03l.18.03h.18l.09-.05.21-.06h.03l.15-.03.02-.05v-.18c-.03-.11-.07-.17-.09-.24l-.03-.04-.03-.04-.04-.04-.06-.16-.13-.02h-.02s-.17.05-.17.05h-.1l-.04-.05-.04-.03c-.16-.04-.18-.04-.21-.04v-.14s0-.04,0-.04l.03-.14h.03s.02,0,.02,0l.02-.02v-.05s.01-.01.01-.01l.02-.03.02-.03.02-.03h.07s.12-.02.12-.02v-.03s.04-.11.04-.11l.15-.18v-.1c.08,0,.2.01.29.01l.04.04.05.02c.12.02.17.02.22.02-.07-.1-.15-.19-.22-.29l-.04-.03-.04-.04-.05-.03-.11-.13v-.02s.04-.06.04-.06h.02s0-.03,0-.03l.02-.02v-.02l.08-.02.04.02.05.03.05.03.06.03.13.06.16.06h.06s.12.04.12.04l.05.03.05.02.06.03.12.04h.03s.04.02.04.02h.1l-.02-.03-.14-.06-.04-.02-.14-.06h-.04s0-.01,0-.01h-.06l-.11-.04-.06-.04-.05-.03-.04-.03-.05-.03-.05-.02-.05-.02h-.02s-.05,0-.05,0h-.03s-.04-.04-.04-.04l-.03-.03v-.03s0,0,0,0h0c.14,0,.15,0,.15,0l.02-.04h0s.02-.02.02-.02h.11s.02,0,.02,0l.03-.03h0v-.02h.02v-.02s0-.01,0-.01l-.02-.03-.02-.05v-.03l.12.03.06.02.06.03.06.02.15.09.05.03.06.03.09.04.06.02.05.04.04.03.03.03.1.1c.11.09.13.09.14.11l.23.05-.05-.04-.2-.17-.05-.03-.05-.03-.06-.04c-.09-.06-.21-.12-.3-.17-.16-.08-.19-.11-.21-.12h.12s.09.04.09.04l.07.02.07.04.05.02c.09.02.09.02.1.02h.03s.17.08.17.08l.06.02h.04s.22.1.22.1l.08.03.09.03.05.02.06.03.08.02.07.03h.04s.05.02.05.02h.05l-.08-.05-.22-.11-.06-.03-.21-.1-.09-.03-.06-.02-.2-.08h-.05s-.02-.01-.02-.01c-.11-.04-.24-.09-.34-.13.1,0,.24,0,.34,0h.07l.05.02h.03s.05.02.05.02h.02l.17.06.07.02.09.03h.04s.08.04.08.04h.03c.11.04.24.07.35.09l.13.04h.03s.06.02.06.02l.17.04h.08s.11.03.11.03l-.21-.1-.07-.03-.08-.03-.1-.04-.25-.09-.2-.06-.06-.02h-.04s-.04,0-.04,0h-.06s-.06-.02-.06-.02h-.03c-.08-.03-.2-.06-.28-.09l-.08-.02-.2-.08-.05-.02-.04-.02h.11s.03.02.03.02l.07.02h.08s.03.02.03.02h.04s.01,0,.01,0l.08.03.08.02.06.02c-.13-.05-.26-.1-.4-.15l-.08-.03-.09-.02c-.12-.03-.12-.03-.12-.03h-.05s-.08-.04-.08-.04l-.16-.05-.07-.05h-.01s.17-.02.17-.02c.09.02.09.02.1.01l-.15-.08q.17.01.54.1h.13l.17.04q-.12-.06-.71-.22v-.05s.07,0,.07,0c-.09-.02-.2-.06-.28-.09.12,0,.27,0,.38,0,.08,0,.09,0,.09,0,.11,0,.25,0,.36.02h.07c.22.03.31.05.71.12-.13.02-.3.03-.48.04.1.02.25.06.35.08h-.09l.21.05h.18s-.16-.05-.16-.05h.04s.07-.02.07-.02h.14c.11,0,.26.02.37.05.08,0,.11,0,.14,0-.15-.04-.14-.04-.14-.04.45.05,1.07.15,1.08.15h.04c.17.02.34.05.52.09l.07.06c.1.03.24.08.34.11-.13.03-.25.03-.37.04l.17.06c-.09.04-.25.05-.41.06.13.06.27.15.85.33l-.03-.06h.01l-.03-.04h.02l-.14-.08c.19-.04.25-.05.32-.05.14-.04.33-.01.47.02l.04.07c.23.08.46.15.68.22l-.14-.09h.17c-.19-.08-.26-.1-1.1-.32l.17.02.08-.05c.22.04.79.15,1.24.33.24.07.4.11.56.16.52.15.99.41,1.51.53-.35-.16-.69-.28-1.03-.43l-.05-.03h.02s0,0,0,0h0q-.16-.08-.55-.2c.18,0,.35.04.52.06-.3-.2-.68-.22-1.01-.35h.01s.26.01.26.01c.33.05.67.05,1,.12h0ZM125.8,84.61c-.5.98-.76.91-.92.88-.13-.04-.19-.08-.32-.17-.15-.1-.25-.24-.39-.35-.15-.12-.33-.22-.48-.33l-.13-.1c-.14-.14-.21-.34-.37-.47-.16-.12-.36-.16-.53-.25.14-.08.34-.18.49-.26.13.02.25-.02.38-.03.13,0,.24.05.41.27.06.07.22.29.69.47.14.06.17.06.44.04.05,0,.19-.02.29.01.17.06.3.18.47.25l-.02.03h0ZM136.47,86.11q-.3.66-.06,1.38c.38,1.19.11,1.32.01,1.36-.2.09-.21.11-.27.19-.42-.18-.71-.31-1.49-1.06-.46-.45-.61-.48-.92-.51-1.26.03-2.51.05-3.79.07-.03-.22-.19-.4-.2-.63-.03-.29,0-.55.08-.76.11-.29.3-.51.55-.8.92-1.07,1.49-2.15,1.49-2.16.03-.05.03-.08.03-.24,0-.2.05-.41.02-.62-.03-.15-.19-.28-.09-.45.09-.15.52-.29.57-.3.13,0,.26.05.39.02.05.1.06.12.18.25.33.34.12.84.03.89-.11.06-.29,0-.37.17q-.09.18-.22,1.04c.2.07.36.21.56.25.34.08.7,0,1.04.11.16.05.24.14.38.3.26.29,1.08.71,1.09.72q.19.1.8.12c.07.16.16.36.24.53l-.07.14h0ZM158.08,58.72c-.26-.26-.52-.51-.77-.77-.17-.12-.3-.27-.49-.36q-.46-.19-.53-.15h-.09c-.26-.19-.41-.49-.64-.72-.17-.18-.38-.31-.56-.48-.17.02-.34.04-.51.05-.18.05-.12.18-.1.26,0,0,.12.33-.03.39l.07.16c-.29.05-.57-.15-.86-.12-.44.04-.43.24-.43.37,0,.15-.04.16-.12.19-.15.01-.31.02-.46.04-.12-.13-.23-.25-.36-.38-.12-.13-.24-.25-.36-.37-.16-.14-.36-.23-.53-.36l-.16.11c.12.12.24.25.36.36q-.49-.15-.54-.15c-.13.01-.58.07-.61.27-.05.37.66,1.05.92.89l.03-.18c.57-.13,1.13.44,1.58.89-.3-.05-.86-.16-1.28.1.17.18.39.4.56.58l.18-.12c.17-.01.34-.02.52-.04l.15.09c.22.26.45.52.67.78l.46.38c.09,0,.17-.01.26-.02q.37-.14.69-.17c.09,0,.17,0,.27-.02.45-.12.64.32.98.46.42.18.77.09.95.02l-.06-.44q-.22-.39-.25-.52c-.03-.14-.03-.15,0-.21h.21c.05-.24-.28-.47-.04-.69q.08-.07.9-.14h0ZM105.09,131.58c-.96-.08-1.49-.84-1.6-.99-.19-.32-.31-.43-.72-.38-.3.04-1.47-.41-1.48-.42-.19-.09-.23-.12-.29-.37-.14-.65-1.4-1.07-1.41-1.08-.36-.07-1.04-.09-1.11-.07-.42.12-.65.51-1.03.7-1.58.8-3.62-1.06-2.31-2.09q.16-.12,1.29-.05c.49.01.9.02,1.33.02.25.02.47.27.75.12q.53-.28.6-.28c.48-.02.96-.02,1.44-.03.4.02.48.19.55.38q.11.26.8.64c.58.35,1.25.54,1.79.96.36.28.53.74.97.92.66.26,1.33.03,1.99.04.26,0,.46,0,.67,0,.8.13,2.02,1.36,2.42,1.99-1.57,0-3.12-.02-4.68-.03h0ZM106.93,135.26q-.4.49-.53.55c-.2.1-.4-.05-.61,0-.03-.09-.04-.12-.04-.26,0-.22,0-.31-.11-.39,0,0-.54-.39-.83-.34-.33.06-.36.06-.49-.04l-.16-.17c-.13-.19-.21-.4-.33-.58.59,0,1.18,0,1.77.01l.18.03c.2.08.34.25.54.32.17.07.38,0,.53.13.22.18.07.43.16.63l-.09.09h0ZM123.32,134.56c-.18.1-.32.27-.53.29-.21,0-.42,0-.62,0-.24,0-1.3-.14-1.54-.24-.26-.1-.35-.1-.62,0-.14.06-1.25.29-2.34.26-.35-.01-.68.15-1.04.15-.36,0-.68-.18-1.03-.18-.77,0-1.19.85-1.98.81-.26,0-.45,0-.66,0-.29-.07-.99-.85-1.23-1.11,0-.64,0-1.28,0-1.91q.84-.15,1.18-.15l2.19.1c.52.03.81.53,1.3.63.39.08.56.54.98.55.09,0,1.07-.01,1.07-.01.27-.08.37-.4.64-.48h.31c.33.03.6.25.92.31.2,0,.41,0,.62,0,.65-.01.71-.03,1.85-.29.04.3-.16.61,0,.91.13.26.44.15.62.31l-.08.04h0ZM161.46,170.33q-.15.58-.79,1.51l-2.27,2.73c-.69.66-3.23,2.83-3.24,2.83-.5.58-.66,1.1-.81,1.61-.07.42-.12.61-.19.79,0,.12-.02.27-.04.39-.08.36-.12.49-.16.62-.19.58-.41.96-.96,1.71-.2.29-.22.37-.25.45q-1.16,2.2-1.34,2.25-3,3.63-3.39,3.74c-.18.14-.38.38-.46.59-1.01.25-1.92.28-2.84.32q-1.17.8-1.32.87c-.38,0-.74.02-1.12.03-3.68,2.14-3.64,2.91-3.6,3.72.08,1.46-4.02,4.49-4.32,4.51.11-.21.29-.48.43-.67t-3.48,3.15q-1.24,1.14-4.25.62c-.27,0-.54,0-.82.02.02.11.04.26.06.38q.6.42.86.75c-.1.36-.14.48-.18.59.25.04.31.04.38.04-.06.18-.11.35-.18.54l-.3.33c-.66.61-2.16,1.66-2.17,1.66-.6-.11-.9-.1-1.21-.1-.23.07-.53.14-.76.18-.18,0-.31,0-.44,0-.5.05-.79.05-1.09.06-.04.12-.06.25-.09.37.05.23.05.54,0,.77-.09.06-.21.15-.3.21-.08.25-.09.3-.11.35-.4.31-.77.31-1.14.31-.09-.06-.22-.15-.31-.22-.45-.12-.55-.12-.66-.11-.03.16-.05.31-.08.47,0,.24,0,.55.02.78.21.03.52-.04.7-.15.07-.02.09-.02.09-.02h.07c.14.19.13.24.12.29q-.32.38-1.02.33-.35.73-.61,1.02c-.23.44-.29.7-.35.94-.32,0-.63,0-.94,0-.23.08-.52.24-.72.38-.09.16-.1.2-.11.24q.07.3.63.88c.12.02.27.05.38.07.29.11.26.19.24.27-.68.35-1.21.9-1.82,1.33-.01.12-.03.27-.04.38-.23.05-.44.06-.67.06-.09.36-.11.47-.12.58.03.14.03.17.02.2.06.22.1.52.11.75l-.02.09c.06.22.11.52.15.75.34.08.33.14.3.21.23,0,.53.06.75.12-.14.07-.33.18-.45.29-.47.03-.75.03-1.01.03-.25-.08-.28-.08-.31-.08-.23-.04-.53-.09-.75-.13-.21-.18-.21-.2-.21-.23-.12,0-.28-.02-.39-.04-.33-.39-.81-.6-1.06-1.06l.06-.11v-.07c-.12-.03-.26-.06-.38-.1-.03-.32-.11-.32-.2-.32l-.19-.1.24-.1c-.17-.14-.34-.4-.4-.62,0-.37-.02-.39-.02-.41-.08-.08-.18-.19-.26-.28-.1-.3-.1-.32-.1-.34q.34-.22,1.09-.29c-.03-.11-.08-.26-.12-.37-.11-.02-.26-.05-.37-.07.02-.11.05-.26.08-.38-.2-.12-.51-.22-.74-.25,0-.11,0-.28,0-.39.33-.25.33-.38.32-.51.28.13.52.32.78.46-.03-.23-.13-.52-.24-.72-.31-.34-.32-.47-.33-.61.24-.01.24-.04.24-.06.05.31.05.36.06.4.11.13.3.31.46.4q.19-1.36.26-1.42c.04-.32.04-.57.04-.83.1-.07.22-.16.32-.23.11-.28.11-.43.11-.58h-.65l-.1,1.32c-.17,0-.35,0-.52,0-.1-.05-.23-.11-.33-.17q-.08-.3.17-1.08c.11-.02.27-.07.39-.11,0-.18-.04-.45-.13-.6-.05-.11-.11-.25-.16-.35.53-1.08.71-1.44.06-2.57.28-.57.83-.96,1.09-1.55l-.05-.12c.01-.11.02-.27.02-.38-.02-.23-.02-.35-.02-.46,1.33-1.15,1.23-1.76.72-4.68-.01-.11-.01-.16-.01-.2q.25-.6,1-3.03c.02-.83.66-1.42.8-2.19.09-.2.09-.28.09-.35v-.22c-.1-.21-.16-.53-.15-.76.19-.35.19-.42.19-.5v-.12c0-.11,0-.26,0-.37-.09-.27-.09-.36-.09-.45l.06-.07c-.03-.23,0-.53.08-.74.14-.36.14-.4.14-.44-.02-.12-.06-.29-.09-.41-.01-.22-.01-.3-.01-.38l.07-.12c-.03-.24,0-.58.06-.82.03-.81.05-1.63.07-2.46-.24,0-.56,0-.8-.02-2.3-2.78-4.39-3.2-4.41-3.2q-.57-.06-5.09-6.88c-.04-.24-.04-.44-.05-.63-.25-2.61-3.88-2.77-3.99-5.48,0-.09-.02-.18-.02-.27q-.58-.76-.46-1.43.85-.56.84-1.19c.36-.23.8-.25,1.18-.41.13-.48.12-.66.11-.85q-.68-.1-1.18.1c-.11-.05-.25-.13-.35-.18-.25-.79.03-1.61-.1-2.41.36-.22.77-.22,1.18-.21-.02-1.43.43-1.53,1.26-1.71.02-.17.04-.42.06-.59.26-.16.6-.36.86-.5-.04-.31-.11-.72-.16-1.03.24-.02.57-.05.82-.05q.37-.39.6-2.23c1.46-.95.08-2.46.12-3.7-.22-.05-.52-.17-.7-.31.05-.32.31-.99,1.47-1.79.04-.39.08-.62.55-1.45.66,0,.68-.02,1.16-.38.14-.74.13-1.32.13-1.92,1.72.04,2.59-.71,3.01-1.08.85-.07,1.42-.07,2-.07-.06-1.05.1-1.12,1.01-1.32h.67l.14.31s-1.23.95-1.37,1.54c.7,1.08-.6,2.7.9,3.55.34-.91-.41-1.81-.03-2.71,0-.01.46-.62,1.37-.58.43-.47.43-.54.44-1.09,1.04-.41,1.68.65,2.59.7.3.3.3.61.29.92.23.05.54.11.77.16.84.15,1.36.15,1.89.15.83.14,1.27.85,1.92,1.29q.47-.11,1.11-1.48c.51-.08.56-.1,1.2.19.13.03.19.03.24.03l.69-.54c1.02.17,1.08.26,1.37.68-.19.14-.47.27-.7.31q.01.34.11,1.15.32.05,1.55-.33c.41-.08.51-.08.61-.08-.05.62-.11,1.27.96,1.42.06.11.06.22.05.32q1.51.84,1.72.85c.54,1.69.74,2.33,3.51,2.82.24,0,.41,0,.57,0,.74.03,1.46-.51,2.22-.12.79.47,3.81,1.94,3.81,1.94q.08.13.68,1.81c-.05.53-.09,1.06-.14,1.58.24,0,.55,0,.79,0q.44.98-1.45,3.1c-.13.47-.14.66-.16.85,1.14.15,1.19-.35,1.27-1.1.1-.06.23-.16.33-.22.14,0,.23,0,.32-.01.1,0,.21,0,.3,0,.94.34,1.57.52,1.57.52.03.12.07.27.1.38-.12.08-.27.19-.39.28-.14.17-.35.39-.53.54-.16.53-.17.71-.2.9.39,0,.77-.02,1.16-.04.05-.45.11-.89.16-1.34.83-.15.92-.12,1.55.22.4.15.5.15.59.14q.99.14,2.92,1.45-.73.52-.82.82c.82.55,1.15.33,1.46.13.23-1.14,1.03-.7,2.15-.09.71-.01,1.23-.04,1.75-.06,1.81-.66,2.08,1.79,3.43,2.19.64.04,1.03.03,1.43,0,.45.25.84.47.62,3.41h0ZM203.84,114.27l-1.42-7c-.39-.64-.54-1.39-1.02-1.98-.23,1.45.62,2.72.71,4.12-.03.01-.05.03-.24-.11-.11-.31-.32-.72-.49-1-.15.08-.31.15-.48.22l-4.5-8.93c-.31.67-1.02.99-1.41,1.6q-.57-.84-1.13-.94c-.14.46-.48.87-.47,1.38-.36.07-.73.13-1.1.35q.12,1.16-.02,1.55c-.16.01-.36.02-.51.03-.1.12-.23.26-.33.37l-.12.02c-.15-.02-.34-.05-.49-.08,0,0,0,0-.11.02-.7.15-.89.05-1.33-.42-.11-.05-.26-.12-.36-.17-.08.91.25,1.77.37,2.65-.29.09-.7.15-1.01.14.21.81.4,1.63.59,2.45-.37.04-.75.09-1.06.59.19,1.31.29,2.63.49,3.93.07.35.13.7.19,1.05-.32.04-.64.07-.97.11.11.94-.39,1.76-.54,2.65-2.41,1.55-.32,4.63-2.16,6.38l-.18.09c-.14.04-.34.09-.48.13q.03.25-.84,4.66c.01.37.03.74.04,1.11.53.07,1.08.04,1.61.1.06.16.14.37.21.52q-.32,1.09-.33,5.14c0,.21,0,.42,0,1.03q-.16.67-.79,1.32c.03.71.2,1.41.27,2.13-.02.21-.02.41-.03.62-.06,1.38.18,1.69,1.17,3,.15.01.35.03.5.04.25.5.23,1.06.4,1.57.16.02.37.05.53.07q-.32,2.56,1.66,3.74c-.05.53-.13,1.04-.17,1.56.72.66,1.06,1.73,2.11,2.04.32-.44.49-.95.76-1.41.3-.03.7-.09,1-.15l.17-.02c.29-.06.72-.04,1,.04.06.15.13.36.19.52,1.37-.22,1.44-2.32,3.1-2.13.04,0,.07-.01.26-.24.14-.28.43-.61.68-.81.13.07.31.17.44.25q-.12,2.1.16,2.5c.54-.12,1.03-.25,1.47-.37-.12.61-.26,1.22-.5,2.18q-3.73,14.59-4.41,15.96c-.08.18-.17.37-.25.55-1.45,3.3-2.41,5.48-9.78,16.9-.61.8-1.22,1.59-1.85,2.37-3.27,4.16-3.48,4.41-6.68,7.66-.07.07-.14.14-.38.36q-.72.64-1.17,1.07v.03q-.86.78-1.15,1.06l.19-.15c2.71-2.53,6.17-6.07,8.7-8.79q3.14-3.64,8.48-11.48,2.56-4.08,6.65-12.73,1.92-4.5,4.63-13.79c2.16-8.69,2.49-16.2,2.74-22.25q0-5.11-1.19-15.02h0ZM175.6,74.07l-.99-1.12c-.21-.21-.28-.16-.33-.14-.08-.04-.15-.11-.23-.16h-.09c-.09.03-.08.14-.15.19-.02.14.08.26.07.4-.22-.14-.42-.3-.63-.44l-.25.09c.29.39.51.81.8,1.19l-.07.02-.02.12-.16.05-.11.19c-.09-.04-.15-.13-.24-.17l-.11.08c.38.56.75,1.14,1.11,1.71q.21,0,.43-.05c.16.25.32.51.48.76q-.21.08-.29.09c0,.12.16.47.16.48.07.19.23.34.31.52l-.05.11c.19.62.76.91.84.77.15-.25.16-.27.46-.07q.08-.05-.06-.89c.36-.04.7-.08,1.04-.13-.07-.12-.14-.23-.22-.35-.06-.1-.09-.12-.2-.24-.23-.24-.22-.29-.21-.31l.05-.05c-.11-.38-.71-1.25-1.05-1.73-.11-.16-.21-.32-.32-.48h.1c.02-.05.08-.19-.06-.43h0ZM173.86,74.07h-.06s.06,0,.06,0h0ZM181.57,76.76l-.19.03c.13.23.28.5.28.5l-.15.06q.02.1.14.29l.08.13c.21.29.51.51.66.84l-.02.15-.15.02c-.05.17.08.3.1.46-.1.06-.23.03-.34.11l-.08.05c-.24-.08-.4-.32-.64-.37l-.05.07c.08.18.09.21.09.4-.29.08-.37.04-.44.01q-.16.08-.32.06c.02.11.02.13.34.68-.11,0-.22.03-.33.05q-.29-.14-.35-.15.05.36.04.41c-.15.16-.18.18-.27.23l-.17-.15q.16-.43-.31-1.2l.17-.16h.07c.03-.14-.1-.28-.01-.42.74-.06.14-.65.14-.65l-.94-.17c-.06.08-.07.18-.11.28-.23.03-.55-.55-.64-.72h.02s.01,0,.01,0h.02s0,0,0,0h.02l.11-.06c-.02-.15-.1-.29-.1-.45l.11-.04c-.2-.44-.33-.73-.66-.38-.15-.01-.16-.04-.41-.41h.22c-.04-.1-.08-.2-.13-.28-.02-.09-.05-.18-.07-.26h.07s.09-.02.09-.02c.26-.08.48.09.71.14.07-.61-.51-.83-.75-1.26-.65-.31-.77-1.18-1.48-1.45l.07.22c-.18.03-.36.05-.54.08q-.26-.25-.42-.46l.03-.15.06-.03c-.13-.4-1-1.17-1.01-1.17q.09.19.28.47l-.22.03c-.14-.11-.57-.43-.57-.43v.08c-.09.06-.16.07-.24.08q-.42-.52-.2-.73c-.1-.28-.34-.45-.5-.69-.06-.08-.11-.15-.17-.23-.05-.08-.08-.16-.12-.24-.75-.12-1.11-.91-1.06-1.02.25-.05.4.3.68.15-.09-.36-.41-.52-.6-.8q-.56-.84-.64-.94c.29.03.37.02.47-.05l.17-.06.08-.03c.16.04.25.19,1.02,1.61.33-.05.65-.09.96-.14.24.3.49.6.73.91.18.24.19.56.38.79.08.11.14.18.2.26l-.11.07.26.68c.29.26.72.21,1.03.43.32.25.51.62.85.87.27.19.46.47.77.63.08.07.14.16.22.23.3-.09.75.6,1.18,1.27.09-.02.19-.03.29-.05q1.01,1.31,1.08,1.35c.09-.22-.16-.57-.26-.69l.05-.08c.37.27.62.66,1,.93.17.2.28.36.38.52h0ZM170.39,67.48l-.04-.06-.09.16c0,.12.09.21.08.33l-.07.07v.02c.02.08.09.14.13.21.04.13.04.27.11.39.06.11.15.2.21.3l.2.1.03-.13-.05-.12c-.16-.31-.15-.33-.13-.35h.09c.08-.06.08-.08.07-.11-.04-.08-.12-.12-.17-.2l-.04-.12c-.02-.06-.04-.11-.32-.51h0ZM187.17,74.55c2.5,3.28,3.18,4.47,7.56,12.15,1.65,3.43,3.64,8.11,5.05,11.65l-.02-.05v-.02s0,.02,0,.02c.04.13.1.3.15.42.06.19.13.38.19.57.04.11.08.25.13.36.05.15.11.35.16.5l-.03-.1-.04-.13c-.09-.27-.19-.54-.28-.82l-.06-.19-.05-.15c-.07-.21-.14-.42-.22-.62l-.03-.09-.05-.12-.05-.14-.03-.06-.05-.13c-.09-.24-.18-.48-.27-.72-.03-.07-.07-.15-.16-.41-.05-.12-.1-.27-.15-.38-.28-.74-.65-1.45-.9-2.21-.06-.14-.14-.33-.21-.47-.21-.33-.31-.71-.55-1.02.03.45.3.8.44,1.21l-.02.02-.05.05c-.06-.11-.14-.25-.2-.36l-.05-.04.07.22c.04.09.08.18.12.27,0,.01.86,1.89,1.17,2.32q-.18-.48-.24-.68.26.56.3.81c.31.77.32.84.42,1.15h-.05s-.12-.15-.12-.15c.08.27.09.3.22.62.04.09.08.19.15.41.18.51.19.55.2.82-.02.02-.04.04-.11-.06-.27-.63-.52-1.28-.79-1.91l.04.19c.03.12.06.27.08.39-.58-.98-.58-1.2-.59-1.36l.08.21.08-.05c-.15-.37-.29-.75-.5-1.18q-.21-.14-1.42-2.77c-.44-.96-1.11-1.79-1.66-2.68-.39-.62-1.19-1.6-2.95-3.61l-.19.08c.12.32.34.59.51.88l.07.13.03.21.08.29c.13.24.24.47.45.65h.2q.26.55.45.87l.09.04c.08.15,1.44,2.24,1.92,2.4.54,1.01,1.52,1.75,1.75,2.94-.13-.25-.15-.28-.39-.51l-.17.08c.05.13.11.3.16.42.05.11.1.21.19.33l.13-.1c.04.11.09.21.13.31,0,.02.72,2.01.65,3.1.12.36.25.72.38,1.08-.1.04-.21.08-.44.05-.45-.28-.51-.84-.86-1.18-.05-.11-.1-.23-.15-.34q.43-.16.62-.16.04-.77.08-.86c-.87-2.5-2.95-4.63-3.63-5.32-.23-.41-.23-.42-.46-.63-.8-.73-.74-2.15-2.03-2.47.08.27.08.3.13.81l-.16.15s-.05.01-.15.13q.18.71.32,1.02l-.1.18s-.08.02-.3.03c-.19-.11-.35-.25-.53-.38h0s0,0,0,0h-.02s0,0,0,0h-.03c-.89-.29-.54.44.18,1.91.04.09.08.19.12.27.12.28.23.55.33.85-.1.06-.27.11-.38.12q-.38.63-.29,1.16c-.1.08-.22.19-.29.29.03.13.07.31.09.44q.24,1.32.88,2.45c.12.31.23.62.34.94-.76.45-.68,1.39-1.15,2-.88.11-.23,1.42-1.11,1.51l-.11.17.16.05c0,.1,0,.24.02.34-.31-.28-.43-.68-.67-1.01-.26-.16-.52-.33-.78-.48-.07.1-.21.2-.33.26-.19-.09-.29-.28-.44-.41-.12.01-.29.06-.39.14-.15.02-.29.03-.47-.04-.31-.82-.34-.97-.3-1.36l-.09-.29c-.03-.1-.06-.19-.09-.29-.06-.1-.15-.24-.22-.34-.47-.78-.36-1.7-.6-2.53-.2-.55-.4-1.09-.64-1.73-.79-.84-.81-2.06-1.51-2.93l-.04-.28c.24-.02.47-.06.68-.19-.03-.13-.08-.3-.14-.42l.07-.18h.11q.2.18.81.23c.4-.05.79-.11,1.3-.12.4.39.96.43,1.42.68.04,0,.08-.01.27-.14.03-.13.08-.3.12-.43q-.57-2.4-2.32-4.54c-.23-.46-.47-.92-.7-1.38-.44-.38-.87-.78-1.32-1.15l-.14.02c-.13.03-.38.09-.84-.43l-.12.02c-.41-.45-.34-.62-.22-.92.12-.05.25-.14.34-.22.01,0,.65.55,1.25.29-.06-.11-.12-.21-.18-.32l-.2-.25c-.12-.22-.28-.57-.5-.68-.16-.25-.3-.51-.4-.79.11,0,.27.08.35.17.05.08.1.17.15.25.12.03.28.03.4.02l.17.1c.13-.02.24-.04.37-.07-.15-.25-.3-.51-.37-.87.09-.08.24-.15.37-.18-.31-.51-.62-1-.82-1.51l.19-.05s.06-.01.07-.17q-.2-.93,0-1.17c-.18-.27-.35-.53-.54-.8l-.32-.2c-.11-.16-.22-.32-.18-.52l.08-.02.08-.02h.21q-.07-.21-.41-.83l.09-.2c-.05-.11-.07-.27-.07-.39.11-.03.27-.04.38-.03l.13-.03.13-.16.1-.03c-.12-.15-.24-.31-.4-.53-.26-.29-.54-.56-.79-.85-.13-.18-.25-.36-.37-.54-.06-.08-.12-.15-.21-.26-.75-.79-1.33-1.71-2.02-2.55-.03-.04-.07-.08-.21-.25-.1-.09-.21-.22-.3-.32.13-.56-.54-.78-.55-1.29q.58.55,1.54,1.75h.2c.1.11.2.22.39.45q.45.68.67.85h0s.01-.07.01-.07q-.31-.51-.26-.72s.07-.02.2.08c.46.52,1.53,1.77,1.53,2.18q-.5-.31-.55-.33c-.08.02-.15.05-.14.22.08.1.19.23.27.33.1.13.21.27.32.41l.12-.04.02-.06q.45.54.7.64l.12-.04q-.41-.55-.48-.79s.08-.03.19-.13l-.08-.21s.07-.02.18.08c.42.54.45.56.69.78l.18-.07-.08-.18.13-.16c-.2-.45-.48-.86-.62-1.33.35.29.67.62,1.01.91l-.02-.08q-.96-1.15-.99-1.22c.11,0,.28.04.38.09l-.18-.24c-1.22-1.24-2.22-2.66-3.34-3.99.01-.01.02-.02.14.09.09.09.22.23.3.32,0,0,.01-.01.12.08q.53.52.64.6l-.03-.09q-1.82-2.03-2.12-2.17.35.39.43.61c-.46-.25-.63-.76-1.01-1.08h0s0,0,0,0l-.07-.03.08-.1c.15-.21.12-.43-.09-.65,2.77,3,6.31,7.16,8.85,10.35h0ZM177.81,65.32c-.32.16-.75.32-1.29.48.26.27.58.46.83.72l.1.11q.57.68.77.83.56.43.62.49l.2.23.19.21q.29.3,1,.89c.29.24.46.57.69.86l.09.11c.13.15.27.3.4.46.12-.05.23-.08.34-.12q-.72-.88-.78-1.06h.03s.05-.03.05-.03c.09.03.14.11.23.13-.06-.15-.28-.22-.23-.44h.04c-.19-.24-.38-.47-.58-.69l.15-.07c-.16-.19-.33-.38-.49-.55l-.07.04.02.06-.02.02c-.14-.04-.18-.2-.31-.26q-.57-.76-1.26-1.51c-.4-.44-.65-.75-.71-.92h0ZM176.05,65.94h0c-.34.09-.71.18-1.11.26l.02.03.14.2c.07.08.16.13.24.21l.15.16.09-.04h.06s.05-.03.05-.03h.02s.13.11.13.11c.12.12.26.21.39.32l.02-.15.08.02.06.03c.06.03.1.1.18.08.09-.03,0-.22,0-.22l-.07-.1c-.06-.08-.08-.11-.07-.12.07-.01.09-.02.05-.11q-.06-.14-.42-.65h0ZM164.81,52.94h0s-.6-.41-.87-.57q1.12.74,1.66,1.11l1.37.99c3.95,2.88,4.07,3,10.88,9.28l.46.45c.21.22.24.44.04.59-.46-.46-.56-.59-.75-.84l.12.05c-.12-.13-.16-.29-.24-.44q.29.26.39.32c-.48-.52-.95-1.04-1.46-1.53l-.21-.19-.03.02c-.14-.13-.3-.28-.46-.42l.05.07.18.19.02.15.09.1c.11.11.28.26.33.4l-.11-.04c.13.15.27.31.4.47h-.04c-1.03-.79-1.66-1.26-2.09-1.64l-.22-.2q-3.53-3.17-4.11-3.76l.11.02c-.48-.45-.73-.65-1.71-1.39l.02-.04c-.25-.19-.51-.38-.79-.6-.56-.4-.62-.43-.81-.53.1.09.21.18.31.27-.24-.17-.49-.34-.74-.5h0s0,0,0,0l-.08.05c3.97,3.14,6.32,5.87,6.33,5.89.6.53,1.18,1.07,1.79,1.65.51.52,1.21.82,1.74,1.32.08.08.15.15.23.22q.38.38,1.16,1.46c-.32.17-.75.33-1.29.49-.93-1-1.17-1.05-1.25-1.06.15.14.27.29.42.44l.04.12-.11.05c.16.2.29.4.44.6-.34.09-.71.18-1.15.2q-.06-.15-.49-.62c-1.1.05-.67-1.67-1.78-1.56l-.19.04c-.14-.15-.28-.29-.41-.42l-.16-.21.03-.05c-.6-.7-1.52-1.11-1.87-2.04l.11-.05q-.96-1.39-.97-1.42h.01s0,0,0,0h0l.04-.08v-.12c-.17-.13-.33-.26-.49-.38l-.37-.35s.07-.02.18,0c.07.04.19.06.27.07q-1.58-1.85-1.72-1.97s-.06.02-.18.05c-.41-.31-.64-.79-.99-1.16l.21.15s-4.59-3.68-4.71-4.05q-.36-.24-.54-.3l-.02.12.09.11.05.07.21.16s0,.04.4.48h-.11s-.23-.19-.23-.19h.04q-.29-.21-.46-.36l-.03-.05c-.12-.09-.29-.2-.4-.31l.08-.08c-.27-.19-.6-.28-.79-.57l.12.04-.09-.07c-.25-.16-.51-.32-.81-.55q1.38.75,1.53.8l-.2-.15c-.08-.05-.17-.1-.25-.16-.22-.14-.48-.23-.7-.36,0,0-.61-.43-.85-.63q.7.42.85.45c-.47-.36-1.34-.84-1.69-1.04-.17-.09-.33-.19-.48-.32q1.19.57,1.76.88c-.2-.14-.27-.2-1.29-.77h.06c.12.02.25.03.36.09l.02-.02c-.19-.11-.38-.22-.64-.34-.21-.03-.98-.43-1.39-.79,0-.02.02-.03.12.02.45.27.61.33.69.36l-.02-.03s-.89-.56-1.33-.82l-.06-.03.07.02.67.35.02-.02c.35.16.56.28,1.17.62h.03s-.23-.11-.23-.11c-.09-.05-.18-.1-.26-.15-.42-.24-.42-.24-1.09-.59v-.07c.06.04.15.08.3.17.15.08.3.16.44.25.19.1.36.2.47.23-.25-.15-.53-.29-.8-.43v-.02c.34.17.71.33,1.06.52l.58.35c.1.05.19.11.32.18.18.05.32.15.48.22-.12-.07-.24-.14-.35-.21l-.05-.03c.27.15.54.31.81.45.04.03.09.05.19.11.26.15.51.3.77.45l-.07-.05c-.21-.12-.41-.24-.61-.36l-.06-.04c.17.1.33.19.49.28h.01s5.02,3.21,5.02,3.21h0ZM157.52,48.72c-.4-.22-.79-.44-1.19-.65h-.03s.06.03.06.03v.02s.12.07.12.07c.34.19.68.38,1.02.56v-.04h0ZM178.33,64.95l.08-.1-.06-.03v.02s-.06-.04-.18-.15l-.21-.2h-.02s-.01.02-.01.02c0,0,.03.11.4.45h0ZM138.52,40.81l-.3-.09c-.47-.12-.5-.13-.58-.15l.05.02q-.12-.02-1.04-.27l-.03.03c-.65-.18-1.3-.33-1.95-.49-.01,0-.94-.21-1.12-.23q.08.03.27.09c-.14,0-.26-.04-.34-.05-.27-.06-.52-.12-.76-.18-.69.12-1.27-.28-1.91-.35h-.02c.29.08.59.14.9.21.09.02.19.05.28.07q1.26.29,1.48.36-.08,0-.85-.19c-.1-.02-.2-.05-.29-.07-.1-.03-.2-.05-.3-.07-.1-.02-.21-.05-.31-.07q-.51-.11-.62-.12c.31.09.63.16.94.25v.03c-.17-.04-.33-.08-.51-.12-.26-.07-.53-.14-.79-.2.04.02.12.05.59.16l-.06.04c1.29.5,2.66.63,3.97,1.02-.47-.1-.93-.25-1.41-.33.22.08,1.84.5,2.05.52q-.07-.03-.92-.27c.39-.02.72.18,1.09.26l.06-.02c-.11-.05-.92-.3-1.21-.39-.18-.05-.33-.09-.48-.12l-.04-.03q.38.09,1.12.29l.05-.02-.42-.13.23.05c.25.07.49.14.74.2.08.02.17.05.25.07h-.06s-.02,0-.02,0h-.12q.07.02.24.08t.51.22c.21.06.42.13.63.19l-.1-.06h.02s.18.02.18.02q-.08-.06-.58-.24l-.04-.02c.12.02,1.17.38,1.18.39h0q-.11,0-.17.02c1,.49,2.12.6,3.17.93l-.06-.04s-1.91-.67-2.62-.92c-.49-.18-.98-.32-1.46-.46-.08-.06-.1-.08-1.85-.54l.05-.04q2.03.54,3.73,1.05h.02c-.25-.12-.49-.2-.75-.28.11.02.14.02,1.08.31v-.02q-.1-.04-.68-.22l-.02-.05-.13-.06h0ZM132.72,39.49l-.15-.03.15.03h0ZM131.14,38.92c-.1-.02-.71-.15-.77-.13.07.02.15.03.23.06h0c-.44-.08-.87-.15-1.3-.23.37.09.75.12,1.12.24-.07-.01-.15-.03-.22-.04l-.68-.14-.15-.03c-.1-.02-.21-.03-.31-.06.13.03.25.05.38.08h0s-.16-.02-.16-.02h-.01c1.04.21,1.35.28,1.67.35-.41-.06-.81-.17-1.22-.24-.26-.04-.27-.04-.35,0,.34.09,1.09.24,1.42.29h0c.08,0,.16.02.24.03l-.19-.06c.17.02.34.05.69.13l-.05.04c.23.05.45.1.67.15.18.03.37.08.56.1l.03-.03-.07-.02c.22,0,.41.19.64.1-.23-.12-.5-.09-.73-.2.09.02.2.04.29.05q-.12-.05-1.73-.41h0ZM127.57,38c-.19-.03-.37-.05-.57-.08-.28-.04-.56-.08-.85-.12l-.12-.02c.36.05.71.09,1.07.16h-.05c.12.02.24.04.35.05h0l-.21-.02c.28.04.55.08.83.13-.13-.02-.25-.04-.36-.05h.02c.35.06.71.13,1.06.17-.26-.05-.51-.07-.77-.14h.07s-.08,0-.08,0c.26.05.53.08.78.14.2.03.4.07.59.11.17.03.35.06.51.09.11.02.23.04.35.06-.27-.05-.74-.14-1.42-.26-.1-.02-.19-.03-.28-.05l-.14-.02h.05s-.02,0-.02,0c-.26-.05-.54-.09-.8-.14h0ZM125.17,37.64h0l.15.02c-.37-.05-.74-.1-1.11-.14l-.26-.04.2.03h.03c.45.06.89.11,1.34.18l-.05-.02.03.02h.02c.34.05.67.09,1.01.15l.49.07c.18.03.35.06.53.09h.01c.16.03.31.05.47.08l.3.05.18.03c-.22-.04-.98-.17-1.9-.31l.13.02-.58-.08c-.18-.03-.36-.05-.53-.08h.09s-.55-.06-.55-.06h0ZM109.8,48.12l-.49.36-1.25-.08-.07-.5.03-.64c.26,0,.52,0,.77,0l1.13.07.66.58-.77.21h0ZM103.72,63.45q-.25.31-.32.37s-.42.29-.69.36c-.29.08-.42.03-.42.03-.17-.05-.24-.21-.36-.32.12-.06.24-.13.36-.2.5-.29.64-.33.75-.35q.24-.05.32-.09c.14-.07.24-.2.38-.28l.02.41-.04.05h0ZM106.52,64.91l-.42.21c-.33,0-.67,0-1,0l-.16-1.07.84-.42.78.12c0,.25.02.49.02.74-.02.14-.03.28-.05.42h0ZM204.15,116.18c.25,1.55.38,2.66.49,4.35-.13-1.51-.3-2.97-.49-4.35h0ZM205.02,129.24s0,.03,0,.04v.03s0,.06,0,.09v-.15h0ZM205.03,129.3s0,0,0-.02c0,.11,0,.21,0,.32v-.3h0ZM205.02,129.71v.14-.14h0ZM200.64,157.34l-.02.06c.61-1.9,1.17-3.84,1.68-5.85,0,0,0,0,0,0-.65,2.6-.97,3.82-1.68,5.87,0-.03.01-.05.02-.07h0ZM194.75,171.48c.98-1.89,1.93-3.87,2.83-5.95.03-.07.06-.13.1-.2-1.18,2.75-1.63,3.81-2.93,6.16h0ZM187.94,182.66c1.5-2.1,2.53-3.72,3.08-4.61-1.45,2.31-2.08,3.31-3.42,5.08.11-.16.22-.31.34-.47h0ZM178.16,64.07c.18.18.37.37.54.56-.12-.15-.26-.29-.39-.43-.05-.05-.1-.1-.17-.15v.02h.01ZM187.25,74.67h0s-.05-.08-.08-.12l.08.12h0ZM194.72,86.7h0c-1.2-2.32-1.78-3.42-2.89-5.19.89,1.48,1.73,2.97,2.52,4.47.13.24.26.49.38.72h0ZM199.34,97.25c.25.66.49,1.31.71,1.93l-.05-.15c-.04-.12-.09-.27-.14-.39l-.04-.11-.04-.12-.02-.05c-.14-.36-.29-.73-.44-1.11h0ZM200.06,99.21c.02.05.04.11.06.16v-.04s-.06-.12-.06-.12h0ZM178.15,64.05c.06.05.12.1.17.15l-.46-.45c-1.91-1.9-2.8-2.79-4.45-4.16.18.17.36.33.55.49,1.22,1.08,2.54,2.31,3.91,3.67l.3.31h0ZM126.2,37.78s.03,0,.03,0c-.17-.03-.34-.05-.51-.08h-.02c.17.02.34.05.5.07h0ZM126.44,37.81c.06.01.12.02.19.03l.18.03h.01c-.13-.02-.26-.04-.38-.06h0ZM126.86,37.88h0-.04s.02,0,.03,0h0ZM128.34,38.13c.09.02.18.03.27.05-.09-.01-.18-.03-.27-.05Z"/>
    <path class="cls-1" d="M117.19,130.91c-.34,0-.75-.08-1.24-.23-.49-.16-.92-.44-1.29-.84-.37-.41-.56-1.01-.56-1.8,0-.7.15-1.61.45-2.73.3-1.13.68-2.39,1.13-3.79.46-1.4.91-2.88,1.37-4.42.46-1.55.83-3.1,1.13-4.66.3-1.56.45-3.06.45-4.49,0-.89-.03-1.71-.09-2.48-.06-.77-.24-1.38-.54-1.85-.3-.47-.81-.7-1.53-.7-.67,0-1.24.2-1.71.59-.47.4-.85.91-1.15,1.53-.3.62-.51,1.28-.65,1.98-.13.69-.2,1.34-.2,1.94,0,.38.03.74.09,1.06.06.32.14.62.23.88-.93,0-1.59-.26-1.98-.77-.38-.52-.58-1.12-.58-1.82,0-.74.17-1.49.52-2.23.35-.74.83-1.43,1.44-2.07.61-.63,1.31-1.14,2.1-1.53.79-.38,1.63-.58,2.52-.58,1.49,0,2.59.58,3.32,1.74.73,1.16,1.1,2.71,1.1,4.66,0,1.39-.16,2.85-.47,4.37-.31,1.52-.69,3.04-1.15,4.55-.45,1.51-.92,2.96-1.38,4.35-.47,1.39-.86,2.67-1.17,3.85-.31,1.17-.47,2.17-.47,2.98,0,.41.07.74.2,1.01.13.26.4.4.81.4.67,0,1.45-.34,2.34-1.02.89-.68,1.8-1.62,2.75-2.8.95-1.19,1.87-2.52,2.77-4.01.9-1.49,1.71-3.04,2.43-4.66.72-1.62,1.29-3.21,1.73-4.76.43-1.56.65-3,.65-4.31,0-1.2-.18-2.08-.54-2.64-.36-.56-.84-.93-1.44-1.1.34-.58.69-.99,1.06-1.26.37-.26.71-.4,1.02-.4.5,0,.99.32,1.47.97.48.65.72,1.65.72,3.02s-.25,2.82-.74,4.49c-.49,1.68-1.16,3.42-2,5.23-.84,1.81-1.8,3.56-2.88,5.27-1.08,1.7-2.2,3.24-3.38,4.6-1.17,1.37-2.34,2.46-3.49,3.27-1.15.82-2.22,1.22-3.2,1.22h0ZM131.53,130.91c.65,0,1.31-.46,1.98-1.37.67-.91,1.44-2.35,2.32-4.31.87-1.97,1.96-4.52,3.25-7.68,1.29-3.15,2.9-6.96,4.82-11.41.02.24.04.51.05.83.01.31.02.71.02,1.19,0,.96-.03,2.1-.09,3.43-.06,1.33-.13,2.71-.2,4.15-.07,1.44-.14,2.83-.2,4.19-.06,1.35-.09,2.52-.09,3.51,0,1.39.1,2.47.31,3.23.2.77.63,1.15,1.28,1.15.12,0,.2-.01.25-.04.05-.02.14-.06.29-.11.29-.89.7-2,1.22-3.34.53-1.34,1.13-2.8,1.82-4.37.68-1.57,1.4-3.14,2.16-4.71.75-1.57,1.51-3.03,2.26-4.39.75-1.35,1.48-2.47,2.18-3.36-.94,3.52-1.77,6.92-2.5,10.19-.73,3.27-1.1,6.33-1.1,9.18,0,.98.07,1.77.22,2.35.14.59.43,1.01.86,1.28.43.26,1.05.4,1.87.4-.1-.41-.19-.72-.27-.95-.08-.23-.15-.49-.2-.77-.05-.29-.07-.7-.07-1.22,0-1.15.1-2.57.29-4.26.19-1.69.45-3.49.77-5.41.32-1.92.68-3.8,1.06-5.66.38-1.86.77-3.52,1.15-4.98.31-1.22.62-2.26.92-3.11.3-.85.53-1.49.7-1.92-.43-.17-.81-.25-1.15-.25-.38,0-.7.13-.93.38-.24.25-.53.62-.86,1.1-.31.48-.8,1.25-1.47,2.3-.67,1.05-1.43,2.3-2.26,3.74-.84,1.44-1.68,2.98-2.53,4.62-.85,1.64-1.63,3.29-2.34,4.94-.71,1.65-1.25,3.21-1.64,4.67.05-1.34.13-2.83.25-4.46.12-1.63.23-3.28.34-4.96.11-1.68.16-3.26.16-4.75,0-2.18-.14-3.85-.41-5-.28-1.15-.68-1.95-1.22-2.39-.54-.44-1.2-.66-2-.66s-1.6.16-2.43.49c-.83.32-1.58.77-2.26,1.35-.68.58-1.24,1.22-1.67,1.94-.43.72-.65,1.47-.65,2.26,0,.38.07.81.2,1.28.13.47.34.86.61,1.19.28.32.64.49,1.1.49-.02-.17-.04-.34-.05-.5-.01-.17-.02-.37-.02-.61,0-.98.16-1.98.49-2.98.32-1.01.81-1.85,1.47-2.53.66-.68,1.49-1.02,2.5-1.02.5,0,.83.09.99.27.16.18.23.4.23.66s-.04.53-.13.81c-.08.28-.16.5-.23.67-1.46,3.26-2.85,6.34-4.15,9.26-1.31,2.91-2.48,5.51-3.52,7.8-1.04,2.29-1.89,4.15-2.53,5.57-.65,1.43-1.04,2.31-1.19,2.64h0ZM175.46,132.13c-.53,0-1.14-.33-1.85-.99-.71-.66-1.44-1.52-2.21-2.59-.77-1.07-1.53-2.23-2.28-3.5-.76-1.27-1.45-2.54-2.08-3.81-.63-1.27-1.17-2.41-1.6-3.41-.67,2.35-1.32,4.65-1.94,6.92-.62,2.26-1.21,4.32-1.76,6.16-.6,0-1.14-.17-1.64-.5-.49-.33-.74-.77-.74-1.29,0-.26.06-.58.18-.95.12-.37.23-.71.32-1.02.6-1.89,1.19-3.68,1.76-5.36.58-1.68,1.14-3.29,1.69-4.85.55-1.56,1.12-3.1,1.71-4.64.59-1.53,1.2-3.08,1.85-4.64.65-1.56,1.34-3.18,2.08-4.85-1.01.17-1.88.41-2.62.74-.74.32-1.34.62-1.8.9-.46.28-.77.41-.93.41-.1,0-.23-.05-.41-.16-.18-.11-.34-.24-.49-.4-.14-.16-.22-.29-.22-.41.62-.26,1.35-.55,2.19-.86.84-.31,1.76-.58,2.77-.79,1.01-.22,2.05-.32,3.13-.32s2.08.13,3.15.38c1.07.25,2.05.65,2.95,1.19.9.54,1.62,1.23,2.17,2.09.55.85.83,1.87.83,3.07s-.27,2.19-.81,3.04c-.54.85-1.25,1.56-2.12,2.14-.87.58-1.83,1.04-2.86,1.38-1.03.35-2.05.61-3.06.79-1.01.18-1.92.3-2.73.36-.81.06-1.43.09-1.83.09.74,1.27,1.45,2.5,2.12,3.7.67,1.2,1.4,2.39,2.19,3.58.79,1.19,1.73,2.38,2.8,3.58,1.08,1.2,2.38,2.42,3.92,3.67-.14.31-.4.59-.77.83-.37.24-.72.36-1.06.36h0ZM166.01,115.84c1.29-.07,2.61-.28,3.94-.63,1.33-.35,2.55-.84,3.65-1.47,1.1-.63,1.99-1.44,2.66-2.41.67-.97,1.01-2.13,1.01-3.47s-.31-2.35-.93-3.11c-.62-.75-1.43-1.29-2.41-1.62-.98-.32-2.01-.49-3.09-.49-.81,1.65-1.63,3.64-2.44,5.95-.81,2.31-1.61,4.73-2.37,7.24Z"/>
  </g>
</svg>