<?xml version="1.0" encoding="UTF-8"?>
<svg id="Camada_1" data-name="Camada 1" xmlns="http://www.w3.org/2000/svg" viewBox="0 0 256 256">
  <defs>
    <style>
      .cls-1 {
        fill: #002e59;
      }

      .cls-2 {
        fill: #fff;
      }
    </style>
  </defs>
  <rect class="cls-1" x="-18.4" y="-9.21" width="290.04" height="275.74"/>
  <path class="cls-2" d="M219.36,116.94l-51.42-48.95-8.99,7.5c-3.03-2.21-6.08-8.37-10.19-7.28l-21.29,20.74-21.29-20.74c-4.11-1.08-7.18,5.08-10.19,7.28-3.03-2.21-6.08-8.37-10.19-7.28l-50.21,48.73-.1,68.25c1.44,4.41,19.34,2.31,23.87,1.81l1.71-67.07,34.93-34,17.13,15.97-14.85,17.75,1.36,67.35c1.93,1.34,21.61,1.85,24.07-1.6v-65.76c0-.46,3.03-2.77,3.75-3.71.7.94,3.75,3.25,3.75,3.71v65.76c2.47,3.45,22.13,2.95,24.07,1.6l1.36-68.83-14.85-15.19,17.13-17.05,36.73,35.19v66.52h21.73c2.15-1.3,2.07-2.97,2.33-5.16,2.35-20.02-1.64-44.98-.38-65.54ZM53.27,116.64v63.54h-11.98v-59.06c8.27-5.46,38.52-42.31,44.46-43.87.9-.22,1.81-.46,2.73-.22l2.27,3.71-37.48,35.91ZM101.96,81.53c-1.36-2.63-.24-2.87,1.56-4.51,3.71-.96,18.92,15.13,18.58,16.97l-3.61,3.93c-3.27-4.83-14.26-12.04-16.53-16.39ZM116.25,118.12v62.05h-10.49v-60.55l12.74-12.68,3.63,5c-.54,1.79-5.88,5.42-5.88,6.18ZM149.21,119.63v60.55h-10.49v-62.05c0-1.99-11.13-5.78-2.25-11.17l12.74,12.68ZM136.47,97.92l-3.09-5.94c.56-1.12,14.3-14.46,15.35-14.75.88-.22,1.79-.46,2.71-.22l2.27,3.71-17.23,17.19ZM213.67,180.17h-12v-63.54l-37.44-35.89,5.02-3.63,44.42,44v59.06Z"/>
</svg>