<?xml version="1.0" encoding="UTF-8"?>
<svg id="Camada_1" data-name="Camada 1" xmlns="http://www.w3.org/2000/svg" viewBox="0 0 256 256">
  <defs>
    <style>
      .cls-1 {
        fill: #aba05f;
      }

      .cls-2 {
        fill: #fefefe;
      }
    </style>
  </defs>
  <path class="cls-1" d="M226.02,187.06h-61.67v-47.71l-24.69,13.99c-.28.54-1.09-.49-1.09-.56v-66.05l-39.47-22.48v67.98l-11.52-6.86v-31.53l-39.47,22.76v71c0,.1,2.19.1,2.19,0v-68.81l5.13-3.66,29.96-16.91v25.78c-4.32-1.22-7.73-5.11-12.06-6.03v69.63h14.26v-58.67l11.52,6.03v52.64h14.26v-46.89l-11.52-7.12v-64.42l34.58,19.56-.03,65.69c-.4,2.11-9.79,5.46-11.5,7.68v25.49h13.7v-30.44l4.57-3.1,18.46-10.33v45.52h65.25c.23-.64-.25-2.19-.82-2.19ZM84.57,185.41h-8.49v-63.05c1.94.64,9.01,4.09,9.33,5.75l.02,55.41c.12.56-.4,1.9-.86,1.9ZM110.62,141.54v43.87h-8.78v-48.25l8.78,4.38ZM136.38,185.41h-9.31v-21.66c2.69-2.13,6.06-4.14,9.31-5.21v26.86Z"/>
  <path class="cls-2" d="M226.02,187.06h-61.67v-47.71l-24.69,13.99c-.28.54-1.09-.49-1.09-.56v-66.05l-39.47-22.48v67.98l-11.52-6.86v-31.53l-39.47,22.76v71c0,.1,2.19.1,2.19,0v-68.81l5.13-3.66,29.96-16.91v25.78c-4.32-1.22-7.73-5.11-12.06-6.03v69.63h14.26v-58.67l11.52,6.03v52.64h14.26v-46.89l-11.52-7.12v-64.42l34.58,19.56-.03,65.69c-.4,2.11-9.79,5.46-11.5,7.68v25.49h13.7v-30.44l4.57-3.1,18.46-10.33v45.52h65.25c.23-.64-.25-2.19-.82-2.19ZM84.57,185.41h-8.49v-63.05c1.94.64,9.01,4.09,9.33,5.75l.02,55.41c.12.56-.4,1.9-.86,1.9ZM110.62,141.54v43.87h-8.78v-48.25l8.78,4.38ZM136.38,185.41h-9.31v-21.66c2.69-2.13,6.06-4.14,9.31-5.21v26.86Z"/>
</svg>