<?xml version="1.0" encoding="UTF-8"?>
<svg id="Camada_1" data-name="Camada 1" xmlns="http://www.w3.org/2000/svg" viewBox="0 0 1080 1080">
  <defs>
    <style>
      .cls-1 {
        fill: #aba05f;
      }

      .cls-2 {
        fill: #fdfdfc;
      }

      .cls-3 {
        fill: #fefefe;
      }

      .cls-4 {
        fill: #f9f8f5;
      }

      .cls-5 {
        fill: #010100;
      }

      .cls-6 {
        fill: #fdfdfd;
      }
    </style>
  </defs>
  <rect class="cls-1" x="-49.64" y="-46.57" width="1170.38" height="1152"/>
  <g>
    <path class="cls-1" d="M209.74,801.06v57.69c0,.38-7.27.38-7.27,0v-57.69c0-.38,5.96.22,7.27,0Z"/>
    <path class="cls-1" d="M310.7,801.06v57.69c0,.38-7.21.38-7.21,0v-41.48c-6.02,3.74-18.27,35.41-24.13,34.21-4.61-.98-17.08-30.2-22.77-34.21v41.48c0,.38-7.21.38-7.21,0,0-7.7-2.06-55.69,0-57.69,1.03-.98,6.24.11,8.13,1.79,4.61,4.07,14.59,27,19.95,34.16.76.98,3.47,4.39,4.39,3.74,4.66-7.75,15.18-33.02,20.71-37.9,2.66-2.33,4.99-1.95,8.13-1.79Z"/>
    <path class="cls-1" d="M348.6,687.41c-1.79,25.59-21.74,39.15-45,44.25-35.35,7.81-97.28,3.04-104.27-41.97-9.87-63.44,33.24-82.36,88.92-78.08,25.76,1.95,61.33,14.42,60.35,45.17-2.33-.43-9.92.7-10.74-.11-.7-.65-2.28-12.42-6.51-17.84-17.57-22.88-84.48-22.29-106.33-5.53-21.74,16.76-21.74,64.42,1.03,80.14,25.48,17.68,93.59,16.7,108.99-15.18,4.39-9.05-1.03-12.74,13.56-10.84Z"/>
    <path class="cls-1" d="M376.85,799.92c-41.86,1.41-38.77,66.31,8.62,58.72,33.02-5.26,31.07-60.02-8.62-58.72ZM355.65,828.99c.22-7.75,5.96-18.49,14.1-20.33,12.09-2.77,25.11.7,29.44,13.07,11.93,33.94-44.57,42.57-43.54,7.27Z"/>
    <path class="cls-1" d="M373.87,795.64c4.55-6.4,9.33-12.58,18-10.79-3.8,5.86-10.63,11.55-18,10.79Z"/>
    <path class="cls-1" d="M484.75,802.85l9.98-1.79c-10.09,16.32-15.02,39.58-24.73,55.47-2.49,4.01-7.05,3.09-10.47.43l-24.35-55.9c2.49.11,5.48-.54,7.81.27,3.96,1.41,18.33,39.75,21.09,46.63l20.66-45.11Z"/>
    <path class="cls-1" d="M444.84,613.78c-5.04-.81-11.12-1.52-14.1,3.36l-62.3,114.46c16.27,8.78,16.86-20.77,26.14-22.56,13.39,2.66,86.38-3.58,92.61.33,1.08.65,9.65,21.74,11.39,22.83,2.28,1.41,9.16-.27,12.36.27-22.18-39.37-43.05-80.14-66.1-118.69ZM399.13,698.25l41.43-73.96,39.75,73.96h-81.17Z"/>
    <path class="cls-1" d="M566.84,851.54c.38,0,.38,7.21,0,7.21h-41.48v-57.69h41.48c.76,2.12-.76,7.21-2.71,7.21h-31.56c.16,3.36-1.25,18.06,2.71,18.06h27.98c.7,2.06-.81,7.21-2.71,7.21h-27.98v18h34.27Z"/>
    <path class="cls-1" d="M611.96,801.06v57.69c0,.38-7.21.38-7.21,0v-57.69c0-.38,5.91.22,7.21,0Z"/>
    <path class="cls-1" d="M651.54,722.49c-25.81,19.09-129.27,22.72-122.54-31.45,15.02-.92,9-.38,11.22,9.49,1.84,8.35,6.99,14.21,14.59,17.89,17.95,8.68,65.07,7.75,83.34-.32,18.38-8.08,16.97-27.6-1.74-34.38-26.51-9.6-75.75-4.45-97.49-19.74-19.41-13.66-10.79-38.17,9.92-45.98,31.02-11.66,115.93-15.18,113.65,35.14-15.24,1.36-8.84-.65-12.04-10.52-2.44-7.48-8.02-12.53-15.02-15.62-18-8.03-66.21-7.32-84.26.54-16.86,7.37-16,24.56,1.3,31.88,25.27,10.68,83.77,5.69,101.94,22.56,10.57,9.76,8.78,31.83-2.87,40.5Z"/>
    <path class="cls-1" d="M691.12,843.46c-.43,19.74-38.71,18.33-44.79,9.65-.33-.49,1.41-6.72,1.74-6.94,1.3-.98,7.81,3.9,10.63,4.61,6.24,1.52,22.39,2.66,23.7-5.58,2.66-16.54-34.54-6.18-34.54-28.79,0-19.79,34.27-18.82,39.15-11.82.92,1.41-.81,7.05-1.08,7.26-1.14.98-18.82-10.79-28.41-1.36-15.78,15.51,34.11,12.25,33.62,32.97Z"/>
    <path class="cls-1" d="M786.01,568.39h-202.9v-156.97l-81.23,46.03c-.92,1.79-3.58-1.63-3.58-1.84v-217.32l-129.86-73.96v223.67l-37.9-22.56v-103.73l-129.86,74.88v233.59c0,.32,7.21.32,7.21,0v-226.38l16.86-12.04,98.58-55.63v84.8c-14.21-4.01-25.43-16.81-39.69-19.85v229.09h46.9v-193.03l37.9,19.84v173.19h46.9v-154.26l-37.9-23.42v-211.96l113.76,64.36-.11,216.13c-1.3,6.94-32.21,17.95-37.85,25.27v83.88h45.06v-100.15l15.02-10.19,60.73-34v149.76h214.67c.76-2.11-.81-7.21-2.71-7.21ZM320.62,562.97h-27.92v-207.46c6.4,2.11,29.66,13.45,30.69,18.92l.05,182.3c.38,1.84-1.3,6.24-2.82,6.24ZM406.35,418.63v144.34h-28.9v-158.76l28.9,14.42ZM491.1,562.97h-30.64v-71.25c8.84-6.99,19.95-13.61,30.64-17.13v88.38Z"/>
    <path class="cls-1" d="M756.89,613.78c-4.99-.81-11.12-1.52-14.1,3.36l-62.3,114.46c16.27,8.78,16.86-20.77,26.14-22.56,13.39,2.66,86.43-3.58,92.61.33,1.08.65,9.65,21.74,11.44,22.83,2.22,1.41,9.11-.27,12.31.27-22.18-39.37-43.05-80.14-66.1-118.69ZM711.18,698.25l41.43-73.96,39.74,73.96h-81.17Z"/>
    <polygon class="cls-1" points="952.85 613.45 950.85 623.16 873.53 731.6 860.89 731.6 938.43 622.51 846.47 622.51 846.47 649.56 837.41 649.56 837.41 613.45 952.85 613.45"/>
    <path class="cls-3" d="M786.01,568.39h-202.9v-156.97l-81.23,46.03c-.92,1.79-3.58-1.63-3.58-1.84v-217.32l-129.86-73.96v223.67l-37.9-22.56v-103.73l-129.86,74.88v233.59c0,.32,7.21.32,7.21,0v-226.38l16.86-12.04,98.58-55.63v84.8c-14.21-4.01-25.43-16.81-39.69-19.85v229.09h46.9v-193.03l37.9,19.84v173.19h46.9v-154.26l-37.9-23.42v-211.96l113.76,64.36-.11,216.13c-1.3,6.94-32.21,17.95-37.85,25.27v83.88h45.06v-100.15l15.02-10.19,60.73-34v149.76h214.67c.76-2.11-.81-7.21-2.71-7.21ZM320.62,562.97h-27.92v-207.46c6.4,2.11,29.66,13.45,30.69,18.92l.05,182.3c.38,1.84-1.3,6.24-2.82,6.24ZM406.35,418.63v144.34h-28.9v-158.76l28.9,14.42ZM491.1,562.97h-30.64v-71.25c8.84-6.99,19.95-13.61,30.64-17.13v88.38Z"/>
    <path d="M654.41,681.99c10.57,9.76,8.78,31.83-2.87,40.5-25.81,19.09-129.27,22.72-122.54-31.45,15.02-.92,9-.38,11.22,9.49,1.84,8.35,6.99,14.21,14.59,17.89,17.95,8.68,65.07,7.75,83.34-.32,18.38-8.08,16.97-27.6-1.74-34.38-26.51-9.6-75.75-4.45-97.49-19.74-19.41-13.66-10.79-38.17,9.92-45.98,31.02-11.66,115.93-15.18,113.65,35.14-15.24,1.36-8.84-.65-12.04-10.52-2.44-7.48-8.02-12.53-15.02-15.62-18-8.03-66.21-7.32-84.26.54-16.86,7.37-16,24.56,1.3,31.88,25.27,10.68,83.77,5.69,101.94,22.56Z"/>
    <path d="M348.6,687.41c-1.79,25.59-21.74,39.15-45,44.25-35.35,7.81-97.28,3.04-104.27-41.97-9.87-63.44,33.24-82.36,88.92-78.08,25.76,1.95,61.33,14.42,60.35,45.17-2.33-.43-9.92.7-10.74-.11-.7-.65-2.28-12.42-6.51-17.84-17.57-22.88-84.48-22.29-106.33-5.53-21.74,16.76-21.74,64.42,1.03,80.14,25.48,17.68,93.59,16.7,108.99-15.18,4.39-9.05-1.03-12.74,13.56-10.84Z"/>
    <path class="cls-5" d="M444.84,613.78c-5.04-.81-11.12-1.52-14.1,3.36l-62.3,114.46c16.27,8.78,16.86-20.77,26.14-22.56,13.39,2.66,86.38-3.58,92.61.33,1.08.65,9.65,21.74,11.39,22.83,2.28,1.41,9.16-.27,12.36.27-22.18-39.37-43.05-80.14-66.1-118.69ZM399.13,698.25l41.43-73.96,39.75,73.96h-81.17Z"/>
    <path class="cls-5" d="M756.89,613.78c-4.99-.81-11.12-1.52-14.1,3.36l-62.3,114.46c16.27,8.78,16.86-20.77,26.14-22.56,13.39,2.66,86.43-3.58,92.61.33,1.08.65,9.65,21.74,11.44,22.83,2.22,1.41,9.11-.27,12.31.27-22.18-39.37-43.05-80.14-66.1-118.69ZM711.18,698.25l41.43-73.96,39.74,73.96h-81.17Z"/>
    <polygon class="cls-5" points="952.85 613.45 950.85 623.16 873.53 731.6 860.89 731.6 938.43 622.51 846.47 622.51 846.47 649.56 837.41 649.56 837.41 613.45 952.85 613.45"/>
    <path class="cls-3" d="M310.7,801.06v57.69c0,.38-7.21.38-7.21,0v-41.48c-6.02,3.74-18.27,35.41-24.13,34.21-4.61-.98-17.08-30.2-22.77-34.21v41.48c0,.38-7.21.38-7.21,0,0-7.7-2.06-55.69,0-57.69,1.03-.98,6.24.11,8.13,1.79,4.61,4.07,14.59,27,19.95,34.16.76.98,3.47,4.39,4.39,3.74,4.66-7.75,15.18-33.02,20.71-37.9,2.66-2.33,4.99-1.95,8.13-1.79Z"/>
    <path class="cls-6" d="M376.85,799.92c-41.86,1.41-38.77,66.31,8.62,58.72,33.02-5.26,31.07-60.02-8.62-58.72ZM355.65,828.99c.22-7.75,5.96-18.49,14.1-20.33,12.09-2.77,25.11.7,29.44,13.07,11.93,33.94-44.57,42.57-43.54,7.27Z"/>
    <path class="cls-6" d="M566.84,858.75h-41.48v-57.69h41.48c.76,2.12-.76,7.21-2.71,7.21h-31.56c.16,3.36-1.25,18.06,2.71,18.06h27.98c.7,2.06-.81,7.21-2.71,7.21h-27.98v18h34.27c.38,0,.38,7.21,0,7.21Z"/>
    <path class="cls-2" d="M691.12,843.46c-.43,19.74-38.71,18.33-44.79,9.65-.33-.49,1.41-6.72,1.74-6.94,1.3-.98,7.81,3.9,10.63,4.61,6.24,1.52,22.39,2.66,23.7-5.58,2.66-16.54-34.54-6.18-34.54-28.79,0-19.79,34.27-18.82,39.15-11.82.92,1.41-.81,7.05-1.08,7.26-1.14.98-18.82-10.79-28.41-1.36-15.78,15.51,34.11,12.25,33.62,32.97Z"/>
    <path class="cls-2" d="M494.73,801.06c-10.09,16.32-15.02,39.58-24.73,55.47-2.49,4.01-7.05,3.09-10.47.43l-24.35-55.9c2.49.11,5.48-.54,7.81.27,3.96,1.41,18.33,39.75,21.09,46.63l20.66-45.11,9.98-1.79Z"/>
    <path class="cls-3" d="M209.74,801.06v57.69c0,.38-7.27.38-7.27,0v-57.69c0-.38,5.96.22,7.27,0Z"/>
    <path class="cls-3" d="M611.96,801.06v57.69c0,.38-7.21.38-7.21,0v-57.69c0-.38,5.91.22,7.21,0Z"/>
    <path class="cls-4" d="M391.87,784.85c-3.8,5.86-10.63,11.55-18,10.79,4.55-6.4,9.33-12.58,18-10.79Z"/>
  </g>
</svg>