<?xml version="1.0" encoding="UTF-8"?>
<svg id="Camada_1" data-name="Camada 1" xmlns="http://www.w3.org/2000/svg" viewBox="0 0 256 256">
  <defs>
    <style>
      .cls-1 {
        fill: #e28e77;
      }

      .cls-1, .cls-2 {
        stroke-width: 0px;
      }

      .cls-2 {
        fill: #fff;
      }
    </style>
  </defs>
  <rect class="cls-1" x="-18.4" y="-9.21" width="290.04" height="275.74"/>
  <g>
    <polygon class="cls-2" points="204.4 110.98 201.91 110.98 201.91 53.45 52.03 53.45 52.03 110.98 49.54 110.98 49.54 50.96 204.4 50.96 204.4 110.98"/>
    <path class="cls-2" d="M148.74,205.04h-2.49V69.62h-18.04v33.58h-11.19v79.6h-11.82v-82.09h9.33v-19.63l-17.1,12.49v110.38h-47.89v-60.32h2.49v57.84h42.91v-109.15l22.08-16.12v24.53h8.71v-33.58h23.01v137.91ZM107.69,180.32h6.84v-77.12h-6.84v77.12Z"/>
    <polygon class="cls-2" points="136.3 205.04 133.81 205.04 133.81 95.74 147.39 85.56 163.97 94.69 163.97 201.46 201.91 201.46 201.91 143.63 204.4 143.63 204.4 203.95 161.49 203.95 161.49 96.16 147.6 88.51 136.3 96.98 136.3 205.04"/>
    <polygon class="cls-2" points="51.63 184.72 50.25 182.65 75.15 166.04 50.83 123.2 28.85 164.83 42.73 175.39 41.22 177.37 25.67 165.54 50.75 118.03 78.46 166.82 51.63 184.72"/>
    <rect class="cls-2" x="44.94" y="149.74" width="2.49" height="13.3" transform="translate(-95.75 76.11) rotate(-44.05)"/>
    <rect class="cls-2" x="49.24" y="165.2" width="16" height="2.49" transform="translate(-85.66 63.69) rotate(-35.3)"/>
    <polygon class="cls-2" points="203.83 184.13 202.47 182.05 227.01 166.03 202.7 123.2 180.72 164.83 194.6 175.39 193.09 177.37 177.54 165.54 202.62 118.03 230.33 166.83 203.83 184.13"/>
    <rect class="cls-2" x="197.13" y="149.61" width="2.49" height="14.22" transform="translate(-53.17 182.02) rotate(-44.05)"/>
    <rect class="cls-2" x="201.75" y="165" width="15.29" height="2.49" transform="translate(-57.57 151.58) rotate(-35.3)"/>
  </g>
</svg>