<?xml version="1.0" encoding="UTF-8"?>
<svg id="Camada_2" data-name="Camada 2" xmlns="http://www.w3.org/2000/svg" viewBox="0 0 1246.94 481.15">
  <defs>
    <style>
      .cls-1 {
        fill: #fff;
        stroke-width: 0px;
      }
    </style>
  </defs>
  <g id="Camada_1-2" data-name="Camada 1">
    <g id="Camada_1-3" data-name="Camada_1">
      <path class="cls-1" d="M39.32,360.18c-8.38-.83-15.27-2.99-20.66-6.55-11.12-7.14-17.08-15.76-17.67-25.88-.66-10.12-1-16.34-1-18.58,0-17.5,3.82-40.4,11.45-68.52,4.98-19.17,11.78-41.23,20.41-66.36,8.54-25.13,20.49-58.07,35.67-98.96,5.23-13.77,9.04-24.14,11.54-31.19,2.57-7.05,4.4-12.36,5.48-15.93.66-1.74,1.16-3.15,1.49-4.15.33-.9.5-1.74.5-2.4,0-.5-.08-1.08-.25-1.66-.17-.5-.25-1-.25-1.5v-.75c0-.5.25-1.24.75-2.16.5-1.15.99-1.99,1.58-2.49.58-.42,1.5-.75,2.74-.92,1.33-.16,3.4-.25,6.39-.25l7.3.25.92,1.16.25.25c.17.33.33.58.5.75.17.16.25.42.25.75,0,.16-.08.41-.25.74,0,.5-.17,1.25-.58,2.24-.42,1.08-1,2.49-1.58,4.32v.75c-.49.9-1.16,2.82-2.07,5.63-.91,2.91-1.99,6.06-3.32,9.63l-1.41,4.89c-1.49,4.48-2.99,8.87-4.4,12.94-1.49,4.15-2.49,7.22-3.15,9.13-.66,1.82-1.66,4.48-2.91,8.05-1.33,3.56-2.65,7.3-3.89,11.19-1.33,3.74-2.66,7.56-4.15,11.54-1.49,3.98-2.65,7.13-3.64,9.62-1,2.24-2.24,5.47-3.74,9.71-1.57,4.22-2.98,8.21-4.31,12.11-3.57,10.37-6.14,17.91-7.88,22.65-1.66,4.64-3.15,8.54-4.48,11.61-.83,1.82-1.66,3.89-2.41,6.22-.83,2.33-1.58,4.48-2.24,6.47-4.81,15.84-9.54,31.77-14.1,47.61-.34,1.5-.75,3.32-1.41,5.48s-1.33,4.15-1.99,5.97c-.49,1.74-1.07,3.9-1.82,6.39-.67,2.57-1.33,4.73-1.83,6.72-.41,2.07-1.07,4.82-1.9,8.13-.83,3.32-1.66,6.55-2.4,9.63-4.24,16.17-6.48,30.02-6.81,41.55v4.56c0,2.82.08,5.14.25,7.05.25,2.9.99,5.8,2.16,8.54,1.75,5.47,4.32,9.95,7.56,13.27,3.23,3.32,7.79,6.14,13.85,8.63,1.25.41,2.4.83,3.24,1.16.91.33,1.99.58,3.32.66,1.24.08,3.31.08,6.05.08h7.54c1.74-.17,3.66-.42,5.56-.75,6.81-1.41,14.36-3.4,22.49-5.97,8.21-2.49,18.66-6.06,31.52-10.78,19.91-7.31,37.57-13.11,52.92-17.5,12.36-3.4,19.58-5.06,21.65-5.06,1.82,0,2.9.5,3.4,1.58.5.99.75,1.82.75,2.23,0,.83-.25,1.66-.75,2.49-.33.33-1.32.83-3.14,1.41-1.74.66-4.82,1.57-8.96,2.73-19.33,4.98-37.66,10.62-55,17-15.34,5.65-26.79,9.71-34.35,12.11-7.54,2.4-14.68,4.48-21.48,6.06-13.11,3.23-23.72,4.89-31.85,4.89-1.99,0-3.73-.08-5.39-.25h0ZM197.34,262.72c-.33-4.49-.5-8.96-.5-13.36,0-2.9.09-5.8.25-8.7.5-6.97.92-12.28,1.25-15.85.25-2.23.41-3.81.41-4.55,0-.67-.08-1-.25-1-.41.17-1.74,2.41-3.81,6.8-1.33,2.73-2.66,5.31-3.9,7.63-1.32,2.32-2.98,5.4-5.14,9.13-4.64,8.29-9.04,13.68-13.02,16.17-3.9,2.49-7.14,3.74-9.54,3.74-2.16,0-4.15-.75-6.06-2.16-4.23-3.07-7.38-10.04-9.54-20.9-.5-3.9-.75-9.29-.75-16.26s.33-13.44.99-19c2.74-21.07,6.14-32.43,10.21-34.01.5-.17,1.33-.25,2.4-.25h1.99c2.07.16,4.06.41,5.81.75,2.32.66,3.4,1.66,3.4,3.16,0,.83-.33,1.74-.91,2.9-1.65,2.41-3.4,7.63-5.14,15.6-2.07,10.04-3.15,19.5-3.15,28.37,0,5.56.41,10.79,1.25,15.84,1.07,6.64,2.23,10.37,3.4,11.28,1.08.91,1.99,1.33,2.66,1.33,1.08,0,2.32-.74,3.65-2.15,1.91-2.49,4.23-5.89,6.81-10.21,5.97-10.04,12.44-23.89,19.4-41.56,1.99-5.06,3.57-9.04,4.73-12.03,1.24-2.99,2.24-5.31,3.07-6.8.83-1.57,1.5-2.66,2.08-3.32.58-.66,1.16-1.16,1.82-1.41.83-.33,1.41-.49,1.9-.49,2.16,0,3.57,1.33,4.4,4.14.16.41.25.91.25,1.33v1.58c0,.58-.08,1.66-.16,2.98-.08,1.41-.17,3.24-.33,5.48-.17,2.32-.42,5.23-.75,8.79-1.08,12.11-1.82,21.49-2.16,28.2-.34,6.64-.49,16.09-.49,28.37v22.9c0,1.41,0,3.15-.09,5.06-.08,1.99-.49,3.73-1.16,5.39-.58,1.58-1.74,2.57-3.4,2.9h-.91c-2.82,0-4.9-1.49-6.39-4.39-1.74-3.4-2.9-7.21-3.48-11.45-.58-4.14-.92-7.46-1.08-9.95h0ZM259.81,269.26c-9.71-2.4-16.76-10.12-21.16-23.06-2.57-7.96-3.9-16.42-3.9-25.55,0-2.57.08-5.23.25-7.97,1.33-15.93,4.9-29.61,10.78-41.22,5.98-11.54,12.44-17.92,19.59-19.08h.75c4.56,0,7.87,1.66,9.95,4.9,2.32,3.24,3.49,7.05,3.65,11.37v2.24c0,4.4-1.16,6.55-3.4,6.55h-.74c-1.74-.33-2.66-2.07-2.66-5.39v-.66c0-3.57-.25-5.48-.84-5.64-.58-.16-.91-.25-1.07-.25-.83,0-1.91.66-3.16,1.99-5.89,7.3-10.04,15.43-12.44,24.55-2.24,8.54-3.4,17.09-3.4,25.47,0,3.07.16,6.22.49,9.29,1.16,11.45,4.56,20.24,10.21,26.22,2.73,2.73,5.55,4.14,8.54,4.14.58,0,1.25-.08,1.91-.25,3.57-.66,6.88-2.32,9.95-5.14,3.07-2.74,5.81-5.56,8.3-8.46,10.04-12.03,19.41-24.47,28.2-37.41,1.24-1.99,2.49-3.82,3.65-5.64,1.08-1.74,2.32-3.73,3.57-5.8.34-.83.92-1.74,1.74-2.82.83-1,1.58-1.74,2.16-2.08.66-.25,1.16-.42,1.49-.42.66,0,1.33.25,1.91.92.83.99,1.24,2.15,1.24,3.4,0,.83-.25,1.82-.75,2.9-1.24,2.48-2.57,4.65-3.9,6.63-.42.42-.75.83-.91,1.16-7.47,11.2-15.35,22.15-23.64,32.85-4.32,5.64-8.3,10.45-11.86,14.35-4.4,5.14-9.13,9.54-14.35,13.11-5.14,3.57-10.45,5.31-15.76,5.31-1.49,0-2.99-.16-4.4-.5h0ZM338.53,151.23c-1.41-.5-2.74-1.66-3.9-3.32-1.07-1.74-1.74-3.48-1.9-5.23,0-3.07,1.16-5.64,3.4-7.8,1.91-2.07,3.98-3.15,6.06-3.15.66,0,1.33.08,1.99.25,2.91,1,4.65,2.4,5.31,4.23.66,1.91,1,3.4,1,4.56,0,1.74-.42,3.57-1.24,5.31-2.08,3.57-4.73,5.31-7.97,5.31-.83,0-1.74-.08-2.73-.16h0ZM336.12,269.02c-8.88-1.92-13.94-12.53-15.1-31.77-.17-2.82-.25-5.72-.25-8.79,0-5.97.33-12.61.99-19.91.99-10.7,2.57-20.65,4.89-29.87.5-2.65,1-4.47,1.58-5.64.58-1.16,1.16-1.75,1.82-1.83s1.16-.08,1.66-.08c1,0,2.23.08,3.64.25,3.9.33,6.14.83,6.81,1.66.66.83.99,1.66.99,2.49,0,.91-.25,2.16-.75,3.57-.83,2.49-1.66,5.97-2.57,10.45-.83,4.56-1.66,8.79-2.24,12.69-.83,7.13-1.25,13.94-1.25,20.41,0,3.23.09,6.39.25,9.45.5,9.04,1.91,16.01,4.4,20.91,1.25,2.73,2.66,4.14,4.06,4.14.99,0,2.16-.75,3.4-2.24,2.32-2.41,4.65-5.23,6.97-8.63,2.32-3.31,5.23-7.96,8.63-13.93,6.63-12.45,11.86-22.81,15.51-31.11l2.99-6.54c1.74-3.9,3.31-5.81,4.56-5.81,1.99.17,3.07.83,3.4,2.16v1.24c0,.91-.25,2.16-.75,3.74-.41,1.58-.99,2.99-1.66,4.23l-.49.99c-2.58,6.48-5.4,12.78-8.47,19-2.98,5.8-5.97,11.53-9.04,17.25-7.14,12.61-13.11,21.06-17.84,25.46-4.81,4.4-9.04,6.55-12.77,6.55-1.16,0-2.24-.16-3.4-.49h0ZM436.49,279.72c-7.88-8.88-11.86-25.14-11.86-48.86v-5.56c0-4.73.17-9.37.58-14.1.41-4.65.83-8.13,1.33-10.45-.16,0-.5.42-.99,1.25-.58.83-1.41,2.07-2.4,3.9-2.07,3.57-4.31,6.89-6.56,10.04-2.23,3.15-5.88,8.05-10.94,14.69-4.23,6.22-8.05,11.2-11.62,15.09-6.38,6.47-11.36,9.71-15.1,9.71-.66,0-1.33-.08-1.99-.25-3.98-1.57-6.39-4.64-6.97-9.21-.66-4.56-.99-8.2-.99-10.94,0-4.31.5-8.88,1.41-13.61,3.4-15.51,9.45-28.78,18.01-39.82,3.89-4.73,8.12-8.21,12.69-10.45,4.48-2.32,8.8-3.4,12.86-3.4,1,0,1.99.08,3.15.25,5.14.58,9.87,3.4,14.1,8.21.33-.49.67-.83,1-1.16.42-.83,1.08-1.5,1.82-2.08.66-.58,1.58-.99,2.49-1.33.83-.16,1.57-.25,2.24-.25,1.08,0,2.16.16,3.15.49,1.91.58,3.4,1.74,4.4,3.4.08.42.25.83.33,1.16.08.33.08.75.08,1.24,0,.33-.08.75-.25,1.16-.16,1-.33,2.57-.66,4.65-2.99,15.26-4.4,30.03-4.4,44.46v6.13c0,6.64.17,11.78.58,15.43.41,3.57,1.08,7.22,2.07,10.79,1.82,7.13,3.48,11.03,5.14,11.77,1.57.75,2.73,1.09,3.4,1.09,1.91,0,3.9-.99,5.81-2.9,2.73-2.9,5.55-6.72,8.54-11.45,4.31-6.8,9.37-15.76,15.01-26.96,5.06-10.2,8.71-17.92,11.03-23.23,2.41-5.22,4.31-9.13,5.73-11.78,1.16-2.07,2.49-3.15,3.9-3.15l.99.25c1.33.33,1.91,1.33,1.91,2.9,0,.5-.25,1.66-.66,3.4-.49,1.83-1.41,4.24-2.73,7.3-1.24,3.07-2.32,5.47-3.15,7.05-.17.16-.25.41-.25.75-2.24,4.9-4.56,9.7-7.05,14.6-.33.5-.5.92-.66,1.41l-.24.5c-6.39,12.77-12.03,23.14-17.01,31.11-2.66,4.23-5.98,8.54-10.04,13.03-3.99,4.47-7.47,7.13-10.46,8.04-2.9.83-4.81,1.33-5.8,1.33-3.74,0-7.38-1.91-10.95-5.64h0ZM391.78,236.24c11.03-13.77,20.9-28.28,29.7-43.54l5.31-9.2c-.67-2.41-2.07-4.32-4.4-5.56-.75-.33-1.66-.5-2.66-.5-1.91,0-3.98.83-6.06,2.41-3.23,2.49-5.72,4.73-7.55,6.8-4.89,5.56-9.29,12.19-13.27,20.08-3.89,7.88-6.8,15.34-8.63,22.48-1.41,5.47-2.15,9.54-2.15,12.11,0,1.16.16,1.99.5,2.49.16.33.41.49.75.49,1.41,0,4.23-2.73,8.46-8.05h0ZM690.49,371.87c-.99-.33-1.74-1.16-2.32-2.32-.58-1.25-1.08-3.23-1.58-5.97-.33-1.5-.58-2.9-.75-4.23-.17-1.41-.25-3.15-.25-5.39v-9.12c0-10.37.16-24.48.33-42.48.25-18,.58-34.76.91-50.19.33-15.51.57-24.47.75-26.87.25-2.58.66-7.46,1.16-14.6.5-7.13.92-14.43,1.25-21.81.16-2.99.33-5.89.49-8.79.17-2.9.34-5.06.42-6.56v-1.66c.17-1.99.25-3.23.25-3.81v-1.08c0-.33-.08-.58-.25-.75-.08,0-.5.08-1.16.25h-.49c-7.96,1.33-16.76,2.82-26.38,4.65-9.62,1.74-18.33,3.49-26.13,5.06-3.4.83-7.63,1.82-12.61,3.07-5.06,1.24-9.54,2.32-13.61,3.23-4.06,1-6.3,1.67-6.79,1.99-.17,0-.33.42-.42,1.33-.08.91-.08,2.48-.08,4.73s.08,5.56.25,9.7c.16,4.57.33,10.12.5,16.68.16,6.55.33,12.61.5,18.08.17,5.39.25,10.12.42,14.27.16,4.06.25,6.63.25,7.63s.16,2.91.41,5.81c.25,2.9.42,6.13.58,9.7.33,5.56.41,9.54.33,11.94-.08,2.4-.5,4.07-1.33,4.89-.75.75-2.16,1.41-4.07,1.91-1.16.33-2.07.5-2.74.5s-1.33-.08-2.16-.25c-1.65-.5-2.98-1.16-4.14-1.91-1.16-.82-1.91-1.82-2.4-2.98-1.33-4.82-2.24-28.62-2.66-71.42-.16-9.21-.33-15.76-.41-19.66-.08-3.9-.25-5.89-.58-5.89-.17,0-1.08.25-2.65.75-1.66.5-3.57,1.08-5.73,1.82-2.24.74-4.23,1.5-6.22,2.32-.99.33-1.91.75-2.9,1.24-1,.5-1.74.92-2.16,1.41-1.16.83-2.32,1.24-3.4,1.24h-1c-1.49-.33-2.4-.91-2.82-1.74-.41-.75-.58-1.33-.58-1.66,0-.99.58-1.99,1.66-2.9,1.66-1.49,8.13-4.14,19.5-8.05l7.05-2.41.25-17.5c.42-34.34,1.49-60.8,3.15-79.22,2.41-28.87,5.56-52.34,9.46-70.51.5-2.07.83-3.9,1.08-5.47.25-1.5.42-2.49.42-2.82v-1.15c0-.33.08-.75.17-1.25,1.16-2.4,5.06-3.65,11.69-3.65,1.66,0,2.83.08,3.65.16.83.09,1.41.25,1.74.5.25.16.58.66.91,1.33.5.75.75,1.58.75,2.41,0,1.16-.42,2.24-1.25,3.4-1.24,1.9-2.65,5.73-4.06,11.28-1.49,5.64-2.82,11.94-3.9,19.08-1.5,10.21-2.66,24.31-3.65,42.31-.33,3.56-.58,6.88-.74,10.12-.17,3.15-.33,5.31-.5,6.64-.5,3.57-.83,6.8-.99,9.71-.17,2.98-.25,6.47-.42,10.62-.16,4.14-.33,9.79-.5,17.09,0,6.81-.08,13.36-.25,19.58-.17,6.22-.33,10.69-.5,13.27l-.25,9.2.99-.5c7.88-2.07,18.17-4.47,30.86-7.3,12.61-2.74,24.97-5.14,36.91-7.3,3.07-.58,6.06-1.17,8.96-1.66,2.98-.5,5.06-.91,6.39-1.24l4.56-.67.25-5.14c.16-1.49.5-3.9.91-7.38.33-3.48.83-7.13,1.33-10.87.58-4.81,1.24-9.45,1.91-13.85.33-2.4.58-4.31.75-5.8l.99-5.31c.18-1.99.25-3.49.42-4.65.16-.99.42-2.49.75-4.64.34-2.08.66-4.31,1-6.56.33-2.24.83-5.39,1.57-9.37.74-3.98,1.41-7.8,2.07-11.53.83-3.9,1.5-7.55,2.08-10.96.57-3.4.99-5.81,1.32-7.3,1.16-6.97,1.99-11.36,2.65-13.36.5-1.08,1.16-1.74,2.07-1.91.91-.17,1.58-.25,2.08-.25.99,0,1.99.33,3.15,1,.5.33,1.08.5,1.74.66.58.17,1,.25,1.16.25.99,0,1.82.25,2.57.66.75.41,1.25.91,1.58,1.58.33.83.5,1.82.5,3.15,0,1.24-.25,2.32-.75,3.15-1,2.24-2.41,9.37-4.23,21.4-1.91,11.94-3.57,24.72-4.98,38.16-.66,5.31-1.33,11.45-1.99,18.42-.67,6.96-1.17,13.19-1.66,18.58-.49,5.48-.75,8.38-.75,8.63l1.66-.16c1-.17,2.24-.33,3.65-.5,4.56-.83,9.37-1.65,14.52-2.48,5.06-.75,9.62-1.49,13.68-2.08,4.07-.5,6.72-.91,8.05-1.08h1.91c3.56,0,5.39,1.33,5.39,3.9,0,1.49-.5,2.49-1.5,3.07-.99.58-2.82.91-5.55,1.08-1.99.16-5.14.58-9.63,1.24-4.48.58-9.12,1.33-14.1,2.16-4.9.83-9.21,1.58-12.85,2.16-3.65.66-5.65,1.08-5.97,1.24-.17.67-.5,4.48-1,11.53-.42,7.05-.99,15.84-1.66,26.29-.66,10.45-1.33,20.99-1.91,31.69-1.66,31.77-2.82,57.49-3.49,77.15-.58,19.66-.91,33.6-.91,41.73,0,3.98.08,7.05.25,9.2.33,3.07.49,5.31.49,6.8,0,1.41-.25,2.41-.66,2.9-.41.5-1.08.91-2.07,1.24-1.08.5-2.49.66-4.06.66-1.83,0-3.15-.17-3.9-.66h0ZM807.12,279.72c-7.88-8.88-11.86-25.14-11.86-48.86v-5.56c0-4.73.17-9.37.58-14.1.42-4.65.83-8.13,1.33-10.45-.17,0-.5.42-1,1.25-.58.83-1.41,2.07-2.4,3.9-2.08,3.57-4.32,6.89-6.56,10.04-2.24,3.15-5.89,8.05-10.95,14.69-4.24,6.22-8.05,11.2-11.61,15.09-6.39,6.47-11.36,9.71-15.1,9.71-.66,0-1.33-.08-1.99-.25-3.98-1.57-6.39-4.64-6.97-9.21-.67-4.56-1-8.2-1-10.94,0-4.31.5-8.88,1.41-13.61,3.4-15.51,9.45-28.78,18-39.82,3.9-4.73,8.13-8.21,12.7-10.45,4.48-2.32,8.79-3.4,12.86-3.4.99,0,1.99.08,3.15.25,5.14.58,9.87,3.4,14.1,8.21.33-.49.66-.83.99-1.16.42-.83,1.08-1.5,1.82-2.08.66-.58,1.58-.99,2.49-1.33.83-.16,1.58-.25,2.24-.25,1.08,0,2.16.16,3.16.49,1.91.58,3.4,1.74,4.4,3.4.08.42.25.83.33,1.16.08.33.08.75.08,1.24,0,.33-.08.75-.25,1.16-.17,1-.33,2.57-.66,4.65-2.99,15.26-4.4,30.03-4.4,44.46v6.13c0,6.64.17,11.78.58,15.43.42,3.57,1.08,7.22,2.07,10.79,1.82,7.13,3.48,11.03,5.14,11.77,1.57.75,2.73,1.09,3.4,1.09,1.91,0,3.9-.99,5.81-2.9,2.73-2.9,5.55-6.72,8.54-11.45,4.32-6.8,9.38-15.76,15.02-26.96,5.06-10.2,8.71-17.92,11.03-23.23,2.41-5.22,4.31-9.13,5.72-11.78,1.16-2.07,2.49-3.15,3.9-3.15l1,.25c1.33.33,1.91,1.33,1.91,2.9,0,.5-.24,1.66-.66,3.4-.5,1.83-1.41,4.24-2.74,7.3-1.24,3.07-2.32,5.47-3.15,7.05-.17.16-.25.41-.25.75-2.24,4.9-4.56,9.7-7.05,14.6-.34.5-.5.92-.67,1.41l-.25.5c-6.38,12.77-12.03,23.14-17,31.11-2.66,4.23-5.98,8.54-10.04,13.03-3.98,4.47-7.46,7.13-10.45,8.04-2.9.83-4.81,1.33-5.81,1.33-3.73,0-7.38-1.91-10.95-5.64h0ZM762.41,236.24c11.04-13.77,20.9-28.28,29.7-43.54l5.31-9.2c-.67-2.41-2.08-4.32-4.4-5.56-.74-.33-1.65-.5-2.65-.5-1.91,0-3.98.83-6.05,2.41-3.24,2.49-5.72,4.73-7.55,6.8-4.9,5.56-9.3,12.19-13.28,20.08-3.9,7.88-6.8,15.34-8.63,22.48-1.41,5.47-2.15,9.54-2.15,12.11,0,1.16.17,1.99.5,2.49.16.33.42.49.75.49,1.41,0,4.23-2.73,8.46-8.05ZM919.44,291.66c-1.33-1.16-2.16-2.32-2.49-3.65-.66-1.83-1.08-6.64-1.33-14.6-.25-7.96-.33-21.48-.33-40.57l-.25-40.81-2.65,6.55c-1.33,2.9-3.4,7.38-6.39,13.44-2.91,6.14-5.81,12.02-8.79,17.75-3.07,5.8-5.23,9.95-6.72,12.52-.99,1.49-2.07,2.99-3.32,4.64-1.16,1.58-2.24,2.99-3.23,4.15-4.24,4.65-8.47,7.05-12.61,7.05h-.5c-4.56,0-8.38-3.24-11.45-9.79-1.99-4.31-2.99-8.13-3.07-11.37-.08-3.23-.08-5.39-.08-6.38,0-3.98.25-7.81.75-11.37,1.24-9.29,3.82-18.08,7.47-26.55,3.73-8.38,8.38-14.93,13.85-19.66,5.88-4.56,10.53-6.97,14.02-7.3,3.49-.33,6.05-.5,7.63-.5,3.07,0,5.89.42,8.3,1.24,3.57,1.5,5.72,2.82,6.55,4.15.17-.33.25-1.99.33-4.9.08-2.9.25-6.55.42-10.95.5-18.41,1.25-37.83,2.41-58.07.5-6.3.83-11.36,1.08-15.18.25-3.81.42-6.64.5-8.63.08-1.91.08-3.4.08-4.4,0-.75-.08-1.41-.16-1.91v-1.25c0-2.24.83-3.73,2.66-4.31,3.89-1.16,7.46-1.82,10.7-2,1.57,0,2.82.34,3.73,1,.91.66,1.33,1.33,1.33,2.16,0,.66-.17,1.41-.5,2.24-1.74,2.07-2.82,19.24-3.15,51.51-.67,32.35-.92,60.72-.92,85.03,0,30.28.42,54.08,1.41,71.42.17,3.9.33,6.97.33,9.29.08,2.24.17,4.07.17,5.31,0,1.16-.08,1.99-.25,2.56-.16.58-.33,1-.49,1.33-.83,1.33-1.83,1.91-3.15,1.91-.33,0-.75,0-1.24-.16-.25-.17-.59-.25-.92-.25-.5,0-.99.17-1.5.42-.5.17-1.08.33-1.82.42-.75.08-1.41.08-2.08.08h-.91c-.49,0-.99-.08-1.49-.25-.5-.16-1.16-.58-1.91-1.41h0ZM884.68,236.74c1.25-2.49,3.23-6.13,5.89-11.12,2.74-4.89,5.23-9.95,7.72-15.01,2.41-5.14,4.15-8.96,5.31-11.53.67-1.65,1.49-3.73,2.41-6.22,1-2.49,1.91-4.89,2.74-7.13l2.66-7.55c-3.9-3.24-7.55-4.89-10.95-4.89-.99,0-1.91.08-2.9.25-4.4,1-8.29,4.15-11.7,9.46-4.31,7.96-7.38,16.17-9.12,24.72-1.66,8.46-2.49,15.43-2.49,20.73,0,4.23.33,8.21.91,11.94.17.92.42,1.91.66,2.74.25.91.42,1.57.58,2.08l.75,1.74,2.16-2.4c.66-.83,1.49-1.99,2.4-3.48.99-1.41,1.99-2.9,2.99-4.32h0ZM1015.67,291.66c-1.33-1.16-2.15-2.32-2.49-3.65-.66-1.83-1.08-6.64-1.33-14.6-.25-7.96-.33-21.48-.33-40.57l-.25-40.81-2.65,6.55c-1.33,2.9-3.4,7.38-6.38,13.44-2.91,6.14-5.81,12.02-8.79,17.75-3.07,5.8-5.23,9.95-6.72,12.52-.99,1.49-2.08,2.99-3.32,4.64-1.16,1.58-2.24,2.99-3.24,4.15-4.24,4.65-8.46,7.05-12.61,7.05h-.5c-4.56,0-8.38-3.24-11.45-9.79-1.99-4.31-2.99-8.13-3.07-11.37-.08-3.23-.08-5.39-.08-6.38,0-3.98.25-7.81.75-11.37,1.25-9.29,3.82-18.08,7.46-26.55,3.74-8.38,8.39-14.93,13.85-19.66,5.89-4.56,10.54-6.97,14.02-7.3,3.48-.33,6.05-.5,7.63-.5,3.07,0,5.89.42,8.3,1.24,3.57,1.5,5.72,2.82,6.55,4.15.17-.33.25-1.99.33-4.9.08-2.9.25-6.55.42-10.95.49-18.41,1.24-37.83,2.4-58.07.5-6.3.83-11.36,1.07-15.18.25-3.81.42-6.64.5-8.63.08-1.91.08-3.4.08-4.4,0-.75-.08-1.41-.16-1.91v-1.25c0-2.24.83-3.73,2.65-4.31,3.9-1.16,7.47-1.82,10.7-2,1.58,0,2.82.34,3.74,1,.91.66,1.33,1.33,1.33,2.16,0,.66-.16,1.41-.5,2.24-1.74,2.07-2.82,19.24-3.15,51.51-.66,32.35-.91,60.72-.91,85.03,0,30.28.41,54.08,1.41,71.42.16,3.9.33,6.97.33,9.29.08,2.24.16,4.07.16,5.31,0,1.16-.08,1.99-.25,2.56-.17.58-.33,1-.49,1.33-.83,1.33-1.83,1.91-3.16,1.91-.33,0-.75,0-1.24-.16-.25-.17-.58-.25-.91-.25-.5,0-.99.17-1.49.42-.5.17-1.08.33-1.82.42-.75.08-1.41.08-2.08.08h-.91c-.5,0-.99-.08-1.49-.25-.5-.16-1.16-.58-1.91-1.41h0ZM980.9,236.74c1.25-2.49,3.24-6.13,5.9-11.12,2.73-4.89,5.22-9.95,7.71-15.01,2.41-5.14,4.15-8.96,5.31-11.53.66-1.65,1.49-3.73,2.41-6.22.99-2.49,1.9-4.89,2.73-7.13l2.66-7.55c-3.9-3.24-7.55-4.89-10.95-4.89-1,0-1.9.08-2.9.25-4.39,1-8.29,4.15-11.7,9.46-4.31,7.96-7.38,16.17-9.12,24.72-1.66,8.46-2.49,15.43-2.49,20.73,0,4.23.33,8.21.91,11.94.17.92.42,1.91.67,2.74.25.91.42,1.57.58,2.08l.75,1.74,2.16-2.4c.66-.83,1.5-1.99,2.41-3.48.99-1.41,1.99-2.9,2.98-4.32h0ZM1116.2,279.72c-7.88-8.88-11.86-25.14-11.86-48.86v-5.56c0-4.73.16-9.37.58-14.1.42-4.65.83-8.13,1.33-10.45-.17,0-.5.42-.99,1.25-.58.83-1.41,2.07-2.4,3.9-2.07,3.57-4.31,6.89-6.55,10.04-2.24,3.15-5.89,8.05-10.95,14.69-4.23,6.22-8.05,11.2-11.61,15.09-6.39,6.47-11.36,9.71-15.1,9.71-.67,0-1.33-.08-1.99-.25-3.98-1.57-6.39-4.64-6.96-9.21-.67-4.56-1-8.2-1-10.94,0-4.31.5-8.88,1.41-13.61,3.4-15.51,9.46-28.78,18-39.82,3.9-4.73,8.13-8.21,12.69-10.45,4.48-2.32,8.79-3.4,12.86-3.4.99,0,1.99.08,3.15.25,5.15.58,9.87,3.4,14.1,8.21.33-.49.66-.83.99-1.16.42-.83,1.08-1.5,1.83-2.08.66-.58,1.57-.99,2.49-1.33.83-.16,1.58-.25,2.24-.25,1.08,0,2.16.16,3.16.49,1.91.58,3.4,1.74,4.4,3.4.08.42.25.83.33,1.16.08.33.08.75.08,1.24,0,.33-.08.75-.25,1.16-.17,1-.33,2.57-.66,4.65-2.99,15.26-4.4,30.03-4.4,44.46v6.13c0,6.64.16,11.78.58,15.43.42,3.57,1.08,7.22,2.07,10.79,1.83,7.13,3.49,11.03,5.15,11.77,1.57.75,2.74,1.09,3.4,1.09,1.91,0,3.9-.99,5.81-2.9,2.73-2.9,5.55-6.72,8.54-11.45,4.31-6.8,9.38-15.76,15.02-26.96,5.06-10.2,8.71-17.92,11.04-23.23,2.4-5.22,4.31-9.13,5.72-11.78,1.16-2.07,2.49-3.15,3.9-3.15l1,.25c1.33.33,1.91,1.33,1.91,2.9,0,.5-.25,1.66-.66,3.4-.49,1.83-1.41,4.24-2.74,7.3-1.24,3.07-2.32,5.47-3.15,7.05-.17.16-.25.41-.25.75-2.24,4.9-4.56,9.7-7.05,14.6-.33.5-.5.92-.66,1.41l-.25.5c-6.39,12.77-12.03,23.14-17.01,31.11-2.65,4.23-5.97,8.54-10.03,13.03-3.98,4.47-7.47,7.13-10.45,8.04-2.9.83-4.82,1.33-5.81,1.33-3.74,0-7.39-1.91-10.95-5.64h0ZM1071.49,236.24c11.04-13.77,20.91-28.28,29.7-43.54l5.31-9.2c-.66-2.41-2.07-4.32-4.4-5.56-.74-.33-1.66-.5-2.65-.5-1.91,0-3.98.83-6.05,2.41-3.24,2.49-5.73,4.73-7.55,6.8-4.89,5.56-9.29,12.19-13.28,20.08-3.89,7.88-6.8,15.34-8.62,22.48-1.41,5.47-2.16,9.54-2.16,12.11,0,1.16.17,1.99.5,2.49.16.33.42.49.74.49,1.41,0,4.24-2.73,8.46-8.05h0ZM1228.52,291.66c-1.33-1.16-2.16-2.32-2.49-3.65-.67-1.83-1.08-6.64-1.33-14.6-.25-7.96-.34-21.48-.34-40.57l-.25-40.81-2.66,6.55c-1.33,2.9-3.4,7.38-6.39,13.44-2.91,6.14-5.81,12.02-8.79,17.75-3.07,5.8-5.22,9.95-6.72,12.52-1,1.49-2.08,2.99-3.32,4.64-1.16,1.58-2.24,2.99-3.24,4.15-4.24,4.65-8.46,7.05-12.61,7.05h-.5c-4.56,0-8.38-3.24-11.45-9.79-1.99-4.31-2.99-8.13-3.07-11.37-.08-3.23-.08-5.39-.08-6.38,0-3.98.25-7.81.75-11.37,1.25-9.29,3.82-18.08,7.46-26.55,3.74-8.38,8.38-14.93,13.86-19.66,5.89-4.56,10.54-6.97,14.02-7.3,3.48-.33,6.05-.5,7.62-.5,3.07,0,5.9.42,8.3,1.24,3.56,1.5,5.72,2.82,6.55,4.15.17-.33.25-1.99.33-4.9.08-2.9.25-6.55.42-10.95.49-18.41,1.24-37.83,2.4-58.07.5-6.3.83-11.36,1.08-15.18.25-3.81.42-6.64.5-8.63.08-1.91.08-3.4.08-4.4,0-.75-.08-1.41-.17-1.91v-1.25c0-2.24.83-3.73,2.65-4.31,3.9-1.16,7.47-1.82,10.7-2,1.58,0,2.82.34,3.74,1,.91.66,1.33,1.33,1.33,2.16,0,.66-.16,1.41-.5,2.24-1.74,2.07-2.82,19.24-3.15,51.51-.66,32.35-.92,60.72-.92,85.03,0,30.28.42,54.08,1.41,71.42.16,3.9.33,6.97.33,9.29.08,2.24.17,4.07.17,5.31,0,1.16-.08,1.99-.25,2.56-.16.58-.33,1-.49,1.33-.83,1.33-1.83,1.91-3.15,1.91-.33,0-.75,0-1.25-.16-.25-.17-.58-.25-.91-.25-.5,0-.99.17-1.49.42-.5.17-1.08.33-1.82.42-.75.08-1.41.08-2.08.08h-.91c-.49,0-1-.08-1.5-.25-.49-.16-1.15-.58-1.9-1.41h0ZM1193.76,236.74c1.25-2.49,3.24-6.13,5.89-11.12,2.74-4.89,5.23-9.95,7.72-15.01,2.4-5.14,4.15-8.96,5.31-11.53.66-1.65,1.5-3.73,2.41-6.22.99-2.49,1.91-4.89,2.74-7.13l2.65-7.55c-3.9-3.24-7.55-4.89-10.95-4.89-1,0-1.91.08-2.9.25-4.4,1-8.3,4.15-11.7,9.46-4.31,7.96-7.38,16.17-9.12,24.72-1.66,8.46-2.49,15.43-2.49,20.73,0,4.23.33,8.21.91,11.94.17.92.42,1.91.66,2.74.24.91.41,1.57.58,2.08l.75,1.74,2.16-2.4c.66-.83,1.5-1.99,2.41-3.48.99-1.41,1.99-2.9,2.98-4.32h0ZM142.41,428.23h6.27v50.31h-6.27v-50.31ZM215.15,465.8l17.35-39.77,10.28,52.51h-6.54l-5.87-33.5-15.21,34.7-15.15-34.83-6,33.63h-6.34l10.28-52.51,17.22,39.77ZM304.58,432.9c-2.8,0-5.37.5-7.71,1.5-2.34,1-4.46,2.46-6.37,4.37-1.91,1.91-3.39,4.15-4.44,6.71-1.05,2.56-1.57,5.19-1.57,7.9,0,3.65.9,7.05,2.7,10.21s4.24,5.64,7.31,7.44c3.07,1.8,6.43,2.7,10.08,2.7s7-.9,10.08-2.7c3.07-1.8,5.51-4.28,7.31-7.44,1.8-3.16,2.7-6.56,2.7-10.21,0-2.89-.51-5.57-1.54-8.04s-2.47-4.64-4.34-6.5c-1.87-1.87-4-3.33-6.41-4.37-2.4-1.05-5.01-1.57-7.81-1.57h0ZM304.58,427.17c3.56,0,6.95.68,10.18,2.04,3.22,1.36,6.04,3.23,8.44,5.6,2.4,2.38,4.29,5.18,5.67,8.41,1.38,3.22,2.07,6.62,2.07,10.17s-.68,6.93-2.04,10.11c-1.36,3.18-3.28,6-5.77,8.44-2.49,2.45-5.31,4.34-8.47,5.67-3.16,1.33-6.52,2-10.08,2-4.81,0-9.2-1.17-13.18-3.5-3.98-2.33-7.16-5.53-9.54-9.58-2.38-4.05-3.57-8.43-3.57-13.14s1.19-9.1,3.57-13.14,5.56-7.24,9.54-9.58c3.98-2.34,8.37-3.5,13.18-3.5h0ZM306.04,410.42l5.6,2.8-11.08,10.08-2.87-1.8,8.34-11.08h0ZM365.04,428.23h6.94l14.95,37.17,15.02-37.17h6.87l-21.89,52.92-21.89-52.92h0ZM446.53,428.23h27.02v5.74h-20.75v14.08h20.22v5.74h-20.22v19.02h20.75v5.74h-27.02v-50.31h0ZM514.4,428.23h6.27v50.31h-6.27v-50.31ZM585.94,437.78c-1.87-3.25-4.6-4.87-8.21-4.87-2.31,0-4.28.73-5.9,2.2s-2.44,3.05-2.44,4.74c-.13,2.8,1.51,5.03,4.94,6.67,1.38.54,3.22,1.26,5.54,2.17,2.31.91,4.55,2.11,6.71,3.6,2.16,1.49,3.68,3.26,4.57,5.3.89,2.14,1.33,4.29,1.33,6.47,0,4.36-1.56,8.01-4.67,10.94-3.12,2.94-6.85,4.47-11.21,4.6-3.91.04-7.39-1.23-10.44-3.84-3.05-2.6-4.79-6.02-5.24-10.24l6.27-1.33c.05,3.12,1.06,5.48,3.04,7.11,1.98,1.62,4.21,2.43,6.71,2.43,2.23,0,4.23-.73,6-2.2,1.78-1.47,2.83-3.52,3.14-6.14.49-3.2-.17-5.61-1.97-7.21-1.8-1.6-4.48-3.07-8.04-4.41-2.76-1.15-5.04-2.28-6.84-3.37-1.8-1.09-3.28-2.52-4.44-4.3-1.15-1.78-1.71-3.91-1.67-6.41,0-3.16,1.36-6.05,4.07-8.68,2.71-2.62,6.32-3.94,10.81-3.94,5.69,0,9.99,2.56,12.88,7.67l-4.94,3h0ZM693.98,420.56h6.01v57.98h-6.01v-5.07c-1.47,2.27-3.18,3.86-5.14,4.77-1.96.91-3.81,1.37-5.54,1.37-3.34.04-6.14-.77-8.41-2.44-2.27-1.67-3.96-3.78-5.07-6.34-1.11-2.56-1.67-5.1-1.67-7.64.05-3.69.77-6.79,2.17-9.28,1.4-2.49,3.22-4.37,5.47-5.64,2.25-1.27,4.66-1.9,7.24-1.9,2,0,4.08.57,6.24,1.7,2.16,1.13,3.73,2.68,4.7,4.64v-32.16h0ZM694.25,463.07c0-3.42-.95-6.18-2.84-8.27-1.89-2.09-4.37-3.11-7.44-3.07-3.2.04-5.64,1.22-7.31,3.54-1.67,2.31-2.5,4.96-2.5,7.94,0,2.45.77,4.9,2.3,7.37,1.53,2.47,3.99,3.7,7.37,3.7s6.07-1.13,7.81-3.4c1.73-2.27,2.6-4.87,2.6-7.81h0ZM763.66,468.14l5.14,3c-3.6,5.83-8.52,8.65-14.74,8.47-4.67-.13-8.4-1.83-11.18-5.1-2.78-3.27-4.1-7.53-3.97-12.78.22-4.41,1.65-8.06,4.3-10.98,2.65-2.91,6.26-4.37,10.85-4.37,3.74,0,6.74.92,9,2.77,2.27,1.85,3.85,4.12,4.74,6.81.89,2.69,1.18,5.35.87,7.98h-23.62c0,2.94.88,5.39,2.64,7.37,1.76,1.98,4.1,2.99,7.04,3.04,1.78,0,3.48-.57,5.1-1.7s2.9-2.64,3.84-4.5h0ZM762.79,459.4c-.36-2.31-1.26-4.19-2.7-5.64-1.44-1.45-3.33-2.17-5.64-2.17-2,0-3.9.61-5.7,1.84-1.8,1.22-2.95,3.21-3.44,5.97h17.48ZM846.34,428.23h6.27v44.57h15.28v5.74h-21.55v-50.31h0ZM935.17,428.23h6.2v31.96c0,3.87-.78,7.28-2.33,10.21s-3.75,5.21-6.57,6.84c-2.83,1.62-6.02,2.41-9.58,2.37-4.18-.04-7.64-1.02-10.38-2.94-2.73-1.91-4.75-4.34-6.04-7.27-1.29-2.93-1.94-5.89-1.94-8.87v-32.3h6.21v30.76c0,3.92.93,7.35,2.8,10.31,1.87,2.96,4.98,4.44,9.34,4.44s7.27-1.35,9.27-4.04c2-2.69,3.01-6.44,3.01-11.24v-30.23h0ZM994.43,452.12l-13.81-23.89h7.21l10.27,18.28,10.94-18.28h7.21l-14.61,23.95,15.35,26.36h-7.14l-11.74-20.75-12.41,20.75h-7l15.75-26.42h0ZM1077.98,432.9c-2.8,0-5.37.5-7.71,1.5-2.34,1-4.46,2.46-6.37,4.37-1.91,1.91-3.39,4.15-4.44,6.71-1.05,2.56-1.57,5.19-1.57,7.9,0,3.65.9,7.05,2.7,10.21,1.8,3.16,4.24,5.64,7.31,7.44,3.07,1.8,6.43,2.7,10.08,2.7s7-.9,10.08-2.7c3.07-1.8,5.51-4.28,7.31-7.44s2.7-6.56,2.7-10.21c0-2.89-.51-5.57-1.54-8.04-1.02-2.47-2.47-4.64-4.34-6.5-1.86-1.87-4-3.33-6.41-4.37-2.4-1.05-5-1.57-7.81-1.57h0ZM1077.98,427.17c3.56,0,6.95.68,10.17,2.04,3.23,1.36,6.04,3.23,8.44,5.6,2.4,2.38,4.29,5.18,5.67,8.41,1.38,3.22,2.07,6.62,2.07,10.17s-.68,6.93-2.04,10.11c-1.36,3.18-3.28,6-5.77,8.44-2.49,2.45-5.31,4.34-8.47,5.67-3.16,1.33-6.52,2-10.08,2-4.81,0-9.2-1.17-13.18-3.5-3.98-2.33-7.16-5.53-9.54-9.58-2.38-4.05-3.57-8.43-3.57-13.14s1.19-9.1,3.57-13.14c2.38-4.05,5.56-7.24,9.54-9.58,3.98-2.34,8.37-3.5,13.18-3.5h0Z"/>
    </g>
  </g>
</svg>