<?xml version="1.0" encoding="UTF-8"?>
<svg id="Camada_2" data-name="Camada 2" xmlns="http://www.w3.org/2000/svg" viewBox="0 0 488.62 422.71">
  <defs>
    <style>
      .cls-1 {
        fill: #bb9b82;
      }
    </style>
  </defs>
  <g id="Camada_1-2" data-name="Camada 1">
    <g>
      <path class="cls-1" d="M476.45,422.71H116.52c-6.71,0-12.17-5.46-12.17-12.17V94.09L13.63,147.92v267.98H0V147.08c0-4.28,2.29-8.29,5.97-10.47l98.38-58.38V29.53c0-4.36,2.36-8.42,6.15-10.58,3.79-2.16,8.48-2.12,12.23.11l40.7,24.12L233.33,1.7c3.84-2.27,8.59-2.27,12.42,0l236.89,140.09c3.68,2.17,5.98,6.19,5.98,10.47v258.27c0,6.71-5.46,12.17-12.17,12.17ZM117.98,409.08h357v-255.97L239.54,13.87l-62.74,37.23,181.01,107.24c3.68,2.18,5.97,6.19,5.97,10.47v118.79h-13.63v-117.96L163.44,59.03l-45.45,26.97v323.08ZM117.98,32.1v38.05l32.08-19.04-32.08-19.01Z"/>
      <path class="cls-1" d="M288.75,422.71h-91.26c-6.24,0-11.31-5.08-11.31-11.32v-86.75c0-6.24,5.07-11.31,11.31-11.31h91.26c6.24,0,11.31,5.07,11.31,11.31v86.75c0,6.24-5.07,11.32-11.31,11.32ZM199.81,409.08h86.61v-82.12h-86.61v82.12Z"/>
    </g>
  </g>
</svg>