<?xml version="1.0" encoding="UTF-8"?>
<svg id="Camada_2" data-name="Camada 2" xmlns="http://www.w3.org/2000/svg" viewBox="0 0 1714.3 330.33">
  <defs>
    <style>
      .cls-1 {
        fill: #fff;
      }
    </style>
  </defs>
  <g id="Camada_1-2" data-name="Camada 1">
    <g>
      <rect class="cls-1" x="653.36" y="279.35" width="8.31" height="49.93"/>
      <polygon class="cls-1" points="694.69 279.35 705.45 279.35 719.41 317.76 719.55 317.76 733.45 279.35 744.2 279.35 744.2 329.28 736.1 329.28 736.1 291.43 735.96 291.43 722.77 329.28 716.13 329.28 702.93 291.43 702.79 291.43 702.79 329.28 694.69 329.28 694.69 279.35"/>
      <path class="cls-1" d="M775.62,304.28c0-15.01,9.43-25.98,24.51-25.98s24.51,10.96,24.51,25.98-9.5,26.05-24.51,26.05-24.51-11.03-24.51-26.05M816.33,304.28c0-10.05-4.75-18.86-16.2-18.86s-16.27,8.8-16.27,18.86,4.82,18.92,16.27,18.92,16.2-8.8,16.2-18.92M808.65,264.55l-5.8,9.15h-5.73l3-9.15h8.52Z"/>
      <polygon class="cls-1" points="858.23 279.35 870.94 320.21 871.01 320.21 883.72 279.35 892.51 279.35 875.48 329.28 866.47 329.28 849.43 279.35 858.23 279.35"/>
      <polygon class="cls-1" points="954.31 299.95 954.31 307.08 929.94 307.08 929.94 322.23 958.43 322.23 958.43 329.28 921.63 329.28 921.63 279.35 957.73 279.35 957.73 286.41 929.94 286.41 929.94 299.95 954.31 299.95"/>
      <rect class="cls-1" x="989.78" y="279.35" width="8.31" height="49.93"/>
      <path class="cls-1" d="M1069.04,315.74c0,7.96-6.01,14.59-18.58,14.59s-21.51-6.35-22-17.67h8.31c.42,6.36,4.75,10.54,13.69,10.54,7.4,0,10.27-3.28,10.27-7.12,0-5.94-4.26-7.05-14.1-9.49-7.82-1.96-16.27-4.96-16.27-14.46,0-8.87,6.84-13.83,17.74-13.83s18.92,5.73,19.62,15.99h-8.31c-.77-5.8-4.4-8.87-11.31-8.87-5.93,0-9.5,2.23-9.5,5.94,0,5.44,4.68,6.42,11.66,8.17,10.68,2.72,18.78,5.03,18.78,16.2"/>
      <path class="cls-1" d="M177.57,161.44H43.43c-2.5,0-4.54-2.04-4.54-4.54V38.96L5.08,59.02v99.88H0V58.71c0-1.6.85-3.09,2.22-3.9l36.67-21.76V14.9c0-1.63.88-3.14,2.29-3.94,1.41-.8,3.16-.79,4.56.04l15.17,8.99,26.05-15.46c1.43-.85,3.2-.85,4.63,0l88.29,52.21c1.37.81,2.23,2.31,2.23,3.9v96.26c0,2.5-2.03,4.54-4.54,4.54ZM43.97,156.36h133.05V60.95L89.28,9.06l-23.38,13.87,67.46,39.97c1.37.81,2.22,2.31,2.22,3.9v44.27h-5.08v-43.96L60.91,25.89l-16.94,10.05v120.41ZM43.97,15.85v14.18l11.96-7.1-11.96-7.09Z"/>
      <path class="cls-1" d="M107.62,161.44h-34.01c-2.32,0-4.22-1.89-4.22-4.22v-32.33c0-2.32,1.89-4.22,4.22-4.22h34.01c2.32,0,4.22,1.89,4.22,4.22v32.33c0,2.33-1.89,4.22-4.22,4.22ZM74.47,156.36h32.28v-30.6h-32.28v30.6Z"/>
      <path class="cls-1" d="M300.97,18.66v140.02h47.87c25.17,0,33.04-12.59,36.41-24.27h2.7l-2.25,26.97h-113.95v-2.7c9.22,0,15.73-2.7,15.73-11.91V18.66c0-9.22-6.52-11.91-15.73-11.91v-2.7h44.95v2.7c-9.22,0-15.73,2.7-15.73,11.91"/>
      <path class="cls-1" d="M416.05,18.66v92.82c0,31.24,16.41,50.79,46.52,50.79,34.84,0,48.1-21.13,48.1-50.79V18.66c0-9.22-6.52-11.91-15.73-11.91v-2.7h34.16v2.7c-9.21,0-15.73,2.7-15.73,11.91v92.82c0,25.4-10.11,53.49-50.79,53.49s-60.01-22.7-60.01-53.49V18.66c0-9.22-6.52-11.91-15.73-11.91v-2.7h44.95v2.7c-9.22,0-15.73,2.7-15.73,11.91"/>
      <path class="cls-1" d="M735.21,31.02h-2.7c-3.37-11.69-11.24-24.27-36.41-24.27h-50.12v75.07h25.85c18.88,0,22.25-6.52,22.25-17.08h2.7v36.86h-2.7c0-10.56-3.37-17.08-22.25-17.08h-25.85v62.26c0,9.21,6.52,11.91,15.73,11.91v2.7h-44.95v-2.7c9.21,0,15.73-2.7,15.73-11.91V18.66c0-9.22-6.52-11.91-15.73-11.91v-2.7h116.2l2.25,26.97Z"/>
      <path class="cls-1" d="M863.78,31.02h-2.7c-3.37-11.69-11.24-24.27-36.41-24.27h-50.12v75.07h17.98c25.17,0,30.12-12.59,30.12-24.27h2.7v51.24h-2.7c0-11.69-4.95-24.27-30.12-24.27h-17.98v74.17h53.49c25.17,0,33.04-12.59,36.41-24.27h2.7l-2.25,26.97h-119.57v-2.7c9.22,0,15.73-2.7,15.73-11.91V18.66c0-9.22-6.52-11.91-15.73-11.91v-2.7h116.2l2.25,26.97Z"/>
      <path class="cls-1" d="M897.5,146.77V18.66c0-9.22-6.52-11.91-15.73-11.91v-2.7h64.51c37.76,0,68.55,19.78,68.55,55.74,0,20.68-10.34,38.88-28.54,49.67l24.5,37.31c5.17,7.87,9.66,11.91,17.76,11.91v2.7h-24.95l-28.54-46.52c-8.54,2.92-18.2,4.72-28.77,4.72-12.59,0-25.17-2.7-35.29-7.19v34.39c0,9.21,6.52,11.91,15.73,11.91v2.7h-44.95v-2.7c9.22,0,15.73-2.7,15.73-11.91M984.26,106.31c10.56-7.87,16.41-20.23,16.41-35.06,0-39.56-26.52-64.5-60.91-64.5h-28.77v83.38c30.34-35.74,53.27-14.38,73.27,16.18M952.79,115.97c7.64,0,14.61-1.35,20.68-3.6l-4.5-7.41c-14.83-24.05-32.37-37.09-57.99-13.49v10.79c10.56,7.87,26.52,13.71,41.8,13.71"/>
      <path class="cls-1" d="M1054.39,146.77V18.66c0-9.22-6.52-11.91-15.73-11.91v-2.7h64.51c37.76,0,68.55,19.78,68.55,55.74,0,20.68-10.34,38.88-28.54,49.67l24.5,37.31c5.17,7.87,9.66,11.91,17.76,11.91v2.7h-24.95l-28.54-46.52c-8.54,2.92-18.2,4.72-28.77,4.72-12.59,0-25.17-2.7-35.29-7.19v34.39c0,9.21,6.52,11.91,15.73,11.91v2.7h-44.95v-2.7c9.22,0,15.73-2.7,15.73-11.91M1141.15,106.31c10.56-7.87,16.41-20.23,16.41-35.06,0-39.56-26.52-64.5-60.91-64.5h-28.77v83.38c30.34-35.74,53.27-14.38,73.27,16.18M1109.68,115.97c7.64,0,14.61-1.35,20.68-3.6l-4.5-7.41c-14.83-24.05-32.37-37.09-57.99-13.49v10.79c10.56,7.87,26.52,13.71,41.8,13.71"/>
      <path class="cls-1" d="M1313.99,31.02h-2.7c-3.37-11.69-11.24-24.27-36.41-24.27h-50.12v75.07h17.98c25.17,0,30.12-12.59,30.12-24.27h2.7v51.24h-2.7c0-11.69-4.94-24.27-30.12-24.27h-17.98v74.17h53.49c25.17,0,33.04-12.59,36.41-24.27h2.69l-2.25,26.97h-119.57v-2.7c9.21,0,15.73-2.7,15.73-11.91V18.66c0-9.22-6.52-11.91-15.73-11.91v-2.7h116.2l2.25,26.97Z"/>
      <path class="cls-1" d="M1361.2,18.66v128.11c0,9.21,6.52,11.91,15.73,11.91v2.7h-44.95v-2.7c9.22,0,15.73-2.7,15.73-11.91V18.66c0-9.22-6.52-11.91-15.73-11.91v-2.7h44.95v2.7c-9.22,0-15.73,2.7-15.73,11.91"/>
      <path class="cls-1" d="M1415.14,146.77V18.66c0-9.22-6.52-11.91-15.73-11.91v-2.7h64.5c37.76,0,68.55,19.78,68.55,55.74,0,20.68-10.34,38.88-28.54,49.67l24.5,37.31c5.17,7.87,9.66,11.91,17.76,11.91v2.7h-24.95l-28.54-46.52c-8.54,2.92-18.2,4.72-28.77,4.72-12.58,0-25.17-2.7-35.28-7.19v34.39c0,9.21,6.52,11.91,15.73,11.91v2.7h-44.95v-2.7c9.21,0,15.73-2.7,15.73-11.91M1501.9,106.31c10.56-7.87,16.41-20.23,16.41-35.06,0-39.56-26.52-64.5-60.91-64.5h-28.77v83.38c30.34-35.74,53.27-14.38,73.27,16.18M1470.43,115.97c7.64,0,14.61-1.35,20.68-3.6l-4.5-7.41c-14.83-24.05-32.37-37.09-57.99-13.49v10.79c10.56,7.87,26.52,13.71,41.8,13.71"/>
      <path class="cls-1" d="M1625.29,15.06l-1.57-3.6,3.6-2.92,5.62-8.54,62.71,146.77c3.37,7.87,9.89,11.91,18.65,11.91v2.7h-41.35v-2.7c8.09,0,11.91-3.6,8.31-11.91l-12.14-28.32h-84.96l-11.91,28.32c-3.82,9.22,2.25,11.91,10.79,11.91v2.7h-32.36v-2.7c8.54,0,14.83-2.7,18.65-11.91l13.04-30.79.23-.22,42.7-100.69ZM1668,115.75l-41.35-97.54-41.36,97.54h82.71Z"/>
    </g>
  </g>
</svg>