<?xml version="1.0" encoding="UTF-8"?>
<svg id="Camada_2" xmlns="http://www.w3.org/2000/svg" viewBox="0 0 1313.82 557.97">
  <defs>
    <style>
      .cls-1 {
        fill: #fff;
      }
    </style>
  </defs>
  <g id="Layer_1">
    <g>
      <g>
        <path class="cls-1" d="M3.48,499.3h4.24v58.26H3.48v-58.26Z"/>
        <path class="cls-1" d="M114.75,557.55l-.08-49.85-24.38,42.11h-2.08l-24.38-41.94v49.68h-4.16v-58.26h3.58l26.05,45.02,26.05-45.02h3.49l.08,58.26h-4.16Z"/>
        <path class="cls-1" d="M165.27,528.42c0-16.89,12.9-29.54,30.29-29.54s30.29,12.57,30.29,29.54-12.98,29.54-30.29,29.54-30.29-12.65-30.29-29.54ZM221.52,528.42c0-14.73-11.15-25.63-25.96-25.63s-26.05,10.9-26.05,25.63,11.15,25.63,26.05,25.63,25.96-10.9,25.96-25.63ZM202.38,484.73h5.99l-13.07,9.82h-4.49l11.57-9.82Z"/>
        <path class="cls-1" d="M316.98,499.3l-25.96,58.26h-4.24l-25.96-58.26h4.66l23.55,52.76,23.55-52.76h4.41Z"/>
        <path class="cls-1" d="M398.21,553.72v3.83h-40.2v-58.26h38.95v3.83h-34.7v22.97h31.04v3.75h-31.04v23.88h35.95Z"/>
        <path class="cls-1" d="M445.31,499.3h4.24v58.26h-4.24v-58.26Z"/>
        <path class="cls-1" d="M495.58,550.06l1.91-3.16c3.99,4.16,11.4,7.32,19.22,7.32,11.65,0,16.81-5.08,16.81-11.4,0-17.48-36.37-6.99-36.37-28.46,0-8.24,6.32-15.48,20.64-15.48,6.41,0,13.07,2,17.56,5.24l-1.58,3.41c-4.83-3.33-10.74-4.91-15.98-4.91-11.32,0-16.39,5.24-16.39,11.65,0,17.48,36.37,7.16,36.37,28.3,0,8.24-6.57,15.4-20.97,15.4-8.66,0-16.98-3.25-21.22-7.91Z"/>
        <path class="cls-1" d="M677,553.72v3.83h-40.2v-58.26h38.95v3.83h-34.7v22.97h31.04v3.75h-31.04v23.88h35.95Z"/>
        <path class="cls-1" d="M718.2,550.06l1.91-3.16c3.99,4.16,11.4,7.32,19.22,7.32,11.65,0,16.81-5.08,16.81-11.4,0-17.48-36.37-6.99-36.37-28.46,0-8.24,6.32-15.48,20.64-15.48,6.41,0,13.07,2,17.56,5.24l-1.58,3.41c-4.83-3.33-10.74-4.91-15.98-4.91-11.32,0-16.39,5.24-16.39,11.65,0,17.48,36.37,7.16,36.37,28.3,0,8.24-6.57,15.4-20.97,15.4-8.66,0-16.98-3.25-21.22-7.91Z"/>
        <path class="cls-1" d="M850.77,518.94c0,12.23-8.82,19.56-23.47,19.56h-16.64v19.06h-4.24v-58.26h20.89c14.65,0,23.47,7.32,23.47,19.64ZM846.44,518.94c0-10.07-6.66-15.81-19.14-15.81h-16.64v31.54h16.64c12.48,0,19.14-5.74,19.14-15.73Z"/>
        <path class="cls-1" d="M936.9,553.72v3.83h-40.2v-58.26h38.95v3.83h-34.7v22.97h31.04v3.75h-31.04v23.88h35.95Z"/>
        <path class="cls-1" d="M978.1,528.42c0-16.98,12.9-29.54,30.21-29.54,8.24,0,15.65,2.66,20.72,8.07l-2.66,2.75c-4.99-4.91-11.07-6.91-17.89-6.91-14.9,0-26.13,10.98-26.13,25.63s11.24,25.63,26.13,25.63c6.82,0,12.9-2.08,17.89-6.99l2.66,2.75c-5.08,5.41-12.48,8.16-20.72,8.16-17.31,0-30.21-12.57-30.21-29.54Z"/>
        <path class="cls-1" d="M1074.89,499.3h4.24v58.26h-4.24v-58.26Z"/>
        <path class="cls-1" d="M1167.1,541.16h-33.79l-7.41,16.39h-4.58l26.8-58.26h4.24l26.8,58.26h-4.58l-7.49-16.39ZM1165.52,537.58l-15.31-33.62-15.23,33.62h30.54Z"/>
        <path class="cls-1" d="M1221.36,499.3h4.24v58.26h-4.24v-58.26Z"/>
        <path class="cls-1" d="M1271.62,550.06l1.91-3.16c3.99,4.16,11.4,7.32,19.22,7.32,11.65,0,16.81-5.08,16.81-11.4,0-17.48-36.37-6.99-36.37-28.46,0-8.24,6.32-15.48,20.64-15.48,6.41,0,13.07,2,17.56,5.24l-1.58,3.41c-4.83-3.33-10.74-4.91-15.98-4.91-11.32,0-16.39,5.24-16.39,11.65,0,17.48,36.37,7.16,36.37,28.3,0,8.24-6.57,15.4-20.97,15.4-8.66,0-16.98-3.25-21.22-7.91Z"/>
      </g>
      <g>
        <path class="cls-1" d="M375.56,419.78l-.59-247.62-121.45,203.99h-43.04l-120.86-198.69v242.32H0V7.07h79l154.47,256.47L385.58,7.07h78.41l1.18,412.71h-89.62Z"/>
        <path class="cls-1" d="M841.91,206.94h87.26v167.44c-45.4,34.2-107.89,52.47-166.85,52.47-129.71,0-225.22-89.03-225.22-213.43S632.61,0,764.09,0c72.52,0,132.66,24.76,172.75,71.34l-61.32,56.6c-30.07-31.84-64.85-46.58-106.71-46.58-80.18,0-135.01,53.65-135.01,132.07s54.83,132.07,133.83,132.07c25.94,0,50.11-4.72,74.29-17.69v-120.86Z"/>
        <path class="cls-1" d="M1300.01,341.96v77.82h-311.89v-61.91l159.19-150.34c36.55-34.79,43.04-56.01,43.04-76.06,0-32.43-22.4-51.29-66.03-51.29-35.37,0-65.44,13.56-85.49,41.27l-69.57-44.81C1001.1,30.07,1058.88,0,1133.16,0c91.97,0,153.29,47.17,153.29,122.04,0,40.09-11.2,76.65-68.98,130.3l-94.92,89.62h177.46Z"/>
      </g>
    </g>
  </g>
</svg>