<?xml version="1.0" encoding="UTF-8"?>
<svg id="Camada_1" xmlns="http://www.w3.org/2000/svg" viewBox="0 0 256 256">
  <defs>
    <style>
      .cls-1 {
        fill: #00445d;
      }

      .cls-2 {
        fill: #fff;
      }
    </style>
  </defs>
  <rect class="cls-1" x="-18.4" y="-9.21" width="290.04" height="275.74"/>
  <g>
    <path class="cls-2" d="M117.41,90.44l-24.13,61.38-24.43-61.38h-15.37v75.12h5.6v-59.75l23.92,59.75h10.69l23.72-60.16v60.16h14.86v-75.12h-14.86Z"/>
    <path class="cls-2" d="M184.7,126.68c10.39-1.22,16.29-7.33,16.29-16.29,0-15.78-11.39-19.95-31.35-19.95h-26.77v75.02c2.96.1,22.6.1,26.67.1,20.57,0,32.98-4.88,32.98-20.86,0-10.39-7.13-16.7-17.81-18.02ZM157.42,95.53h12.32c11.2,0,16.29,2.24,16.29,14.96,0,10.18-3.26,14.15-15.68,14.15h-12.93v-29.11ZM169.94,160.48h-12.52v-31.05h13.23c13.03,0,16.49,4.88,16.49,15.27,0,13.23-5.8,15.78-17.21,15.78Z"/>
  </g>
</svg>