<?xml version="1.0" encoding="UTF-8"?>
<svg id="Camada_2" xmlns="http://www.w3.org/2000/svg" viewBox="0 0 783.85 99.8">
  <defs>
    <style>
      .cls-1 {
        fill: #fff;
      }
    </style>
  </defs>
  <g id="Layer_1">
    <g>
      <path class="cls-1" d="M84.01,0l-31.71,80.67L20.2,0H0v98.72h7.36V20.2l31.44,78.52h14.05l31.17-79.06v79.06h19.53V0h-19.53Z"/>
      <path class="cls-1" d="M151.31,32.78c-21.93,0-33.84,13.11-33.84,33.57s11.64,33.45,33.84,33.45,33.99-12.98,33.99-33.45-12.04-33.57-33.99-33.57ZM151.31,93.51c-10.7,0-14.45-8.43-14.45-27.16s3.74-27.16,14.45-27.16,14.46,8.3,14.46,27.16-3.76,27.16-14.46,27.16Z"/>
      <path class="cls-1" d="M232.39,33.57c-7.23,0-13.12,1.61-17.66,5.35v-5.08h-17.93v64.87h19.27v-55.78c5.88-1.74,11.37-2.41,16.85-2.41,2.41,0,4.83,0,7.09.13v-6.15c-2.41-.54-5.48-.94-7.61-.94Z"/>
      <path class="cls-1" d="M276,32.78c-21.95,0-33.84,13.11-33.84,33.57s11.64,33.45,33.84,33.45,33.97-12.98,33.97-33.45-12.04-33.57-33.97-33.57ZM276,93.51c-10.7,0-14.45-8.43-14.45-27.16s3.74-27.16,14.45-27.16,14.45,8.3,14.45,27.16-3.74,27.16-14.45,27.16Z"/>
      <path class="cls-1" d="M378.87,47.62c13.65-1.61,21.41-9.64,21.41-21.41,0-20.74-14.97-26.22-41.2-26.22h-35.18v98.59c3.89.13,29.7.13,35.05.13,27.03,0,43.34-6.42,43.34-27.41,0-13.65-9.36-21.95-23.41-23.68ZM343.02,6.69h16.2c14.72,0,21.41,2.95,21.41,19.66,0,13.38-4.28,18.6-20.61,18.6h-16.99V6.69ZM359.47,92.04h-16.45v-40.8h17.39c17.12,0,21.68,6.42,21.68,20.07,0,17.39-7.63,20.74-22.62,20.74Z"/>
      <path class="cls-1" d="M450.59,33.57c-7.23,0-13.11,1.61-17.66,5.35v-5.08h-17.93v64.87h19.27v-55.78c5.89-1.74,11.37-2.41,16.85-2.41,2.41,0,4.83,0,7.09.13v-6.15c-2.41-.54-5.48-.94-7.61-.94Z"/>
      <path class="cls-1" d="M494.2,32.78c-21.95,0-33.84,13.11-33.84,33.57s11.64,33.45,33.84,33.45,33.97-12.98,33.97-33.45-12.03-33.57-33.97-33.57ZM494.2,93.51c-10.7,0-14.45-8.43-14.45-27.16s3.74-27.16,14.45-27.16,14.45,8.3,14.45,27.16-3.74,27.16-14.45,27.16Z"/>
      <path class="cls-1" d="M580.09,56.59l21.53-22.74h-9.24l-33.84,35.98v-.1l-18.86,20.22v8.77h18.86v-19.93l8.17-8.7,16.58,28.62h21.14l-24.34-42.13ZM558.54,0h-18.86v80.31l18.86-20.22V0Z"/>
      <path class="cls-1" d="M669.85,65.01c0-21.95-11.64-32.24-31.04-32.24-17.92,0-31.97,10.7-31.97,33.43,0,26.36,15.66,33.19,38.26,33.19,7.9,0,14.84-.68,21.28-2.15v-5.75c-5.76,1.07-11.51,1.47-17.39,1.47-17.39,0-22.89-4.01-23.28-23.14h43.75c.27-1.74.4-3.34.4-4.81ZM625.7,63.8c.27-18.32,3.34-24.61,13.25-24.61,10.43,0,12.57,6.42,12.97,24.61h-26.22Z"/>
      <path class="cls-1" d="M716.81,33.57c-7.22,0-13.11,1.61-17.65,5.35v-5.08h-17.93v64.87h19.27v-55.78c5.88-1.74,11.37-2.41,16.85-2.41,2.41,0,4.81,0,7.09.13v-6.15c-2.41-.54-5.48-.94-7.63-.94Z"/>
      <path class="cls-1" d="M777.68,64.62c-3.87-2.82-9.49-4.43-16.05-6.16-4.81-1.2-8.82-2.26-11.77-3.87-2.55-1.34-3.87-3.22-3.87-6.83.13-5.48,4.14-8.16,14.97-8.16,5.49,0,11.37.4,16.87,1.21v-5.76c-5.62-1.07-12.85-1.86-20.47-1.86-13.25,0-28.09,3.74-28.09,20.34,0,5.61,1.86,9.49,4.94,12.57,3.61,3.74,10.03,5.48,16.72,7.23,5.35,1.34,9.64,2.53,12.58,4.14,2.53,1.47,3.74,3.22,3.62,6.42,0,6.02-4.55,9.09-18.2,9.09-8.55,0-14.3-.4-20.59-1.2v5.62c6.96,1.07,13.91,2.01,22.47,2.01,18.19,0,32.91-4.95,33.05-20.61.13-6.96-1.88-11.1-6.16-14.18Z"/>
    </g>
  </g>
</svg>