<?xml version="1.0" encoding="UTF-8"?>
<svg id="Layer_1" xmlns="http://www.w3.org/2000/svg" version="1.1" viewBox="0 0 1004.1 456.9">
  <!-- Generator: Adobe Illustrator 29.1.0, SVG Export Plug-In . SVG Version: 2.1.0 Build 142)  -->
  <defs>
    <style>
      .st0 {
        fill: #fff;
      }
    </style>
  </defs>
  <path class="st0" d="M182,304.2l46-117.4,32.3,144.2h-17.8l-24.7-109.6-42.2,109.6-44.4-108.4-20.6,108.4h-4.7l27.6-144.2,48.6,117.4h0Z"/>
  <path class="st0" d="M353.2,125.8c39.8,0,72.1,32.3,72.1,72.1s-32.3,72.1-72.1,72.1-72.1-32.3-72.1-72.1,32.4-72.1,72.1-72.1ZM305.5,150.2c-21.5,21.4-17.5,60.3,8.8,86.7s33.7,22.7,51.3,22.7,26-4.5,35.5-14c21.4-21.5,17.4-60.2-8.9-86.5-15-15-33.7-22.7-51.3-22.7s-25.9,4.5-35.4,13.9h0Z"/>
  <path class="st0" d="M499.9,186.8c19.1,0,33.1,4.7,46.3,13l-2.3,3.9c-9.6-6.2-24.3-12.8-43.9-12.8-18.1.2-29.8,7.8-33.3,17.3-3.3,9.8,1.9,21.2,18.3,27.6l37.5,14c32.2,12.3,40.1,36.3,30.8,55-7.1,14.7-25,26.2-50.7,26.2s-42.7-10.7-52.7-24.4l3.2-3.1c10.6,13.5,28.7,22.9,49.5,22.9s32.5-9,37.3-20.3c6-14.1-.7-32.1-23.5-40.6l-37.7-14.2c-21.2-8.3-29.4-22.7-27.1-35.7,2.4-15.4,19.7-28.9,48.4-28.9h0Z"/>
  <path class="st0" d="M628.4,214.4l-47.7,116.6h-5l59.1-144.2,60.4,144.2h-18.5l-48.3-116.6h0Z"/>
  <path class="st0" d="M722.2,331v-144.2h17.1v144.2h-17.1Z"/>
  <path class="st0" d="M843.5,186.8c22.3,0,40.6,8.8,54.8,24.5l-13.6,12.2c-14.2-15.1-35.8-25.4-55.8-25.4s-24.1,3.9-33.2,13c-21.5,21.4-17.5,60.3,8.8,86.7,14,14,32.5,21.6,50.5,21.6s28.5-5,38.9-15.9l3.3,3c-13,14.8-32.3,24.5-53.8,24.5-39.7,0-72.1-32.3-72.1-72.1s32.4-72.1,72.1-72.1h0Z"/>
  <path class="st0" d="M294.4,318h107.3v12.7h-107.3v-12.7Z"/>
</svg>