<?xml version="1.0" encoding="UTF-8"?>
<svg id="Camada_1" xmlns="http://www.w3.org/2000/svg" version="1.1" viewBox="0 0 60 60">
  <!-- Generator: Adobe Illustrator 29.1.0, SVG Export Plug-In . SVG Version: 2.1.0 Build 142)  -->
  <defs>
    <style>
      .st0 {
        fill: none;
      }

      .st1 {
        fill: #b77d2a;
      }

      .st2 {
        fill: #fff;
      }

      .st3 {
        fill: #726d4a;
      }
    </style>
  </defs>
  <rect class="st3" width="60" height="60"/>
  <line class="st0" x1="59" y1="43.6" x2="60" y2="43.6"/>
  <g>
    <path d="M625.1-170.7c-37.2,4.2-35.9,65.3,7.2,61.8,40-3.3,37.1-66.7-7.2-61.8ZM642.9-116.5c-19.5,13.4-40.1-6.7-38.2-27.3,1-11.1,10.3-22.7,21.7-23.8,25.7-2.5,37.9,36.3,16.4,51ZM588.3-116.4c-1.2-15.6.9-32.5,0-48.3.1-1.1.6-2.8,1.3-3.5.8-.9,2.1-.3,1.8-1.7h-12.7c-.4,1.3,1.3,1.1,2.1,2,.2.2,1.1,1.8,1.1,1.9v22.1h-28.7v-22.1c0-.1,1.1-2,1.4-2.3.9-.8,2.2-.3,1.8-1.6h-13.2l2.5,2.3,1.2,3.4c-.9,15.4,1.2,32.1,0,47.4-.1,1.4-.3,2.8-.8,4.2l-2.8,2.9h13.2c.4-1.4-.9-.8-1.7-1.5-.1-.1-1.5-2.2-1.5-2.4v-26.6h28.7v26.6c0,.4-1.4,1.9-1.8,2.3-.7.7-1.7.4-1.4,1.6h12.7l-2.4-2.9c-.7-1.3-.7-2.3-.8-3.7ZM728-112c-.6-.8-.8-2-.9-3-1.4-15.9,1.1-34,0-50.1,0-.9.5-2,1-2.7.9-1.2,2.4-.7,2.2-2.1h-10.2l-21.4,48.7-20.9-48.7h-9.3c-.2,1.4,1.4.9,2.2,2.1.5.7.9,2.2,1,3.1,1.7,15.4-1.3,33.9,0,49.6l-.5,2.2-2.7,3h10c.3-1.2-.7-.9-1.4-1.6-.4-.4-1.8-1.9-1.8-2.3v-45.3l22.3,50.1,23.2-53.7v47.6c0,.3-.9,2.6-1.1,3-.9,1.3-2.7.8-2.5,2.3h13.2c.3-1.4-1.5-1.2-2.3-2.2ZM775.4-120.8c.5,2.7-3.1,7.7-5.7,7.7h-20.7v-27.3h17.1c.1,0,2,1.6,2.1,1.7.7,1.1-.3,2.4,1.8,2v-11.4c-2-.4-1,.7-1.8,2.1-.2.4-2.2,2-2.5,2h-16.6v-22.8h19.3c.4,0,2.5,1.2,3,1.6,1.1,1,1.2,2.1,1.8,3.2.2.4.2,1.4.9.6,1.1-1.1-.4-6.9.5-8.6h-35.5l2.5,2.3,1.2,3.4c-.9,15.6,1.2,32.4,0,47.8-.1,1.5-.2,2.7-1,4l-2.7,2.6h37.3v-9.3c0-.4,1.2-1.5-.9-1.6ZM866.8-169.9h-10c0,1.5,1.7,1.5,2.5,2.8.4.7.6,1.6.7,2.5-1.5,12.8,2.2,31-.6,43.1-2.8,12.2-21.1,12.6-25.9,2.5-4.7-10,0-33.9-1.7-45.6,0-1,.6-2.2,1.2-2.9,1-1.2,2.6-.9,2.5-2.3h-13.2c0,1.4,1.7,1.4,2.5,2.8.4.8.6,1.6.7,2.5,1.4,12.5-3.1,38.6,2.8,48.6,6.3,10.6,29,10.1,33.8-2.4,4.3-11.2.2-33.8,1.6-46.7,0-.8.4-2,.9-2.6.8-1,2.5-.8,2.3-2.2ZM814-120.3c.8,1.9-2.4,5-3.9,5h-22.1c2.1-16.7,27.6-20.7,25.9-38.9-1.1-11.8-15.5-15.2-24.9-10.9-1,.5-7.1,3.9-7.8,4.5-.8.7-.6,5.8,0,6.7.3.5.8.4,1.1.3.2,0,1.8-3,2.5-3.9,9-10.5,24-5.6,22.8,8.2-.7,7.5-11.2,14.3-16.2,19.3-5.6,5.6-10,11.8-10.2,20h34.1v-10.5h-1.4ZM692.8-103.9c-.6,0-4,3.1-3.5,3.6.7-.1,4.8-1.2,5-1.4.5-.5-.5-2.2-1.5-2.2ZM688.6-100.3v.5c.3-.2.3-.3,0-.5ZM648.6-77.5c-.4-1-.5-16.4-.3-18.4.2-1.3,1-2.1.9-3.4h-5c-.2,1.1,1,1.3,1.3,2.1.4,1.5.2,18.3-.3,19.6-.2.5-.9.9-1,1.5,1.9.2,3.5.5,5.5,0,0-.6-.9-.9-1.1-1.4ZM675.2-77.7c-.3-2.5-.3-17.6.2-19.4.2-.6,1.2-1.5,1.2-1.6,0-.9-4-1.1-4.6,0l-6.7,16.1-1.5,1-7.1-16.8c-.9-1.3-2.5-.9-3.9-.9,0,1.3.8,2.1.9,3.4.4,3.8.4,13.1,0,16.9-.1,1.4-.6,1.7-.9,2.9h3.6c0-.5-.8-.9-.9-1.1v-16.2l7,16c.3.6.5,1.3,1.4,1.3.9,0,6.2-15.4,7.4-17.2l1-.6v15.7c0,.3-1.2,1.3-.9,2,.9.3,4,.6,4.6,0,.8-.8-.9-.8-.9-1.6ZM688.3-99.3c-8.2,1.4-11.6,12.2-7.1,18.7,6.1,8.7,20.5,5.2,21.7-5,1.1-9.3-5.3-15.3-14.6-13.7ZM695.9-78.5c-9.4,6-18.5-7.8-11.7-16.3,1.1-1.4,3.4-2.8,5.1-3.1,10.7-1.8,15.3,13.9,6.6,19.4ZM720.6-96.6l-5.3,14.6c-.3.3-1-1-1.1-1.4-2-4.2-2.9-9.7-5.2-14l.8-2c-.9,0-5-.4-5,.7,0,.1,1.2,1.2,1.6,2,2.9,6.2,4.7,13.6,7.4,19.9l1,.6,9.1-23.2c-2.9,0-3.9-.5-3.4,2.7ZM726.2-76.2h15l-.5-4.1-3,2.7h-6.8s-.7-.6-.7-.7v-9.3c1.7.2,3.6-.2,5.2,0,1.2.2,1.6,1,2.5,1.1v-4.3c-2.4,1.4-5.1,1.5-7.7,1.4v-7.5c0,0,.6-.7.7-.7h6.8c.7,0,.9,2.4,2,1.8v-3.6s-13,0-13,0c-1.5,0,.4,1.6.4,1.8.5,1.4.4,18.4-.1,19.9-.2.6-.9.9-1,1.5ZM747.4-77.5c-.4-.9-.5-17.1-.3-18.9.2-1.2,1-1.8.9-2.9-1.2.1-4.5-.5-5,.7,0,.4.7.1.9.5.7,1.2.7,16.2.5,18.6-.1,1.6-.4,2.2-1.4,3.4,2,.4,3.5.4,5.5,0,0-.6-.9-.9-1.1-1.4ZM754.2-92.5c-1.5-4.5,3.6-6.6,7.2-4.9l2.6,2.6c.4-3.9-.1-4.3-3.9-4.5-5.1-.4-9.6,1.1-8.9,7.1.7,5.7,9.2,4.6,11.3,8.7,2.9,5.6-6.8,8.4-9.7,4.3-.6-.8-.4-2.1-1.1-2.3-.4,4.4,0,5.3,4.4,5.9,4.3.5,9.5-1,9.8-6.1.4-7.4-10.4-6.9-11.7-10.6ZM867.9,16.8c-.9-3.3-2.2-7.5-4.2-10.1,4.7,12.6,6.2,25.9,3.3,39.1-8.7,40-52.6,61.7-90.1,45.2-16.3-7.1-30.6-25.1-43.1-37.7-6.5-6.6-13.6-12.7-19.8-19.6,2.8-3.5,5.9-6.8,8.9-10.1,10.6-11.7,21.4-24.7,32.3-36,18.5-19.2,42.5-24.7,68.1-17.5,1,.3,4,2.2,3.6.2-26.6-10.6-54.8-5.4-76.5,13l-44.8,42.1c-6.3-7-13.1-13.6-19.6-20.5-.5-.5-.5-1.4-.8-1.7-11-11.4-26-28-39.9-35-51.8-26.1-112.1,15.4-104.6,73.2.9,7.2,3.4,14,5.9,20.8.7,0,1,.3.8-.6-.6-2.9-2.6-6.6-3.3-9.9-12.5-50.4,36.1-93.7,84.9-76.7,21.7,7.6,34.3,27,50.3,42.1l17.5,16.6-.4,1.3c-10.3,10.4-19.5,21.7-29.4,32.5-7.7,8.5-15.6,17.9-25.6,24-17.3,10.5-38.6,11.9-57.5,5.1-.2,1.2.2.8.9,1.1,22.7,10.5,53.4,4.5,72.6-10.7,15.9-12.6,30-29.9,45.5-42.8,2.6-2.1,2.7-1.5,4.8.7,16.2,16.9,39,45.8,59.6,55.5,55.5,26.3,117.5-24.3,100.7-83.9ZM547.3,62.7c-.2,1.2.2,2.3,1.4,2.7.2-1.2-.2-2.3-1.4-2.7Z"/>
    <path class="st1" d="M685.1,3.2c.3.3.3,1.2.8,1.7,6.5,6.8,13.3,13.4,19.6,20.5l44.8-42.1c21.6-18.4,49.9-23.6,76.5-13,.3,2-2.7,0-3.6-.2-25.6-7.2-49.5-1.7-68.1,17.5-10.9,11.3-21.7,24.3-32.3,36-3,3.3-6.1,6.7-8.9,10.1,6.3,6.9,13.3,13,19.8,19.6,12.5,12.6,26.8,30.6,43.1,37.7,37.5,16.4,81.5-5.2,90.1-45.2,2.8-13.2,1.3-26.5-3.3-39.1,2,2.6,3.3,6.9,4.2,10.1,16.8,59.6-45.2,110.1-100.7,83.9-20.7-9.8-43.4-38.6-59.6-55.5-2.1-2.2-2.2-2.8-4.8-.7-15.5,12.8-29.7,30.2-45.5,42.8-19.2,15.2-49.9,21.2-72.6,10.7-.7-.3-1.1,0-.9-1.1,18.9,6.8,40.2,5.4,57.5-5.1,10-6.1,17.9-15.5,25.6-24,9.8-10.8,19.1-22.2,29.4-32.5l.4-1.3-17.5-16.6c-16-15.1-28.6-34.5-50.3-42.1-48.7-17-97.3,26.3-84.9,76.7.8,3.2,2.7,7,3.3,9.9.2.9-.1.6-.8.6-2.5-6.7-4.9-13.6-5.9-20.8-7.5-57.8,52.9-99.4,104.6-73.2,13.9,7,28.9,23.6,39.9,35Z"/>
    <path class="st1" d="M677.7-169.9l20.9,48.7,21.4-48.7h10.2c.2,1.4-1.3.9-2.2,2.1s-.9,1.8-1,2.7c1.1,16.1-1.5,34.2,0,50.1,0,1,.3,2.2.9,3.1s2.5.8,2.3,2.2h-13.2c-.2-1.4,1.6-1,2.5-2.3s1.1-2.7,1.1-3v-47.6l-23.2,53.7-22.3-50.1v45.3c0,.4,1.4,1.9,1.8,2.3.7.7,1.7.4,1.4,1.6h-10l2.7-3,.5-2.2c-1.3-15.7,1.7-34.2,0-49.6s-.5-2.4-1-3.1c-.9-1.2-2.4-.7-2.2-2.1h9.3Z"/>
    <path class="st1" d="M625.1-170.7c-37.2,4.2-35.9,65.3,7.2,61.8,40-3.3,37.1-66.7-7.2-61.8ZM642.9-116.5c-19.5,13.4-40.1-6.7-38.2-27.3,1-11.1,10.3-22.7,21.7-23.8,25.7-2.5,37.9,36.3,16.4,51Z"/>
    <path class="st1" d="M556.4-169.9c.4,1.3-.9.8-1.8,1.6s-1.4,2.1-1.4,2.3v22.1h28.7v-22.1c0-.1-.9-1.7-1-1.9-.8-.9-2.5-.7-2.1-2h12.7c.3,1.4-1.1.8-1.8,1.7-.7.8-1.2,2.5-1.3,3.5.9,15.7-1.2,32.7,0,48.3.1,1.4.2,2.4.8,3.7l2.4,2.9h-12.7c-.3-1.2.7-.9,1.4-1.6s1.8-1.9,1.8-2.3v-26.6h-28.7v26.6c0,.1,1.4,2.3,1.5,2.4.8.7,2.1.1,1.7,1.5h-13.2l2.8-2.9c.6-1.3.7-2.7.8-4.2,1.1-15.3-.9-31.9,0-47.4l-1.2-3.4-2.5-2.3h13.2Z"/>
    <path class="st1" d="M774.4-169.9c-.9,1.8.6,7.5-.5,8.6s-.8-.3-.9-.6c-.6-1.2-.6-2.2-1.8-3.2s-2.6-1.6-3-1.6h-19.3v22.8h16.6c.3,0,2.3-1.6,2.5-2,.8-1.4-.2-2.5,1.8-2.1v11.4c-2,.4-1.1-.8-1.8-2s-1.9-1.7-2.1-1.7h-17.1v27.3h20.7c2.6,0,6.2-5.1,5.7-7.7,2.1,0,.9,1.2.9,1.6v9.3h-37.3l2.7-2.6c.8-1.3.9-2.5,1-4,1.1-15.4-.9-32.2,0-47.8l-1.2-3.4-2.5-2.3h35.5Z"/>
    <path class="st1" d="M835.4-169.9c.1,1.4-1.5,1.1-2.5,2.3s-1.1,1.9-1.2,2.9c1.7,11.7-3,35.6,1.7,45.6,4.8,10.1,23.1,9.7,25.9-2.5,2.8-12.1-.9-30.3.6-43.1,0-.8-.3-1.7-.7-2.5-.7-1.2-2.4-1.3-2.5-2.8h10c.2,1.4-1.5,1.2-2.3,2.2s-.8,1.8-.9,2.6c-1.4,12.8,2.7,35.5-1.6,46.7-4.8,12.6-27.5,13.1-33.8,2.4-5.9-10-1.4-36.1-2.8-48.6-.1-.9-.3-1.7-.7-2.5-.8-1.3-2.4-1.4-2.5-2.8h13.2Z"/>
    <path class="st1" d="M788.1-115.3h22.1c1.4,0,4.7-3.1,3.9-5h1.4v10.5h-34.1c.2-8.3,4.7-14.4,10.2-20,5-5,15.5-11.8,16.2-19.3,1.3-13.8-13.8-18.8-22.8-8.2s-2.3,3.8-2.5,3.9c-.4.1-.9.2-1.1-.3-.6-1-.8-6,0-6.7s6.7-4,7.8-4.5c9.4-4.3,23.8-.9,24.9,10.9,1.7,18.2-23.8,22.1-25.9,38.9Z"/>
    <path class="st1" d="M655.7-77.3c0,.3.9.6.9,1.1h-3.6c.3-1.2.8-1.5.9-2.9.4-3.8.4-13.1,0-16.9-.2-1.3-1-2.1-.9-3.4,1.4,0,3-.4,3.9.9l7.1,16.8,1.5-1,6.7-16.1c.6-1.1,4.6-.9,4.6,0s-1,1-1.2,1.6c-.6,1.8-.5,16.9-.2,19.4,0,.8,1.7.8,1,1.6s-3.7.3-4.6,0c-.3-.8.9-1.7.9-2v-15.7l-1,.6c-1.2,1.8-6.5,17.2-7.4,17.2s-1-.7-1.4-1.3l-7-16v16.2Z"/>
    <path class="st1" d="M688.3-99.3c-8.2,1.4-11.6,12.2-7.1,18.7,6.1,8.7,20.5,5.2,21.7-5,1.1-9.3-5.3-15.3-14.6-13.7ZM695.9-78.5c-9.4,6-18.5-7.8-11.7-16.3,1.1-1.4,3.4-2.8,5.1-3.1,10.7-1.8,15.3,13.9,6.6,19.4Z"/>
    <path class="st1" d="M739.9-99.4v3.6c-1.1.6-1.3-1.8-2-1.8h-6.8s-.7.6-.7.7v7.5c2.7.1,5.4,0,7.7-1.4v4.3c-.9-.1-1.4-.9-2.5-1.1s-3.5.1-5.2,0v9.3s.6.7.7.7h6.8l3-2.7.5,4.1h-15c.1-.6.8-.9,1-1.5.6-1.5.6-18.5.1-19.9s-2-1.8-.4-1.8h13Z"/>
    <path class="st1" d="M764-94.8l-2.6-2.6c-3.6-1.7-8.7.5-7.2,4.9,1.3,3.8,12.1,3.2,11.7,10.6-.3,5.1-5.4,6.6-9.8,6.1s-4.8-1.5-4.4-5.9c.8.2.6,1.4,1.1,2.3,2.9,4.2,12.6,1.3,9.7-4.3s-10.6-3-11.3-8.7,3.8-7.5,8.9-7.1,4.3.6,3.9,4.5Z"/>
    <path class="st1" d="M709.8-99.4l-.8,2c2.2,4.2,3.2,9.8,5.2,14s.8,1.6,1.1,1.4l5.3-14.6c-.6-3.2.4-2.8,3.4-2.7l-9.1,23.2-1-.6c-2.7-6.3-4.5-13.7-7.4-19.9-.4-.8-1.6-1.9-1.6-2,0-1,4.1-.6,5-.7Z"/>
    <path class="st1" d="M649.3-99.4c0,1.3-.8,2.1-.9,3.4-.2,2-.2,17.5.2,18.4.2.5,1,.8,1.1,1.4-1.9.5-3.5.2-5.5,0,.1-.6.8-.9,1-1.5.5-1.3.7-18.1.3-19.6s-1.5-1.1-1.3-2.1h5Z"/>
    <path class="st1" d="M748-99.4c.1,1.2-.8,1.8-.9,2.9-.3,1.8-.1,18,.3,18.9s1,.8,1.1,1.4c-2,.4-3.5.4-5.5,0,1-1.2,1.2-1.8,1.4-3.4.2-2.4.2-17.4-.5-18.6s-.9-.2-.9-.5c.5-1.2,3.8-.5,5-.7Z"/>
    <path class="st1" d="M694.3-101.7c-.2.2-4.3,1.3-5,1.4-.5-.5,2.9-3.6,3.5-3.6,1.1,0,2,1.7,1.5,2.2Z"/>
    <path class="st1" d="M548.7,65.4c-1.2-.5-1.5-1.5-1.4-2.7,1.2.5,1.5,1.5,1.4,2.7Z"/>
    <path class="st1" d="M688.7-100.3c.3.2.3.3,0,.5v-.5Z"/>
  </g>
  <g>
    <g>
      <path class="st2" d="M10.9,33.2l2.7-7,1.9,8.6h-1.1l-1.5-6.5-2.5,6.5-2.7-6.5-1.2,6.5h-.3l1.6-8.6,2.9,7h0Z"/>
      <path class="st2" d="M21.1,22.5c2.4,0,4.3,1.9,4.3,4.3s-1.9,4.3-4.3,4.3-4.3-1.9-4.3-4.3,1.9-4.3,4.3-4.3ZM18.3,24c-1.3,1.3-1,3.6.5,5.2.9.9,2,1.4,3.1,1.4s1.6-.3,2.1-.8c1.3-1.3,1-3.6-.5-5.2-.9-.9-2-1.4-3.1-1.4s-1.5.3-2.1.8Z"/>
      <path class="st2" d="M29.9,26.2c1.1,0,2,.3,2.8.8v.2c-.7-.4-1.6-.8-2.8-.8-1.1,0-1.8.5-2,1-.2.6.1,1.3,1.1,1.6l2.2.8c1.9.7,2.4,2.2,1.8,3.3-.4.9-1.5,1.6-3,1.6s-2.5-.6-3.1-1.5l.2-.2c.6.8,1.7,1.4,3,1.4s1.9-.5,2.2-1.2c.4-.8,0-1.9-1.4-2.4l-2.2-.8c-1.3-.5-1.8-1.4-1.6-2.1.1-.9,1.2-1.7,2.9-1.7h0Z"/>
      <path class="st2" d="M37.5,27.8l-2.8,7h-.3l3.5-8.6,3.6,8.6h-1.1l-2.9-7h0Z"/>
      <path class="st2" d="M43.1,34.8v-8.6h1v8.6h-1Z"/>
      <path class="st2" d="M50.4,26.2c1.3,0,2.4.5,3.3,1.5l-.8.7c-.8-.9-2.1-1.5-3.3-1.5s-1.4.2-2,.8c-1.3,1.3-1,3.6.5,5.2.8.8,1.9,1.3,3,1.3s1.7-.3,2.3-.9l.2.2c-.8.9-1.9,1.5-3.2,1.5-2.4,0-4.3-1.9-4.3-4.3s1.9-4.3,4.3-4.3h0Z"/>
    </g>
    <path class="st2" d="M17.6,34h6.4v.8h-6.4v-.8h0Z"/>
  </g>
</svg>