<?xml version="1.0" encoding="utf-8" ?>
<svg baseProfile="full" height="100" version="1.1" width="143" xmlns="http://www.w3.org/2000/svg" xmlns:ev="http://www.w3.org/2001/xml-events" xmlns:xlink="http://www.w3.org/1999/xlink"><defs /><rect fill="#606C38" height="100" width="143" x="0" y="0" /><polygon fill="white" points="35,20 35,70 49,70 49,55 46,55 46,66 45,67 39,67 38,66 38,28 39,27 42,30 43,30 47,34 48,34 53,39 54,39 58,43 59,43 63,47 64,47 69,52 70,52 71,53 68,56 67,56 65,58 64,58 62,60 61,60 58,63 58,70 74,70 74,55 75,54 76,54 78,52 79,52 82,49 83,49 85,47 86,47 88,45 89,45 92,42 93,42 95,40 96,40 98,38 99,38 102,35 103,35 105,33 106,33 108,31 109,32 109,66 108,67 93,67 92,66 92,50 91,49 89,49 89,70 112,70 112,25 111,26 110,26 108,28 107,28 105,30 104,30 102,32 101,32 99,34 98,34 95,37 94,37 92,39 91,39 90,38 89,38 86,35 85,35 83,33 82,33 79,30 78,30 76,28 75,28 72,25 71,25 71,47 70,48 69,47 68,47 64,43 63,43 59,39 58,39 54,35 53,35 49,31 48,31 44,27 43,27 39,23 38,23" /></svg>