<?xml version="1.0" encoding="utf-8"?>
<!-- Generator: Adobe Illustrator 27.8.1, SVG Export Plug-In . SVG Version: 6.00 Build 0)  -->
<svg version="1.1" id="Layer_1" xmlns="http://www.w3.org/2000/svg" xmlns:xlink="http://www.w3.org/1999/xlink" x="0px" y="0px"
	 viewBox="0 0 256 256" style="enable-background:new 0 0 256 256;" xml:space="preserve">
<style type="text/css">
	.st0{fill:#FFFFFF;}
</style>
<rect width="256" height="256"/>
<g id="Layer_1-2">
	<g>
		<path class="st0" d="M180.1,133.4h-74.8c-3.9,25-26.3,38-45.9,35c-19.7-2.9-34.4-19.7-34.6-39.7c-0.3-20.1,13.7-37.5,32.4-41.1
			c22.4-4.2,44.4,10.8,47.9,34.1h125.6c0.3,0.3,0.5,0.4,0.5,0.6c-0.1,8.4,0.4,17-0.5,25.4c-1.4,15.2-10.3,21.3-26.9,21
			c-9.2-0.7-16.6-2.8-20.8-11.5c-2.2-4.8-2.9-9.8-2.9-15C180,139.2,180.1,136.5,180.1,133.4 M36.7,127.2
			c-0.1,15.7,12.7,28.6,28.4,28.5c15.5-0.1,28.3-12.7,28.3-28.3c0.1-15.5-12.5-28.3-28.2-28.4C49.4,99.1,36.7,111.5,36.7,127.2
			 M220.2,132.9H191c-0.1,5.2-0.3,10.2,1.7,15.2c2.2,5.4,6.6,8.3,12.7,8.3c6.4,0.1,10.6-2.6,12.9-8.1
			C220.6,143.3,220.3,138.1,220.2,132.9"/>
	</g>
</g>
</svg>
