<?xml version="1.0" encoding="UTF-8"?>
<svg id="Layer_2" data-name="Layer 2" xmlns="http://www.w3.org/2000/svg" viewBox="0 0 712.71 165.39">
  <defs>
    <style>
      .cls-1 {
        fill: #fff;
        stroke-width: 0px;
      }
    </style>
  </defs>
  <g id="Layer_1-2" data-name="Layer 1">
    <g>
      <path class="cls-1" d="m313.05,93.97h-150.79c-7.94,50.37-52.96,76.51-92.45,70.59C30.11,158.61.49,124.71,0,84.57-.48,44.01,27.77,8.8,65.37,1.77c45.05-8.42,89.62,21.7,96.74,68.65h252.98c.49.54.93.8.93,1.05-.19,17.08.77,34.29-.89,51.23-2.98,30.47-20.8,43.01-54.13,42.27-18.45-1.37-33.54-5.7-42.03-23.34-4.6-9.57-5.76-19.87-5.9-30.35-.07-5.61-.01-11.22-.01-17.3M24.13,81.47c-.09,31.71,25.61,57.48,57.21,57.39,31.36-.09,57.02-25.73,57.14-57.09.11-31.41-25.37-57.06-56.84-57.2-31.96-.15-57.42,25.05-57.51,56.9m369.89,11.08h-58.78c-.19,10.57-.67,20.74,3.37,30.54,4.5,10.92,13.15,16.65,25.71,16.71,12.75.06,21.34-5.41,26-16.23,4.27-9.91,3.82-20.26,3.7-31.01"/>
      <path class="cls-1" d="m597.49,164.99h-24.27V.41c38.14,34.49,75.72,68.48,114.33,103.41V0h24.22c0,52.74.93,111.33.93,164.96-38.26-34.6-76.69-71.84-115.22-106.69v106.72Z"/>
      <polygon class="cls-1" points="539.72 26.42 479.45 26.42 479.45 64.61 527.82 64.61 527.82 90.62 479.43 90.62 479.43 139.07 549.24 139.07 549.24 164.96 452.24 164.96 452.24 .57 539.72 .57 539.72 26.42"/>
    </g>
  </g>
</svg>