<?xml version="1.0" encoding="UTF-8"?>
<svg id="Camada_1" xmlns="http://www.w3.org/2000/svg" viewBox="0 0 256 256">
  <defs>
    <style>
      .cls-1 {
        fill: #e2982b;
      }
    </style>
  </defs>
  <rect x="-18.4" y="-9.21" width="290.04" height="275.74"/>
  <g>
    <path class="cls-1" d="M193.8,83.87c-4.15-3.78-11.76-5.67-22.77-5.67h-86.07c-11.01,0-18.62,1.89-22.77,5.67-4.15,3.78-6.22,11.09-6.22,21.97v61.6c0,10.88,2.07,18.19,6.22,21.97,4.15,3.78,11.76,5.67,22.77,5.67h86.07c11.01,0,18.62-1.89,22.77-5.67,4.15-3.78,6.22-11.09,6.22-21.97v-61.6c0-10.88-2.08-18.19-6.22-21.97ZM165.47,173.1h-74.95c-4.07,0-7.37-3.3-7.37-7.37v-59.34c0-4.07,3.3-7.37,7.37-7.37h74.95c4.07,0,7.37,3.3,7.37,7.37v59.34c0,4.07-3.3,7.37-7.37,7.37Z"/>
    <polygon class="cls-1" points="166.51 37.21 137.51 65.74 114.41 65.74 137.58 37.21 166.51 37.21"/>
  </g>
</svg>