<?xml version="1.0" encoding="UTF-8"?>
<svg id="Camada_2" xmlns="http://www.w3.org/2000/svg" viewBox="0 0 518.03 518.03">
  <defs>
    <style>
      .cls-1 {
        fill: #fff;
      }

      .cls-2 {
        fill: #e2982b;
      }
    </style>
  </defs>
  <g id="Layer_1">
    <g>
      <rect y="0" width="518.03" height="518.03" rx="22.44" ry="22.44"/>
      <g>
        <path class="cls-1" d="M226.05,76.38c-4.96-4.52-14.02-6.77-27.19-6.77h-102.91c-13.2,0-22.26,2.26-27.22,6.77-4.96,4.52-7.44,13.26-7.44,26.27v73.65c0,13.01,2.48,21.75,7.44,26.27,4.96,4.52,14.02,6.77,27.22,6.77h102.91c13.17,0,22.23-2.26,27.19-6.77,4.96-4.52,7.44-13.26,7.44-26.27v-73.65c0-13.01-2.48-21.75-7.44-26.27ZM192.21,183.08h-89.62c-4.87,0-8.81-3.94-8.81-8.81v-70.95c0-4.87,3.94-8.81,8.81-8.81h89.62c4.87,0,8.81,3.94,8.81,8.81v70.95c0,4.87-3.94,8.81-8.81,8.81Z"/>
        <path class="cls-2" d="M226.08,315.46c-4.96-4.52-14.06-6.77-27.22-6.77h-102.91c-13.16,0-22.26,2.26-27.22,6.77-4.96,4.52-7.44,13.26-7.44,26.27v73.65c0,13.01,2.48,21.75,7.44,26.27,4.96,4.52,14.06,6.77,27.22,6.77h102.91c13.16,0,22.26-2.26,27.22-6.77,4.96-4.52,7.44-13.26,7.44-26.27v-73.65c0-13.01-2.48-21.75-7.44-26.27ZM192.21,422.15h-89.61c-4.87,0-8.81-3.94-8.81-8.81v-70.95c0-4.87,3.94-8.81,8.81-8.81h89.61c4.87,0,8.81,3.94,8.81,8.81v70.95c0,4.87-3.94,8.81-8.81,8.81Z"/>
        <polygon class="cls-2" points="193.45 259.67 158.77 293.79 131.15 293.79 158.86 259.67 193.45 259.67"/>
        <path class="cls-1" d="M447.08,369.87c-5.06-4.52-14.15-6.77-27.35-6.77h-78.39c-4.87,0-8.81-3.94-8.81-8.81v-12.43c0-4.87,3.94-8.81,8.81-8.81h73.94c4.87,0,8.81,3.94,8.81,8.81h0s28.68,0,28.68,0c-.06-12.98-2.51-21.72-7.32-26.27-4.86-4.61-13.99-6.9-27.35-6.9h-79.34c-13.17,0-22.26,2.26-27.22,6.77-4.96,4.52-7.44,13.26-7.44,26.27v15.42c0,13.01,2.48,21.75,7.44,26.27,4.96,4.52,14.06,6.77,27.22,6.77h78.39c4.87,0,8.81,3.94,8.81,8.81v14.34c0,4.87-3.94,8.81-8.81,8.81h-81.22c-4.87,0-8.81-3.94-8.81-8.81v-.38h-28.68c.13,13.68,2.39,22.96,6.74,27.86,4.52,5.06,13.9,7.6,28.18,7.6h86.37c13.2,0,22.29-2.26,27.35-6.77,5.06-4.52,7.6-13.26,7.6-26.27v-19.24c0-13.01-2.55-21.75-7.6-26.27Z"/>
        <path class="cls-1" d="M467.74,209.33h-46.57l-56.32-52.8h-30.87v52.8h-31.95V69.61h119.68c20.94,0,31.41,9.03,31.41,27.08v32.76c0,13.54-5.42,21.93-16.25,25.18-4.15,1.26-15.34,1.9-33.57,1.9l64.45,52.8ZM421.7,121.6v-16.79c0-4.69-1.35-7.76-4.06-9.21-1.99-1.26-5.51-1.9-10.56-1.9h-73.11v38.99h73.11c5.05,0,8.57-.63,10.56-1.9,2.71-1.44,4.06-4.51,4.06-9.21Z"/>
      </g>
    </g>
  </g>
</svg>