<?xml version="1.0" encoding="UTF-8"?>
<svg id="Camada_1" data-name="Camada 1" xmlns="http://www.w3.org/2000/svg" viewBox="0 0 256 256">
  <defs>
    <style>
      .cls-1 {
        fill: #f54d01;
      }

      .cls-1, .cls-2 {
        stroke-width: 0px;
      }

      .cls-2 {
        fill: #fff;
      }
    </style>
  </defs>
  <rect class="cls-1" x="-18.4" y="-9.21" width="290.04" height="275.74"/>
  <g>
    <path class="cls-2" d="M43.09,53.71v148.57l14.06-5.7V59.4l-14.06-5.68ZM198.87,59.4v137.19l14.05,5.7V53.71l-14.05,5.68ZM59.41,198.85l-5.7,14.06h148.57l-5.68-14.06H59.41ZM53.71,43.08l5.7,14.05h137.19l5.68-14.05H53.71Z"/>
    <path class="cls-2" d="M133.51,77.37h-36.12v13.4h36.01c14.06,0,22.59,7.47,22.59,20.33s-8.53,20.66-22.59,20.66h-36.01v49.75h15.9v-36.33h20.22c23.36,0,38.38-12.32,38.38-34.17s-15.02-33.63-38.38-33.63Z"/>
  </g>
</svg>