<svg width="512" height="512" viewBox="0 0 512 512" fill="none" xmlns="http://www.w3.org/2000/svg">
<rect width="512" height="512" fill="#233845"/>
<path d="M157.146 189.275C179.864 189.275 189.995 205.783 189.995 222.277C189.995 238.783 180.138 255.282 157.146 255.282H102.133V189.275H157.146ZM177.676 286.223C214.078 278.264 226.118 249.682 226.118 221.395C226.118 185.743 202.239 153.039 157.075 152.743C127.515 152.743 98.0231 152.739 68.4736 152.739C67.6469 152.739 66.584 152.765 66.2985 153.042C65.9474 153.381 66.0032 154.165 66.0032 154.165V359.302H102.133V290.35H136.895L191.318 357.555C191.318 357.555 192.471 358.877 192.977 359.116C193.448 359.344 194.821 359.302 194.821 359.302H235.7L177.676 286.223Z" fill="white"/>
<path d="M287.199 153.057C287.677 153.29 287.609 153.354 288.463 154.461C303.575 173.998 444.602 356.37 445.834 359.281H397.234C395.419 359.281 395.02 359.255 394.408 358.955C393.943 358.729 393.105 357.625 393.105 357.625L235.788 152.694L283.678 152.766C283.678 152.766 286.418 152.672 287.199 153.057Z" fill="white"/>
<path fill-rule="evenodd" clip-rule="evenodd" d="M446 152.862L370.786 250.758C370.786 250.758 355.808 231.232 344.905 216.878C346.563 214.912 384.664 165.794 393.021 155.016C394.054 153.683 393.899 153.716 394.576 153.247C394.98 152.965 396.612 152.935 396.612 152.935L446 152.862Z" fill="#CB9923"/>
<path d="M336.676 294.657L288.128 357.907C288.128 357.907 287.78 358.48 287.335 358.82C286.686 359.316 285.867 359.293 283.801 359.293H235.61C236.915 356.21 311.041 260.949 311.041 260.949L336.676 294.657Z" fill="white"/>
</svg>
