<?xml version="1.0" encoding="UTF-8"?>
<svg id="Camada_2" data-name="Camada 2" xmlns="http://www.w3.org/2000/svg" viewBox="0 0 1802.58 171.73">
  <defs>
    <style>
      .cls-1 {
        fill: #fff;
        stroke-width: 0px;
      }
    </style>
  </defs>
  <g id="Logo_2" data-name="Logo 2">
    <g>
      <path class="cls-1" d="M28.42,161.55c-8.37-2.37-15.2-5.76-20.49-10.19-5.29-4.42-7.94-9.47-7.94-15.16v-25.35h4.26c2.68,15.79,7.89,27.2,15.63,34.23,7.74,7.03,18.39,10.54,31.98,10.54,8.53,0,15.83-2.13,21.91-6.4,6.08-4.26,9.12-10.19,9.12-17.77,0-6.63-2.05-12.39-6.16-17.29-4.11-4.89-10.74-10.03-19.9-15.4l-29.14-17.29c-10.11-6-17.25-12.08-21.44-18.24C2.09,57.09,0,49.59,0,40.74c0-12.16,4.22-21.91,12.67-29.25C21.12,4.15,32.21.47,45.95.47c8.05,0,16.03,1.15,23.92,3.43,7.89,2.29,14.41,5.61,19.54,9.95,5.13,4.34,7.7,9.36,7.7,15.04v25.35h-4.26c-2.69-15.79-7.78-27.12-15.28-33.99-7.5-6.87-18.04-10.3-31.62-10.3-7.27,0-13.66,2.21-19.19,6.63-5.53,4.42-8.29,10.19-8.29,17.29,0,6.48,2.01,11.84,6.04,16.11,4.03,4.26,10.78,9.24,20.25,14.92l29.14,17.29c10.74,6.48,18.32,12.48,22.74,18,4.42,5.53,6.63,12.55,6.63,21.08,0,13.27-4.42,23.89-13.26,31.86-8.85,7.97-20.84,11.96-36,11.96-8.69,0-17.21-1.18-25.58-3.55Z"/>
      <path class="cls-1" d="M238.29,155.98c-7.42-4.18-13.35-12.35-17.77-24.52l-5.92-15.4h-66.32l-18.95,45.01h-10.66L185,4.74h7.11l52.11,126.73c3.95,9.16,7.66,15.44,11.13,18.83,3.47,3.4,8.45,5.41,14.92,6.04v4.74c-2.84.79-6,1.18-9.48,1.18-7.58,0-15.08-2.09-22.5-6.28ZM151.83,106.59h58.03l-28.42-68.69-29.61,68.69Z"/>
      <path class="cls-1" d="M436.55,166.52c-6.32-3.48-10.78-8.88-13.38-16.23-2.61-7.34-3.91-17.17-3.91-29.49V29.61l-59.22,131.46h-4.74l-61.59-133.83v133.83h-9.47V4.74h22.5l56.85,123.17L419.26,4.74h21.32v116.07c0,14.69,1.85,26.06,5.57,34.11,3.71,8.05,9.36,12.08,16.94,12.08v4.74c-11.37,0-20.22-1.74-26.53-5.21Z"/>
      <path class="cls-1" d="M490.08,33.16c0-8.05-1.11-14.01-3.32-17.88-2.21-3.87-6.63-5.8-13.27-5.8h-4.74v-4.74h61.59c15.16,0,28.82,3.24,40.98,9.71,12.16,6.48,18.24,19.03,18.24,37.66,0,12.32-3.16,21.79-9.47,28.42-6.32,6.63-13.38,11.05-21.2,13.26-7.82,2.21-14.96,3.32-21.44,3.32h-26.06v63.96h-21.32V33.16ZM545.28,84.92c5.68-2.61,10.54-6.75,14.57-12.44,4.03-5.69,6.04-12.87,6.04-21.56s-2.01-15.87-6.04-21.56c-4.03-5.68-8.88-9.83-14.57-12.44-5.69-2.61-11.06-3.91-16.11-3.91-5.53,0-11.45.79-17.77,2.37v71.06c6.31,1.58,12.24,2.37,17.77,2.37,5.05,0,10.42-1.3,16.11-3.91Z"/>
      <path class="cls-1" d="M705.4,155.98c-7.42-4.18-13.35-12.35-17.77-24.52l-5.92-15.4h-66.32l-18.95,45.01h-10.66L652.1,4.74h7.11l52.11,126.73c3.95,9.16,7.66,15.44,11.13,18.83,3.47,3.4,8.45,5.41,14.92,6.04v4.74c-2.84.79-6,1.18-9.48,1.18-7.58,0-15.08-2.09-22.5-6.28ZM618.94,106.59h58.03l-28.42-68.69-29.61,68.69Z"/>
      <path class="cls-1" d="M815.31,33.16c0-8.05-1.11-14.01-3.32-17.88-2.21-3.87-6.63-5.8-13.27-5.8h-4.74v-4.74h61.59c17.21,0,32.17,2.84,44.89,8.53,12.71,5.69,19.07,16.66,19.07,32.93,0,7.42-2.53,14.13-7.58,20.13-5.06,6-12.79,10.74-23.21,14.21,14.53,2.37,24.67,6.67,30.44,12.91,5.76,6.24,8.65,14.57,8.65,24.99,0,15.95-6.28,27.04-18.83,33.28-12.55,6.24-27.99,9.36-46.31,9.36h-47.37V33.16ZM859.13,76.98c6.47,0,12.59-1.22,18.36-3.67,5.76-2.45,10.46-6.08,14.09-10.9,3.63-4.82,5.45-10.62,5.45-17.41s-2.13-13.07-6.4-17.88c-4.26-4.82-9.67-8.37-16.23-10.66-6.55-2.29-13.23-3.43-20.02-3.43-5.53,0-11.45.79-17.77,2.37v61.59h22.5ZM892.41,144.25c7.82-5.68,11.73-13.89,11.73-24.63s-3.83-18.95-11.49-24.63c-7.66-5.69-18.83-8.53-33.52-8.53h-22.5v63.01c7.58,2.21,15.08,3.32,22.5,3.32,14.37,0,25.46-2.84,33.28-8.53Z"/>
      <path class="cls-1" d="M1044.95,155.98c-6.24-4.97-13.15-13.93-20.73-26.88l-23.69-40.27h-16.58v72.25h-21.32V33.16c0-8.05-1.11-14.01-3.32-17.88-2.21-3.87-6.63-5.8-13.27-5.8h-4.74v-4.74h61.59c15,0,28.62,2.96,40.86,8.88,12.24,5.92,18.36,17.17,18.36,33.75,0,21-12.64,34.43-37.9,40.27l24.87,41.45c5.84,9.79,11.09,16.62,15.75,20.49,4.66,3.87,10.07,6.12,16.23,6.75v4.74c-1.42.63-3.43,1.18-6.04,1.66s-5.33.71-8.17.71c-8.37,0-15.67-2.49-21.91-7.46ZM1017.71,76.98c5.76-2.37,10.66-6.08,14.69-11.13,4.03-5.05,6.04-11.21,6.04-18.48,0-7.74-2.01-14.17-6.04-19.31-4.03-5.13-8.92-8.92-14.69-11.37-5.77-2.45-11.1-3.67-15.99-3.67-5.53,0-11.45.79-17.77,2.37v62.77c6.31,1.58,12.24,2.37,17.77,2.37,4.89,0,10.22-1.18,15.99-3.55Z"/>
      <path class="cls-1" d="M1124.06,154.92c-11.13-7.26-19.7-17.21-25.7-29.85-6-12.63-9-26.68-9-42.16s3-29.53,9-42.16c6-12.63,14.57-22.58,25.7-29.85,11.13-7.26,24.04-10.9,38.73-10.9s27.6,3.63,38.73,10.9c11.13,7.26,19.7,17.21,25.7,29.85,6,12.64,9,26.69,9,42.16s-3,29.53-9,42.16c-6,12.64-14.57,22.58-25.7,29.85-11.13,7.26-24.04,10.9-38.73,10.9s-27.6-3.63-38.73-10.9ZM1189.44,147.33c7.5-6,13.22-14.49,17.17-25.46,3.95-10.97,5.92-23.96,5.92-38.97s-1.98-27.99-5.92-38.97c-3.95-10.97-9.67-19.46-17.17-25.46-7.5-6-16.38-9-26.65-9s-19.15,3-26.65,9c-7.5,6-13.23,14.49-17.17,25.46-3.95,10.98-5.92,23.96-5.92,38.97s1.97,27.99,5.92,38.97c3.95,10.98,9.67,19.46,17.17,25.46,7.5,6,16.38,9,26.65,9s19.15-3,26.65-9Z"/>
      <path class="cls-1" d="M1369.35,157.4c-8.05-4.03-17.29-11.49-27.71-22.38l-49.74-52.11v78.17h-21.32V33.16c0-8.05-1.11-14.01-3.32-17.88-2.21-3.87-6.63-5.8-13.27-5.8h-4.74v-4.74h21.32c5.84,0,10.22.75,13.15,2.25,2.92,1.5,5.01,4.23,6.28,8.17,1.26,3.95,1.9,9.95,1.9,18v46.19l49.74-49.74,4.74-4.97c4.42-4.58,8.13-8.17,11.13-10.78,3-2.61,6.55-4.77,10.66-6.51,4.1-1.74,8.68-2.61,13.74-2.61h11.84v5.92c-6.63,0-12.4,1.15-17.29,3.43-4.9,2.29-10.58,6.67-17.05,13.15l-46.19,46.19,54.48,56.85c6.95,7.11,13.98,13.07,21.08,17.88,7.11,4.82,13.5,7.62,19.19,8.41v4.5c-4.74,1.58-9.87,2.37-15.4,2.37-7.42,0-15.16-2.01-23.21-6.04Z"/>
      <path class="cls-1" d="M1430.93,33.16c0-8.05-1.11-14.01-3.32-17.88-2.21-3.87-6.63-5.8-13.27-5.8h-4.74v-4.74h100.91c13.42,0,20.13,6.32,20.13,18.95v17.77h-4.74c0-18.16-9.87-27.24-29.61-27.24h-44.06v61.59h63.96v9.48h-63.96v66.32h41.45c10.9,0,19.42-1.97,25.58-5.92,6.16-3.95,11.05-10.66,14.69-20.13l4.74,1.18-8.29,22.5c-2.84,7.9-8.76,11.84-17.77,11.84h-81.72V33.16Z"/>
      <path class="cls-1" d="M1653,155.98c-6.24-4.97-13.15-13.93-20.73-26.88l-23.69-40.27h-16.58v72.25h-21.32V33.16c0-8.05-1.11-14.01-3.32-17.88-2.21-3.87-6.63-5.8-13.27-5.8h-4.74v-4.74h61.59c15,0,28.62,2.96,40.86,8.88,12.24,5.92,18.36,17.17,18.36,33.75,0,21-12.64,34.43-37.9,40.27l24.87,41.45c5.84,9.79,11.09,16.62,15.75,20.49,4.66,3.87,10.07,6.12,16.23,6.75v4.74c-1.42.63-3.43,1.18-6.04,1.66s-5.33.71-8.17.71c-8.37,0-15.67-2.49-21.91-7.46ZM1625.76,76.98c5.76-2.37,10.66-6.08,14.69-11.13,4.03-5.05,6.04-11.21,6.04-18.48,0-7.74-2.01-14.17-6.04-19.31-4.03-5.13-8.92-8.92-14.69-11.37-5.77-2.45-11.1-3.67-15.99-3.67-5.53,0-11.45.79-17.77,2.37v62.77c6.31,1.58,12.24,2.37,17.77,2.37,4.89,0,10.22-1.18,15.99-3.55Z"/>
      <path class="cls-1" d="M1727.73,161.55c-8.37-2.37-15.2-5.76-20.49-10.19-5.29-4.42-7.94-9.47-7.94-15.16v-25.35h4.26c2.68,15.79,7.89,27.2,15.63,34.23,7.74,7.03,18.39,10.54,31.98,10.54,8.53,0,15.83-2.13,21.91-6.4,6.08-4.26,9.12-10.19,9.12-17.77,0-6.63-2.05-12.39-6.16-17.29-4.11-4.89-10.74-10.03-19.9-15.4l-29.14-17.29c-10.11-6-17.25-12.08-21.44-18.24-4.19-6.16-6.28-13.66-6.28-22.5,0-12.16,4.22-21.91,12.67-29.25,8.45-7.34,19.54-11.01,33.28-11.01,8.05,0,16.03,1.15,23.92,3.43,7.89,2.29,14.41,5.61,19.54,9.95,5.13,4.34,7.7,9.36,7.7,15.04v25.35h-4.26c-2.69-15.79-7.78-27.12-15.28-33.99-7.5-6.87-18.04-10.3-31.62-10.3-7.27,0-13.66,2.21-19.19,6.63-5.53,4.42-8.29,10.19-8.29,17.29,0,6.48,2.01,11.84,6.04,16.11,4.03,4.26,10.78,9.24,20.25,14.92l29.14,17.29c10.74,6.48,18.32,12.48,22.74,18,4.42,5.53,6.63,12.55,6.63,21.08,0,13.27-4.42,23.89-13.26,31.86-8.85,7.97-20.84,11.96-36,11.96-8.69,0-17.21-1.18-25.58-3.55Z"/>
    </g>
  </g>
</svg>