<?xml version="1.0" encoding="UTF-8"?>
<svg id="Camada_1" data-name="Camada 1" xmlns="http://www.w3.org/2000/svg" viewBox="0 0 256 256">
  <defs>
    <style>
      .cls-1 {
        fill: #19304c;
      }

      .cls-1, .cls-2 {
        stroke-width: 0px;
      }

      .cls-2 {
        fill: #fff;
      }
    </style>
  </defs>
  <rect class="cls-1" x="-18.4" y="-9.21" width="290.04" height="275.74"/>
  <g>
    <path class="cls-2" d="M53.12,188.73c-6.46-1.83-11.72-4.44-15.8-7.85-4.08-3.41-6.12-7.31-6.12-11.69v-19.54h3.29c2.07,12.18,6.09,20.97,12.05,26.39,5.96,5.42,14.18,8.13,24.66,8.13,6.58,0,12.21-1.64,16.89-4.93,4.69-3.29,7.03-7.85,7.03-13.7,0-5.11-1.58-9.56-4.75-13.33-3.17-3.77-8.28-7.73-15.34-11.87l-22.46-13.33c-7.79-4.63-13.3-9.32-16.53-14.06-3.23-4.75-4.84-10.53-4.84-17.35,0-9.37,3.26-16.89,9.77-22.56,6.51-5.66,15.07-8.49,25.66-8.49,6.21,0,12.36.89,18.45,2.65,6.09,1.77,11.11,4.32,15.07,7.67,3.96,3.35,5.94,7.21,5.94,11.6v19.54h-3.29c-2.07-12.17-6-20.91-11.78-26.21-5.78-5.3-13.91-7.94-24.38-7.94-5.6,0-10.53,1.71-14.79,5.11-4.26,3.41-6.39,7.85-6.39,13.33,0,4.99,1.55,9.13,4.66,12.42,3.11,3.29,8.31,7.12,15.62,11.51l22.46,13.33c8.28,4.99,14.12,9.62,17.53,13.88,3.41,4.26,5.11,9.68,5.11,16.26,0,10.23-3.41,18.42-10.23,24.57-6.82,6.15-16.07,9.22-27.76,9.22-6.7,0-13.27-.91-19.73-2.74Z"/>
    <path class="cls-2" d="M138.04,89.74c0-6.21-.85-10.8-2.56-13.79-1.71-2.98-5.11-4.47-10.23-4.47h-3.65v-3.65h47.49c13.27,0,24.81,2.19,34.61,6.58,9.8,4.38,14.7,12.85,14.7,25.39,0,5.73-1.95,10.9-5.84,15.53-3.9,4.63-9.86,8.28-17.9,10.96,11.2,1.83,19.02,5.15,23.47,9.95,4.44,4.81,6.67,11.23,6.67,19.27,0,12.3-4.84,20.85-14.52,25.66-9.68,4.81-21.58,7.21-35.71,7.21h-36.53v-98.63ZM171.83,123.53c4.99,0,9.71-.94,14.15-2.83,4.44-1.89,8.06-4.69,10.87-8.4,2.8-3.71,4.2-8.19,4.2-13.42s-1.64-10.07-4.93-13.79c-3.29-3.71-7.46-6.45-12.51-8.22-5.05-1.76-10.2-2.65-15.43-2.65-4.26,0-8.83.61-13.7,1.83v47.49h17.35ZM197.49,175.4c6.03-4.38,9.04-10.71,9.04-18.99s-2.95-14.61-8.86-18.99c-5.91-4.38-14.52-6.58-25.84-6.58h-17.35v48.58c5.84,1.71,11.63,2.56,17.35,2.56,11.08,0,19.63-2.19,25.66-6.58Z"/>
  </g>
</svg>