<?xml version="1.0" encoding="UTF-8"?>
<svg id="Camada_1" data-name="Camada 1" xmlns="http://www.w3.org/2000/svg" viewBox="0 0 256 256">
  <defs>
    <style>
      .cls-1 {
        fill-rule: evenodd;
      }

      .cls-1, .cls-2, .cls-3 {
        stroke-width: 0px;
      }

      .cls-1, .cls-3 {
        fill: #fff;
      }

      .cls-2 {
        fill: #000;
      }
    </style>
  </defs>
  <rect class="cls-2" x="-18.4" y="-9.21" width="290.04" height="275.74"/>
  <g>
    <path class="cls-3" d="M159.28,141.85c-.89.28-1.79.57-2.69.86.4-.42.88-.76,1.42-.96.35-.14.84-.08,1.27.1M159.77,138.63c34.48-12.25,66.54-22.09,80.42-20.01,8.21,1.23,14.54,3.85,4.51,8.06-.23.1-2.34,1.09-4.57.43-13.65-4.07-44.2,3.24-77.35,13.63-.42-.67-1.02-1.21-1.69-1.59-.4-.23-.85-.4-1.32-.52ZM136.02,147.26c6.03-2.23,12.09-4.45,18.11-6.61-.36.4-.67.83-.94,1.29-.39.67-.7,1.41-.9,2.16-5.26,1.72-10.55,3.49-15.81,5.29-.03-.78-.16-1.5-.47-2.13ZM130.8,149.19l2.04-.76h.03s.2.13.2.13c.29.21.3.94.2,1.92-2.52.87-5.02,1.73-7.52,2.6,1.98-1.51,3.84-3,5.06-3.9ZM115.24,155l7.58-2.83c-.96.83-2.27,2.03-3.32,3.12-4.62,1.62-9.16,3.24-13.6,4.82,3.23-1.5,6.58-3.47,9.34-5.12ZM93.67,163l2.27-.83c1.11.4,2.5.38,4.07.05l-4.42,1.58c-.31-.04-.61-.1-.9-.18-.39-.19-.73-.4-1.03-.62ZM37.89,180.05c-2.21-1.08-3.97-2.78-4.26-4.78-3.46-23.87,73.16-89.31,72.24-64.2-.41,11.37-19.07,28.86-38.96,33.97-3.33.86-5.65,5.22-5.44,2.79.35-3.91,3.35-5.96,7.87-7.54,10.72-3.75,32.05-12.48,34.12-27.39,1.27-9.14-10.13-4.27-15.67-1.21-14.06,7.75-49.93,40.97-51.62,57.33-.75,7.24,3.96,8.67,5.46,9.01,5.51,1.27,24.41-4.95,48.66-13.79.3.38.66.74,1.08,1.07-19.65,7.04-35.79,12.75-44.12,14.65-3.47.79-6.96,1.27-9.36.09Z"/>
    <path class="cls-3" d="M181.21,141.85c-.25-.08-1.14,1.14-1.12,1.65.35-.22,1.32-1.3,1.12-1.65M166.71,159.86c2.49-.13,5.98-1.68,7.48-3.54-3.73.19-8.67,3.8-7.48,3.54ZM158.33,143.02c-.25-.08-1.14,1.14-1.12,1.65.35-.22,1.32-1.3,1.12-1.65ZM145.58,159.28c-.38.34-.25.57-.1.54,2.49-.13,5.54-1.47,7.04-3.33-1.8.09-5.37,1.28-6.94,2.79ZM115.16,157.26c-6.24,3.71-15.45,7.7-20.46,6.36-3.66-1.81-2.83-4.61-.85-9.18,2.16-3.98,4.89-8.4,7.74-11.88,2.12-2.47,4.24-5.14,6.62-7.79,2.29-2.32,4.89-4.94,7.69-6.6,3.46-1.64,4.61.52,3.23,2.67-.74,1.27-1.62,2.59-2.3,3.86-3.39,6.35-12.41,14.01-18.04,18.15-3.36,2.47-5.27,7.12-3.75,8.84,4.74,3.42,17.82-5.43,23.66-8.74,3.45-3.28,8.17-6.17,10.29-4.84.7.59,1,1.68-.42,1.75-.32-.09-1.08-.53-1.44-.4-.46.17-2.29,1.12-3.07,1.67-.76.53-7.58,6.43-6.13,6.85,3.46-.81,13.45-9.66,14.23-9.66.3,0,.53.04.7.12l.2.12c.88.65-.81,6.33-.7,8.64.07,1.37,2.05,1.75,3.15,1.75,8.05.02,15.44-8.67,19.71-12.46-.1-1.91.96-4.09,2.79-4.75.75-.3,2.2.3,2.14,1.13-.13,1.9-1.79,2.86-2.99,4.32-.21.32.61,5.17-.35,6.94,10.54-2.79,16.82-5.49,21.16-8.67-.1-1.91,1.09-4.22,2.91-4.89.75-.3,2.2.3,2.14,1.13-.13,1.9-1.63,2.67-2.82,4.14-.21.32-.75,6.36-1.72,8.13,6.12-1.62,19.06-10.31,24.24-13.8.61-.33,2.24.09,1.67.45-3.58,2.51-21.15,13.83-26.09,14.69-.12.3-4.52,3.45-5.2,3.87-2.05,1.29-10.38,3.14-8.28.36,2.98-3.25,6.18-4.11,10.72-4.98,1.16-1.83,2.9-4.76,2.46-7.19-5.12,3.99-15.04,7-21.38,8.1-.08.19-3.34,2.69-4.5,3.47l-.31.19c-1.98,1.55-5.84,2.38-8.24,2.04-.69-.1-1.08-1.04-.77-1.45,2.98-3.25,6.52-4.12,11.06-5,1.16-1.83,1.97-4.05,1.53-6.48-5.73,4.47-11.2,11.45-19.61,12.32-1.85.19-3.32-.18-4.77-1.26-1.51-1.37-1.35-5.54-.71-7.68l-.12.09c-.12.12-.28.27-.48.45-.42.36-.73.64-1.15,1.01-1.68,1.49-6.5,4.83-8.55,5.94-2.33,1.13-5.88,1.07-5.07-1.42.06-.14.14-.29.22-.44ZM98.54,150.88l-.29.46c5.72-4.03,20.73-19.75,19.31-21.65-2.1-1.57-17.12,17.77-19.02,21.19Z"/>
    <path class="cls-1" d="M183.72,84.87h10.67l12.21,29.54v-29.54h7.94v33.78c-3.83.89-7.9,1.94-12.17,3.13l-10.78-26v29.17l-1.39.43h-6.49v-40.52ZM156.84,84.87h10.75l12.56,40.52h-9.63l-2.34-9.05h-13.02l-2.45,9.05h-9.05l13.18-40.52ZM162.06,92.85l-4.85,16.48h9.16l-4.31-16.48ZM115.64,84.87h12.45c4.51,0,7.85.84,10.03,2.51,2.18,1.67,3.27,4.26,3.27,7.76,0,2.49-.63,4.52-1.9,6.1-1.27,1.59-3.09,2.61-5.48,3.08,2.78.5,4.85,1.57,6.21,3.22,1.36,1.65,2.04,3.92,2.04,6.81,0,3.77-1.19,6.55-3.55,8.34-2.36,1.8-6.05,2.7-11.05,2.7h-12.02v-40.52ZM124.52,91.65v9.87h2.08c2.06,0,3.55-.38,4.48-1.14.92-.76,1.38-1.99,1.38-3.71s-.47-3.05-1.4-3.83c-.93-.79-2.47-1.19-4.62-1.19h-1.92ZM124.52,107.76v10.8h2.26c2.28,0,3.93-.42,4.96-1.26,1.02-.84,1.54-2.19,1.54-4.06s-.51-3.35-1.53-4.2c-1.01-.86-2.68-1.28-4.97-1.28h-2.26ZM91.66,113.67v11.72h-9.11v-6.05c2.58-1.9,4.89-3.43,6.78-4.48.69-.38,1.48-.79,2.32-1.2ZM99.15,116.74l-.8-2.83c-.26-.97-.54-1.78-.83-2.44l.22-.05c1.05-.22,1.94-.31,2.5-.15.02,0,.04.01.04.02.09.33.1.82,0,1.53-.19,1.36-.58,2.66-1.13,3.92ZM108.18,116.18l2.99,9.21h-8.09c2.36-3.11,4.12-6.24,5.1-9.21ZM82.55,84.87h9.57c.5,0,.99,0,1.51-.03.52-.02.79-.03.83-.03,5.16,0,8.9.87,11.26,2.61,2.35,1.74,3.52,4.52,3.52,8.32,0,2.49-.64,4.54-1.94,6.16-.53.66-1.15,1.23-1.88,1.72-.14-.08-.27-.15-.42-.22-3.06-1.5-7.47-.8-12.64,1.53-2.97,1.34-6.29,3.24-9.81,5.57v-25.64ZM91.66,91.65v10.39h1.97c2.32,0,3.98-.4,4.99-1.2,1-.8,1.51-2.09,1.51-3.87,0-1.96-.46-3.33-1.38-4.13-.92-.8-2.58-1.2-4.97-1.2h-2.11ZM45.6,84.87h9.34v25.92c0,3.17.41,5.36,1.23,6.58.82,1.22,2.21,1.83,4.19,1.83s3.44-.61,4.26-1.84c.83-1.23,1.24-3.42,1.24-6.57v-25.92h8.87v24.86c0,2.69-.28,5.04-.84,7.06-3.51,2.75-7.09,5.8-10.62,9.04-.98.13-2.03.2-3.14.2-4.94,0-8.6-1.32-10.98-3.97-2.37-2.66-3.56-6.76-3.56-12.33v-24.86Z"/>
  </g>
</svg>