<?xml version="1.0" encoding="UTF-8"?>
<svg id="Camada_2" data-name="Camada 2" xmlns="http://www.w3.org/2000/svg" xmlns:xlink="http://www.w3.org/1999/xlink" viewBox="0 0 2047.01 757.89">
  <defs>
    <style>
      .cls-1 {
        fill: url(#Gradiente_sem_nome_18);
      }

      .cls-1, .cls-2, .cls-3, .cls-4, .cls-5, .cls-6, .cls-7 {
        stroke-width: 0px;
      }

      .cls-2 {
        fill: url(#Gradiente_sem_nome_18-3);
      }

      .cls-8 {
        clip-path: url(#clippath-2);
      }

      .cls-3, .cls-4 {
        fill: none;
      }

      .cls-9 {
        clip-path: url(#clippath-1);
      }

      .cls-4 {
        clip-rule: evenodd;
      }

      .cls-5 {
        fill: url(#Gradiente_sem_nome_18-2);
      }

      .cls-6 {
        fill: #bd9247;
      }

      .cls-10 {
        clip-path: url(#clippath);
      }

      .cls-7 {
        fill: #666;
        fill-rule: evenodd;
      }
    </style>
    <clipPath id="clippath">
      <path class="cls-3" d="M691.15,544.07c-4.92,1.57-9.85,3.14-14.78,4.73,2.19-2.32,4.82-4.16,7.82-5.25,1.9-.75,4.62-.46,6.96.52M693.8,526.4c189.5-67.31,365.68-121.38,441.95-109.95,45.15,6.77,79.92,21.13,24.81,44.29-1.28.54-12.85,6-25.12,2.34-75.03-22.35-242.9,17.79-425.12,74.93-2.3-3.71-5.59-6.66-9.3-8.74-2.21-1.24-4.69-2.22-7.23-2.87ZM563.32,573.81c33.14-12.25,66.46-24.46,99.54-36.36-1.96,2.18-3.69,4.57-5.17,7.1-2.16,3.69-3.82,7.73-4.92,11.9-28.91,9.44-57.97,19.18-86.89,29.05-.15-4.3-.88-8.26-2.56-11.69ZM534.62,584.44l11.2-4.15.15.06,1.07.68c1.57,1.15,1.66,5.19,1.08,10.55-13.83,4.75-27.61,9.53-41.31,14.31,10.88-8.28,21.13-16.48,27.81-21.45ZM449.08,616.33l41.65-15.55c-5.27,4.57-12.49,11.14-18.27,17.15-25.37,8.93-50.35,17.81-74.72,26.51,17.77-8.25,36.14-19.06,51.34-28.11ZM330.56,660.31l12.49-4.59c6.09,2.23,13.76,2.07,22.36.28l-24.28,8.69c-1.71-.23-3.36-.56-4.93-.98-2.16-1.07-4.03-2.21-5.65-3.41ZM24.02,754.01c-12.16-5.95-21.81-15.3-23.4-26.28-18.99-131.21,402.06-490.84,397.03-352.83-2.28,62.47-104.78,158.59-214.09,186.69-18.32,4.71-31.07,28.71-29.89,15.32,1.91-21.51,18.4-32.77,43.28-41.46,58.92-20.6,176.15-68.59,187.53-150.54,6.97-50.22-55.66-23.44-86.15-6.64C221.08,420.85,23.93,603.45,14.63,693.31c-4.12,39.78,21.78,47.65,29.99,49.54,30.27,6.95,134.13-27.19,267.41-75.76,1.67,2.08,3.64,4.05,5.94,5.91-108.01,38.67-196.72,70.07-242.49,80.5-19.04,4.34-38.26,6.97-51.46.51Z"/>
    </clipPath>
    <linearGradient id="Gradiente_sem_nome_18" data-name="Gradiente sem nome 18" x1="397.97" y1="842.68" x2="760.94" y2="220.49" gradientUnits="userSpaceOnUse">
      <stop offset="0" stop-color="#de9a33"/>
      <stop offset=".23" stop-color="#e8c64c"/>
      <stop offset=".5" stop-color="#c4942d"/>
      <stop offset=".73" stop-color="#deac62"/>
      <stop offset="1" stop-color="#947126"/>
    </linearGradient>
    <clipPath id="clippath-1">
      <path class="cls-3" d="M811.64,544.08c-1.36-.47-6.28,6.27-6.14,9.09,1.94-1.23,7.25-7.13,6.14-9.09M731.98,643.09c13.67-.7,32.86-9.21,41.08-19.45-20.5,1.05-47.63,20.91-41.08,19.45ZM685.94,550.52c-1.36-.47-6.28,6.27-6.14,9.09,1.94-1.24,7.25-7.12,6.14-9.09ZM615.82,639.88c-2.09,1.89-1.35,3.13-.54,2.95,13.66-.7,30.45-8.07,38.67-18.31-9.89.51-29.53,7.01-38.13,15.35ZM448.67,628.78c-34.3,20.4-84.9,42.31-112.46,34.93-20.13-9.97-15.55-25.36-4.67-50.44,11.87-21.87,26.87-46.16,42.52-65.29,11.63-13.57,23.29-28.23,36.37-42.8,12.61-12.73,26.9-27.16,42.27-36.28,19-9,25.32,2.87,17.78,14.68-4.05,6.98-8.9,14.25-12.63,21.24-18.66,34.92-68.23,77-99.12,99.74-18.46,13.59-28.99,39.12-20.62,48.57,26.06,18.77,97.92-29.87,130.03-48.03,18.97-18,44.89-33.9,56.55-26.59,3.83,3.23,5.48,9.22-2.29,9.62-1.74-.48-5.95-2.93-7.94-2.19-2.51.94-12.56,6.15-16.89,9.19-4.17,2.92-41.66,35.32-33.68,37.66,19.04-4.43,73.91-53.1,78.23-53.1,1.62,0,2.91.22,3.86.65l1.08.68c4.85,3.57-4.47,34.78-3.82,47.47.39,7.56,11.26,9.61,17.33,9.63,44.24.12,84.83-47.65,108.3-68.45-.54-10.49,5.3-22.48,15.34-26.13,4.13-1.63,12.09,1.67,11.79,6.22-.71,10.45-9.85,15.69-16.42,23.73-1.13,1.77,3.34,28.42-1.95,38.13,57.95-15.33,92.47-30.19,116.28-47.65-.54-10.5,5.97-23.22,16-26.87,4.13-1.63,12.09,1.67,11.79,6.22-.71,10.45-8.94,14.69-15.51,22.73-1.13,1.77-4.15,34.97-9.43,44.69,33.62-8.89,104.77-56.68,133.24-75.83,3.34-1.81,12.31.49,9.16,2.45-19.67,13.8-116.24,76.01-143.41,80.74-.68,1.65-24.83,18.95-28.55,21.29-11.24,7.08-57.05,17.24-45.5,1.99,16.4-17.84,33.97-22.57,58.9-27.39,6.4-10.04,15.95-26.18,13.52-39.53-28.12,21.94-82.65,38.46-117.49,44.52-.44,1.07-18.37,14.77-24.73,19.06l-1.68,1.06c-10.87,8.5-32.11,13.09-45.29,11.22-3.81-.54-5.93-5.71-4.23-7.95,16.4-17.84,35.85-22.67,60.78-27.48,6.4-10.04,10.83-22.24,8.4-35.59-31.47,24.56-61.56,62.94-107.77,67.73-10.14,1.05-18.24-.97-26.24-6.94-8.31-7.51-7.42-30.44-3.9-42.2l-.67.52c-.66.68-1.54,1.5-2.65,2.45-2.31,1.98-4.04,3.54-6.32,5.56-9.22,8.2-35.72,26.53-46.97,32.62-12.82,6.18-32.32,5.86-27.85-7.83.35-.79.75-1.6,1.2-2.43ZM357.29,593.68l-1.61,2.52c31.44-22.18,113.93-108.53,106.13-118.98-11.55-8.65-94.1,97.68-104.52,116.46Z"/>
    </clipPath>
    <linearGradient id="Gradiente_sem_nome_18-2" data-name="Gradiente sem nome 18" x1="550.67" y1="716.76" x2="715.93" y2="399.22" xlink:href="#Gradiente_sem_nome_18"/>
    <clipPath id="clippath-2">
      <path class="cls-4" d="M825.45,230.94h58.66l67.12,162.36v-162.36h43.64v185.65c-21.07,4.88-43.44,10.67-66.88,17.23l-59.23-142.87v160.32l-7.64,2.36h-35.67v-222.69ZM677.74,230.94h59.09l69.04,222.69h-52.95l-12.83-49.74h-71.56l-13.48,49.74h-49.74l72.41-222.69ZM706.4,274.79l-26.63,90.59h50.32l-23.69-90.59ZM451.31,230.94h68.4c24.76,0,43.16,4.6,55.14,13.8,11.98,9.2,17.97,23.42,17.97,42.62,0,13.69-3.48,24.87-10.43,33.53-6.95,8.72-17,14.33-30.11,16.95,15.3,2.73,26.63,8.61,34.12,17.7,7.49,9.09,11.23,21.55,11.23,37.43,0,20.7-6.52,35.99-19.52,45.83-13,9.89-33.27,14.81-60.75,14.81h-66.05v-222.69ZM500.08,268.16v54.23h11.44c11.34,0,19.52-2.09,24.6-6.26,5.08-4.17,7.59-10.96,7.59-20.37s-2.57-16.74-7.7-21.07c-5.14-4.33-13.58-6.53-25.4-6.53h-10.54ZM500.08,356.72v59.36h12.41c12.51,0,21.6-2.3,27.28-6.9,5.61-4.6,8.45-12.03,8.45-22.3s-2.78-18.4-8.4-23.11c-5.56-4.71-14.71-7.06-27.33-7.06h-12.41ZM319.48,389.2v64.42h-50.06v-33.23c14.17-10.46,26.87-18.86,37.29-24.6,3.81-2.1,8.15-4.37,12.77-6.6ZM360.65,406.08l-4.38-15.56c-1.43-5.31-2.95-9.78-4.54-13.41l1.19-.26c5.76-1.24,10.65-1.68,13.74-.83.12.04.2.08.22.14.5,1.79.53,4.52,0,8.39-1.04,7.47-3.17,14.64-6.23,21.54ZM410.28,403.01l16.43,50.62h-44.46c12.98-17.06,22.63-34.28,28.03-50.62ZM269.42,230.94h52.57c2.73,0,5.46-.06,8.29-.16,2.83-.11,4.33-.16,4.55-.16,28.34,0,48.93,4.76,61.88,14.33,12.89,9.57,19.36,24.81,19.36,45.72,0,13.69-3.53,24.97-10.64,33.85-2.9,3.62-6.34,6.78-10.32,9.48-.74-.42-1.51-.83-2.29-1.21-16.83-8.23-41.06-4.4-69.45,8.43-16.3,7.36-34.56,17.81-53.93,30.63v-140.92ZM319.48,268.16v57.12h10.8c12.73,0,21.88-2.19,27.43-6.58,5.51-4.39,8.29-11.5,8.29-21.29,0-10.75-2.51-18.29-7.6-22.67-5.08-4.39-14.17-6.58-27.33-6.58h-11.61ZM66.36,230.94h51.34v142.47c0,17.44,2.25,29.47,6.74,36.15,4.49,6.68,12.14,10.05,23.05,10.05s18.88-3.37,23.42-10.11c4.54-6.74,6.79-18.77,6.79-36.1v-142.47h48.77v136.64c0,14.79-1.55,27.72-4.64,38.77-19.27,15.11-38.95,31.87-58.35,49.7-5.39.73-11.13,1.1-17.23,1.1-27.17,0-47.28-7.27-60.33-21.82-13.05-14.6-19.57-37.17-19.57-67.76v-136.64Z"/>
    </clipPath>
    <linearGradient id="Gradiente_sem_nome_18-3" data-name="Gradiente sem nome 18" x1="440.92" y1="542.02" x2="620.32" y2="145.75" xlink:href="#Gradiente_sem_nome_18"/>
  </defs>
  <g id="Camada_1-2" data-name="Camada 1">
    <g>
      <path class="cls-7" d="M1056.39,516.47c-4.76,15.64-11.37,25.47-18.57,35.06,3.91.11,45.14,3.24,48.21,1.44,4.28-2.5-33.32-3.24-30.43-8.19,7.39-12.65,14.06-38.38,15.51-50.04-2.7.32-11.94,21.31-14.72,21.72M911.84,522.89c-4.29.28-8.16.6-9.19.98,1.2,1.34,3.62,1.48,6.01,1.34,1.1-.78,2.15-1.55,3.18-2.32ZM930.44,521.44c-1.92.21-3.84.42-5.76.62-1.79.18-5.67.39-9.7.63-.96.71-1.9,1.42-2.75,2.17.33-.04.63-.06.91-.08,3.49-.25,6.93-.56,10.41-.92l3.38-.36c1.49-.48,2.27-1.06,3.52-2.06ZM950.76,518.92c-5.76.78-11.53,1.51-17.31,2.18-.23.12-.46.24-.67.34,1.55.94-1.33.47,2.29.62l8.77-1.57c3.77-.69,5.15-.68,6.93-1.57ZM900.23,518.05c-4.39,2.39-8.21-.22-9.46,4.71.97-.04,2.09-.12,3.32-.22l.48-.34c1.98-1.41,3.86-2.79,5.66-4.15ZM1122.81,250.76c.02,1.1-.06,2.59-.16,4.78-1.62-.72-6.11-5.32-7.93-6.99.29,4.43.73,6.18,4.38,8.94,2.99,2.26,6.12,5.38,9.41,7.22.25-1.7.03-3.69.3-5.01.77-3.79.37-.18,2.11-3.5-2.59-1.09-5.35-3.21-8.11-5.44ZM968.68,457c3.23-3.64,6.54-7.26,9.59-11.22,4.28-5.54,8.27-10.33,12.66-15.98,17.32-22.28,33.08-46.16,47.49-71.01-5.33,7.94-10.82,15.74-16.47,23.38-11.38,17.64-23.45,34.63-36.28,51.44-9.25,12.12-18.83,22.44-28.23,33.27l-14.98,15.07c-5.69,5.47-11.36,10.89-17.25,16.14,1.4-1.12,2.83-2.25,4.31-3.41,11.82-9.22,27.78-25.4,39.15-37.67ZM904.68,517.59c2.15-2.41,5.26-4.41,8.05-6.7l1.07-.88c-4.76,3.72-10.82,8.39-16.04,12.21,4.87-.47,10.98-1.19,17.71-2.04l.43-.32c7.16-5.27,13.79-10.84,20.25-16.56-3.1,2.5-6.33,4.99-9.57,7.47-4.13,3.17-3.61,3.74-9.93,4.83-3.81.65-8.14,1.71-11.97,1.99ZM1190.22,287.92c-8.66-4.7-17.03-9.37-25.41-14.34l-23.07-14.31c.2,3.16,1.53,3.35,7.55,6.81,13.39,7.69,27.03,14.98,40.92,21.84ZM1395.62,346.2c-1.19,1.02-8.15,5.25-15.2,9.28,4.14,1,8.15,1.91,11.72,2.63,8.78-5.26,19.24-11.6,24.17-13.6l-1.94-9.41c-5,1.79-10.6,7.78-15.19,9.03-6.53,1.77-51.96-11.65-59.17-13.73-25.49-7.37-48.91-16.21-73.02-24.84-43.4-15.54-84.62-35.31-123.69-58.66-8.64-5.16-7.63-3.32-7.46-13.63-5.33.15-5.49,1.31-8.9,2.5-5.35-2.77-10.88-7.72-15.34-11.67-6.52-5.77-1.22-3.04-9.21-19.43-1.6-3.29-4.51-9.93-6.4-12.34h-7.16c-.93,7.71,4,24.75,2.07,31.37-5.73,19.6-23.87,55.91-33.19,73.04-17.52,32.21-35.62,59.91-55.61,86.23-21.11,27.8-43.49,53.3-66.64,75.19l-13.27,12.58c-18.26,17.58-38.14,33.34-58.62,48.28-2.07,1.51-4.15,1.9-4.1,4.64,4.52-1.4,32.44-23.93,37.26-28.07l22.07-19.15c18.81-15.93,44.65-43.74,61.01-62.66,40.78-47.17,76.57-103.85,102.13-162.68l10.23-23.79c.76,11.4-32.2,75.97-38.47,87.79-14.55,27.37-31.91,54.72-48.8,77.66-12.36,16.79-24.5,32.45-38,47.94-11.33,13.01-30,33.11-43.36,43.96-12.25,9.95-21.3,18.49-34.96,28.63-1.49,1.11-3.06,2.25-4.45,3.24-1.79,1.28-3.25,1.82-3.45,3.3,16.56-12.01,32.59-24.67,47.53-38.51l13.27-12.1c4.6-4.18,9.17-8.51,13.71-12.96,27.93-29.42,53.51-62.43,74.54-96.68,22.81-37.14,45.05-76.43,60.3-117.87.83-2.26,1.35-4.35,2.98-5.97.75,10.94-30.39,74.19-36.29,85.87-5.75,11.38-11.71,22.35-17.9,33.03,5.13-7.72,10.17-15.67,15.14-23.92,8.12-15.39,15.78-31.05,23.03-46.84,6.15-13.4,11.04-27.18,16.7-40.53,1.11,5.57-4.23,16.85-6.34,22.27-1.76,4.54-3.61,9.14-5.51,13.79,6.34-13.03,12.23-26.3,15.07-35.63,1.93-6.37-3-22.75-2.07-30.15h7.16c1.89,2.31,4.8,8.69,6.4,11.85l.15.3-.08-1.21c5.31,3.1,11.21,9.76,16.45,12.06-1.74,3.45-1.34-.3-2.11,3.64-.27,1.38-.05,3.45-.3,5.22-3.16-1.83-6.17-4.89-9.04-7.21.55,2.31.69,2.95,4.14,5.89.89.76,1.82,1.55,2.79,2.36.55.42.98.76,1.32,1.1,3.54,2.92,7.43,5.87,11.23,7.76.91-.31,1.59-.61,2.2-.9l.38-9.96c3.68,1.47,10.13,6.06,14.22,8.5,60.92,36.31,158.28,73.22,227.93,89.23,4.33,1,14.44,2.54,17.95,3.94ZM949.99,506.01c-.82.66-1.64,1.32-2.46,1.96-3.8,2.98-4.29,2.5-9.7,3.53l-8.77,1.63c-2.64-.11-1.82.12-1.79-.13-2.99,2.47-5.79,4.74-8.31,6.72,5.39-.7,11.07-1.47,16.77-2.26,4.58-3.4,9.09-6.82,13.06-10.31l1.2-1.15ZM1094.52,255.38c-.54,3.94-2.36,9.84-4.5,15.87,4.95-11.15,8.4-20.39,8.15-24.02l-3.64,8.15ZM1067.76,316.53c4.07-8.7,8.01-17.34,11.86-26.53l5.16-13.04c-4.26,9.11-8.79,18.16-13.55,27.12-6.88,15.35-14.43,31.02-22.55,46.59,3.8-6.3,7.49-12.67,11.01-19.03,1.47-2.67,4.43-8.15,8.07-15.11ZM996.95,438.89c21.56-29.69,41.37-63.1,57.15-94.12-5.72,9.57-11.6,19.01-17.53,28.3-21.45,38.23-46.04,74.65-72.07,102.94l-17.52,17.43,1.48-1.37,14.98-14.49c9.39-10.41,18.98-20.33,28.23-31.98,1.77-2.23,3.53-4.47,5.28-6.71ZM931.4,509.56c8.1-5.87,20.11-17.26,24.61-21.77.91-.91,1.82-1.84,2.73-2.77-8.43,8.19-18.4,17.02-27.33,24.54ZM1095.67,261.99c.04,2.45-1.11,7.3-2.95,13.42,3.91-9.38,6.5-16.94,6.28-20.06-1.62,1.56-2.15,3.57-2.98,5.74l-.35.91ZM1077.27,309.04c4.21-10.23,8.06-20.11,11.49-29.47.61-1.66,1.3-3.53,1.99-5.42-3.53,8.33-7.35,16.57-11.38,24.71-4.24,10.79-8.74,21.55-13.54,31.85-1.72,3.69-3.48,7.45-5.27,11.26.72-1.35,1.44-2.71,2.16-4.07,2.25-4.27,8.15-15.73,14.56-28.87ZM1014.37,431.85c19.26-30.01,36.54-63.26,50.87-94.95-5.33,10.03-10.86,19.94-16.6,29.72-17.45,35.09-38.19,72.12-62.76,102.64,9.8-11.6,19.33-24.19,28.5-37.41ZM949.72,508.94c9.39-7.69,18.62-16.83,27.59-27.07-5.06,5.6-10.18,10.89-15.3,15.83-4.07,3.93-14.3,13.27-22.2,19.19,5.91-.83,11.76-1.68,17.19-2.47,3.63-2.87,7.19-5.91,10.68-9.09-4.39,1.64-14.37,3.43-17.96,3.61ZM1151.61,280.28c-3.27-2.67-6.64-5.44-10.4-8.47l-.09,2.21,10.49,6.26ZM1360.24,366.57c-.16.12-1.47.91-1.78,1.08-2.94,1.66-5.51,3.12-7.77,4.41,3.65,1.29,7.38,2.59,10.64,3.67,6.83-3.89,13.55-7.79,20.75-11.74,2.25-1.23,5.2-2.97,8.46-4.92-2.67-.49-5.19-.93-6.85-1.3-1.72-.38-3.46-.78-5.21-1.18-6.62,3.74-12.85,7.04-13.94,7.05-3.13.02-30.58-10.59-35.68-12.38-31.27-11-73.25-29.94-107.7-47.2-11.42-4.91-22.48-9.95-32.97-15.05,38.3,21.71,130.22,63.53,173.79,75.89l-1.29,1.31c-.14.12-.3.24-.44.36ZM1096.35,270.47c.4,1.4-.1,4.79-1.18,9.35,2.38-5.57,5.38-13.01,4.52-17.15-1.14,2.58-2.25,5.19-3.34,7.8ZM1084.04,306.1l.86-2.38c2.93-8.19,6.01-19.26,9.26-27.97-2.44,5.91-4.86,11.86-7.45,17.76-5.17,14.56-11.27,30.13-14.52,38.22,4.18-8.64,8.14-17.21,11.86-25.63ZM1031.5,423.04c4.48-8.28,8.81-16.78,13.08-25.54,10.45-21.45,19.92-41.94,28.69-63.42-1.46,2.99-2.93,6-4.43,9.04-2.71,5.51-5.59,11.15-8.61,16.87-6.52,14.81-13.32,29.23-20.58,43.05-6.45,12.29-21.15,39.37-35.59,61.4,9.8-13.14,18.93-27.14,27.44-41.4ZM973.29,504.16c1.81-2.42,8.22-7.67,10.76-10.67,9.85-11.6,18.69-23.5,26.84-35.87-15.71,21.93-32.57,41.44-50.07,56.24,7.23-1.06,13.52-2,17.96-2.66,3.17-2.71,6.05-5.94,9.19-8.69.69-.6,1.39-1.26,2.11-1.96-3.58,1.59-8.45,2.46-16.8,3.61ZM1178.88,302.85c27.36,18.58,93.45,50.26,127.23,66.31,4.6,2.18,8.56,4.21,13.19,6.37,2.38,1.11,4.31,1.96,6.65,3.12l4.62,2.42c1.09.77.47.23,1.21,1.09-1.79.67-5.16,2.36-9.06,4.4l.21.1c4.33,1.96,7.35,3.62,9.72,4.84,4.97-2.72,9.91-5.44,14.96-8.15,3.97-2.13,7.78-4.25,11.54-6.38-3.43-1.06-7.06-2.25-10.86-3.54-17.69,9.99-14.22,6.97-31.37-1.12-34.2-16.13-103.14-49.33-131.65-67.48-9.1-5.79-15.86-10.58-21.84-15.13-4.44-2.53-8.81-5.11-13.04-7.74l6.11,4.83c6.94,5.57,14.77,10.92,22.36,16.07ZM1090.32,303.92c2.68-8.59,5.01-16.75,6.9-24.27.33,1.49.03,4.51-.69,8.48,2.61-7.24,4.61-14.04,4.09-16.99l-9.26,22.49c-4.11,13.58-9.71,29.64-12.92,38.77,3.24-7.31,6.34-14.76,9.3-22.19.58-1.45,1.5-3.66,2.59-6.3ZM1047.01,413.71c12.91-27.44,25.24-57.4,35.02-84.97-3.62,8.37-7.5,16.96-11.63,25.66-10.07,26.18-24.62,59.44-39.74,88.15,6.37-10.77,11.74-20.37,15-26.34l1.36-2.5ZM996.57,498.98c1.75-2.88,2.81-3.78,4.91-6.23l12.54-17.5c4.19-6.59,8.51-13.94,12.87-21.87-6.86,11.03-14.16,21.66-22.13,31.99-.73.99-1.46,1.96-2.18,2.9-2.81,3.64-4.84,6.29-6.82,8.29-1.86,2.22-3.76,4.43-5.7,6.62-1.78,2.02-5.45,5.09-8.11,7.55,6.07-.93,12.11-1.98,18.13-3.11,2.59-2.04,4.9-4.97,8.52-9.46.49-.61.98-1.24,1.48-1.87-2.94.96-7.08,1.68-13.51,2.7ZM1150.25,306.86c-1.41-1.62-2.59-2.58-3.94-4.29-2.08-2.63-3.99-4.63-5.64-6.36.48,2.36,1.9,3.16,5.33,6.63l4.26,4.01ZM1140.61,288.43l20.52,19.57c30.25,26.87,59.29,42.55,92.2,65.01,5.62,3.83,40.13,25.25,41.95,27.78l-6.4,3.09c3.21,2.01,6.29,3.91,9.15,5.62,4.89-2.4,9.76-4.85,14.62-7.33,6.41-3.28,12.47-6.55,18.45-9.82-1.97-.92-3.71-1.66-5.79-2.6-1.6-.72-3.12-1.42-4.62-2.12-6.38,3.36-13.61,7.3-17.58,9.19-3.21,1.53-4.43,3.29-7.3,1.57-12.8-7.7-32.53-21.33-45.75-29.79-8.77-5.62-17.45-11.01-25.81-16.81-8.66-6.01-17.77-11.28-26.14-17.18-11.3-7.96-31.74-23.79-41.89-33.57l-6.45-6.31-9.14-6.95-.03.66ZM1091.91,313.07l6.36-22.58c.13,1.16.05,2.89-.18,5.05,2.33-7.19,3.8-12.9,3.58-15.33-.13.15-.3.19-.36.47l-1.7,3.42c-.61,1.76-.89,2.84-1.48,4.49-1.05,2.93-2.32,6.2-3.35,8.9l-.7,1.82c-2.28,9.28-5.37,20.1-7.99,28.89,1.92-4.86,3.92-10.03,5.83-15.13ZM1063.51,399.79c7.26-18.86,13.99-38.16,19.24-54.24l3.77-13.39c-2.25,5.74-4.55,11.37-6.9,16.93-9.18,28.33-21.43,60.2-34.11,88.37,6.35-12.45,12.46-25.3,18-37.67ZM1017.79,493.92c2.02-3.92,4.54-7.2,7.02-11.39,6.76-11.41,12.26-23.05,18.17-34.94,2.38-4.79,4.8-9.97,7.22-15.42-6.95,13.92-14.02,27.03-20.91,38.64-2.39,4.46-4.85,8.79-7.43,12.95-3.88,6.25-5.4,9.3-8.81,11.23l-5.55,7.45c-1.66,1.87-2.68,2.8-3.9,4.49,5.75-1.11,11.49-2.28,17.21-3.49,2.31-1.9,3.91-4.74,7.05-9.62.51-.79,1.01-1.58,1.51-2.39-3.77.98-8.98,2.13-11.59,2.48ZM1150.4,317.39l-5.16-6.75c-1.45-1.9-3.09-3.88-4.68-5.89,1.13,4.75,4.84,7.08,9.84,12.64ZM1232.4,386.27c5.36,4.34,33.37,25.41,35.54,27.96-.84.48-2.5,1.33-4.63,2.39,2.54,1.92,5.16,3.87,7.78,5.69,8.45-3.88,16.85-7.86,25.2-11.95-2.43-1.61-5.56-3.6-8.96-5.73l-17.15,8.27c-6.47-4.19-13.35-9.86-19.23-14.43-6.52-5.07-12.4-9.79-18.74-14.8-18.47-14.58-28.51-23.05-45.1-38.04-6.43-5.81-15.88-15.63-24.35-24.83l-15.04-13.79,5.43,6.21c27.21,28.2,29.98,32.37,61.46,58.69,5.62,4.7,11.93,9.59,17.8,14.35ZM1149.98,319.74c4.18,5.57,7.83,10.49,9.03,12.05l50.62,65.36,27.11,31c-.42.38-1.09.82-1.92,1.28.96.97,1.83,1.82,2.59,2.5,1,.89,2.35,2.23,3.67,3.62,9.47-4.02,18.87-8.15,28.21-12.42-2.1-1.62-4.73-3.61-7.58-5.73-7.88,3.85-20.13,9.48-23.06,10.01-1.61-2.2-5.18-6.09-7.24-8.01-9.92-9.24-38.6-46.75-47.12-57.68l-21.84-28.57-3.3-3.29-7.5-8.25c-.61-.77-1.14-1.33-1.66-1.86ZM1139.58,318.54c1.57,2.57,3.06,5.09,4.19,6.84,3.63,5.59,6.79,10.34,10.14,15.71,5.96,9.54,35.78,55.2,51.53,80.1,6.2,9.29,11.91,17.96,14.97,22.89,6.27-2.52,12.51-5.09,18.72-7.71l-5.67-6.23c-4.89,2.44-13.18,5.39-16.74,6.07-1.42-4-39.7-62.63-42.9-67.52l-32.48-50.66-.13-.21c-.8-.88-1.36-1.42-1.6-1.52-.03.83-.03,1.57-.03,2.24ZM1099.99,322.62c-1.5,15.32-5.9,34.45-9.72,49.83.71-2.53,1.39-5.03,2.04-7.48,2.57-9.73,12.92-48.67,11.97-56.98l-4.29,14.63ZM1100.33,308.02c.18,2.08.23,4.38.17,6.83,2.04-8.16,3.3-14.84,2.74-17.27-.88,3.36-1.85,6.84-2.9,10.44ZM1096.45,313.87c.82-4.27,1.66-8.44,2.68-12.19.19.56.36,1.16.5,1.8,2.1-7.33,3.32-13,2.7-14.82-1.8,3.88-3.56,8.75-5.26,13.81-1.3,7.54-3.43,17.14-5.5,25.88,1.66-4.77,3.34-9.74,4.87-14.48ZM1078,385.87c5.64-17.93,10.18-35.32,14.68-54.07-1.91,5.53-3.96,11.2-6.13,16.97l-.25.98c-5.82,22.89-14.18,49.16-23.6,74.5,5.42-12.71,10.59-25.71,15.3-38.39ZM1046.97,486.98l-9.62,2.42c1.95-6.14,7.01-15.36,9.84-21.51,3.35-7.29,6.28-14.56,9.31-22.13,2.3-5.75,4.55-11.59,6.75-17.48-4.73,11.13-9.57,21.69-14.27,30.78l-.97,1.88c-2.91,6.71-5.83,13.18-8.75,19.29-1.05,2.2-1.92,3.86-3.01,6.08-1.33,2.73-1.06,3.45-4.03,4.36l-.25.07c-.38.64-.77,1.28-1.17,1.92-2.28,3.71-4.6,6.68-6.53,10.07,5.5-1.18,11-2.38,16.49-3.58.53-.62.79-1.47,1.5-2.87,1.08-2.13,1.95-3.73,3-5.84.56-1.13,1.13-2.28,1.69-3.44ZM1065.17,482.4l-15.95,4.01c-2.15,4.19-4.36,8.58-5.61,12.09,6.13-1.41,14.14-3.66,19.77-4.23v.13s7.79-1.88,7.79-1.88c6.64-28.61,12.89-56.89,19.74-85.14,4.29-17.68,20.38-70.86,14.22-88.63-2.15,7.57-3.48,16.92-5.52,25.16-5.19,21.05-10.35,40.17-17.09,60.21-5.94,25.97-11.51,51.99-17.37,78.28ZM1154.93,390.77l-.52-1.29c-1.91-4.75-5.33-12.4-8.89-20.91,2.96,7.64,6.43,15.52,9.41,22.2ZM1194.53,444.82l-14.06,4.76c1.41,3.37,2.6,6.28,3.42,8.44l14.98-5.56c-1.29-2.47-2.97-5.33-4.34-7.64ZM1152.33,389.1c7.85,18.83,24.47,58.73,24.84,61.88l-12.56,4.15c.99,3.91,1.82,7.07,2.39,9.17l14.99-5.57c-4.99-13.17-24.08-56.82-27.24-64.2-.71-1.67-1.55-3.51-2.43-5.43ZM1116.17,257.76c2.86,1.76,5.41,4.37,8.37,6.6,4.68,3.53,4.46,2.4,4.12,10.03-1.67-.71-6.41-5.41-8.11-6.86-3.72-3.18-4.37-3.03-4.38-9.77ZM1132.02,553.79l59.46-.92c-.66-1.84-6.65-8.65-8.51-11.67-2.92-4.74-7.57-28.1-9.9-42.06l-.02-.1-.02-.1-.03-.2-.03-.2-.04-.2-.02-.15v-.05s-.04-.2-.04-.2l-.03-.19-.03-.19-.03-.18h0s-.03-.19-.03-.19l-.03-.19-.03-.19-.03-.19v-.04s-.03-.14-.03-.14l-.03-.18-.03-.18-.03-.18v-.08s-.03-.1-.03-.1l-.03-.18-.03-.17-.03-.17-.02-.12v-.05s-.04-.17-.04-.17l-.03-.17-.02-.16-.02-.15h0s-.03-.18-.03-.18l-.02-.16-.02-.16-.02-.16v-.02l-.02-.13-.02-.15-.02-.15-.02-.15v-.05s-.02-.09-.02-.09l-.02-.14-.02-.14-.02-.14v-.08s-.02-.05-.02-.05l-.02-.14-.02-.14-.02-.13v-.11s-.02-.02-.02-.02l-.02-.13-.02-.13-.02-.12-.02-.12h0s-.02-.12-.02-.12v-.12s-.03-.11-.03-.11v-.11s-.02-.03-.02-.03v-.08s-.02-.11-.02-.11v-.1s-.02-.1-.02-.1v-.05s-.01-.04-.01-.04v-.1s-.02-.09-.02-.09v-.09s-.02-.07-.02-.07v-.11s-.02-.09-.02-.09v-.08s-.02-.08-.02-.08c17.13-3.4,36.85-9.46,53.48-14.3,34.46-10.02,67.73-21.32,100.46-35.12,13.52-5.7,26.69-12.37,39.51-19.18,1.96-1.04,4.33-1.96,4.62-3.87-2.63-.08-9.93,4.88-13.07,6.58-4.4,2.39-9.11,4.69-13.97,7-46.87,22.26-104.3,40.3-155.04,53.15l-.77.2-.76.19h-.02s-.73.19-.73.19l-.73.19h-.03s-.69.18-.69.18l-.7.18h-.04s-.65.18-.65.18l-.68.18h-.05s-.61.17-.61.17l-.65.17-.07.02-.57.15-.63.16-.08.02-.54.14-.6.16-.09.02-.51.13-.58.15-.1.03-.47.12-.56.15-.11.03-.44.11-.54.14-.11.03-.42.11-.52.13-.12.03-.39.1-.5.13-.12.03-.36.09-.48.13-.13.03-.34.09-.46.12-.13.03-.32.08-.44.11-.14.04-.29.07-.42.11-.14.04-.28.07-.41.1-.14.04-.26.06-.39.1-.15.04-.24.05-.37.09-.15.04-.22.05-.36.08-.15.04-.2.05-.35.08-.15.04-.19.04-.33.08-.15.03-.18.04-.32.07-.15.03-.16.03-.31.06-.15.03-.15.03-.3.05-.15.03-.14.03-.29.05-.28.05-.28.05-.27.04-.27.04-.16.02h-.11s-.26.05-.26.05l-.16.02h-.1s-.25.04-.25.04l-.25.03-.25.03-.24.02-.24.02c-5.18.39-8.31-1.14-17.45-4.42l-12.03,4.3c19.76,5.61,25.73,8.95,31.26,9.77,2.41,12.51,5.5,26.13,7.66,29.63,1.86,3.02,7.84,9.83,8.51,11.67l-31.12.48c-.02-.46-.04-1.2-.04-2.43.09-2.01.77-4.59-2.38-5.08,0,.17,6.97-21.04-5.26-28.81-12.96-8.22-28.57-1-28.57-.8,0,3.28,12.69-2.54,25.88,5.82,9.48,6.02,4.21,24.77,3.89,26.8-.21,1.28-.87,2.88-1.72,4.62l-.09.18-.02.04-.07.14-.06.12-.03.06-.09.18v.02s-.09.16-.09.16l-.06.11-.04.08-.09.18h0s-.09.18-.09.18l-.05.09-.05.09-.09.18h0s-.1.19-.1.19l-.04.08-.06.11-.09.16v.02s-.11.19-.11.19l-.04.07-.06.12-.08.15-.02.04-.1.18-.03.06-.07.13-.07.14-.03.05-.1.19-.02.04-.08.15-.07.12-.04.06-.1.19v.02s-.1.17-.1.17l-.06.11-.04.08-.1.19h0s-.09.19-.09.19l-.05.09-.05.09-.09.18h0s-.1.19-.1.19l-.04.08-.05.11-.09.16v.02s-.11.19-.11.19l-.03.06-.07.12-.08.15-.02.03-.09.19-.02.05-.07.14-.07.13-.03.05-.09.18-.02.03-.08.15-.06.12-.03.07-.09.18v.02s-.09.16-.09.16l-.05.1-.04.08-.09.18h0s-.08.18-.08.18l-.04.08-.04.09-.08.16h0s-.08.18-.08.18l-.03.07-.05.1-.06.15v.02s-.09.17-.09.17l-.02.05-.05.11-.06.13v.04s-.08.17-.08.17l-.02.04-.05.13-.05.12-.02.05-.06.16v.03s-.06.13-.06.13l-.04.1-.02.06-.05.16h0s-.05.16-.05.16l-.03.08-.02.07-.05.15ZM1145.7,364.34c-1.29-7.3-3.67-16.63-5.88-25.77,3.17,6.14,6.49,12.89,8.19,16.19h0s.02.04.02.04c1.11,2.11,2.24,4.25,3.5,6.54,5.8,10.55,11.41,20.67,16.95,31.42,5.42,10.51,11.18,21.04,16.87,31.47,2.9,5.3,5.43,10.31,8.37,15.46,1.65,2.9,4.33,8.33,6.69,12.2l.93-.34c5.8-2.21,11.57-4.46,17.32-6.76-1.18-1.88-2.73-4.28-4.56-7.08l-17.3,5.99c-2.67-3.1-6.84-12.12-9.09-16.23-2.94-5.36-5.47-10.56-8.37-16.08-5.69-10.85-11.45-21.8-16.87-32.73-5.54-11.18-11.16-21.7-16.95-32.67-2.48-4.7-4.47-8.77-6.78-13.25-.01.46-.02.9,0,1.31-1.65-7.03-3.08-13.74-3.68-19.08-1.39-12.35-.47-30.65-1.06-43.99l-2.46,44.06,14.17,49.31ZM1123.64,403.73c2.83,25.99,6.02,58.27,6.06,63.12l-12.44,3.87-1.21,12.72,8.67-2.59-1.25-.37,12.17-4.52c-.83-13.89-9.05-89-10.17-91.48l-1.83,19.26Z"/>
      <path class="cls-7" d="M1492.39,170.59c-.11,6.11-.33,12.21-.43,18.3-.29,16.78-.78,12.31,4.44,13.44,1.6-2.22.87,2.15,1.67-4.23.07-.51-.09-3.24-.12-3.93l-.88-23.45c-1.16-3.76,1.75-.83-1.97-2.74.39-.17.9-.26,1.23-.32l12.71.65,7.59,1.51c3.6.6,4.39.85,8.05.68,4.89,15.12,6.29,12.09,6.36,30.38.05,11.42.13,23.76,1.06,35.11-.28,10.94.32,22.96.59,33.96.15,6.11.35,12.21.53,18.31.4,13.39-1.27,14.12,3.02,14.65-4.64,3.11-2.62,2.36-2.2,18.03l1.52,59.08-17.64-6.65-1.39-97.01c-.3-2.14-.33-3.31-.34-3.93h0v-.09h0v-.08h0v-.07h0c0-1.05-.05.21-2.77-.95-2.66-.06-3.31,4.11-3.3,9.27,0,4.9.59,10.73.64,14.72.13,8.85.29,17.7.39,26.55.12,10.16.82,23.67.85,35.76-.01,5.19-.16,10.09-.56,14.27l-2.05-.18-1.71-89.95v-.42c0-2.03.16-3.68.16-5.09v-.07c0-2.18-.36-3.8-2.26-5.46-1.76.77-3.17-.89-3.17,8v.27c0,.51,0,1.06.01,1.64.09,5.47.5,30.33.51,52.42v.88c-.01,17.26-.28,32.38-1.19,34.16l-1.04-.27c-.73-6.93-.91-14.76-.92-22.73,0-6.7.12-13.48.11-19.88,0-2.77-.01-5.47-.07-8.07l.02-37.87c.03-2.48.19-4.21.19-5.43v-.07c0-2.57-.72-2.91-4.92-3.43-1.39,1.96-1.81,13.21-1.83,27.43v1.43c0,20.24.78,46.02.81,60.13,0,2.77-.05,5-.14,6.53l-5.05-2.4v-.79c0-15.99-.26-31.93-.27-47.9v-1.96c0-8.21-.09-16.24-.29-24.45-.04-1.58-.05-3.01-.05-4.33,0-6.09.32-9.51.33-11.47v-.17h0c0-3.08-.86-2.35-5.28-2.93-1.54,2.3-1.89,6.68-1.88,11.21,0,3.74.23,7.6.24,10.53l-.11,66.46c-.5,3.35.54,1.82-2.24,2.97l-.23-91.18-6.54-.5-.64,88.58-2.56-.7.23-70.79c.12-7.69.47-12.06.47-14.53h0v-.25c-.02-4.05-1.12-2.57-6.34-2.88-1.71,2.42-2.23,19.03-2.24,37.06v1.34s0,.11,0,.11c0,20.38.62,42.27.91,47.95l-6.03-.26.67-67.22c.08-3.53.33-7.25.37-10.74.04-3.03.23-4.89.23-6.07,0-2.25-.66-2.05-4.36-2.74-3,.38-3.7,5.02-3.71,9.77v.28c0,3.85.42,7.76.43,9.55.03,2.84.04,5.65.05,8.46v.77c0,3.74-.04,7.49-.1,11.34-.25,13.92.33,30.84-1.12,44.36l-2.34.09c-.02-1.33-.03-2.72-.04-4.18v-.08c.04-19.66,1.49-48.89,1.53-66.89v-.83s0-.2,0-.2v-.82c0-2.06-.04-3.95-.09-5.63-.02-.78-.03-1.46-.04-2.07v-.79s0-.06,0-.06v-.45s0-.05,0-.05v-.62s0-.04,0-.04v-.16c-.02-3.21-.47-2.05-6.35-2.41-1.88,3.71-2.28,16.54-2.3,31.31v1.37c0,10.03.16,20.87.18,30.36v.59c0,8.6-.16,15.95-.73,20.29l-1.96-.31c-.72-3.37-1-8.05-1.02-13.5.06-16.89,2.43-40.55,2.42-56.4,0-5.98-.34-10.84-1.29-13.8l-6.06-.24-2.01,83.54-14.81-.33,5.29-199.28,11.84,2.8c1.19-1.29.49-.36,1.71-2.51.01-.03,1.07-2.53,1.21-2.81l.48,6.27,12.83,2.74c.41.13,1.74.66,2.03.76l1.98.93c.34,10.72-2.34,28.45.33,37.4l38.26,5.89c0-6.37-.62-25.52,2.52-31.52M1520.88,215.03c-4.32-2.32-81.31-11.36-93.05-12.82l.51,7.97,92.88,11.06-.33-6.22ZM1522,256.87c-3.18-3.94-13.41-3.28-22.96-4.25-7.83-.79-15.75-1.4-23.59-2.14-15.9-1.5-32.58-3.52-48.47-4.36.3,7.96-1.77,6.09,20.1,7.57,8.56.58,17.09,1.46,25.63,2.12l38.62,3.2c10.63.97,9.22.58,10.66-2.14ZM1490.47,166.83c-.11,6.11-.32,12.21-.43,18.3-.29,16.78-.78,12.31,4.44,13.44,1.6-2.21.87,2.15,1.67-4.23.06-.51-.09-3.24-.12-3.93l-.88-23.45c-1.16-3.76,1.75-.83-1.97-2.74.39-.17.9-.26,1.22-.31l12.71.65,7.58,1.51c3.61.6,4.39.85,8.05.68,4.89,15.12,6.29,12.09,6.36,30.38.04,11.42.13,23.76,1.06,35.11-.28,10.94.33,22.96.59,33.96.15,6.11.35,12.21.53,18.32.4,13.39-1.27,14.12,3.01,14.65-4.64,3.11-2.62,2.36-2.2,18.03l1.52,59.08-17.64-6.65-1.39-97.01c-.3-2.14-.34-3.3-.34-3.93h0v-.09h0v-.08h0v-.07h0c0-1.05-.05.21-2.77-.95-2.66-.06-3.31,4.11-3.3,9.27,0,4.9.59,10.73.64,14.72.12,8.85.29,17.7.39,26.55.12,10.16.82,23.67.85,35.76-.01,5.19-.16,10.08-.56,14.27l-2.05-.18-1.72-89.95v-.42c0-2.03.16-3.68.16-5.09v-.07c0-2.17-.36-3.8-2.26-5.45-1.76.77-3.17-.89-3.17,8v.27c0,.51,0,1.06.01,1.64.09,5.47.5,30.33.51,52.42v.88c0,17.26-.28,32.38-1.18,34.16l-1.05-.26c-.73-6.94-.91-14.76-.92-22.73,0-6.7.12-13.48.11-19.89,0-2.77-.01-5.47-.07-8.07l.02-37.87c.04-2.48.2-4.21.19-5.43v-.07c0-2.57-.72-2.91-4.92-3.43-1.39,1.96-1.81,13.22-1.82,27.44v1.42c0,20.24.78,46.02.81,60.13,0,2.77-.05,5.01-.14,6.53l-5.05-2.4v-.79c0-15.99-.26-31.94-.28-47.9v-1.96c0-8.21-.09-16.23-.28-24.45-.04-1.57-.05-3.01-.05-4.33,0-6.09.32-9.51.33-11.47v-.17h0c0-3.08-.86-2.35-5.28-2.93-1.55,2.3-1.89,6.68-1.88,11.21,0,3.74.23,7.59.23,10.53l-.11,66.46c-.5,3.36.53,1.82-2.24,2.97l-.23-91.18-6.54-.5-.64,88.58-2.56-.7.23-70.79c.12-7.69.47-12.06.47-14.53h0v-.25c-.02-4.05-1.12-2.57-6.34-2.88-1.71,2.42-2.23,19.03-2.24,37.06v1.34s0,.11,0,.11c0,20.38.62,42.27.9,47.95l-6.03-.26.67-67.22c.08-3.53.32-7.25.37-10.74.04-3.03.23-4.89.23-6.07,0-2.25-.66-2.05-4.36-2.74-3,.38-3.69,5.02-3.71,9.77v.29c0,3.85.42,7.76.44,9.55.03,2.84.04,5.65.05,8.46v.76c0,3.74-.04,7.49-.1,11.34-.25,13.92.33,30.84-1.12,44.36l-2.34.09c-.02-1.33-.03-2.73-.03-4.18v-.09c.03-19.66,1.49-48.89,1.54-66.89v-.83s0-.2,0-.2v-.82c0-2.06-.04-3.95-.09-5.63-.02-.78-.03-1.46-.04-2.07v-.78s0-.06,0-.06v-.45s0-.06,0-.06v-.62s0-.04,0-.04v-.16c-.02-3.21-.47-2.05-6.35-2.41-1.88,3.71-2.29,16.54-2.3,31.31v1.37c0,10.03.16,20.87.17,30.36v.59c0,8.6-.16,15.95-.73,20.29l-1.96-.31c-.72-3.37-1-8.05-1.01-13.5.06-16.89,2.43-40.55,2.42-56.4,0-5.98-.34-10.84-1.28-13.8l-6.06-.24-2,83.54-14.81-.33,5.28-199.28,11.84,2.8c1.18-1.29.49-.36,1.71-2.51.02-.03,1.07-2.53,1.21-2.8l.48,6.27,12.83,2.74c.41.13,1.74.65,2.03.76l1.98.93c.34,10.72-2.34,28.45.34,37.4l38.26,5.89c0-6.38-.63-25.52,2.52-31.52ZM1518.96,211.28c-4.32-2.31-81.31-11.36-93.06-12.81l.51,7.97,92.88,11.06-.33-6.22ZM1520.08,253.12c-3.18-3.94-13.41-3.28-22.96-4.25-7.83-.79-15.75-1.4-23.59-2.14-15.9-1.5-32.58-3.53-48.46-4.36.3,7.96-1.77,6.09,20.1,7.57,8.56.58,17.09,1.46,25.64,2.13l38.62,3.19c10.62.97,9.22.58,10.66-2.14Z"/>
      <path class="cls-7" d="M1451.24,192.7l-1.56-.24c-2.59-8.67-.16-25.6-.31-36.39l1.95.92c.32,10.08-2.03,26.36-.09,35.71M1496.52,104.54c4.42,1.25,6.95,2.55,8.4,4.62-1.82-1.27-4.49-2.22-8.39-3.21v-1.41ZM1460.5,75.55l10.34,2.92,9.63,1.52c2.58,2.15,1.8.81,4.15,2.49l2.93,2.45c3.43,2.62,2.95,1.34,6.87,3.45v.98c-1.91-.79-2.18-.43-4.89-2.5l-2.93-2.45c-2.35-1.68-1.57-.33-4.15-2.49l-9.63-1.52-10.34-2.92c-4.65-1.32-8-2.89-12.78-2.27l-5.07.58-.61,16.71-8.83-1.47c-.86,10.18-3.35,47.93-1.19,55.26l.36,4.73-1.86-.4-.48-6.27c-2.17-7.33.33-45.08,1.19-55.26l8.83,1.47.61-16.71,5.07-.58c4.77-.61,8.12.95,12.78,2.27Z"/>
      <path class="cls-7" d="M1389.77,171.42l-2.28-.59-.29-5.77c1.19-2.37,6.4-8.61,8.6-11.09,3.4-3.82,4.74-4.78,12.52-4.76l7.8-1.34-.03,1.25-5.48.93c-7.78-.03-9.12.93-12.52,4.71-2.2,2.45-7.41,8.63-8.6,10.98l.29,5.67ZM1391.01,348.47l4.35-175.58,2.28.59-4.35,173.9-2.28,1.09Z"/>
      <path class="cls-7" d="M1410.65,148l-1.18.2,1.22-41.09c.93-6.19,3.01-7.99,6.29-12.54,5.32-7.37,5-2.9,11.88-6.74,1.38,1.16-1.53,1.74,4.35,1.26l-.21,2.7c-4.09.28-1.77-.3-3.03-1.36-6.88,3.84-6.57-.63-11.88,6.74-3.29,4.56-5.36,6.35-6.29,12.55l-1.14,38.28Z"/>
      <path class="cls-7" d="M1461.36,120.32c-.25.25-.54.43-.88.8-4.35-2.6-2.72-9.92-2.66-15.74.09-7.95.63-10.94.18-12.71.24-.27.52-.54.83-.8,3.6,2.72,2.27,2.61,2.13,15.47-.04,4.36-.97,9.57.4,12.99M1470.04,122.67c-.24.17-.56.42-.97.78-3.51-2.56-2.17-3.82-2.04-15.46.09-7.92.41-11.54.19-13.28,4.24.75,3.12-.76,2.94,15.23-.09,7.54-.68,10.72-.13,12.73ZM1478.79,125.56h0c-4.47-2.36-3.28.92-3.05-16.27.07-5.41,1.16-9.58-.45-12.18l.1-.23c5.58,1.88,3.58,6.98,3.48,14.36-.13,9.89-.57,13-.08,14.32ZM1488.17,127.18l-.23.51c-4.31-2.31-2.92-1.15-2.72-15.78.03-2.12.32-7.59.15-9.31-.16-1.57-.15-2.55-.16-3.19,4.15,1.21,2.76-.11,3.3,5.14.18,1.71-.12,7.19-.15,9.3-.11,8.55-.64,11.71-.19,13.32ZM1488.48,95.5c.07.36.14.74.21,1.15l-36.47-9.95c-.11,6.46-.1,12.87-.01,19.32.07,4.92-1.03,9.79.54,12.64l-.12.27c-5.55-1.47-3.45-8.13-3.55-14.86-.1-6.45-.1-12.87,0-19.32l39.39,10.74Z"/>
      <path class="cls-7" d="M1449.59,73.14c-.6,0-1.22.05-1.87.13,2.86-5.22,1.67-12.39,1.45-18.93-.4-12.12.18-10.19,8.84-14.34l.08-18.98c.14.35.29.79.36,1.07.07.28.24.74.32,1.1l.3,4.98-.06,13.7c-8.67,4.15-9.25,2.22-8.85,14.34.2,5.74,1.13,11.96-.57,16.92M1470.95,60.88c-.15.4-.31.76-.49,1.05-1.32-5.16.09-9.38-.63-12.27,2.16,2.32.66,6.21,1.12,11.22ZM1461.72,40.73c4.62.94,8.23,2.16,9.55,5.91-1.73-2.33-4.82-3.27-8.56-4.03l-2.44-.38-.04-1.73,1.49.23Z"/>
      <path class="cls-7" d="M1434.19,23.59c-2.63.59-4.24.12-4.73-3.28-.14-.99-.08-2.93-.08-3.97,11.23.82,9.4-1.07,18.43-4.68,16.92-6.77,6.88-5.69,12.68-11.66.69.98,1.13,3.51,1.39,6.86-.74,1.19-3.07,2.65-10.25,5.52-9.03,3.61-7.2,5.5-18.43,4.68,0,1.04-.06,2.97.08,3.97.17,1.18.48,2.01.92,2.57M1461.72,40.73l-2.44-.38c-.1-3.53-.09-6.32-.07-9.52l-.45-7.62c-.07-.36-.25-.82-.32-1.1-.07-.28-.21-.73-.36-1.07l-.72-.2c1.46.17,2.97.46,4.54.91.1.25.21.56.28.81-.09,7.64-.4,15-.47,18.17Z"/>
      <path class="cls-7" d="M1433.21,89.09c-5.87.48-2.97-.1-4.35-1.26,3.83-4.8,8.76-9.35,13.79-13.98l-7.9,9.42-1.54,5.82Z"/>
      <path class="cls-7" d="M1368.76,353.93l-1.79.28,4.75-94.44.85-18.29,3.09-55.78c.65-6.34,1.09-6.19,4.5-9.51,4.91-4.79,3.33-2.61,5.41-8.95l.3,5.77.74.19c-1.63,5.19.08,1.85-4.58,6.39-3.41,3.32-3.09,5.13-3.74,11.47l-3.09,55.78-.85,18.29-5.59,88.8Z"/>
      <path class="cls-7" d="M1438.57,377.73c-.17-2.01-.4-10.7.04-12.29,1-3.63,4.96-3.17,8.37-4.36,3.25-1.14,15.9-5.44,19-4.5l-.36,14.68-27.05,6.47ZM1350.53,400.9c-.25-2.77-.62-8.82-.52-10.8l34.53-10.27c1.6-.34,4.12-.47,5.78-.59l.08,12.21-39.87,9.45ZM1350.32,492.47c2.06-2.06,35.49-3.75,37.53-3.48.16,4.83-.35,7.48-1.98,9.35-2.28-1.01-10.06,3.73-10.05.71-5.33.07-7.37-1.3-12.92-.99-3.24.18-8.12-1.31-11.12-1.11-3.6.25.65-2.93-1.46-4.48ZM1648.18,507.59l-52.91-.52c-18.09-.04-36.2.12-54.29.06-16.64-.05-34.68-2.08-51.55-3.04-16.37-.93-34.65-1.71-50.96-3.21-.42-22.06-2.39-16.9,13.63-18.82,22.86-2.73,5.56-2.37,27.73.24l20.61,2.63c3.27.35,4.04,1.14,7.02,1.37,7.16.55,51.08,6.53,58.18,7.62l-36.74-7.65-61.61-8.54c-.66-8.78,1.07-99.1,2.21-101.7,4.47.98-.42.92,5.62,3.51,2.37,1.01,4.65,1.77,6.43,2.49l2.98-1.5,1.37-2.58c-8.66-3.23-15.1-5.47-17.33-5.88l-.38-15.66c3.84.27,34.25,13.87,42.25,17.34l.92.45c.19.09,15.39,3.42,15.57,3.51l22.74,11.72c4.82,2.09,8.06,4.77,12.45,6.94l12.95,3.43c.17.07,2.13,3,2.31,3.06,4.59,0,16.74,4.97,16.96,5.05l20.7,11.59c1.44.58,1.99.64,3.61,1.37l26.22,11.53s2.48.91,3.39,1.26c2.47.94,3.96,1.91,6.88,2.95l20.01,8.77c2.66,1.72,1.43,3.97,1.19,7.14l-103.81-40.53c-6.27-2.39-34.1-13.65-59.52-23.61l15.43,11.89c24.45,9.39,37.39,11.7,60.1,21.23,16.08,6.75,81.34,33.53,87.82,37.16l.07,48.05-61.27-8.49-32.09-1.6,8.98,1.24c9.39,1.12,18.45,2.56,27.82,3.84l24.73,3.4c4.06,1.5,1.24-.37,3.54,2.48ZM1398.37,329.99l5.67-1.34.18,221.12c-1.93.96-7.88.5-9.92.11l-.1-218.03,4.17-1.87ZM1319.66,534.89v-78.15c0-20.03.24-13.19.24-33.66l-2.33-4.36-2.1-15.77c.02,20.7,0,33.17,0,53.79,0,15-.2,30.26-.26,45.45l4.44,32.71ZM1351.94,367.51l-18.22-5.86c-5.27-1.72-12.59-4.91-18.15-5.82-1.96,4.03-.15,2.71-5.17,4.45-3.51,1.21-3.29,1.86-3.29,6.01l.04,183.73-3.48.26c-20.49-1.05-55.83.09-79.5-.08-4.4-.03-7.87-1.34-8.02,2.75,3.12,2.17,63.01.87,71.93.87h40.08l-7.63-3.21h-1.11c-.05-1.53-.09-3.1-.12-4.68h-3.55l.15,3.94-3.1.29c-1.28-6.7-.33-123.27-.33-140.84l-1.99-2.21-.88-17.5,2.46-10.12-.19-13.92c-.05-.11-.18-.28-.24-.38-.06-.1-.19-.29-.24-.38-.08-.14-.36-.58-.48-.78l4.5-1.58.05,22.41,4.27-17.41c-.08-5.57.03.46-.16-5.01,1.85.03,31.58,9.53,45.67,14.26l-4.55-2.51-8.73-6.67ZM1581.85,550.17c-12.22.8-51.76.25-67.01.25-6.88,0,.02.02-7.37.06l-53.6,3.34h138.92l-10.94-3.65ZM1440.02,505.65c22.23-.76,76.21,5.73,107.83,5.73,1.94,0,35.41-.79,36.82.71,1.29,1.72,1.19,33.34.85,41.31l2.09-6.98c-.12-.85-.53-14.23-.52-15.69l1.03-13.53c-.11-7.07.24-6.81,7.73-6.07l.46,42.79,3.8-5.75.42-16.51c0-6.57-.21-13.5.09-20.03l49.38-.05c.56,10.23-.07,22.5.14,33.17.11,5.94.65,5.61-5.34,5.5-12.45-.22-6.29-.21-18.82-.14l-18.82,3.72h42.4c13.96,0,140.73,1.02,143.41-.87-.12-3.51-1.4-2.84-5.23-2.79l-122.11-.13c.1-2.62.8-4.88.78-8.75-.03-6-.49-26.54.49-29.91,15.17.01,13.3-1.21,13.3-5.84.02-8.02,0-16.04,0-24.06l.04-18.6c1.12-5.84.43.68,2.08-3.38,1.2-6.34-1.45-8.26-2.03-11.01-.18-.84-.13-2.65-.24-3.74-1.59-1.26-31.63-14.48-67.42-30.02-50.04-21.74-111.34-48.04-121.9-52.62l-26.61-11.45c-6.7-3.64-54.44-24.49-55.69-25.96-3.88-1.35-14.1,2.92-17.69,5.21l-.24,4.63c-4.06,2.38-2.82,1.84-2.77,8.14l-.15,32.99c-7.42,4.17-17.31-2.29-23.81-5.05l6.45,7.8.36.15,2.67,1.22c-1.74,1.21-4.14,1.5-6.57,2.23-3.83,1.14-18.24,3.85-19.7,6.9.51,4.21-.86,4.16-.9,8.7-.03,3.14-.19,6.86.59,8.98v4.12s3.44,12.05,3.44,12.05l.13-12.05-.02-5.26c5.33-1.89,12.62-3.31,17.92-4.59,23.57-5.69,19.64-8.82,19.64,18.08,0,11.41.72,62.16-.41,66.2l-36.9,2.95-.11-35.52-2.04-27.39-1.67,27.39v41.28s-3.98.24-3.98.24l-.27,4.56,4.78.82c.01,8.32.57,45.75-.37,50.9l-6.02.06-8.66,3.4h40.45l-16.02-3.03-6.19-.61-.13-50.5c4.92-.03,14.13,1.07,19.1,1.64,3.46.39,7.07.57,10.21.86,9.54.87,4.95-.49,8.32-1.61l-.13,49.45-1.14,2.36-2.34,1.45h29.19l-4.06-1.47c-2.82-.1-.94-2.05-1.68-2.25-1.35-5.49-.38-147.46-.38-166.2,0-16.72-1.27-39.13.17-55.15l49.14,22.8c2.37.23,2.2.38,4.42,1.42-1.05,2.22-7.2,2.97-9.8,3.71-3.6,1.02-6.56,2.01-10.11,2.92l-6.45,1.99v20.14c9.89.41,28.15-6.57,30.79-6.19.55,7.29-.33,69-1.47,71.61.1,5.14.66,26.97-.82,29.98-1.1,1.37-19.13,2.94-21.09,3.08l-3.55.06c-1.12-12.64.4-71.48-.79-75.87-.05-.18-.22-.27-.26-.62-.04-.35-.16-.42-.28-.61-3.4,1.04-2.6-.19-2.56,9.42.09,20.53.56,140.36-.15,143.28l2.07-5.66c1.25-4.59.03-4.81-.01-15.09l3.46-29.48ZM1653.75,511.21l7.99-.3c.42,4.95.77,35.92.15,39.12l-8.25.2c-1.27-3.71-1.26-35.59.11-39.01Z"/>
      <polygon class="cls-7" points="1603.09 534.1 1606.55 511.19 1605.84 550.15 1604.55 547.98 1602.69 540.41 1603.09 534.1"/>
      <polygon class="cls-7" points="1668.86 518.89 1672.21 507.78 1672.59 540.41 1671.5 551.75 1670.22 548.98 1668.35 539.36 1668.86 518.89"/>
      <path class="cls-7" d="M1979.52,107.39c-6.84-4.5-19.88-4.34-23.61,1.65l-25.57,48.94c-1.53,3.25-6.94,14.06-10.8,19.58.18,2.69.33,4.48.42,4.84,3.17-1.57,11.71-18.56,13.69-22.77l25.57-48.94c3.19-5.12,13.19-5.98,20.3-3.31M1979.21,111.9l-21.13,60.78c-1.87,3.66-2.14,3.37-2.26,7.97,4.01-6.58,4.96-7.73,8.09-16.08,1.89-5.03,15.41-41.01,18.35-51.19l-3.06-1.48ZM2032.3,128.16c-.94-1.02-1.54-1.48-2.32-2.23-17.35,9.54-76.84,64.91-82.47,66.18-.75.17-8.63-.2-14.4-.25-.49.63-.96,1.21-1.43,1.73,4.39-.33,18.14.4,19.14.17,5.52-1.24,62.96-54.62,81.47-65.6ZM1984.67,490.56c4.04,4.1,2.13,14.37,7.43,21.4.45-5.41-1.27-9.61-2.29-14.81-.83-.86-1.76-2.88-2.74-5.68-.66-.43-1.45-.74-2.4-.91ZM1958.21,327.36c.51,3.61.8,16.33,1.18,20.09,2.71,26.96,12.1,96.06,18.2,117.78,1.54,5.49,3.83,12.52,4.42,17.88-2.57,1.87-16.66,6.17-19.96,7.59,1.94,1.15,4.78.73,7.86,0,5.25-1.81,12.87-4.34,15.15-5.75-4.58-16.34-9.67-43.61-11.3-51.56-2.82-13.76-4.61-29.01-6.16-44.15-2.17-15.99-3.95-30.66-4.9-40.14-.17-1.75-.33-5.45-.5-9.25l-1.41-11.8c-.88-.32-1.74-.53-2.58-.69ZM1968.22,211.01c-.79-.57-1.99-1.19-4.15-1.97,1.24,5.6,4.99,5.49,6.76,9.49,1.79,4.06-.14,9.98-.77,14.63l-12.12,89.13c-4.3-.04-9.93-2.06-12.79,0,1.31,1.4,2.72,2.09,4.21,2.49-.3-.25-.6-.52-.89-.83,2.67-1.93,7.74-.31,11.9-.04.21-10.41,6.46-43.4,10.45-70.26l2.01-14.74c.99-8.27,1.49-15.08,1.14-19.13-1.83-3.61-5.37-3.69-6.57-9.1l.84.32ZM2039.28,139.63c3,2.49,5.2,6.01,6,10.42l-71.06,65.41c.37.33.83.69,1.44,1.09,4.98-2.5,7.42-5.8,11.23-9.65l36.66-33.46c4.37-3.8,7.04-5.85,12.4-11.35l8.66-8.7c3.04-3.34,1.47-1.3,2.23-5.76.03-.19.1-.51.14-.69v-.07c-1.62-3.29-4.18-5.82-7.22-7.51-.14.08-.31.17-.49.28ZM1919.47,288.68c1.22,4.93,3.09,8.67.15,13.59l.07-5.64c-3.46,7.53-12.93,25.52-12.67,32.87,1.18-.32,2.36-.65,3.54-.98,1.44-8.37,9.34-23.48,12.45-30.23l-.07,5.64c3.7-6.19-.21-10.52-.87-17.7-1.53,1.52-2.08,1.92-2.59,2.45ZM1964.13,196.27c-1.35,1.61-2.45,1.75-5.78,2.89-1.75.85-3.53,1.64-5.47,2.26l-1.04.34c-4.81,2.11-9.63,4.44-14.56,6.35-5.72,2.22-9.45,5.23-15.19,7.43-5.83,2.24-10.03,4.12-15.84,6.58-6.17,2.62-4.27,9.82-4.71,17.08-.43,7.23-.32,14.34-.75,21.55-.33,5.68-1.87,15.93-.67,21.05.88,3.75,2.8,4.91,5.12,5.36-.78-.81-1.4-1.99-1.8-3.71-1.2-5.11.33-15.36.67-21.05.42-7.21.32-14.32.75-21.56.43-7.25-1.47-14.45,4.71-17.08,5.8-2.47,10.01-4.34,15.84-6.58,5.74-2.21,9.46-5.21,15.19-7.44,5.38-2.09,10.66-4.68,15.92-6.94,4.39-1.89,6.71-2.47,8.26-3.06.74-.92,1.63-2.09,2.7-3.6l1.32-1.83c-1.68.58-3.21,1.25-4.67,1.94ZM1909.13,127.41c-.29,6.57,3.42,33.55,4.11,43.82,1.02,15.12,1.85,8.55,2.95,12.66l-6.01,10.87c-4.85,1.84-5.98,1.14-10.15,4.62,1.22,13.89-1.16,18.97,4.08,17.89-.63-2.5-.02-7.71-.77-16.23,4.17-3.49,5.3-2.79,10.15-4.63l6-10.87c-.84-3.15-1.52-.03-2.26-5.21-.22.19-.42.33-.6.42-.27-1.06-.95-14.52-2.05-26.97-.48-4.25-.96-8.57-1.34-12.43-.19-1.38-.4-2.65-.6-3.78-1.2-6.43-1.62-5.82-.8-9.32-1.22-.27-2.05-.58-2.72-.85ZM1899.4,125.32l1.32.02c1.18-.28,1.99-.36,2.65-.32l.59-1.75,8.67,1.76.22-.94-12.21-2.47-1.25,3.7ZM1949.33,246.56c-2-3.08,0-19.88,3.02-22.11,1.09,3.46-2.34,16.9-3.02,22.11ZM1935.32,226.95c-.95,3.24.25,1.85-2.09,3.12l2.09-3.12ZM1938.16,238.86c.8,3.63,1.12,5.06-.92,8.22-1.24-2.62-.52-5.88.92-8.22ZM1912.97,284.87c.05.41,0,.99.3,1.99-.67,0-1.23,0-1.71,0,.58.69.4,1.12.88,1.37l.29.11c.41.11,1.09.16,2.27.18.6-.88.91-1.26,1.3-1.64-.05-.88-.04-1.06-2.14-1.68-.46-.14-.85-.25-1.2-.33Z"/>
      <path class="cls-7" d="M1859.16,371.94c.86,9.41.63,23.4.75,33.47l1.27,48.54c.08,5.27.33,10.92.48,16.22.67,23.73-.21,23.53,7.87,23.95-1.63-2.25-1.46-7.83-1.87-22.27-.15-5.3-.4-10.95-.48-16.22l-1.27-48.54c-.12-10.08.11-24.06-.75-33.47-.33-25.17-4.71-20.85,17.14-26.55,2.54-.66,6.3-1.91,9.75-2.9.07-.84.2-1.84.42-3.08-3.78.26-11.79,3.15-16.17,4.3-21.85,5.7-17.47,1.38-17.14,26.55"/>
      <path class="cls-7" d="M1852.53,276c3.61-5.46,11.31-10.31,20.85-7.45,1.5,6.04-1.46,6.55,2.88,9.96,4.06,3.18,3.79.94,5.82,6.98.91-.15,2.06-.4,3.29-.73-1.21-3.06-1.58-1.94-4.97-4.59-4.34-3.4-4.6-7.14-6.1-13.18-11.34-4.65-19.71,1.99-21.76,9.02M1889.92,327.89c-1.58-3.76-4.63-4.47-9.91-7.34-.89-5.53-.18-11.35-1.26-16.4-1.56-7.33-3.6-2.88-7-10.26-1.9-4.12-3.54-5.61-8.01-9.36-4.76-3.99-6.75-1.65-10.59-.92.38.67.87,1.29,1.47,1.83,5.81.34,4-1.67,9.74,3.14,4.47,3.75,7.19,5.27,9.09,9.39,3.4,7.38,3.63,3.2,5.2,10.53,1.08,5.05.19,10.15,1.08,15.68,3.71,2.01,7.35,2.49,10.19,3.7ZM1847.16,249.19l-6.21,19.15c-2.21,12.56-2.16,22.44-3.19,35.62-.74,9.36-2.17,28.94-.96,37.76,1.58-.11,2.85-.03,3.97.16-.88-9.38.44-27.4,1.13-36.26,1.04-13.17.98-23.05,3.2-35.62l6.2-19.15c7.47-3.46,17.33-6.69,24.67-10.57,6.28-3.32,13.62-6.63,20.68-9.07,0-1.33-.01-2.36-.05-2.98-8.24,2.49-17.27,6.43-24.77,10.4-7.33,3.88-17.2,7.11-24.67,10.57ZM1892.24,258.76c2.51,6.5-4.89,11-10.95,10.21,4.06,3.18,11.26,1.75,14.24-2.14.13-2.34.25-4.86.36-7.46-.33-.63-.76-1.27-1.29-1.93-1.02.48-1.77.91-2.36,1.32Z"/>
      <path class="cls-7" d="M1896.1,541.99c1.16-1.35,1.79-2.75,1.73-4.49-5.63-1.54-12.9-.25-18.89-.77-5.79-.5-11.3-1.11-15.8-1.4-14.36-.91-23.96-3.12-34.64-4.13-11.97-1.13-23.3-1.46-35.66-3.19-5.67-.79-11.2-1.37-16.89-2.55-5.09-1.05-12.91-1.47-16.05-3.88l-8.97,2.1c-11.66.71-58.99,15.47-61.32,17.71.96.5,4.92,1.11,10.7,1.79,14.62-5.1,44.19-13.79,53.07-14.33l8.97-2.1c3.14,2.42,10.96,2.83,16.05,3.89,5.69,1.18,11.22,1.76,16.89,2.55,12.36,1.73,23.69,2.06,35.66,3.19,10.68,1.01,20.27,3.22,34.64,4.13,4.5.29,10.01.89,15.8,1.39,4.59.4,9.94-.27,14.71.09"/>
      <path class="cls-7" d="M1908.45,361.51c4.99,1.87,5.49,8.73,6.32,13.46,6.24,35.36,16.72,48.99,18.31,80.09.66,12.86,4.66,28.27,3.35,34.76l3.84-.18c.34-7.32-2.99-21.03-3.58-32.65-1.6-31.1-12.07-44.73-18.31-80.09-.83-4.72-1.33-11.58-6.32-13.46-2.75-6.54-5.06-6.29-4.25-15,.63-6.83-.28-9.59,6-12.42,2.51-1.13,18.17-6.01,25.55-7.93-.04-1.18-.05-2.1-.03-2.7-2.77.18-26.02,7.31-29.12,8.71-6.28,2.83-5.37,5.6-6,12.42-.81,8.71,1.5,8.47,4.25,15"/>
      <path class="cls-7" d="M1851.07,162.54c-1.85-.58-4.09-.9-6.82-1.01-9.15,12.35-10.95,6.76-9.17,15.46,1.83,8.93,2.31,13.5,5.15,22.15,1.1,3.35,2,7.27,3.19,10.82,1.39,4.16,2.96,6.28,4,10.04,3.6,12.98,3.65,9.03,1.29,21.49l3.44.28c2.28-11.93,2.19-8.22-1.37-21.05-1.04-3.76-2.61-5.89-4-10.04-1.19-3.55-2.09-7.47-3.19-10.82-2.83-8.65-3.32-13.23-5.15-22.15-1.78-8.69.03-3.11,9.17-15.46,1.26.05,2.4.14,3.46.28M1853.16,165.21c2.65,2.76,3.13,5.73,6.33,7.04-1.06-3.35-2.34-5.77-4.26-7.45l-2.07.41ZM1882.29,167.98c-1.06,6.77-4.67,35.04-7.38,46.08.36,1.25.6,2.39.67,3.38-.6-.23-1.08-.41-1.46-.59-.13.36-.24.67-.36.91.76.51,1.78.79,3.11,1.16,2.67-3.77,7.54-42.19,8.79-50.23.45-.68,4.59-20.51,5.33-23.51,2.1-8.46,2-18.53,9.79-19.18l-.05-.67-1.32-.02c-9.8-.98-9.51,10.02-11.78,19.15-.74,3.01-4.88,22.83-5.33,23.51Z"/>
      <path class="cls-7" d="M1833.52,272.41l-.22-.51c-16.11-2.09-18.86-.45-33.06,3.08-10.01,2.48-4.45,4.6-15.91,13.22-3.63,2.73-3.56,1.89-4.82,4.97,3.43,7.57,12.23,2.57,27.07,22.6,4.3,5.79,20.69,23.71,25.71,22.01-6.89-3.76-18.26-16.37-21.73-21.05-14.84-20.03-23.64-15.04-27.07-22.6,1.27-3.08,1.19-2.24,4.82-4.97,11.46-8.62,5.91-10.73,15.91-13.22,13.02-3.23,16.42-4.88,29.31-3.52"/>
      <path class="cls-7" d="M1902.65,364.21c-.12-.44-.24-.91-.36-1.43-3.37-1.17-2.26-1.55-4.43-2.09-.09,23.34,1.54,42.24,2.37,65.22.56,15.41-.1,55.59,3.23,66.95l3.27-.1c-2.49-14.46-1.97-49.43-2.48-63.57-.83-22.97-2.46-41.88-2.37-65.22.32.08.57.16.77.23"/>
      <path class="cls-7" d="M1951.18,528.06c-3.5,2.78-19.28,4.6-26.9,5.73-7.94,1.18-6.43,2.08-7.07,3.28l1.85.7c5.19,1.12,7.14-1.41,12.62-.03l-2.99,1.86c-.05.02-16.43,2.83-18.75,1.79,1.89-5.77.77-1.46,5.63-3.24-4.33-2.74-11.03,2.37-14.6,5.9-6.86,6.77-9.72,6.89-11.13,11.66.1,3.51-1.31.32.92,2.41,9.64-2.39,95.91-16.5,101.82-16.01-1.75-2.12-.57-.96-2.95-2.64-.16-.11-2.4-1.33-2.77-1.42-3.78-1,0-.39-5.45,1.73-.2-.21-.49-.45-.65-.58l-4.94-3.66,4.87-.96c-4.27-1.65-1.2-.45-5.08-.99l-4.63-1.32c-.13-.05-.43-.17-.56-.23l-1.63-.86c-1.67-.83-.1-.46-1.85-.89-2.11-.52-2.88-.03-4.97.36-.85-1.63,1.03-1.43,0-3.52l-10.81.91ZM1947.6,536.64c3.76-4.64-3.3.81,1.97-2.01l7.95-1.05c4.86-1.03,6.15-5.32,7.11,1.34-2.5,1.53-6.75-.36-17.04,1.73ZM1942.7,535.78c-.34.34.02,1.28-2.65,2.03-4.1,1.15-2.67-.7-2.71-.74,3.44-2.52,1.37-1.47,5.36-1.29ZM1944.01,535.99h3.06c-.26.15-.59.47-.73.51-.12.03-.63.18-.75.21l-1.58-.72ZM1926.25,545.71c3.02-2.97,24.45-5.79,26.8-5.36-1.97,2.41-9.24,3.47-12.75,4.1-5.38.96-10.5,3.27-14.05,1.26ZM1906.06,544.92c1.01,2.14.88.69-.19,3.11-1.9-2.44-1.51-1.94.19-3.11ZM1918.34,546.78c2.45-2.12,3.99-2.84,5.84,0-1.61.78,2.24.92-3.18.73-2.31-.08-1.68-.28-2.66-.73ZM1897.97,552.58c2.72-4.01,2.31-4.68,4.66-5.96,1.87,4.24-.25,5.24-4.66,5.96ZM1913.27,548.27c.08-.49-.96-4.66,2.88-.4l-2.88.4Z"/>
      <path class="cls-7" d="M1773.37,519.49c1.63.21,2.45.4,4.16.4.34,0,.64-.02.98-.03l4.48-.08c.29.06,1.94.66,2.22.74l80.97,7.35c7.54.72,28.8,4.5,37.55,4.8,7.28.24,13.05-.02,16.3-5.32,1.44,5.24-1.73,2.09,12.31.32,5.08-.64,10.3.2,12.44-4.14-8.43-.33-9.88-1.75-19.29.77-8.26,2.22-8.8,4.46-18.14,2.72-9.69-1.81-20.88,6.33-32.9-1.85l3.86-7.8c-3.24-.12-10.63-1.42-11.39-1.32-5.69.69-2.36,2.06-2.36,2.1.08.9,1.17.84,1.36,1.15-3.46,1.85-2.67.16-8.62.53-10.89.67-6.32,1.25-7.24-1.22l7.23-.13c.12-.22.17-.6.22-.72,1.83-4.24,4.26-2.97,4.61-3.96.14-.39.61-.24.86-.44-2.74-.66-6.12-1.06-9.62-.64-9.38,1.13-3.73,1.95-5.32,2.78-2.16-1.91.28-.56-2.71-1.49-3.38-1.06-13.93.24-18.26.52l-41.08,1.44c-7.18.29-11.11,1.88-18.72,2.18l6.09,1.36ZM1837.65,516.57c4.31-1.8,3.6-1.31,4.48,2.28-1.87-.46-.58.16-2.58-.78-1.68-.79-1.5-1.14-1.9-1.5ZM1837.65,516.57l-2.07,3.24M1845.5,519.81c.11-.06,1.59-1.7,2.36.47l-2.36-.47Z"/>
      <path class="cls-7" d="M1868.44,498.36l-3.55,2.02.2,6.54c.59.49,1.16.91,1.71,1.28l-.18-6.17,3.55-2.02c6.46.12,21.54.42,28.18-.89v-2.08c-5.28,1.8-22.8,1.46-29.9,1.32"/>
      <path class="cls-7" d="M1902.98,510.09c2.51,3.23-.25,3.13,4.09,4.61.28.09.54.17.8.24-.68-.65.02-1.32-1.67-3.49l-.63-11.85c3.95-1.64,7.75-1.74,10.07-2.6-.02-.46-.04-.9-.04-1.32l-2.5-.35c-2.21,1.15-6.38,1.08-10.75,2.9l.63,11.86Z"/>
      <path class="cls-7" d="M1868.25,182.01c-1.68-1.16-2.53-2.7-3.91-4.86-.72-1.13-1.49-2.5-2.21-3.23-1.97-2.01-1.34-1.05-2.66-1.67.5,3.71.31,3.03,2.73,5.95l6.83,10.46c1.61,3.68.51,2.96,3.38,5.12,1.76-3.93-2.02-6.56-4.16-11.76"/>
      <path class="cls-7" d="M1776.25,362.85c5.73,6.15,7.46,9.05,12.07,16.88,3.14,5.35,1.84,5.58,2.55,11.63,5.84,3.88-.34-7.09,8.93,6.98,6.56,9.96,24.5,44.43,24.55,44.5,3.57,4.84,1.78-.9,6.88,9.77,1.67,3.49,4.83,8.44,6.6,11.24,2.71,4.29,5.02,5.54,5.81,10.62l-55.06-2.11-8.65-19.58c-5.9-14.35-39.5-94.4-40.06-98.91-1.31-10.53.65-4.86-6.37-19.61-2.94-6.17-6.1-11.93-8.29-18.69,1.73,10.69,15.91,27.79,11.77,33.75-5.43-5.28-12.16-29.73-14-34.37-.57-1.44-6.65-9.41-9.29-18.55l2.37,4.42c.17.23.5.54.64.72l1.49,1.39c1.41-3.85-1.74-10.92-3.41-14.92-2.38,2.34,1.65-.92-2.15,1.38-.65-5.08-.8-4.02-3.89-9.28,1.05,5.19.34,3.13,2.76,7.28-4.31-2.81-1.9.97-4.29-5.8l-6.1-16.46c.16-.05.44-.07.5-.09l1.78-1.03c-2.26-3.47-5.35-12.38-6.35-16.69,6.04,3.13,5.05,4.13,8.07,10.1l3.82,8.05c.18.41.36,2.52.27.73-1.35-6.12-5.08-10.93-6.84-16.32,4.4,1.23,9.44,12.24,10.51,17.62,2.61-5.11-2.5-1.06,1.39-3.65,1.82-1.21.07-1.75,2.04,1.75,1.37,2.45,2.36,5.54,3.1,8.42,5.25,1.73-4.07,2.08.95-.71,1.06-.59-.59-.35.59-.36l39.47,70.25c2.33,4.47,4.38,8.64,7,12.95,2.36,3.88,4.17,9.44,8.02,11.06-4.96-9.03-9.74-17.07-14.82-26.48l-28.62-53.69c-2.46-4.8-4.88-8.54-7.45-13.78l-4.22-9.6s.11-.26.12-.29c2.01-6.4-.27,6.91.54-1.11-2.31-3.92-4.03-8.5-8.35-10.48-2.6-1.19-4.53-2.13-6.77-3.21-.41-.19-2.5-.95-2.5-.95l-1.74-.89c-3.71-2.36-3.65-10.97-3.86-15.59,3.76,4.55,2.25,7.6,4.85,12.45.83-1.94-1.6-7.78-2.49-10.67l-4.4-12.6,2.11,25.18c-2.71-1.16-7.44-5.17-15.33,1.83.39.5.82,1.48,1.67,1.82,2.54,1.02-.09.64,1.78-.11,1.45-1.32.43-.56,2.3-1.74.23-.14,1.78-.77,2.12-.91l7.91,21.94c2.73,3.71,2.27,2.63,3,7.38-2.64-.34-4.4-.43-6.4-.43l-5.33.19c.41,6.73,4.57,2.02,12.92,2.91l5.75,16.79-15.83-.26c1.67,1.72.22.93,3,1.98,4.36,1.65,9.61.65,13.97.47l6.29,16.17-19.76.18c.22.59.65.48.8.84l3.63,1.13c.61.1,3.75.29,4.87.41,4.45.47,7.58.54,11.97.74,3.1,3.42,6.02,10.58,7.43,16.14-5.75.7-18.41-1.34-21.42.07,3.01,2.21,17.7,2.83,22.68,2.63,2.09,3.31,9.25,17.79,9.72,21.37-2.83-.04-5.62.07-8.47.11-3.33.05-6.92.09-9.5,1.92l20.03.61c.85,2.21,5.33,16.29,5.34,17.16-10.75,2.24-21.83-1.43-32.41.82-2.93.62-1.05-.04-2.61.96,12.94-.03,23.58,1,36.61.44l5.65,17.94c-8.7,1.98-41.75-3.43-48.18.61,0,0,46.57,2,49.87,2.01l6.74,18.5c-12.72,4.02-34.13-4.34-47.7.12,7.82,1.05,40.97,3.12,48.44,2.4,1.58,2.19,2.75,5.37,4.03,8.52,1.23,3.01,3.54,6.81,2.14,8.16-5.97,4.4-38.9-.73-45.82,3.32,8.85,2.4,37.89-.02,48.17-.49,2.11,6.09,4.68,10.89,6.38,17.17,4.76,17.6,6.91,12.08,7.94,15.39-11.91,1.53-60,2.71-71.09.91,0-5.27,1.72-29.85-1.04-32.27l-5.01-3.42.81,36.03c-5.88-.05-14.61.55-19.03-1.72-1.46-3.22-.47-97.24-1.25-112.27-.76-14.55-4.56-98.59.25-107.08-2.27-1.92-.74.05-3.89-1.11-.05-1.72-.2-3.72.01-5.43.27-2.13-.05-.78.61-2.57l6.08-22.47c1.08-3.63,1.88-7.42,4.43-10.17.08,7.45-3.98,23.25-1.63,27.9l2.3-21.19c1.66,1.18,1.47.47,1.71.53,1.43.39,1.68.04,3.34,3.58,3.07,6.56,8.7,26.03,13.86,29.11-1.78-5.67-5.16-13.38-7.63-19.47-2.62-6.47-6.01-11.66-7.99-18.79-4.27-15.36-1.43-34.34-4.49-48.82-.13.23-.25.35-.28.74l1.15,34.3c.62,11.13-6.53,18.45-7.4,29.47l-2.36-4.6c.11,4.15,1.02,9.9-1.1,13.04-2.64-6.58.5-15.63-1.44-23.01,3.62-5.31.5,3.9,3.83-3.34l-4.71-3.93c-3.38,16.95,4.17,176.28,4.71,202.08l-.67,53.44c-.02,6.84-1.02,11.87-.92,17.32,5.71-3.01,14.01-3.01,21.15-1.67.8,6.75-.42,14.54,1.44,20.95,1.24,4.26.58,3.24,4.43,3.48l.82-24.15,70.76-.78c-4.7,7.37-18.58,4.17-20.43,15.17,7.1.38,1.2,1.26,5.5-2.59,3.52-3.14,11.04-6.96,15.72-8.74-2.25,2.08-4.21,2.13-7.39,4.75-3.9,3.21-5.49,2.62-6.81,6.2,5.43-.63,11.27-7.74,18.58-9.71,14.18-3.83-.55-5.18,23.15-5.23-1.11,1.65.55-.31-1.4,1.2-.19.15-.92.69-1.16.88-.17.13-.46.33-.64.46-.19.14-.47.34-.66.48-4.35,3.18-13.01,5.74-14.4,10.59,6.21,1.19,18.02-11.18,24.56-13.17,1.77-.54,8.5.78,10.41,1.27-1.8,4.57-6.8,5.92-10.5,9.17-3.79,3.33-1.68-.56-3.13,4.64,5.34-1.77,9.85-6.62,14.73-9.64,10.67-6.61,9.58-.54,18.79-3.57-1.66,3.76-21.59,12.24-24.84,13.86,1.04.99.41,2.74,7.04-.27,2.62-1.19,4.78-2.41,7.26-4,4.4-2.8,10.48-5.06,14.57-7.97-1.97-5.87-6.5-14.03-9.8-19.36-9.09-14.68-17.18-30.82-26.71-45.66l-17.27-27.29c-81.77-130.84-21.95-27.04-20.91-25.92M1786.6,477.74c.58-.25-1.06-.57,1.98-.66,4.52-.12,2.37.35,2.97.66-1.85,1.3-3.53,3.18-4.95,0Z"/>
      <path class="cls-7" d="M1504.52,490.02c3.49-.89,19.46-49.77,21.61-55.39.84-2.19,1.42-4.23,2.28-6.57,1.73-4.75,3.34-8.5,5.04-12.83l29.68-79.88c1.03,3.91.56,3.25-.85,6.59.12.04.35-.14.38-.02.88,3.78-.34-1.09,2.18.02-5.27,15.98-9.31,31.73-14.02,48.44-2.28,8.09-5.25,15.02-7.72,23.46-2.57,8.82-5.1,15.86-7.64,24.3l1.54-2.29c.35-.66,1.26-2.9,1.38-3.21.83-2.35,1.33-4.38,2.02-6.79l12.73-39.66c3.24-10.96,12.1-46.56,16.47-53.34.58,7.8-3.06,13.51-3.72,20.98l2.99-6.89c.52,9.06-3.1,16.83-4.35,25.15,1.95-2.56,2.82-7.67,4.1-10.9.08,4.62-.8,108.73,1.57,112.25,1.2-33.89,2.16-154.98,1.04-189.39-.46-14.02.06-29.62.82-43.4.4-7.26.77-14.59,1.26-21.84.24-3.56.43-6.82.46-10.45.03-3.23.55-8.67-1.37-11.18-1.51,3.13-3.34,62.43-3.11,70.17.32,10.86.77,25.02.44,35.7-.19,6.04.27,2.94-1.71,6.71-1.71,3.25-1.61,4.07-2.63,7.62-4.47,15.57-18.41,52.2-24.72,68.7-1.91,4.99-3.85,7.07-5.2,12.72-2.08,8.68-33.07,87.11-30.91,91.23"/>
      <path class="cls-7" d="M1662.29,169.81l8.09,2.98c.7,9.94,1.1,29.15-.05,38.74-1.47,12.21.41,24.26.33,36.91-.15,25.88.44,52.14.07,77.92-.74,51.22,1.63,101.45,1.19,153,1.15-1.48.65-.33,1.45-2.81,1.09-3.34.75-11.92.71-16.61l-.32-57.88c-.35-25.55-.77-51.23-.75-76.81.02-25.83.88-51.26.35-76.81-.27-13.27-.43-25.74.61-38.96.72-9.15.32-28.85-1.33-36.92-2.35-1.6-7.13-4.47-10.37-2.74"/>
      <path class="cls-7" d="M1573.98,194.99c2.59,1.75,37.8-9.37,43.12-10.93l42.67-14.4c-1.24-.97,2.55-3.17-5.67-1.2l-15.46,5.93c-12.49,4.18-61.18,17.33-64.66,20.6"/>
      <path class="cls-7" d="M1741.63,458.78c1.73,3.62,1.79,4.04,3.06,9.82l2.44-2.75,21.02-.55-.71-3.25c-1.01-.24-.02-1.41-2.5,1.53l-16.69-.29c-2.26-.46-1.46-.46-2.65-1.13,1.88-1.47-2.5-1.29,4.79-1.79.87-.06,3.54.2,4.53.28,1.35.12,3.32.46,4.53.41,5.31-.22,2.4-.44,3.53-1.13-5.61-2.06-14.96-2.09-21.36-1.15"/>
      <path class="cls-7" d="M1746.16,453.25c1.94-1.93-1.46-1.2,4.27-1.59l16.06-.51.69,6.15c6.1-8.21-4.12-9.06-10.67-8.07-9.14,1.38-13.56-3.66-12.07,6.89l20.09-.84c-2.63-1.99-5.7-1.31-9.59-1.2-3.91.11-6.01.64-8.76-.83"/>
      <path class="cls-7" d="M1650.6,190.02c2.17-3.01,1.43-6.04.95-9.82l-4.09.8c.7,2.68,2.04,7.42,3.15,9.02"/>
      <path class="cls-7" d="M1583.65,353.88c1.77-2.09,3.38-8.6-.15-10.92-1.52,3.26-.89,7.87.15,10.92"/>
      <path class="cls-7" d="M1583.58,327.09c1.18-1.51,1.27-.65,1.7-3.82.64-4.68-.3-2.81-1.78-3.56-1.46,3.34-1.25,4.71.08,7.38"/>
      <path class="cls-7" d="M1582.39,245.68c2.17-2.13,2.47-4.94,1.11-8.18-2.13,2.58-2.87,4.98-1.11,8.18"/>
      <path class="cls-7" d="M1583.5,228.63l.51-5.58c-3.87,1.68-3.12,3.69-.51,5.58"/>
      <path class="cls-7" d="M1791.55,477.74c-.6-.3,1.55-.78-2.97-.66-3.04.08-1.4.41-1.98.66,1.42,3.18,3.11,1.3,4.95,0"/>
      <g class="cls-10">
        <rect class="cls-1" x="-18.37" y="236.89" width="1234.04" height="523.57"/>
      </g>
      <g class="cls-9">
        <rect class="cls-5" x="316.09" y="459.91" width="626.19" height="212"/>
      </g>
      <g class="cls-8">
        <rect class="cls-2" x="66.36" y="230.62" width="928.51" height="226.54"/>
      </g>
      <path class="cls-6" d="M1331.2,632.62c-2.64-.63-5.1-1.56-7.45-2.73-.49-.24-.72-.82-.53-1.34l3.33-8.88c.26-.53.91-.75,1.44-.49,1.92.94,4.06,1.79,6.25,2.37,1.88.5,3.79.81,5.57.81,1.21,0,2.16-.12,2.75-.4.36-.17.56-.42.56-.79,0-.24-.15-.43-.48-.6-.63-.33-1.68-.6-3.19-.91l-3.95-.8c-3.21-.66-5.99-1.74-7.99-3.6-2.06-1.9-3.27-4.56-3.27-8.29,0-4.06,1.56-7.33,4.49-9.58l.08-.06c2.86-2.17,7.01-3.36,12.24-3.36,2.88,0,5.28.21,7.53.65,2.24.44,4.34,1.12,6.64,2.07.53.22.8.81.6,1.36l-3.16,8.83c-.23.55-.86.81-1.41.58-1.52-.63-3.41-1.23-5.32-1.65-1.68-.38-3.39-.61-4.88-.61-1.3,0-2.18.12-2.69.39-.27.14-.4.36-.4.65,0,.18.1.32.36.47.53.31,1.46.59,2.88.89l3.87.8c3.52.74,6.52,2.08,8.59,4.19,1.91,1.95,3.03,4.53,3.03,7.84,0,4.21-1.65,7.49-4.59,9.74-2.94,2.25-7.16,3.42-12.3,3.42-3.12,0-5.97-.34-8.62-.97M1325.58,628.38c1.93.9,3.95,1.62,6.11,2.14,2.49.59,5.17.91,8.12.91,4.66,0,8.44-1.02,10.99-2.97,2.39-1.83,3.73-4.53,3.73-8.03,0-2.7-.88-4.78-2.4-6.33-1.75-1.79-4.38-2.94-7.49-3.59l-3.88-.8c-1.65-.35-2.78-.7-3.53-1.14-1.02-.6-1.43-1.33-1.43-2.33,0-1.17.5-2.01,1.58-2.57.84-.43,2.04-.64,3.67-.64s3.49.26,5.34.67c1.61.35,3.22.82,4.64,1.35l2.42-6.76c-1.8-.69-3.49-1.21-5.28-1.56-2.1-.42-4.36-.61-7.11-.61-4.75,0-8.45,1.03-10.94,2.92l-.07.05c-2.38,1.84-3.64,4.52-3.64,7.88,0,3.07.95,5.22,2.57,6.71,1.67,1.55,4.1,2.48,6.96,3.06l3.95.81c1.71.35,2.93.67,3.76,1.11,1.13.59,1.64,1.36,1.64,2.51,0,1.31-.65,2.2-1.8,2.74-.92.43-2.17.61-3.66.61-1.98,0-4.07-.33-6.13-.89-1.91-.51-3.81-1.21-5.57-2.02l-2.54,6.77ZM1284.77,589.88c-1.44-1.38-2.16-3.32-2.16-5.44s.72-4.07,2.16-5.44c1.3-1.24,3.16-2,5.58-2s4.22.74,5.52,1.95l.06.05c1.44,1.38,2.16,3.32,2.16,5.44s-.72,4.06-2.16,5.44c-1.3,1.24-3.16,2-5.58,2s-4.28-.76-5.58-2ZM1284.77,584.44c0,1.56.49,2.94,1.48,3.89.91.87,2.27,1.4,4.1,1.4s3.19-.53,4.1-1.4c.99-.95,1.48-2.33,1.48-3.89s-.49-2.94-1.48-3.88l-.05-.05c-.9-.84-2.25-1.35-4.05-1.35s-3.19.53-4.1,1.4c-.99.95-1.48,2.33-1.48,3.89ZM1297.36,596.15v35.27c0,.6-.48,1.08-1.08,1.08h-11.93c-.59,0-1.08-.48-1.08-1.08v-35.27c0-.6.48-1.08,1.08-1.08h11.93c.59,0,1.08.48,1.08,1.08ZM1295.2,630.34v-33.11h-9.77v33.11h9.77ZM1243.17,605.66c-.76-.7-1.97-1.11-3.74-1.11-1.46,0-2.59.41-3.41,1.25-.68.7-1.18,1.73-1.51,3.1h9.84c-.02-1.35-.37-2.49-1.18-3.24ZM1239.43,602.38c2.36,0,4.05.63,5.21,1.7,1.32,1.22,1.87,2.95,1.87,4.95,0,.25,0,.59-.09,1.13-.09.53-.55.9-1.06.9h-12.15c-.6,0-1.08-.48-1.08-1.08l.02-.21c.37-2.43,1.14-4.24,2.32-5.47,1.25-1.3,2.9-1.91,4.96-1.91ZM1257.11,614.01c-.1,1.43-.25,2.7-.37,3.42-.07.53-.52.94-1.07.94h-21.15c.34,1.22.89,2.05,1.71,2.56,1.15.73,2.92.98,5.39.98,1.49,0,3.09-.18,4.74-.5,1.7-.34,3.45-.84,5.2-1.48l.09-.03c.57-.15,1.17.19,1.32.76l2.4,8.88c.17.53-.1,1.11-.63,1.32-1.95.79-4.36,1.51-7.02,2-2.37.44-4.93.71-7.51.71-6.69,0-11.64-1.87-15-5.14-3.61-3.51-5.33-8.6-5.33-14.68,0-5.69,1.76-10.85,5.34-14.49,3.25-3.3,7.96-5.32,14.18-5.32,5.71,0,10.01,1.63,12.96,4.31,3.29,2.98,4.87,7.24,4.87,11.99,0,1.19-.06,2.52-.15,3.74ZM1254.74,616.21c.08-.65.16-1.47.22-2.36.09-1.16.15-2.44.15-3.59,0-4.16-1.36-7.85-4.17-10.4-2.57-2.33-6.38-3.74-11.51-3.74-5.6,0-9.8,1.78-12.65,4.67-3.16,3.21-4.71,7.84-4.71,12.98,0,5.5,1.5,10.05,4.67,13.14,2.95,2.87,7.41,4.52,13.5,4.52,2.46,0,4.89-.25,7.12-.67,2.11-.39,4.05-.93,5.71-1.54l-1.86-6.87c-1.49.5-2.97.9-4.42,1.18-1.79.36-3.53.54-5.16.54-2.87,0-4.99-.34-6.54-1.32-1.64-1.04-2.56-2.71-2.94-5.31-.09-.59.32-1.14.92-1.22h21.68ZM1185.06,595.07h12.15c.6,0,1.08.48,1.08,1.08v.73c0,.13-.03.26-.07.38l-13,34.46c-.13.45-.55.78-1.04.78h-13.47c-.43,0-.84-.27-1.01-.7l-13-34.46c-.06-.14-.1-.29-.1-.46v-.73c0-.6.48-1.08,1.08-1.08h12.08c.46,0,.88.29,1.02.75l6.65,20.67,6.56-20.57c.1-.49.54-.85,1.06-.85ZM1195.92,597.22h-10.08l-7.3,22.88c-.15.46-.57.75-1.02.75h-.15c-.51,0-.94-.35-1.05-.83l-7.34-22.8h-10.01l12.49,33.11h11.98l12.49-33.11ZM1114.96,578.38h12.44c.59,0,1.08.48,1.08,1.08v.66c0,.23-.08.46-.23.66l-8.29,10.69c-.19.29-.53.49-.9.49h-10.54c-.6,0-1.08-.48-1.08-1.08v-.73c0-.19.05-.38.15-.56l6.42-10.65c.18-.33.54-.56.94-.56ZM1125.71,580.54h-10.14l-5.58,9.25h8.55l7.18-9.25ZM1129.49,599.24c3.77,3.65,5.57,8.85,5.57,14.54s-1.8,10.88-5.57,14.53c-3.37,3.27-8.28,5.28-14.83,5.28s-11.44-2.03-14.87-5.33c-3.79-3.65-5.68-8.82-5.68-14.48s1.89-10.83,5.68-14.48c3.43-3.3,8.38-5.33,14.87-5.33s11.46,2.01,14.83,5.28ZM1132.9,613.78c0-5.13-1.59-9.77-4.91-13-2.97-2.88-7.38-4.66-13.33-4.66s-10.34,1.8-13.37,4.72c-3.35,3.22-5.01,7.84-5.01,12.93s1.67,9.71,5.01,12.93c3.03,2.92,7.49,4.72,13.37,4.72s10.36-1.78,13.33-4.66c3.32-3.22,4.91-7.87,4.91-12.99ZM1110.13,607.69c-1.01,1.28-1.63,3.26-1.63,6.09s.62,4.81,1.63,6.09c1.09,1.38,2.71,1.98,4.53,1.98s3.37-.56,4.4-1.85l.04-.06c.99-1.28,1.57-3.28,1.57-6.15s-.58-4.88-1.57-6.16c-1.03-1.33-2.59-1.91-4.45-1.91s-3.44.6-4.53,1.98ZM1106.34,613.78c0-3.34.79-5.77,2.1-7.42,1.55-1.96,3.76-2.81,6.22-2.81s4.66.83,6.15,2.75c1.28,1.65,2.03,4.09,2.03,7.47s-.74,5.82-2.03,7.48l-.06.07c-1.49,1.86-3.61,2.68-6.09,2.68s-4.67-.85-6.22-2.81c-1.31-1.66-2.1-4.08-2.1-7.42ZM1008.29,631.41v-35.27c0-.6.48-1.08,1.08-1.08h9.88c.44,0,.85.27,1.01.71l.71,1.93c.86-.75,1.9-1.5,3.16-2.13,1.88-.93,4.25-1.6,7.26-1.6,2.76,0,5.07.46,6.99,1.37,1.57.75,2.85,1.79,3.88,3.13.86-.86,2-1.8,3.54-2.59,2.1-1.08,4.94-1.9,8.79-1.9,4.43,0,7.78,1.58,10.08,4.22,2.46,2.83,3.66,6.85,3.66,11.42v21.81c0,.6-.48,1.08-1.08,1.08h-12c-.6,0-1.08-.48-1.08-1.08v-21.07c0-1.63-.26-2.86-.87-3.62-.56-.71-1.49-1.08-2.88-1.08-1.15,0-2.18.34-3.07.81-.73.39-1.39.88-1.97,1.37.08.48.12,1.01.12,1.72v21.88c0,.6-.48,1.08-1.08,1.08h-12c-.59,0-1.08-.48-1.08-1.08v-21.07c0-1.57-.33-2.77-1.03-3.54-.64-.7-1.66-1.09-3.08-1.09-1.15,0-2.09.29-2.88.73-.69.37-1.31.87-1.89,1.38v23.59c0,.6-.48,1.08-1.08,1.08h-12c-.59,0-1.08-.48-1.08-1.08ZM1010.45,597.22v33.11h9.84v-23c0-.34.16-.64.4-.84.76-.69,1.6-1.39,2.63-1.96,1.09-.59,2.36-.99,3.91-.99,2.07,0,3.62.63,4.68,1.8,1.08,1.19,1.6,2.89,1.6,4.99v19.99h9.84v-20.8c0-.85-.06-1.37-.19-1.86-.1-.4.04-.8.32-1.06.78-.71,1.73-1.47,2.86-2.07,1.17-.62,2.53-1.06,4.08-1.06,2.12,0,3.6.66,4.58,1.91.93,1.18,1.33,2.85,1.33,4.95v19.99h9.84v-20.73c0-4.06-1.03-7.59-3.13-10.01-1.89-2.17-4.69-3.47-8.45-3.47-3.47,0-5.97.72-7.8,1.66-1.81.93-2.97,2.1-3.75,3-.21.25-.52.38-.82.38h-.15c-.42,0-.78-.23-.96-.58-.91-1.47-2.12-2.57-3.67-3.31-1.61-.77-3.62-1.16-6.06-1.16-2.63,0-4.68.57-6.3,1.38-1.61.8-2.8,1.84-3.68,2.75-.21.22-.49.33-.77.33h-.15c-.49,0-.9-.32-1.03-.76l-.97-2.6h-8.05ZM967.86,589.88c-1.44-1.38-2.16-3.32-2.16-5.44s.72-4.07,2.16-5.44c1.3-1.24,3.16-2,5.58-2s4.22.74,5.52,1.95l.06.05c1.44,1.38,2.16,3.32,2.16,5.44s-.71,4.06-2.16,5.44c-1.3,1.24-3.16,2-5.58,2s-4.28-.76-5.58-2ZM967.86,584.44c0,1.56.49,2.94,1.48,3.89.91.87,2.27,1.4,4.1,1.4s3.19-.53,4.1-1.4c.99-.95,1.48-2.33,1.48-3.89s-.49-2.94-1.48-3.88l-.05-.05c-.91-.84-2.25-1.35-4.05-1.35s-3.19.53-4.1,1.4c-.99.95-1.48,2.33-1.48,3.89ZM980.45,596.15v35.27c0,.6-.48,1.08-1.08,1.08h-11.93c-.6,0-1.08-.48-1.08-1.08v-35.27c0-.6.48-1.08,1.08-1.08h11.93c.59,0,1.08.48,1.08,1.08ZM978.29,630.34v-33.11h-9.77v33.11h9.77Z"/>
    </g>
  </g>
</svg>