<?xml version="1.0" encoding="UTF-8"?>
<svg id="Camada_2" data-name="Camada 2" xmlns="http://www.w3.org/2000/svg" viewBox="0 0 352.72 148.92">
  <defs>
    <style>
      .cls-1 {
        fill: #044224;
        stroke-width: 0px;
      }
    </style>
  </defs>
  <g id="Layer_1" data-name="Layer 1">
    <g>
      <polygon class="cls-1" points="144.04 0 148.7 3.94 122.23 62.95 90.51 133.67 25.05 3.93 25.13 3.94 29.78 0 0 0 6.46 3.94 81.63 148.92 89.82 148.92 128.6 62.95 155.21 3.94 161.67 0 144.04 0"/>
      <polygon class="cls-1" points="352.72 148.92 346.27 144.98 332.64 118.16 316.31 86.04 272.58 0 263.46 0 232.76 68.24 198.08 0 188.96 0 144.93 97.63 123.57 144.98 117.12 148.92 134.43 148.92 129.77 144.98 129.77 144.98 151.19 97.63 188.45 15.25 224.17 84.66 224.88 86.04 255.24 144.98 255.24 144.98 250.59 148.92 278.26 148.92 271.8 144.98 250.21 102.45 261.68 125.13 241.84 86.04 236.08 74.71 262.95 15.25 299.46 86.04 329.67 145.01 325.05 148.92 352.72 148.92"/>
    </g>
  </g>
</svg>