<?xml version="1.0" encoding="UTF-8"?>
<svg id="Camada_2" data-name="Camada 2" xmlns="http://www.w3.org/2000/svg" viewBox="0 0 844.96 297.33">
  <defs>
    <style>
      .cls-1 {
        fill: #fff;
        stroke-width: 0px;
      }
    </style>
  </defs>
  <g id="Layer_1" data-name="Layer 1">
    <g>
      <g>
        <polygon class="cls-1" points="86.51 123.67 81.19 123.68 45.42 4.35 0 4.42 53.92 162.27 113.02 162.19 166.49 4.16 122.16 4.23 86.51 123.67"/>
        <path class="cls-1" d="M229.16,4.07l-51.98,158.02,43.53-.07,13.34-41.69,47.7-.07,13.23,41.65,44.38-.07L286.91,3.98l-57.75.09ZM235.08,117.12l22.82-71.29,22.83,71.22-45.65.07Z"/>
        <polygon class="cls-1" points="418.93 3.78 376.83 3.85 377.06 161.79 491.28 161.61 491.21 117.92 419.1 118.03 418.93 3.78"/>
        <path class="cls-1" d="M587.35,36.43c16.3-.02,26.71,8.11,28.91,22.45l44.21-.07C657.23,21.31,630.19-.07,585.77,0c-35.94.05-61.02,16.12-60.98,39.04.03,16.69,13.27,28.31,41.53,36.29,6.16,2.06,37.77,13.46,37.77,13.46,3.68,1.39,7.08,3.53,9.61,6.54,3.05,3.63,4.7,7.84,4.71,12.86.02,13.31-10.54,21.26-28.27,21.28-17.17.03-27.9-8.9-30.42-25.24l-42.08.06c2.85,38.13,30.97,60.74,75.83,60.67,38.37-.06,65.16-16.98,65.13-41.15-.02-15.94-12.83-25.1-34.26-33-3.05-1.12-32.81-10.59-47.3-15.8-6.3-2.26-11.57-6.87-14.27-13-.76-1.73-1.27-3.46-1.27-5.02-.02-12.87,9.65-20.56,25.87-20.58Z"/>
        <path class="cls-1" d="M792.5,3.22l-57.75.09-51.98,158.02,43.53-.07,13.34-41.69,47.62-.07,13.31,41.65,44.38-.07L792.5,3.22ZM740.67,116.36l22.82-71.29,22.76,71.22-45.57.07Z"/>
      </g>
      <g>
        <path class="cls-1" d="M280.8,253.75v17.69h23.41v-17.69h6.38v42.8h-6.38v-19.38h-23.41v19.38h-6.38v-42.8h6.38Z"/>
        <path class="cls-1" d="M383.11,274.89c0,12.88-9.3,22.44-22.76,22.44s-22.76-8.91-22.76-22.44c0-12.42,10.02-21.92,22.76-21.92s22.76,9.5,22.76,21.92ZM344.22,274.89c0,10.67,7.03,16.72,16.13,16.72s16.13-6.05,16.13-16.72c0-9.69-6.96-16.2-16.13-16.2s-16.13,6.51-16.13,16.2Z"/>
        <path class="cls-1" d="M421.7,272.22c-1.11-1.76-5.73-10.08-5.73-10.08l-.19.07s.72,9.1.72,11.32v23.02h-6.38v-42.8h6.89l15.48,25.11h.13l15.48-25.11h6.89v42.8h-6.38v-23.02c0-2.21.72-11.32.72-11.32l-.19-.07s-4.62,8.33-5.73,10.08l-10.02,16.26h-1.69l-10.02-16.26Z"/>
        <path class="cls-1" d="M491.95,277.23v13.59h25.82v5.72h-32.19v-42.8h30.89v5.72h-24.52v12.42h21.92v5.33h-21.92Z"/>
        <path class="cls-1" d="M540.81,293.56l2.15-5.46c3.38,1.62,8.78,3.51,14.11,3.51,7.41,0,10.92-3.38,10.92-7.68,0-1.95-.97-3.58-2.6-4.55-1.69-1.04-4.81-1.63-8.78-2.08-4.55-.52-7.87-1.24-10.53-2.67-4.04-2.14-5.53-5.59-5.53-9.3,0-6.96,6.63-12.36,16.32-12.36,6.05,0,10.8,1.24,14.77,3.12l-2.08,5.34c-3.06-1.3-8.26-2.73-12.69-2.73-7.48,0-9.95,3.45-9.95,6.64,0,1.63.65,3.19,2.73,4.42,1.69.97,4.3,1.3,8.26,1.82,4.16.59,8.13,1.37,10.47,2.67,3.9,2.14,5.73,5.33,5.73,9.69,0,7.54-6.38,13.4-16.98,13.4-6.89,0-11.9-1.37-16.33-3.77Z"/>
      </g>
    </g>
  </g>
</svg>