<?xml version="1.0" encoding="UTF-8"?>
<svg id="Camada_2" xmlns="http://www.w3.org/2000/svg" viewBox="0 0 679.88 83.33">
  <defs>
    <style>
      .cls-1 {
        fill: #fff;
      }
    </style>
  </defs>
  <g id="Camada_2-2" data-name="Camada_2">
    <g id="Camada_1-2">
      <g>
        <path class="cls-1" d="M598.88,8c.17,22.81,0,45.65.2,68.49.07,4.48-1.3,5.61-5.71,5.74-4.72.1-5.1-1.98-5.1-5.71.14-18.53.07-37.07.07-55.63-.55-.1-1.13-.2-1.67-.31-2.12,5.91-4.27,11.8-6.36,17.71-4.55,13.06-9.2,26.09-13.44,39.29-1.27,3.93-3.39,4.44-6.94,4.58-3.73.17-5.2-1.3-6.29-4.61-5.82-17.57-11.8-35.12-17.81-52.62-.65-1.88-.55-4.24-2.84-5.47-1.33,2.25-.72,4.58-.72,6.8-.07,17.06-.2,34.16.07,51.22.07,4.48-2.02,4.65-5.44,4.65s-5.44-.24-5.4-4.69c.2-23.9.14-47.8.03-71.67,0-3.14.72-4.48,4.24-4.58,12.07-.48,12.07-.61,15.83,10.74,6.16,18.53,12.31,37.03,18.53,55.77,2.8-1.5,2.67-4.1,3.39-6.19,6.46-18.5,13.03-36.93,19.11-55.56,2.6-7.97,8.62-4.1,13.16-4.52,5.23-.48,3.08,4.17,3.08,6.57h0Z"/>
        <path class="cls-1" d="M348.66,8.21c.2,22.84.03,45.68.2,68.52,0,3.97-.82,5.54-5.23,5.47-4.1-.1-5.44-1.06-5.4-5.37.24-18.98.1-37.95.1-56.93-.48-.1-.99-.17-1.47-.24-4.24,12.17-8.51,24.34-12.76,36.52-2.53,7.21-5.33,14.4-7.46,21.75-1.09,3.86-3.28,4.07-6.53,4.21-3.52.14-5.27-.89-6.43-4.38-6.12-18.64-12.48-37.13-18.81-55.7-.31-.92-.72-1.85-1.47-3.73-1.85,2.87-1.33,5.16-1.33,7.25-.07,17.1-.14,34.16.03,51.22.07,4.07-.95,5.4-5.23,5.4-4.27-.03-5.33-1.3-5.3-5.44.17-23.25.17-46.5-.03-69.79-.03-4.31.86-5.91,5.54-5.82,10.8.24,10.8-.03,14.26,10.26,6.25,18.77,12.51,37.54,18.84,56.45,2.22-.65,2.08-2.53,2.56-3.93,6.7-19.32,13.61-38.57,19.93-58.02,2.63-8.14,8.72-4.03,13.2-4.38,5.03-.41,2.74,4.35,2.77,6.67h0Z"/>
        <path class="cls-1" d="M397.83,0c-21.92-.14-37.27,17.06-37.54,42.06-.27,23.63,16.14,41.2,38.57,41.27,22.87.1,38.84-16.96,38.88-41.48C437.79,16.68,422,.14,397.83,0h0ZM405.62,73.28c-14.98,3.49-28.58-4.48-32.62-19.28-2.36-8.62-2.05-17.3.61-25.85,3.83-12.17,12.62-18.81,25.03-19.01,11.83-.2,21.09,6.29,25.34,17.81,1.78,4.86,2.56,9.88,2.5,15.04-.03,16.72-7.73,28.24-20.86,31.29h0Z"/>
        <path class="cls-1" d="M509.7,77.27c.03,5.06-2.56,4.79-5.95,4.79-16.41-.07-32.86-.17-49.27.03-4.07.07-5.54-.92-5.4-5.23.27-11.73.1-23.45.1-35.18s.07-23.49-.07-35.22c-.07-3.52.38-5.33,4.72-5.27,16.41.27,32.86.2,49.27,0,3.9-.03,4.52,1.47,4.52,4.89s-.86,4.89-4.61,4.82c-12.59-.2-25.2.07-37.75-.14-4-.07-5.85.86-5.47,5.3.41,4.65.41,9.4,0,14.05-.41,4.75,1.57,5.64,5.85,5.57,11.29-.27,22.6.03,33.92-.17,3.73-.07,5.13.78,5.2,4.89.03,4.41-1.91,4.72-5.4,4.69-11.49-.17-23.01.1-34.54-.17-3.97-.07-5.23,1.13-5.03,5.06.31,5.95.31,11.93,0,17.92-.17,3.76,1.33,4.69,4.82,4.65,12.99-.17,26.02-.03,39.01-.1,3.35,0,6.05-.24,6.08,4.82h-.01Z"/>
        <path class="cls-1" d="M236.92,82.03c-2.84,0-4.75-.24-6.6.03-4.27.61-6.26-.99-7.8-5.16-7.9-21.54-16.21-42.95-24.58-64.93-2.43,7.01-4.69,13.64-7.04,20.24-4.92,13.61-9.95,27.15-14.91,40.72-3.45,9.54-3.42,9.54-14.53,8.72,2.53-6.63,4.99-13.06,7.46-19.49,7.28-19.04,14.67-38.09,21.85-57.21,1.13-2.97,2.7-4.21,5.64-3.63,2.97.58,6.8-1.91,8.72,2.87,10.36,25.61,20.89,51.19,31.8,77.82h0Z"/>
        <path class="cls-1" d="M679.88,81.07c-11.29,2.53-11.35,2.56-15.25-7.8-7.25-19.11-14.43-38.23-21.58-57.38-.44-1.16-.58-2.5-1.91-3.01-7.25,20.04-14.46,39.97-21.64,59.94-3.45,9.61-3.42,9.61-13.92,8.85-.72-1.71.41-3.14.96-4.61,9.06-23.66,18.23-47.29,27.15-70.98,1.33-3.45,2.8-5.23,6.77-4.89,3.76.31,6.94-.31,8.89,4.72,9.88,25.17,20.28,50.09,30.53,75.16h.01Z"/>
        <path class="cls-1" d="M73.52,1.75c-10.19,26.12-20.21,51.66-30.02,77.24-1.71,4.44-5.13,2.63-8,3.04-3.11.44-4.89-.52-6.12-3.83C21.03,56.11,12.42,34.13,3.9,12.08,2.6,8.76,1.34,5.41,0,1.95c7.41-1.14,12.24,1.45,14.49,7.76,7.29,20.41,14.6,40.86,22.09,61.79,7.76-20.96,15.32-41.44,22.91-61.96,3.25-8.82,3.28-8.82,14.02-7.8h0Z"/>
        <path class="cls-1" d="M160.23,77.41c.1,4.41-1.91,4.72-5.37,4.69-13.44-.14-26.84-.27-40.28.07-4.72.1-5.61-1.64-5.5-5.88.27-11.49.1-23.01.1-34.54s.27-23.87-.14-35.76c-.17-5.2,2.67-4.61,5.99-4.75,3.45-.17,5.4.2,5.37,4.65-.24,20.04.1,40.07-.24,60.07-.1,5.5,1.64,6.84,6.8,6.6,9.37-.41,18.77.03,28.14-.17,3.86-.1,5.03,1.06,5.13,5.03Z"/>
        <path class="cls-1" d="M93.14,77.38c.2,5.27-2.77,4.52-6.02,4.72-3.69.27-5.2-.58-5.16-4.79.2-23.9.24-47.8,0-71.7-.07-4.86,2.53-4.31,5.57-4.38,3.21-.07,5.71-.2,5.61,4.48-.31,11.93-.1,23.9-.1,35.83s-.27,23.9.1,35.83h0Z"/>
      </g>
    </g>
  </g>
</svg>