<?xml version="1.0" encoding="utf-8"?>
<!-- Generator: Adobe Illustrator 24.0.2, SVG Export Plug-In . SVG Version: 6.00 Build 0)  -->
<svg version="1.1" id="Camada_1" xmlns="http://www.w3.org/2000/svg" xmlns:xlink="http://www.w3.org/1999/xlink" x="0px" y="0px"
	 viewBox="0 0 106 90" style="enable-background:new 0 0 106 90;" xml:space="preserve">
<style type="text/css">
	.st0{fill:#0F3F46;}
</style>
<path class="st0" d="M41,0h8.1L28,60.8h-7.5L0,0h8l16.3,48.3L41,0z"/>
<path class="st0" d="M60,44.2L53.1,51V18.8H60V44.2L60,44.2z M61,7c0,2.5-2,4.4-4.5,4.4c-2.5,0-4.4-1.9-4.4-4.5s1.9-4.5,4.5-4.5
	S61,4.5,61,7z"/>
<path class="st0" d="M102.1,54.7v6.1H53.1l33.7-35.9H65.1v-6.1h37.1L68.7,54.7H102.1z"/>
<path class="st0" d="M105.9,71.1H7v0.6h98.9V71.1z"/>
<path class="st0" d="M16.3,80.9h-0.7v8.9h0.7V80.9z"/>
<path class="st0" d="M23.6,80.9h0.6l3.6,5.3l3.6-5.3H32v8.9h-0.7v-7.8l-3.5,5.2h-0.1l-3.6-5.2v7.8h-0.6V80.9z"/>
<path class="st0" d="M44.2,78.4l0.8,0.4l-1.4,1.1H43L44.2,78.4z M47.1,85.4L47.1,85.4c0-2.2-1.6-4.1-3.8-4.1c-2.2,0-3.8,1.8-3.8,4v0
	c0,2.2,1.6,4,3.8,4C45.5,89.4,47.1,87.6,47.1,85.4z M38.8,85.4L38.8,85.4c0-2.5,1.8-4.7,4.5-4.7c2.7,0,4.5,2.2,4.5,4.6v0
	c0,2.5-1.8,4.6-4.5,4.6C40.5,90,38.8,87.8,38.8,85.4z"/>
<path class="st0" d="M53.3,80.9H54l3.5,8.2l3.5-8.2h0.7l-3.9,9h-0.6L53.3,80.9z"/>
<path class="st0" d="M68.1,80.9h6.4v0.6h-5.7V85h5.1v0.6h-5.1v3.6h5.8v0.6h-6.4V80.9z"/>
<path class="st0" d="M81.9,80.9h-0.7v8.9h0.7V80.9z"/>
<path class="st0" d="M88.6,88.5L89,88c1,0.9,1.9,1.3,3.2,1.3c1.3,0,2.3-0.8,2.3-1.8v0c0-0.9-0.5-1.5-2.5-1.9c-2.2-0.4-3-1.1-3-2.5v0
	c0-1.3,1.2-2.4,2.9-2.4c1.3,0,2.2,0.4,3.1,1.1l-0.4,0.5c-0.9-0.7-1.7-1-2.7-1c-1.3,0-2.2,0.8-2.2,1.7v0c0,1,0.5,1.5,2.6,2
	c2.1,0.4,2.9,1.1,2.9,2.5v0c0,1.4-1.3,2.5-3,2.5C90.7,90,89.7,89.5,88.6,88.5L88.6,88.5z"/>
</svg>
