<?xml version="1.0" encoding="UTF-8"?>
<svg id="Camada_2" data-name="Camada 2" xmlns="http://www.w3.org/2000/svg" viewBox="0 0 822.53 144.06">
  <defs>
    <style>
      .cls-1 {
        fill: #fff;
      }
    </style>
  </defs>
  <g id="Layer_1" data-name="Layer 1">
    <g>
      <g>
        <path class="cls-1" d="M505.54,90.76c0,.39-.39.78-.78.78h-4.16c-.39,0-.78-.39-.78-.78v-15.09h-26.93v15.09c0,.39-.39.78-.78.78h-4.16c-.39,0-.78-.39-.78-.78v-37.46c0-.39.39-.78.78-.78h4.16c.39,0,.78.39.78.78v17.43h26.93v-17.43c0-.39.39-.78.78-.78h4.16c.39,0,.78.39.78.78v37.46Z"/>
        <path class="cls-1" d="M589.05,72.03c0,12.62-9.43,20.16-21.07,20.16s-21.07-7.55-21.07-20.16,9.5-20.16,21.07-20.16,21.07,7.55,21.07,20.16ZM552.63,72.03c0,9.49,6.96,15.22,15.35,15.22s15.35-5.72,15.35-15.22-6.76-15.22-15.35-15.22-15.35,5.59-15.35,15.22Z"/>
        <path class="cls-1" d="M673.72,52.52c.39,0,.78.39.78.78v37.46c0,.39-.39.78-.78.78h-4.16c-.39,0-.78-.39-.78-.78v-28.16h-.19s-.85,2.21-2.28,4.23l-13.85,19.77-13.85-19.77c-1.43-2.02-2.28-4.23-2.28-4.23h-.2v28.16c0,.39-.39.78-.78.78h-4.16c-.39,0-.78-.39-.78-.78v-37.46c0-.39.39-.78.78-.78h2.67c.46,0,.91.19,1.24.65l17.3,24.58h.13l17.3-24.58c.33-.46.78-.65,1.23-.65h2.67Z"/>
        <path class="cls-1" d="M723.93,73.85v12.75h24.71c.39,0,.91.52.91.91v3.12c0,.39-.52.91-.91.91h-29.66c-.39,0-.78-.39-.78-.78v-37.46c0-.39.39-.78.78-.78h29.01c.39,0,.91.52.91.91v3.12c0,.39-.52.91-.91.91h-24.06v11.45h22.11c.39,0,.91.52.91.91v3.12c0,.39-.52.91-.91.91h-22.11Z"/>
        <path class="cls-1" d="M792.74,78.4c.71,0,.91.33.91.91,0,4.81,3.38,7.93,12.23,7.93,8.06,0,10.93-3.38,10.93-7.48,0-2.34-1.36-4.81-6.63-5.2l-10.86-.78c-7.87-.65-11.38-4.16-11.38-9.63,0-5.92,5.14-12.29,16.52-12.29,12.1,0,16.46,5.53,16.46,12.23,0,.32-.26.65-.98.65h-3.84c-.65,0-.91-.19-.97-1.11-.33-3.38-3.06-6.83-10.67-6.83-6.7,0-10.8,3.18-10.8,7.35,0,2.34,1.56,4.36,6.18,4.68l10.67.78c8.91.72,12.03,5.07,12.03,10.15s-4.42,12.42-16.65,12.42-17.95-5.59-17.95-12.42v-.65c0-.45.2-.72.78-.72h4.03Z"/>
      </g>
      <g>
        <path class="cls-1" d="M104.79,20.9l-33.88,60.05v44.64c0,4.06.23,7,.71,8.82.47,1.83,1.79,2.98,3.96,3.45,2.16.48,5.75.91,10.75,1.32.13,1.35.13,2.71,0,4.06-2.03,0-4.53-.03-7.51-.1-2.98-.07-5.92-.13-8.83-.2-2.91-.07-5.31-.1-7.2-.1s-4.3.03-7.2.1c-2.91.07-5.85.13-8.83.2-2.98.07-5.48.1-7.51.1-.14-1.35-.14-2.7,0-4.06,5-.41,8.55-.84,10.65-1.32,2.1-.47,3.41-1.45,3.96-2.94.54-1.49.81-3.99.81-7.51v-45.04L19.98,19.88c-2.43-4.46-4.36-7.67-5.78-9.64-1.42-1.96-3.11-3.28-5.07-3.96-1.96-.68-4.97-1.15-9.03-1.42C-.03,3.52-.03,2.16.1.81h44.63c.13,1.35.13,2.71,0,4.06-4.19.14-7.17.51-8.93,1.12-1.76.61-2.64,1.66-2.64,3.15,0,1.22.95,3.52,2.84,6.9l31.65,57.42,31.65-57.42c.95-1.62,1.65-2.94,2.13-3.96.47-1.01.71-1.86.71-2.54,0-1.49-1.05-2.54-3.14-3.15-2.1-.61-5.58-1.11-10.45-1.52-.14-1.35-.14-2.7,0-4.06h37.74c.13,1.35.13,2.71,0,4.06-4.06.27-7.17.75-9.33,1.42-2.16.68-4.06,2.1-5.68,4.26-1.62,2.17-3.79,5.62-6.49,10.35Z"/>
        <path class="cls-1" d="M285.12.81c.13,1.35.13,2.71,0,4.06-4.87.27-8.49.75-10.86,1.42-2.37.68-4.23,2.13-5.58,4.36-1.35,2.23-2.97,5.85-4.87,10.86l-45.65,121.33c-.95.41-6.63,1.22-7.71,1.22l-46.06-123.77c-1.76-4.73-3.25-8.11-4.47-10.14-1.22-2.03-2.94-3.35-5.17-3.96-2.23-.61-5.85-1.05-10.86-1.32-.14-1.35-.14-2.7,0-4.06h47.48c.13,1.35.13,2.71,0,4.06-5.41.41-8.93.85-10.55,1.32-1.62.48-2.43,1.66-2.43,3.55,0,.68.13,1.52.41,2.54.27,1.02.68,2.27,1.22,3.75l38.95,106.52,37.74-104.29c1.35-3.65,2.03-6.29,2.03-7.91,0-2.16-1.05-3.51-3.14-4.06-2.1-.54-5.79-1.01-11.06-1.42-.14-1.35-.14-2.7,0-4.06h40.58Z"/>
        <path class="cls-1" d="M274.95,143.24c-.14-1.35-.14-2.7,0-4.06,4.46-.41,7.81-.91,10.04-1.52,2.23-.61,4.02-2.03,5.38-4.26,1.35-2.23,2.91-5.85,4.67-10.86L340.08,1.22c1.08-.41,6.76-1.22,7.71-1.22l45.45,123.76c1.76,4.74,3.21,8.11,4.36,10.14,1.15,2.03,2.81,3.32,4.97,3.85,2.16.54,5.55,1.02,10.14,1.42.14,1.35.14,2.71,0,4.06h-45.25c-.14-1.35-.14-2.7,0-4.06,4.74-.41,7.88-.84,9.43-1.32,1.56-.47,2.34-1.65,2.34-3.55,0-.68-.14-1.52-.41-2.54-.27-1.01-.68-2.26-1.22-3.75l-14-39.16h-48.29l-13.19,36.93c-1.35,3.65-2.03,6.29-2.03,7.91,0,2.17,1.02,3.52,3.04,4.06,2.03.54,5.34,1.02,9.94,1.42.13,1.35.13,2.71,0,4.06h-38.14ZM317.56,82.58h43.62l-21.91-61.07-21.71,61.07Z"/>
      </g>
    </g>
  </g>
</svg>