<?xml version="1.0" encoding="UTF-8"?><svg id="a" xmlns="http://www.w3.org/2000/svg" viewBox="0 0 314.43 314.43"><defs><style>.b{fill:#575756;}.c{fill:#e20613;}</style></defs><path class="b" d="M157.21,314.43C70.53,314.43,0,243.9,0,157.22S70.53,0,157.21,0s157.21,70.53,157.21,157.22-70.53,157.21-157.21,157.21Zm0-308.86C73.6,5.57,5.57,73.6,5.57,157.22s68.03,151.64,151.65,151.64,151.65-68.03,151.65-151.64S240.83,5.57,157.21,5.57Z"/><polygon class="b" points="137.53 284.47 131.96 284.47 131.96 58.56 84.22 163.66 79.15 161.35 137.53 32.85 137.53 284.47"/><rect class="c" x="153.99" y="29.96" width="5.57" height="254.18"/><polygon class="b" points="182.47 284.47 176.9 284.47 176.9 32.85 235.28 161.35 230.21 163.66 182.47 58.56 182.47 284.47"/></svg>