<svg width="100%" height="100%" viewBox="0 0 1207 147" fill="none" xmlns="http://www.w3.org/2000/svg">
<g clip-path="url(#clip0_2168_39735)">
<path d="M712.841 6.26562V143.756H699.681V76.7756H622.301V143.756H609.141V6.26562H622.301V64.5956H699.681V6.26562H712.841Z" fill="currentColor"></path>
<path d="M760.271 138.832C752.741 134.512 746.851 128.462 742.591 120.662C738.331 112.872 736.211 104.072 736.211 94.2419C736.211 84.4119 738.341 75.6119 742.591 67.8219C746.841 60.0319 752.741 53.9819 760.271 49.6519C767.801 45.3319 776.341 43.1719 785.901 43.1719C795.461 43.1719 804.001 45.3719 811.531 49.7519C819.061 54.1419 824.951 60.2019 829.211 67.9219C833.461 75.6519 835.591 84.4219 835.591 94.2419C835.591 104.062 833.461 112.832 829.211 120.562C824.951 128.292 819.061 134.342 811.531 138.732C804.001 143.122 795.451 145.312 785.901 145.312C776.351 145.312 767.801 143.152 760.271 138.832ZM805.061 128.822C810.621 125.412 814.941 120.702 818.021 114.682C821.101 108.662 822.641 101.852 822.641 94.2619C822.641 86.6719 821.101 79.8619 818.021 73.8319C814.941 67.8119 810.621 63.1019 805.061 59.6919C799.491 56.2819 793.111 54.5819 785.911 54.5819C778.711 54.5819 772.321 56.2819 766.761 59.6919C761.191 63.1019 756.871 67.7719 753.801 73.7319C750.721 79.6919 749.181 86.5319 749.181 94.2619C749.181 101.992 750.721 108.832 753.801 114.782C756.881 120.742 761.201 125.422 766.761 128.822C772.321 132.232 778.711 133.932 785.911 133.932C793.111 133.932 799.491 132.232 805.061 128.822Z" fill="currentColor"></path>
<path d="M858.379 44.7653H870.749V65.3853C873.109 58.5753 876.869 53.1753 882.039 49.1853C887.209 45.1953 893.589 43.1953 901.189 43.1953C909.699 43.1953 916.969 45.1253 922.989 48.9953C929.009 52.8553 932.809 58.2553 934.379 65.1953C937.129 58.6453 941.319 53.3453 946.949 49.2853C952.579 45.2253 958.929 43.1953 965.999 43.1953C976.599 43.1953 984.949 46.2753 991.039 52.4253C997.129 58.5753 1000.17 67.0253 1000.17 77.7653V143.755H987.799V79.3353C987.799 71.8753 985.699 65.8853 981.509 61.3653C977.319 56.8453 971.489 54.5853 964.029 54.5853C954.999 54.5853 947.959 58.2853 942.919 65.6853C937.879 73.0853 935.359 82.6753 935.359 94.4553V143.755H922.989V79.3353C922.989 71.7453 920.929 65.7153 916.799 61.2653C912.679 56.8153 906.879 54.5853 899.419 54.5853C890.389 54.5853 883.339 58.2853 878.309 65.6853C873.269 73.0853 870.749 82.6753 870.749 94.4553V143.755H858.379V44.7653Z" fill="currentColor"></path>
<path d="M1028.96 68.0375C1032.95 60.2475 1038.55 54.1575 1045.75 49.7675C1052.95 45.3875 1061.13 43.1875 1070.3 43.1875C1079.47 43.1875 1087.16 45.1575 1094.16 49.0775C1101.16 53.0075 1106.63 58.4375 1110.56 65.3775C1114.49 72.3175 1116.45 80.1775 1116.45 88.9475C1116.45 91.4375 1116.32 93.5975 1116.06 95.4275H1035.53C1035.53 103.017 1037.03 109.738 1040.05 115.558C1043.06 121.388 1047.15 125.908 1052.33 129.107C1057.5 132.317 1063.43 133.917 1070.1 133.917C1078.61 133.917 1085.65 132.018 1091.21 128.217C1096.77 124.417 1100.27 119.048 1101.72 112.107L1113.5 114.467C1111.27 124.287 1106.36 131.887 1098.77 137.247C1091.17 142.618 1081.68 145.307 1070.29 145.307C1061.12 145.307 1052.94 143.117 1045.74 138.727C1038.54 134.337 1032.94 128.257 1028.95 120.457C1024.95 112.667 1022.96 103.928 1022.96 94.2375C1022.96 84.5475 1024.95 75.8075 1028.95 68.0175L1028.96 68.0375ZM1103.69 84.0475C1102.64 75.2775 1099.17 68.1675 1093.28 62.7375C1087.39 57.3075 1079.73 54.5875 1070.3 54.5875C1061.53 54.5875 1054.16 57.2075 1048.2 62.4375C1042.24 67.6775 1038.35 74.8775 1036.51 84.0475H1103.68H1103.69Z" fill="currentColor"></path>
<path d="M1144.05 136.975C1137.3 131.415 1132.82 124.705 1130.6 116.845L1141.6 111.345C1143.96 118.415 1147.42 123.945 1152.01 127.945C1156.59 131.945 1162.88 133.935 1170.87 133.935C1177.42 133.935 1182.82 132.235 1187.07 128.825C1191.32 125.415 1193.45 121.355 1193.45 116.645C1193.45 112.455 1192.27 109.085 1189.91 106.525C1187.55 103.975 1184.67 102.045 1181.27 100.735C1177.86 99.4253 1173.15 98.0553 1167.13 96.6153C1160.19 94.9153 1154.59 93.2153 1150.34 91.5053C1146.08 89.8053 1142.45 87.1153 1139.44 83.4553C1136.43 79.7953 1134.92 74.8853 1134.92 68.7253C1134.92 60.8653 1138.03 54.6553 1144.25 50.0653C1150.47 45.4853 1158.82 43.1953 1169.29 43.1953C1177.67 43.1953 1185.13 45.4553 1191.68 49.9753C1198.23 54.4953 1202.48 60.3553 1204.45 67.5553L1193.65 72.4653C1192.34 67.2353 1189.33 62.9353 1184.62 59.5953C1179.91 56.2553 1174.54 54.5853 1168.51 54.5853C1161.96 54.5853 1156.86 55.7953 1153.19 58.2153C1149.52 60.6353 1147.69 64.1453 1147.69 68.7253C1147.69 71.8653 1148.7 74.3953 1150.73 76.2853C1152.76 78.1853 1155.25 79.6553 1158.19 80.7053C1161.14 81.7553 1165.29 82.9353 1170.66 84.2353C1178.25 86.0653 1184.41 87.9653 1189.12 89.9353C1193.83 91.8953 1197.86 95.0153 1201.2 99.2653C1204.54 103.525 1206.21 109.245 1206.21 116.455C1206.21 125.095 1203 132.065 1196.59 137.365C1190.17 142.665 1181.6 145.325 1170.86 145.325C1160.12 145.325 1150.79 142.545 1144.05 136.975Z" fill="currentColor"></path>
<path d="M268.98 6.45531H198.18V143.745H219.36V92.3553H268.98C298.6 92.3553 317.42 76.0753 317.42 49.5953C317.42 23.1153 298.2 6.44531 268.98 6.44531V6.45531ZM268 73.3353H219.36V25.4853H268C287.02 25.4853 296.24 33.1353 296.24 49.4153C296.24 65.6953 286.83 73.3453 268 73.3453V73.3353Z" fill="currentColor"></path>
<path d="M348.77 39.8047H328.57V143.755H348.77V39.8047Z" fill="currentColor"></path>
<path d="M349.351 0.578125H327.191V21.7581H349.351V0.578125Z" fill="currentColor"></path>
<path d="M387.72 0.578125H367.52V143.758H387.72V0.578125Z" fill="currentColor"></path>
<path d="M452.619 36.8594C439.479 36.8594 428.299 40.1894 419.279 46.6694C410.059 53.1394 404.569 61.9694 402.609 72.7594L421.829 76.8794C424.769 62.7594 436.339 54.1294 452.819 54.1294C467.139 54.1294 476.549 59.8194 476.549 68.6394C476.549 75.6994 469.489 79.4294 448.309 82.7594C415.359 87.6594 402.609 97.0794 402.609 115.709C402.609 134.339 417.319 146.699 441.049 146.699C457.329 146.699 471.649 140.819 478.509 131.209H478.899V143.759H497.919V72.9594C497.919 50.7994 480.269 36.8694 452.609 36.8694L452.619 36.8594ZM478.119 106.689C478.119 118.649 462.429 129.049 444.779 129.049C429.289 129.049 422.419 124.729 422.419 115.119C422.419 106.489 430.659 101.779 451.839 98.0594C468.309 95.1194 475.179 92.3694 477.729 87.6594H478.119V106.679V106.689Z" fill="currentColor"></path>
<path d="M563.49 38.0391C552.31 38.0391 542.501 42.5491 535.641 49.8091H535.25V39.8091H516.23V143.759H536.43V86.6891C536.43 67.6691 546.041 57.0691 561.141 57.0691C566.041 57.0691 569.381 57.6591 575.651 59.2291L579.961 40.3991C574.081 38.8291 568.58 38.0491 563.49 38.0491V38.0391Z" fill="currentColor"></path>
<path d="M39.63 6.46094L0 75.1109L39.63 143.761H118.9L158.53 75.1109L118.9 6.46094H39.63ZM105.25 135.041L14.37 82.5809L118.18 22.6409L105.24 135.041H105.25Z" fill="currentColor"></path>
</g>
<defs>
<clipPath id="clip0_2168_39735">
<rect width="1206.22" height="146.12" fill="white" transform="translate(0 0.578125)"></rect>
</clipPath>
</defs>
</svg>